<?xml version="1.0" encoding="UTF-8"?>
<svg id="_레이어_1" data-name="레이어 1" xmlns="http://www.w3.org/2000/svg" viewBox="0 0 92.36 125">
  <defs>
    <style>
      .cls-1 {
        fill: #eb6365;
      }

      .cls-2 {
        fill: #fff;
        opacity: .7;
      }
    </style>
  </defs>
  <path class="cls-1" d="m46.18,0C20.68,0,0,20.68,0,46.18c0,19,11.49,35.31,27.89,42.4l18.29,36.41,18.29-36.41c16.4-7.09,27.89-23.4,27.89-42.4C92.36,20.68,71.68,0,46.18,0Zm0,67.66c-11.86,0-21.47-9.61-21.47-21.47s9.62-21.47,21.47-21.47,21.47,9.61,21.47,21.47-9.61,21.47-21.47,21.47Z"/>
  <path class="cls-2" d="m46.18,24.71c-11.86,0-21.47,9.61-21.47,21.47s9.62,21.47,21.47,21.47,21.47-9.61,21.47-21.47-9.61-21.47-21.47-21.47Z"/>
</svg>