<?xml version="1.0" encoding="UTF-8"?>
<svg id="_레이어_2" data-name="레이어 2" xmlns="http://www.w3.org/2000/svg" viewBox="0 0 128 128">
  <defs>
    <style>
      .cls-1 {
        fill: #6290c0;
        stroke: #6290c0;
        stroke-miterlimit: 10;
      }
    </style>
  </defs>
  <g>
    <path class="cls-1" d="m22.94,124.75c-.24,0-.49-.05-.72-.16-.49-.24-.83-.69-.92-1.23l-2.14-12.84c-.22-1.32-1.35-2.28-2.69-2.28-6.88,0-12.47-5.59-12.47-12.47v-51.59c0-6.88,5.6-12.47,12.47-12.47h46.21c.92,0,1.67.75,1.67,1.67s-.75,1.67-1.67,1.67H16.47c-5.04,0-9.14,4.1-9.14,9.14v51.59c0,5.04,4.1,9.14,9.14,9.14,2.97,0,5.48,2.13,5.97,5.06l1.75,10.51,24.23-13.56c2.35-1.31,5.01-2.01,7.69-2.01h45.07c5.04,0,9.14-4.1,9.14-9.14v-35.24c0-.92.75-1.67,1.67-1.67s1.67.75,1.67,1.67v35.24c0,6.88-5.6,12.47-12.47,12.47h-45.07c-2.12,0-4.21.55-6.06,1.58l-26.3,14.72c-.25.14-.53.21-.81.21Z"/>
    <g>
      <path class="cls-1" d="m58.83,77.66c-4.78,0-8.67-3.89-8.67-8.67s3.89-8.67,8.67-8.67,8.67,3.89,8.67,8.67-3.89,8.67-8.67,8.67Zm0-14.02c-2.94,0-5.34,2.4-5.34,5.34s2.4,5.34,5.34,5.34,5.34-2.4,5.34-5.34-2.4-5.34-5.34-5.34Z"/>
      <path class="cls-1" d="m85.5,77.66c-4.78,0-8.68-3.89-8.68-8.67s3.89-8.67,8.68-8.67,8.67,3.89,8.67,8.67-3.89,8.67-8.67,8.67Zm0-14.02c-2.95,0-5.34,2.4-5.34,5.34s2.4,5.34,5.34,5.34,5.34-2.4,5.34-5.34-2.4-5.34-5.34-5.34Z"/>
      <path class="cls-1" d="m32.15,77.66c-4.78,0-8.67-3.89-8.67-8.67s3.89-8.67,8.67-8.67,8.67,3.89,8.67,8.67-3.89,8.67-8.67,8.67Zm0-14.02c-2.94,0-5.34,2.4-5.34,5.34s2.4,5.34,5.34,5.34,5.34-2.4,5.34-5.34-2.4-5.34-5.34-5.34Z"/>
    </g>
  </g>
  <g>
    <path class="cls-1" d="m96.12,59c-15.37,0-27.88-12.5-27.88-27.87S80.75,3.25,96.12,3.25s27.88,12.5,27.88,27.87-12.51,27.87-27.88,27.87Zm0-52.25c-13.44,0-24.38,10.94-24.38,24.38s10.94,24.38,24.38,24.38,24.38-10.94,24.38-24.38-10.94-24.38-24.38-24.38Z"/>
    <path class="cls-1" d="m122.25,32.87h-52.25c-.97,0-1.75-.78-1.75-1.75s.78-1.75,1.75-1.75h52.25c.97,0,1.75.78,1.75,1.75s-.78,1.75-1.75,1.75Z"/>
    <path class="cls-1" d="m72.56,22.49c-.71,0-1.38-.43-1.64-1.14-.34-.9.12-1.91,1.03-2.25,16.03-5.97,32.29-5.97,48.33,0,.91.34,1.36,1.34,1.03,2.25-.33.91-1.34,1.36-2.24,1.03-15.23-5.66-30.67-5.66-45.9,0-.2.07-.4.11-.61.11Z"/>
    <path class="cls-1" d="m96.12,47.42c-8.07,0-16.13-1.43-24.14-4.29-.91-.32-1.38-1.32-1.06-2.23.32-.91,1.32-1.38,2.23-1.06,15.24,5.44,30.7,5.44,45.94,0,.91-.32,1.91.15,2.23,1.06.32.91-.15,1.91-1.06,2.23-8.01,2.86-16.08,4.29-24.15,4.29Z"/>
    <path class="cls-1" d="m101.46,58.26c-.21,0-.43-.04-.63-.12-.9-.35-1.35-1.36-1-2.26,6.3-16.19,6.3-33.31,0-49.51-.35-.9.09-1.91,1-2.26.89-.35,1.91.1,2.26,1,6.62,17.02,6.62,35.02,0,52.04-.27.69-.93,1.11-1.63,1.11Z"/>
    <path class="cls-1" d="m90.62,58.21c-.69,0-1.35-.42-1.62-1.1-6.36-16.03-6.36-35.95,0-51.97.36-.9,1.38-1.33,2.27-.98.9.36,1.33,1.37.98,2.27-6.05,15.23-6.05,34.16,0,49.39.35.9-.08,1.91-.98,2.27-.21.08-.43.12-.64.12Z"/>
  </g>
</svg>