<?xml version="1.0" encoding="UTF-8"?>
<svg xmlns="http://www.w3.org/2000/svg" xmlns:xlink="http://www.w3.org/1999/xlink" viewBox="0 0 2807 1155">
  <defs>
    <style>
      .cls-1 {
        fill: #fff;
      }

      .cls-2 {
        stroke: #6391c1;
        stroke-miterlimit: 10;
        stroke-width: 2px;
      }

      .cls-2, .cls-3 {
        fill: #d9e9f9;
      }

      .cls-4 {
        clip-path: url(#clippath);
      }

      .cls-5 {
        fill: none;
      }
    </style>
    <clipPath id="clippath">
      <rect class="cls-5" y="-.26" width="2807" height="1155.52"/>
    </clipPath>
  </defs>
  <g id="mapbackground">
    <g class="cls-4">
      <rect class="cls-3" y="-172.24" width="2807" height="1604"/>
      <ellipse class="cls-1" cx="1403.5" cy="934.17" rx="1883.51" ry="912.73"/>
    </g>
  </g>
  <g id="map_point" data-name="map+point">
    <g id="map">
      <g>
        <g>
          <path class="cls-2" d="m1954.9,262.77c5.33,1.59,5.76,4.01,5.91,1.22.08-1.55-.92-1.29-3.78-3.37-10.8-7.85-8.52.23-2.13,2.15Z"/>
          <path class="cls-2" d="m1934.51,275.36c-2.01,3.17,1.12,4.39,4.97,5.78,3.85,1.39,7.63,4.93,6.42,5.87-1.22.95-3.49-.18-9.33.41-5.85.59-6.52-1.65-8.5-2.35-1.98-.7,2.02-2.14-5.38-4.49-14.35-4.58-21.43.1-22.06,9.99-.35,4.65,17.54,7.58,17.69.14.07-3.7,3.67.87,3.54,2.76-.18,2.72,4.28-1.88,12.55-1.86.69,0-5.8,5.71-17.5,7.17-1.33.17,2.06,1.98,8.38,3.04,6.74,1.11,18.78-9.89,25.49-8.35,3.07.69,5.3-1.19,8.43-1.87,3.14-.67,5,.45,4.67-3.94-.36-4.39.52-8.6-4.36-8.88-4.88-.27-5.2-.27-3.87,4.47,1.21,4.34,1.55,2.88-8.01-4.5-2.78-2.15-5.53-5.52-8.38-7.33-2.84-1.81-2.75.77-4.74,3.95Z"/>
          <path class="cls-2" d="m1969.14,230.79c8.68,2.95,8.27,1.57,4.98-3.95-3.28-5.52-7-2.94-10.21-1.91-5.46,1.74-3.41,2.92,5.23,5.86Z"/>
          <path class="cls-2" d="m1954.7,242.55c3.84,1.04,5.04,1.82,1.62,2.71-3.42.89-5.36,3.28-1.74,2.84,3.61-.44,7.21.34,12.42,1.07,10.16,1.4,8.52,6.34,16.54,4.5,3.03-.71,3.41-.9.28-3.04-.63-.43-14.08-11.75-20.64-11.14-8.52.75-4.78-6.38-15.95-3.6-3.34.83-3.52,3.21-4.52,4.25-2.05,2.13,8.15,1.37,11.99,2.42Z"/>
          <path class="cls-2" d="m2013.72,286.69c-.94,1.67.65,1.89,5.98,3.85,24.2,8.81,3.07-20.37-5.98-3.85Z"/>
          <path class="cls-2" d="m2032.52,253.76c-1.54-3.62-4.85,1.37-16.15,1.68-6.16.17-14.65,2.11-9.39,2.21,8.5.17,28.59,3.3,25.55-3.89Z"/>
          <path class="cls-2" d="m1966.42,310.03c2.02.44,2.86-.42,6.9,2.26,4.06,2.68,7.3,4.15,6.63-.23-1.71-11.16-20.29-3.48-13.54-2.02Z"/>
          <path class="cls-2" d="m1988.38,228.29c8.65,6.2,15.34.04,23.04,1.67,17.02,3.57-12.45,4.82-6.15,8.63,19.93,11.97,16.32,4.88,26.51,5.88,7.4.73,6.02,1.37,5.93-.37-.08-1.74,1.59-6.19,1.55-7.82-.07-4.09,13.79-3.93,4.77-6.45-4.17-1.17-8.49-1.7-8.55-2.6-.07-.91.83-3.55-1.38-4.92-2.19-1.36-4.59-1.3-6.92-2.02-2.31-.71-6.13-4.02-9.33-5.44-3.18-1.43-5.44-1.57-9.49-3.7-15.62-8.31-19.51-10.67-23.68-.18-5.83,13.94,6.31,6.5,8.6,9.78.9,1.28.25,2.19-6.45,2.17s-4.02,1.35,1.54,5.36Z"/>
          <path class="cls-2" d="m1994.17,248.78c-1.23.7-5.06.82-1.21,2.96,3.85,2.14,3.1,2.21,6.2.99,3.11-1.22,6.99-4.25,7.05-5.15.05-1.27-18.87-7.31-20.47-7.67-9.34-2.08,9.66,8.16,8.43,8.87Z"/>
          <path class="cls-2" d="m1970.64,278.3c10.96.71.23-10.18-7.89-6.01-.82.43,1.13,1.42,2.6,3.27,1.47,1.86,1.15,2.47,5.29,2.73Z"/>
          <path class="cls-2" d="m1983.92,271.76c5.8,2.17,7.36,6,7.77,7.19-.96-.6-6.82-3.7-6.82-3.7-3.19-1.61-4.97-2.9-7.11-2-2.14.9.45,2.02.72,2.63s3.03-.08,3.73,1.39c1.95,4.16-4.97.9-7.47,3.2-1.02.94,2.71-.12,4.62,1.35,2.7,2.08,5.06,1.59,15.41.04-2.3,2.98-3.59,6.54.41,8.39,2.36,1.09,1.6-1.1,6.74-1.18,5.14-.07,5.64-2.39,5.64-2.39-2.42-1.49-2.79-4.87-3.77-6,4.12,2.01,4.56,3.33.56-1.94-4.4-5.79-3.95-9.87-9.83-9.76-3.81.08-5.92,1.24-9.09,1.23s-4.31.5-1.52,1.54Z"/>
          <path class="cls-2" d="m1744.99,461.68c-9.72-1.66-12.98,3.18-9.86,6.19,2.08,2,.83.9,4.21-1.07,3.38-1.98,1.51-2.25,6.11-3.13,4.61-.88,3.33-2.11,3.33-2.11,0,0-1.04.58-3.78.12Z"/>
          <path class="cls-2" d="m1927.61,256.59c10.45-3.25-15.97-1.71-15.87,2.36.04,1.04,1.33,3.27,3.07,5.04,4.03,4.08,17.73-2.93,13.7-3.84-8.34-1.87-6.69-1.77-.9-3.57Z"/>
          <path class="cls-2" d="m1742.45,457.23c-2.62,1.33-3.35,2.42-.2,1.92,3.14-.5,2.36-1.91,4.52-1.59,6.65,1-.46-2.31-4.31-.34Z"/>
          <path class="cls-2" d="m1880.29,339.05c7.09,3.83,6.06,5.66,16.62.31,2.35-1.19,4.18-2.56,2.98-5.58-3.35-8.53,2.68-.81,2.99-4.54.17-1.97.76-4.55,2.07-6.09.36-.43,12.8-7.43,13.88-10.18.61-1.56-3.22-2.76-5.54-3.46-2.32-.7-5.73-3.45-10.5-3.47s-6.24,3.07-6.52,1.7c-.36-1.79-12.08-6.13-29.34-1.55-3.87,1.02,2.67,3.35,5.27,6.81,2.61,3.44,2.07,1.29.54,5.06-1.55,3.78.57,5.16-.44,7.99-1.01,2.83-5.02,6.6-2.73,8.5,2.29,1.89,7.99,3.03,10.72,4.5Z"/>
          <path class="cls-2" d="m1928.23,510.33c-7.38-1.23-8.72-.81-12.76-2.47-22.38-9.21.46,5.45,17.84,9.02,12.33,2.53,4.09-5.01-5.08-6.56Z"/>
          <path class="cls-2" d="m1882.53,485.55c-1.77-2.93-10.43-2.88-10.01-1.51,1.17,3.83,8.6,10.42,13.35,12.6,4.75,2.16,3.52.97.23-3.61-3.28-4.56-1.79-4.56-3.57-7.48Z"/>
          <path class="cls-2" d="m1662.42,446.03c-.33-1.35-1.4-.87-5.1.58-3.7,1.46-7.73-.29-5.1.84,2.61,1.14,6.12,2.21,8.68,2,6.53-.54,2.14-.72,1.52-3.43Z"/>
          <path class="cls-2" d="m1913.43,252.73c1.87-.43,2.75.65,4.12-.9,1.36-1.54,5.89.06,9.15-.62,4.21-.87,5.71-10.14-15.44-1.49-2.8,1.13-2.73,3.21-3.15,4.03-.41.82,3.46-.59,5.31-1.02Z"/>
          <path class="cls-2" d="m1908.31,271.8c-4.87,2.23,9.31,2.93,6.04-.46-1.23-1.29-4.56-.23-6.04.46Z"/>
          <path class="cls-2" d="m1909.76,260.16c-.83-.96-4.73-3.89-8.65-2-3.53,1.68,10.28,3.84,8.65,2Z"/>
          <path class="cls-2" d="m1879.34,286.38c1.61-.86,2.44-3,4.08-1.7,2.39,1.88,6.77-10.51,9.71-10.03.56.09-.99,2.23.54,4.04,1.52,1.81,5.37,1.91,7.61-1.18,2.22-3.09-1.91-5.94-.18-8.34,1.72-2.41,4.05-2.06-1.91-4.22-5.95-2.17-8.31.24-8.95,1.36-.64,1.11-3.19-.7-10.89,6.5-3.97,3.69-3.98,6.61-7.29,8.93-4.41,3.03-.22,8.61,7.29,4.66Z"/>
          <path class="cls-2" d="m1888.7,289.37c-.7,1.76,1.87,1.47,4.52,1.39,2.64-.08,1.63-4.29,2.64-7.6.3-1-6.45,4.45-7.15,6.21Z"/>
          <path class="cls-2" d="m2039.96,208.03c.83-.34-2.69,4.65-2.69,4.65,17.5-3.6,34-10.62,35.25-11.66-8.26,9.49-18.72,15.77-35.54,16.31-12.72.41,19.78,11.09,25.26,19.36,0,0-10.89-5.71-16.84-.04-12.64,11.76,7.75,8.58,12.75,13.12,2.68,2.42,10.68-2.21,10.68-2.21-4.43,11.72-13.04,1.95-20.79,2.71-6.93.67-5.75,2.23-1.52,4.47,12.58,6.69-5.32,4.33-2.63,10.85,1.68,4.12,17.19,2.55,30.34,2.32,8.32-.15,6.03-2.57,9.18-2.56s6.75.88,6.93,3.64c.18,2.76,1.8,1.04,9.53-1.87,7.67-2.91,1.08-7.42-.36-8.97-1.45-1.56-5.07-2.08-7.61-2.95-2.54-.87,1.75-8.45-.87-11.03-2.6-2.59,9.85-.5,11.72-6.53,1.84-6.03-2.45-10.53-6.68-11.57-4.22-1.05,6.54-.33,8.84-2.06,2.31-1.71,8.26-3.77,9.26-7.05.98-3.28,1.31-4.49-5.14-3.8-6.48.68,8.3-2.74,13.59-7.57,18.11-16.96,13.32-12.44,6.58-12.06-9.03.5-20.84-.73-15.08-1.41,5.75-.68,22.76-2.72,25.56-5.99,2.76-3.28,4.3-4.31,4.3-4.31-7.02-1.57-31.11-5.58-37.27-4.04-6.17,1.55-8.62-3.46-17.71-2.26-9.12,1.19-24.56.47-28.89,1.16-4.33.68,3.73,2.6,7.13,4.15,3.39,1.56-13.09-1.74-22.76,1.17-9.71,2.91-16.22,4.45-1.95,8.79,39.84,11.99-4.73,1.54-8.06.5-7.75-2.42-4.1-2.25-14.75,1.01-10.7,3.25-21.8,4.96-19.56,8.41,2.65,4.08,23.24,14.17,39.81,7.31Z"/>
          <path class="cls-2" d="m1975.23,290.27c5.81-2-7.72-6.3-5.47.59.37,1.12,2.35.48,5.47-.59Z"/>
          <path class="cls-2" d="m2035.03,281.69c-2.11,1.61.47,4.2,3.75,7.57,3.28,3.36,7.07,3.24,12.46,3.26,52.76.16,46.41-1.05,53.56-7.59,5.68-5.29-11.19-10.38-18.45-10.4-4.29-.01-6.94,1.92-13.16,2.48-6.22.57-3.42,3.29-9.26,3.4-5.84.11-1.85,2.39-10.38-.23-26.16-8.07-3.12-5.32-8.99-8.55-2.6-1.43-7.78-5.32-12.76-4.88-11.1.98-12.01-2.75-28.36-2.8-2.21,0-.76.91,3.03,4.21,10.31,8.93,11.59-2.61,22.59,6.12,5.57,4.41,8.06,5.78,5.95,7.38Z"/>
          <path class="cls-2" d="m2024.93,317.1c-5.59-4.53-4.99-2.51-11.71-2.53,0,0,1.24-2.58,4.41-4.2,3.16-1.63-.6-2.76.54-4.3,1.14-1.54-5.69-2.34-8.23-1.75-2.54.6-3-.18-7.72-.37-4.72-.19-10.5,3.41-9.62,4.7.89,1.29,4.14.79,8.08,2.35,3.95,1.57,4.84,1.39,3.51,5.78-1.73,5.61-6.62-4.4-10.43-2.44-2.41,1.24-3.92,2.73,2.03,4.91,17.56,6.37,19.45,13.2,26.65,10.5,6.1-2.3,7.71-5.05,7.6-7.46-.14-2.41-2.33-2.93-5.1-5.18Z"/>
          <path class="cls-2" d="m2153.98,409.87c-6.9.92-9.23,1.08-6.39,4.37,5.98,6.91,19.15-6.07,6.39-4.37Z"/>
          <path class="cls-2" d="m2008.03,352.23c3.14-1.54,7.18.03,9.41.03s-2.11-5.34-6.51-6.21c-4.39-.88-7.06-2.96-14.25-5.73-7.15-2.78-4.57-3.98-7.86-7.59-3.3-3.63-11.53-14.33-15.6-16.23-4.05-1.91-7.33-1.4-11.37-3.3.5,3.06,12.83,21.06,5.45,16.01-4.27-2.94-9.21-8.89-13.16-6.5-3.97,2.4-9.62,1.7-8.95,1.18.67-.52-1.33-3.1-4.16-3.89-2.81-.78-3.87.42-5.99,1.7-2.14,1.28-9.81,2.97-7.27.74,2.54-2.23.98-3.43-1.22-6.02-2.18-2.59-9.14,1.77-12.7,4.52-3.58,2.73-4.77,6.94-6.49,9.77-4.65,7.59,21.57,5.94,12.1,9.16-5.02,1.7-8.93,2.88-5.49,4.36,9.3,3.99,16.72-1.46,30.71,1.49,8.74,1.83,13.49,1.77,13.49,1.77-6.43,4.11-43.98,2.23-37.09,6.4,15.8,9.5,19.69,5.68,25.45,6.8,4.51.88,3.76,4.74,5.12,5.35,1.37.61,8.85-.48,16.28-1.65,7.42-1.18,4.06-2.22,9.75-3.49,5.66-1.26,4.29-5.14,7.53-5.99,3.22-.85,1.84,1.99,6.46,2.86,1.76.33,13.56,3.74,16.24,3.59,4.4-.24,8.6-2.71,7.74-3.16-3.67-1.85-.5-6.72-8.08-2.09-1.43.85-2.68-2.34.45-3.87Z"/>
          <path class="cls-2" d="m2148.27,396.08c-6.21-4.03-9.84-5.08-15.8-6.66-5.96-1.57-8.95-6.49-8.99-2.49-.11,8.41,2,8.78,2.85,16.8.23,2.19,2.59-.37,6.65,2.87,4.06,3.25,3.46,4.15,5.95.42,2.46-3.73,6.67-5.01,13.55-3.43,22.56,5.15-1.58-5.8-4.21-7.5Z"/>
          <path class="cls-2" d="m2032.41,354.74c-.32.77-2.9,1.54-3.92,3.25-1.03,1.71,4.17.8,6.19,1.31,2.04.53,4.04,1.99,5.71,2.43,5.31,1.38,16.87-.58,14.54-2.87-.62-.61-9.38-5.8-15.04-7.89-10.26-3.8-5.43-1.18-7.47,3.76Z"/>
          <path class="cls-2" d="m2171.98,414.95c-2.76.75,6.61,10.83,6.97,1.49.08-2.5-2.89-2.6-6.97-1.49Z"/>
          <path class="cls-2" d="m2178.25,373.39c-.14-3.23-4.43-14.04-10.93-11.29-3.86,1.63-6.03,2.75.52,7.24,6.59,4.49,10.57,7.28,10.42,4.05Z"/>
          <path class="cls-2" d="m2210.56,350.05c4.74-2.57,7.63-2.21-11.8-12.8-19.22-10.58-24.21-12.84-33.15-13.56-8.93-.72-15.49-8.33-22.99-10.93-7.48-2.61-18.6,3.04-22.29,3.89-3.69.84-1.67,2.23-10.22-4.17-8.5-6.41-14.99-11.08-14.99-11.08-11.23-.9-28.06-3.19-27.41,4.73.61,7.93,4.13,25.51,5.26,28.78,3.19,9.14,55.16,10.68,48.49,7.57-10.68-4.98,18.4.4,15.22-5.63-.82-1.55,2.55,1.9,10.23,4.68,7.7,2.79,17.27,10.58,25.31,15.09,8.07,4.51,24.06,10.6,23.51,14.05-.59,3.44,11.4,15.56-6.81,18.24-18.28,2.68-20.44.77-18.28,4.4,7.35,12.37,25.24-1.47,33.42,3.93,12.6,8.25,23.88,4.82,11.24,9.01-1.57.51,4.53,1.05,18.38,5.42,13.91,4.37,28.02,4.95,19.42,1.81-8.56-3.14-15.08-8.85-19.19-10.77-4.09-1.91-.43-.34,5.51.72,14.8,2.63,21.76,13.61,17.31-.45-1.93-6.04-4.23-6.05-16.05-10.92-30.58-12.75-17.16-16.86-16.49-18.69.88-2.4,11.15,4.36,17.8,8.35,6.68,3.99,14.41,10.92,14.91,5.93.45-5-3.06-16.22-4.61-18.82s-3.29.16-21.21-5.77c-17.81-5.93-26.5-8.2-27.84-8.2s2.53-2.23,7.31-4.8Z"/>
          <path class="cls-2" d="m2104.83,301.43c-5.08.53,7.91,8.98,15.04,9.36,7.14.36,11.43-2.55,12.76-2.89,1.34-.34-19.84-7.31-27.8-6.46Z"/>
          <path class="cls-2" d="m2328.25,700.24c-4.15,1.16,9.86,4.14,15.84,4.5,6.59.4,9.13,1.21,2.6-2.7-27.67-16.67-32.2-27.58-64.76-19.45-4.41,1.09,5.49,1.7,11.04.07,5.53-1.63,11.08-.29,12.36.49,1.25.78-1.52,1.23-3.03.4-1.53-.83-.27,2,7.89,3.8,16.16,3.56,9.83,4.71,17.13,9.67,2.58,1.75,3.6,2.48.93,3.22Z"/>
          <path class="cls-2" d="m2413.51,726.84c3.98,1.83,28.54,2.68.69-3.04-5.06-1.04-4.73,1.17-.69,3.04Z"/>
          <path class="cls-2" d="m2389.54,713.28c-11.36-3.08-37.34-7.36-31.82-4.6,4.86,2.43,5.26,5.04,5.76,6.42.82,2.28-29.51-5.17-10.67.56,7.33,2.23,11.02,1.72,12.33,4.63,1.31,2.91,5.81.31,7.5-1.36,1.69-1.67,2.34-.17,13.88.98,11.58,1.16,14.55,2.47,11.03-.69-3.53-3.17,3.38-2.87-8.01-5.94Z"/>
          <path class="cls-2" d="m2324.72,712.46c4.19.72,6.57-.26,2.95-2.18-11.4-6.09-13.94.27-2.95,2.18Z"/>
          <path class="cls-2" d="m2392.51,183.1c-28.95-6.56-16.03.22-32.23,1.77-9.36.89-17.42,5.29-17.42,5.29,0,0,1.26-2.85-3.77-5.6-5.01-2.73-1.21-11.69-.24-12.73,1.59-1.71-70.74-16.69-88.21-9.6-3.51,1.42.95,7.01-3.98,7.26-4.93.25-16.53-2.88-23.12-1.85-6.59,1.03-15.12,5.82-16.27,6.07-1.15.26,6.94,3.64,11.27,4.42,4.34.79,14.37,8.32,14.37,8.32-54.11-14.24-45.31-2.14-67.09-1.15-11.34.51-14.59,9.99-33.62,23.37-4.24,2.93,3.96,4.28,13.81,5.6,7.63,23.96-53.39,13.42-22.82,33.59,21.7,14.06,18.42,9.04,25.68,13.26,5.15,2.99,7.06,1.96,16.58,2.12,2.78.05,38.84,1.78,45.94,5.56,6.55,3.49,45.81,39.12,46.2,39.75.65,1.03,2,9.2,2.81,10.49s4.16,3.51,7.11,5.33c4.91,3.04.26,3.76,9.97,11.42.66.52,2.67-4.13,5.33-4.9,2.64-.77,13.92,4.71,16.34,8.47,5.48,8.53,6.4,5.63-3.86,15.65-1.37,1.32,2.91,11.53,7.7,16.46,17.16,17.55,48.99,38.35,50.24,39.29,12.56,9.36,7.15,11.14,40.74,16.61,14.09,2.28,11.61,3.26,1.96-29.89-7.04-22.9-13.02-8.3,20-24.14,2.9-1.42-5.07-11.68,1.11-15.03,9.87-5.37,23.54-5.59,34.17-16.72,4.59-4.91,8.88-2.3,8.41-6.84-.48-4.54-11.45-11.19-17.22-17.95-5.76-6.76-2.81-7.14-5.84-13.25-9.57-19.25,7.28-16.1-1.75-24.65-4.13-3.91-11.8-9.77-15.1-14.06-8.86-11.51-13.3-9.43-17.06-20.16-1.97-5.59,5.31-4.14,2.92-6.62-2.38-2.47-14.65-6.26-20.08-13.15-11.14-14.13-.91-11.95,2-24.67.23-1.04-3.35-3.9,1.44-7.27,4.75-3.36,5.51-5.57,7.49-6.61,1.98-1.04,6.52-.9-3.93-3.26Z"/>
          <path class="cls-2" d="m2290.06,346.69c2.45-.87,4.06.11,5.04-1.03.99-1.13.08-2.8-3-4.46-3.08-1.65-2.87-2.61-3.32-2.79-5.06-1.97-6.83,1.87-6.98,4.08-.15,2.21,5.8,5.07,8.26,4.2Z"/>
          <path class="cls-2" d="m2338.56,512.03c-20.07-6.23-24.09-4.2-7.22,1.43,7.14,2.36,11.2-.2,7.22-1.43Z"/>
          <path class="cls-2" d="m2367.01,494.77c-7.66,7.19-3.47,14.91-9.3,23.22-2.82,3.99-.74,3.1,17.06,5.52,17.84,2.42,17.65,4.23,20.95,3.47,3.28-.76,5.51,1.57,7.07,4.05,2.63,4.18,10.65-3-11.02-17.77-5.9-4.05-6.66-4.05-11.23-3.04-4.57,1.01-4.12-.92-7.9-4.04-3.8-3.13-5.26-.67-3.68-5.32,1.54-4.65.38-8.27-1.94-6.09Z"/>
          <path class="cls-2" d="m2728.94,824.95c-3.33-.93-8.37.46-12.29-.35-3.9-.8-21.25-7.52-32.99-10.06-11.69-2.54-56.2-9.57-62.84-10.92-6.61-1.34-6.19-2.76-13.78-7.98-17.87-12.35-28.77-8.97-33.5-14.96-9.69-12.3-38.33-9.75-48.97-14.03-4.89-1.97-15.86-5.8-25.3-9.99-9.41-4.19-15.47-9.27-23.22-11.14-.76-.18-70.03-10.28-79.99-8.03-10.04,2.26-25.91,3.36-22.87,18.16-12.23-10.6-29.68-3.05-31.93-3.45-7.19-1.24-28.4-7.16-28.32-11.28.27-31.03-23.2-21.74-30.36-23.68-8.52-2.32-14.81-.45-21.02-2.47,9.38-3.82,1.52-11.97.5-12.07.45-.24,2.29-1.44,2.63-2.35.4-1.09-.2.64,1.57-.44,1.75-1.08.9-1.09-.03-2.97-2.2-4.45,6.17-9.17-4.26-9.7-7.24-.37-14.44.81-17.95,1.04-3.53.23-1.66,4.12-1.35,6.05.41,2.58-3.15,6.92-2.18,8.95.88,1.84-1.47-.91-9.24-.96-11.28-.07-4.66,6.74-28.62-5.16-5.16-2.58-23.04-14.16-21.67-21.02,2.15-11.43,5.45-9.39-1.09-13.09-5.64-3.19-5.62-3.39-5.35-5.52.25-2.12,3.07-4.68,7.05-7.3,17.19-11.4,15.21-6.94,30.97-5.28,2.67.27,4.07,2.15,6.92,2.17s3.7-1.33,5.55-.87c1.84.46,5.81,2.36,5.53,1.13-1.06-4.29-7.11-1.47-8.8-4.95s16.61.15,20.38-1.49c4.68-2.04,13.91,2.88,19.97,1.16,10.51-3,16.88,13.48,24.57,18.86,4.47,3.12,2.65,4.14,6.4,5.64,3.76,1.51,6.3,4.05,7.67,2.57,7.1-7.57-20.43-21.12-22.39-31.17-1.51-7.64-2.54-6.43,9.51-16.14,1.26-1.02,2.72-.5,3.63-1.98,5.32-8.64,3.85-1.58,9.55-7.04.32-.33-.53.31-1.68-.72-4.91-4.41,3.91-.9.82-3.81-2-1.88-3.73-1.05-4.85-1.64-1.09-.59,2.04-2.44-1.89-6.28-3.93-3.83.74-3.54-3.45-6.21-9.01-5.79-2.17-15.58-1.79-9.83.53,8.1,5.07,6.46,6.87,9.79,1.05,1.94-.18,4.39,1.44,3.55,1.6-.82,1.65-3.8,1.25-6.19-.6-3.3-7.41-7-8.5-11.15.57,2.19,7.2,3.58,7.63,6.69,2.3-13.54-6.64-11.79,9.26-15.31,2.84-.63,4.03-2.82,4.71-3.53.66-.7,5.18.81,4.77-.1-.19-.42-10.81-10.87-3.04-16.94,2.05-1.6,2.27-2.05,2.54-2.57.29-.51.83,1.3,3.03.47,4.31-1.6,6.61-1.83,6.95-5.32,3.15-.16,10.28-3.62,13.26-5.1-2.46,4.05,9.87,1.72,7.53,3.6-1.3,1.02.46,2.06-1.92,2.05-10.16-.06-6.47,3.45-9.16,6.99-1.63,2.13.56,2.78,2.72,2.86,3.55.14,6.17-7.63,10.3-6.53,1.89.5,13.94-5.51,13.68-5.93-.54-.91-1.72-2.08-.09-2.97,1.65-.89,1.36-4.97-.9-7.95-3.09-4.04-4.83.42-3.74,3.98,2.25,7.31-.44,3.37-4.22,3.53-7.88.33-20.34-3.82-23.78-9.69-3.16-5.41-7.94-3.19-11.54-7.23-.81-.91,4.72,1.32,6.62-.87,1.9-2.19,2.61-3.21,1.85-4.51s-6.65-3.85-8.66-4.25c-8.64-1.71-24.95,18.47-28.7,19.16,0,0,3.64-3.08,4.76-8.11,3.05-14.5,10.96-7.71,11.05-11.44.13-6.42-6.34-4.45,20.01-6.35,3.29-.25,4.61-1.59,6.02-2.04,1.4-.44.57,1.75,5.85,1.58,5.28-.17,7.54.49,9.68-2.09,7.42-9,12.85-3.4,17.17-8.44,5.4-6.34-2.08-3.82-2.46-10.61-.09-1.62-.18-3.36-4.31-4.16-3.95-.76-13.17-4.47-20.43,1.97-1.74,1.52-4.8-2.1-.74-4.66,4.82-3.04,18.07-2.48-5.78-9.2-3.72-1.06-6.92.67-8.46.09-2.35-.9.26-4.87-11.72-8.53-4.3-1.31-3.95-2.54-3.4-5.37.51-2.7,1.16-.41-24.97-21.31-3.54-2.86-6.89-5.98-8.09-4.44-5.32,6.74,2.32,9.44,1.72,10.35-.78,1.19-5.48-1.53-5.16,3.2.49,7.02-16.77-2.31-19.94-2.67-5.44-.62-3.06-2.8-7.95-9.99-2.61-3.82-.71-4.98-.71-4.98-10.01-2.97-8.67,1.08-16.31-4.46-2.95-2.14-4.02-1.7-8.41-3.46-14.18-5.72-7.97-1.65-20.08-2.67-22.08-1.88-13.3.28-10.37,3.51,4.27,4.69.4,5.61,9.83,14.96,1.12,1.1,2.83.34,1.14,3.94-1.73,3.61.12,3.94,2.1,5.11,4.54,2.72,14.31,11.13,16.23,16.48,4.28,11.74,2.62,8.98-3.42,10.31-3.4.76-2.57,2.71-1.17,3.68,1.43.98-3.71,1.85-.51,4.13,4.58,3.24,12.78,15.9,13.59,18.4.59,1.81-1.86,3.28-3.36,4.12-1.51.83-5.32-6.01-9.98-7.71-4.66-1.7-13.07-.6-13.49-2.87-.43-2.26-2.68-6.79-6.98-10.17-4.28-3.38-2.55-1.43-1.03-3.42,1.52-1.99-4.78-2.27-4.78-2.27-3.27-3.61-17.23-1.67-23.22-4.98-8.42-4.65-30.04-13.37-33.63-8.54-3.33,4.46-15.62-11.36-21.57-13.72-3.62-1.44-10.74-1.6-13.06-2.58-2.32-.98-.26-5.54-1.32-9.36-1.93-6.92-.1-9.59,4.07-18.76,1.73-3.84,13.24-2.3,8.04-4.93-5.06-2.57-2.4-.58-14.06-4.32-1.84-.59,9.11,1.07,13.75.57,4.62-.49,5.37-2.17,7.86-2.42,5.68-.57,6.6,3.72,9.17-10.55-9.09,1.37-19.36-1.85-30.51-6.32,31.01,1.62,30.03,2.24,30.61-1.23.46-2.84-4.02-2.73-5.98-3.26-2.53-.67,6.29-4.51,9.05-1.06.7.91,1.76-.38,5.67-.43,3.9-.05,7.47-.74,9.51-3.26,5.49-6.81-.53-6.41-8.11-15.28-2.96-3.48,6.37-1.74,2.67-5.41-2.6-2.6-.46-3.17-5.16-4.8-4.69-1.63-6.09-3.7-13.5-4.18-8.54-.54-14.53-2.68-1.09,8.78,0,0-1.32,1.03-3.29,2.31-1.97,1.29-.05,2.58,2.52,5.17,2.56,2.59-2.78,3.09-2.97,3.22-.38.26,11.02,9.39-2.45,4.97-4.76-1.57-4.67-1.19-7.5-2.49-7.17-3.29.41-7.23-4.36-12.48-1.11-1.23-7.33-4.68-8.67-4.68-1.84,0,.62,11.14-.98,12.4-.48.38-2.99-1.5-4.22-3.7-1.22-2.2-.74-3.49-3.17-5.56-2.42-2.08-1.76-4.01-1.76-4.01-8.99-1.03-8.68-.24-11.64-1.59-1.28-.58,1.98-3.74-.74-7.55-2.73-3.82-6.96-4.54-9.32-8.68-2.36-4.14-10.96-5.97-10.96-5.97-1.48-5.88,1.72-4.9-5.26-12.03,22.51,2.58,4.14-14.14,12.4-14.82-18.78-2.52-19.35,3.43-17.59,5.05,0,0-4.28-1.37-3.35,1.67.9,3.03.81,7.62,2.7,9.75,1.88,2.14,7.5,12.55,7.82,14.68.33,2.13-3.94.76-2.2,4.57,6.37,13.91,7.43,14.95,14.98,15.35,3.87.21,7.24-.1,8.66,1.51.31.35.52.58.65.73-6.56,1.65-5.2,5.22-2.95,5.14,0,0,4.94-.24,4.18,4.6-1.42,8.63-13.41-1.93-1.68,13.36-23.17-9.58.85-11.22-20.47-12.66-2-.14-3.57.5-3.74,3.92-.22,4.38,6.07,5.06-17.7,3.54-27.94-1.81-17.45-13.93-36.65-4.85-3.42,1.59-1.34,1.29.78,3.16.75.66,6.83,8.31,7.09,10.87.2,1.94,3.34,4.14,2.09,3.81-1.25-.33-4.19-1.89-8.71-5.84-13.18-11.6-13.92.24-43.74-5.46-7.61-1.46,17.64-1.35-.47-8.19-4.65-1.76-4.95.37-8.11-.42-3.17-.78-13.75-1.73-17.53-2.83-20.06-5.91-23.64-4.12-23.09-4.01,0,0,2.25,1.87-.58,2.7-9.6,2.8-4.3-1.29-7.9-2.41-3.65-1.14-1.64,4.53-4.42,3.66-1.23-.39-16.42-10.44-16.42-10.44,0,0-.48,1.62-1.41,4.7-.89,2.97-18.5,9.37-20.34,9.77-3.53.77,24.19-13,10.18-9.75-3.29.77-11.99,6.4-15.17,7.6-3.19,1.22-4.07-.02-8.22-.03s-1.57,6.63-8.09,7.31c0,0-12.13-3.78-18.64-5.22-9-1.99-71.66-2.27-74.42-3.89-1.56-.9-3.08-4.63-7.13-4.65s-14.33.71-16.1.32c-7.12-1.54,2.61-4.55-29.11,8.12-7.74,3.05-9.27,8.58-11.64,11.53-2.38,2.95-6.65,3.96-8.53,6.9-1.9,2.95,7.14,4.4,7.98,6.21,2.25,4.82,3.32,5.88,15.47,6.1,0,0-1.07.77,5,3.49,0,0-7.7,6.14-11.96,5.73-4.26-.41-8.68-3.76-8.68-3.76-21.26,10.01-9.09,2.86-8.44,12.69.12,1.67,6.9,2.34,11.63,1.33,4.73-1,12.07-3.93,15.68-4.3,3.61-.37,5.61,1.83,3.7,2.84-1.91,1.02-2.69,1.53-2.69,1.53,13.51,10.17-4.37,7.1-13.57,12.42-13.37,7.61-5.02,7.72-3.65,15.53,1.57,9,18.06,5.63,20.75,7.68,1.9,1.42-.25,4.37,2.54,5.8,2.79,1.42,9.23-1.76,12.08-.97,11.62,3.18,20.96-4.53,16.19,3.29-13.89,22.17-13.34,11.09-44.53,28.7-7.02,3.89,46.51-9.2,64.46-30.93,1.74-2.15-2.43-8.49,12.35-19.1,10.62-7.74,17.87-6.79,8.14-1.76-3.5,1.78-1.98,2.17-.05,2.05,1.92-.12,2.15,0-2.41,1.92-7.26,3.05-6.08,5.22-6.45,12.32-.22,4.55,19.08-6.86,20.87-12.51,3.24-10.73,15.18.59,21.96,2.16,2.27.52,10.08-.34,10.81-.34s30.4,7.08,33.73,8.65c11.54,5.41,20.89,17.09,24.99,18.01,14.21,3.17,14.19,11.37,19.75,9.75,9.03-2.65,13.2,9.51,14.95,11.28,2.16,2.21,9.25,4.68,11.39,6.75,2.17,2.08,5.45,5.31,8.3,7.77,8.28,7.12,19.85-.68,41.14,19.27-32.75-9.13-9.16,2.76-6.1,8.47,1.59,2.98,7.73,17.95,6.2,24.63-1.56,6.69,5.64,18.71,7.27,22.84,1.61,4.13,16.36,15.03,20.06,18.27,6.96,6.08,8.8,17.43,20.76,18.28,5.94.42,19.72,5.91,25.04,11.61,5.34,5.7,7.77,9.45,12.26,12.83,4.51,3.38,13.24,8.2,14.85,9.75,2.47,2.37-22.14-6.06-.31,3.99,9.46,4.33,19.53,6.68,22.22,13.54.96,2.45,7.91,3.4,10.39,5.48,2.48,2.07,5.52-1.13-1.12-6.45-13.61-10.98-9.92-.91-45.32-37.77,34.6,11.96,20.04,15.43,36.4,24.06,7.47,3.91,11.85,3.68,17.11,9.13,6.94,7.16,37.06,17.54,37.72,23.56,1.46,14.15,30.11,16.28,52.14,21.73,7.55,1.85,19.77,5.16,28.33,4.57,14.19-.97,20.04,8.94,38.9,11.86,13.05,2.02,17.62,2.7,29.92,7.43,12.34,4.72,17.47,6.05,19.16,9.41,5.9,11.77,39.94,15.22,41.99,16.28,13.06,6.75,3.46-8.26,17.39-3.36,2.65.93,5.72,4.3,9.54,7.03,3.86,2.74,1.69,1.95,5.7,7.01,4.01,5.06,6.84,5.08,5.91,10.24-.49,2.64-13.53,16.3-11.42,26.61.98,4.98-12.94,5.03,20.83,26.21,28.76,17.8,36.63,27.98,47.44,33.88,22.41,12.18,45.89,14.08,56.55,23.91,5.26,4.81,6.19,5.21,6.48,5.72,19.61,34.76,30.13,155.04,52.05,171.78,19.25,14.58,17.87,16.9,44.33,25.77,38.09,12.68,45.24,9.83,62.44,8.28,32.99-2.96,9.17-.5-7.96-5.35-14.97-4.26-22.32-3.29-29.55-9.28-7.22-5.99-11.12-11.95-15.69-15.99-4.55-4.04,1.67-3.73,4.97-8.98,3.25-5.26,4.06-4.74,8.83-8.18,10.42-7.57,3.96.77-7.65-15.79-2.89-4.15,1.15-2.31,2.09-5.79,6.01-22.68-11.63-19.12,17.09-17.35,10.48.65.14-.71-11.81-13.03-1.61-1.66,17-.41,13.98-9.99-.54-1.69,8.42,1.74,12.67,1.13,4.24-.61,11.51.27,14.81-3.84,3.28-4.1.76-5.02-3.35-7.38-4.1-2.35,2.36.15-2.32-2.33-6.33-3.38,13.95,2.8,16.53.52,8.67-7.87,8.93-14.85,17.46-21.54,24.79-19.83-7.76-36.81,31.93-42.47,5.11-.73,4.11-6.03,8.7-12.97,4.55-6.94,16.87-.77,16.03-4.01-.84-3.24-7.4-11.42-11.66-18.94-4.27-7.53-7.31-7.29-5.93-9.61,1.37-2.32,3.04-4.5-2.18-7.12-5.22-2.62-.9-1.31,2.09-2.56,2.96-1.28,8.44-3.17,9.46-6.27,4.14-13.22,9.63-11.76-1.11-18.23-5.86-3.53-5.06-8.43-8.4-9.36Z"/>
          <path class="cls-2" d="m2339.95,534.91c5.15,1.66,7.56,2.1,9.04.13,1.46-1.97.05-.73-3.88-1.22-3.94-.5-8.07-1.64-9.5-4.49-1.72-3.43-.79,3.92,4.35,5.58Z"/>
        </g>
        <g>
          <path class="cls-2" d="m1065.27,75.71c3.33,1.33-.19,8,8.11,4.3,8.26-3.71,6.86-4,12.42-6.22,5.53-2.22,2.4-1.15-3.05-2.81-3.41-1.04-8.16,2.97-12.22,3.11-4.07.15-8.59.3-5.26,1.63Z"/>
          <path class="cls-2" d="m1079.09,86.28c-13.65,17.02,5.8,5.24,10.46,16.61,1.91,4.54,4.27,4.54,11.59,5.83,7.35,1.29,3.57,2.38,7.68,1.99,4.1-.4,9.4.5,8.7-1.58-3-8.92,5.89-10.78,1.77-13.94-3.46-2.68-6.96-.49-6.62-.99.33-.5,4.24-1.98,2.86-2.08-11.19-.79-9.19-8.25-3.41-9.4,3.46-.69-8.87-9.52-9.65-10.08-2.86,1.39-.86,1.68-2.22,2.67-1.36.98-7.56.39-12.41,5.92-4.88,5.54-6.07,1.68-8.75,5.04Z"/>
          <path class="cls-2" d="m936.26,188.34c3.97.8,2.53-4.33,0-5.72-7.86-4.36-7.82,4.15,0,5.72Z"/>
          <path class="cls-2" d="m1102.47,72.65s0,0,0,0c-.05-.04-.05-.04,0,0Z"/>
          <path class="cls-2" d="m846.87,222.58c-2.6.32-3.78.39-1.1,4.54,2.69,4.15,5.29,7.31,6.22,1.79.95-5.52-2.73-6.61-5.11-6.32Z"/>
          <path class="cls-2" d="m842.08,219.72c-1.8-1-4.34-12.63,3.23-25.82,7.54-13.19,11.66-11.22,18.23-16.14,6.52-4.92,23.32-17.71,32.46-22.04,10.84-5.17,40.78-13.07,41.42-13.55,10.61-8.27,1.41-5.13.69-8.09-.68-2.96-3.95.99-26.76,9.44-23.11,8.45-19.72,1.16-44.36,15.52-25.1,14.35-20.16,12.58-25.27,21.26-5.13,8.66-7.74,4.91-13.2,12.78-5.47,7.87-15.39,8.25-13.62,14.76,4.84,16.78,32.89,15.04,27.18,11.88Z"/>
          <path class="cls-2" d="m1324.63,204.75c-1.52,1.86,0-.08,4.54,1.94,4.55,2.02,6.27,5.68,9.16,6.5,2.89.82,4.95-.21,4.95-.21-3.08-10.74-11.55-10.19-12.73-14.31-.88-3.13-2.56-4.03-6.7-2.47-2.92,1.1-2.78,2.08.27,4.69,3.08,2.61,2.04,2.01.5,3.87Z"/>
          <path class="cls-2" d="m1554.38,261.17c5.35-.69,18.09-.91,20.43-2.48-6.16-9.22-9.25-2.6-18.16-4-11.48-1.8-11.58-1.59-10.72,2.21,1.01,4.55,2.2,5.08,8.45,4.27Z"/>
          <path class="cls-2" d="m1367.52,194.11c2.93,1.43,5.25.83,11.55.17,6.28-.66,6.81-3.26,7.56-4.75,1.23-2.42-15.72-1.57-16.21-1.81-1.46-.75,2.25-1.49-1.4-2.84-3.65-1.35-4.6.44-5.4-.16-.79-.61-.92-1.87-2.71-2.01-1.65-.15-11.33,2.59,6.6,11.4Z"/>
          <path class="cls-2" d="m1309.08,185.37c8.38,10.82,11.84-.43,15.81,1.14,2.64,1.04,12.1-1.02,12.43-1.02s-.85,5.06,3.33,3.73c4.16-1.33,7.97-2,9.94-4,1.96-2.01,3.33-3.57,3.33-3.57-11.99-7.34-16.59-11.01-20.55-11.57-4.03-.57.04,7.79-7.46,4.08-11.42-5.72-9.69-7.57-19.05.94-4.12,3.71-2.01,4.76,2.21,10.27Z"/>
          <path class="cls-2" d="m1113.26,123.67c3.21,1.28,10.29-2.27,12.08-2.37,1.78-.1,2.47,2.68,8.23,1.98,5.75-.68,14.48-1.77,11.04-4.84-6.32-5.65-9.28-9.08-15.29-9.4,0,0,10.07-3.26,7.88-3.46-14.95-1.39-10.92,4.88-25,14.51-2.63,1.78-2.13,2.28,1.07,3.57Z"/>
          <path class="cls-2" d="m779.1,240.54c3.72,1.33,3.65.61,11.99-1.74,8.32-2.35,1.87-5.47-4.61-4.23-6.58,1.25-11.09,4.63-7.39,5.97Z"/>
          <path class="cls-2" d="m358.14,360.33c7.18-1.88,17.33-7.75,13.26-2.7-4.07,5.06-9.14,4.3-11.09,9.26-1.93,4.97-2.95,4.54,5.39,6.37,8.37,1.84.92,1.17-.2,5.93-4.68,20.37-11.61-7.41-16.01,13.26-.69,3.38-5.13,5.27-12.54,7.46-7.45,2.2-3.45,3.58,1.12,3.39,4.57-.19,16.91-1.84,12.75,1.32-4.15,3.16-6.76-.56-14.48,4.7-7.77,5.26-25.31,9.72-17.69,9.44,7.62-.29,7.73-1.87,31.55-4.3,28.54-2.93,46.61-9.36,28.2-7.18-8.7,1.02,9.71-6.32,12.76-13.17,3.09-6.87-6.71-.35-6.93-4.69-.19-4.34,1.18-5.6,6.35-4,5.18,1.61,6.46-1.02-1.06-7.51-7.4-6.48-.87-5.19-2.45-10.59-1.53-5.41-11.3-4.8-11.3-4.8,6.36-2.31,16.88-10.06,22.09-14.19,11.56-9.2-19.8,1.21-13.12-3.65,6.73-4.93,20.34-10.35,9.54-8.53-25.15,4.2-16.58,6.44-27.96,16.07-8.11,6.84-15.38,9.99-8.18,8.11Z"/>
          <path class="cls-2" d="m321.24,397.93c5.4-.51,8.79-3.77,12.54-8.73s.53-5.07,7.54-9.17c6.98-4.09,10.54-8.42,4.46-10.45-6.04-2.04,1.01-3.28-6.6-1.3-12.16,3.16-11.03,5.25-10.27,6.41.75,1.17,5.42-1.04-7,3.26-12.48,4.28-16.31,9.02-12.24,9.99,4.1.97,6-2.3-5.23,5.59-34,23.56,11.35,4.92,16.8,4.41Z"/>
          <path class="cls-2" d="m1127.35,803.82c8.63-1.38-2.02-.84,24.39-2.7,9.94-.68,2.3-.99,1.29-.97-17.49.37-18.61,2.06-21.47,1.92-1.51-.07-11.74-1.48-15.59-1.21-12.35.88,5.61,3.88,11.38,2.96Z"/>
          <path class="cls-2" d="m1308.07,489.53c-.54,8.61-13.43.18-4.01,15.75,3.46-2.37,3.45-2.11,6.77-2.83-.76-2.2-8.04-2.23-5.38-6.18.46-.7,4.23.22,6.71.03,10.91-.81,4.31,1.61,14.77,3.35,0,0,.68-2.78,2.14-4.76,1.49-2,17.8-1.91,15.1-4.59-1.32-1.3-1.07-4.17-1.8-6.36-.72-2.19-3.39-.12-5.46.67-9,3.4-19.19-16.71-18.65-8.92.14,2.18.31,4.16-1.73,6.63-2.05,2.47-.72,3.07-2.01,6.54-1.29,3.46-6.4-.03-6.45.67Z"/>
          <path class="cls-2" d="m1343.8,985.81c-17.28,4.57-17.28.49-23.98-.9-12.45-2.58-3.62,21.06,16.64,15.83,4.05-1.07,18.09-12.44,16.44-17.64-.67-2.09-5.82,1.84-9.1,2.7Z"/>
          <path class="cls-2" d="m1317.35,468.03c.16,2,1.66-.98,2.64-1.67,5.04-3.57,14.68,9.03,7.6-4.13-4.02-7.57-4.89-5.98-3.33-12.82,1.55-6.84,2.22-6.93,6.74-7.62,6.09-.9,10.04,11.74,5.45-.76-4.83-13.54-3.04-17.78-7.27-20.38-5.99-3.69,6.01-2.24-.34-23.23-.56-1.79-3.27,1.08-3.27,1.08l.83,1.2c3.07,11.67-2.78,3.98-5.07,14.77-2.92,13.39,1.01,5.08.45,14.99-.96,17.25-3.77,12.03-3.15,18.54.32,3.41-1.48,17.4-1.28,20.04Z"/>
          <path class="cls-2" d="m1267.94,546.96c-2.61.58-4.11-1.44-4.83-1.74-.72-.3-4.6.5-9.64.99-5.04.49-6.42,1.75-8.83,4.5-2.41,2.74-7.47,3.15-11.19,4.17-3.74,1.02-2.77,4.9-6.88,6.21-4.11,1.31-4.39,3.77-4.94,5.77-.54,2.01,2.4.61,2.85.47.45-.15.75-2.83,3.19-2.51,2.43.31,2.74.38,1.22,2.46-5.28,7.18-5.81,5.33-1.98,9.29,1.76,1.79,3.85-.5,8.28-3.67,4.43-3.18,4.83-3.92,4.88-7.57.09-7.77-11.01-2.53-4.47-7.62,3.6-2.8,4.82-.04,7.19-1.29.19-.1.41-.19.65-.28-1,.82-1.27,1.92-1.09,3.51,1.13,10.44,3.01,7.61,8.12,5.7,3.66-1.38,3.82-5.46,7.2-5.45s1.86,2.93,6.77-1.14c3.87-3.21,2.55-4.11,1.98-5.36.85.84.99,2.76,1.49,6.42.14.9,3.76-1.24,7.34-2.19,4.36-1.15-3.39-3.23,1.96-5.79,2.62,4.66,12.82-2.11,15.12-1.63,1.46.31,2.35,1.43,4.75.33,2.42-1.1,2.78-.06,2.29.83-.48.88,6.91-1.68,8.55-2.48,2.47-1.22-2.26-6.23-.72-10.57,2.12-6.06.81-9.36,4.17-9.96.86-.14,1.05-3.49,2.92-5.26,1.88-1.78,1.51-2.6,1.74-6.7.31-5.52-5.39-2.41-1.7-11.99-6.88,1.94-6.66,2.72-7.36,3.76-.82-.7-6.24-.65-5.97,6,.12,2.9,3.54-.21-1.21,8.7-4.79,8.91-7.04,10.9-11.31,13.19-4.28,2.28-8.07,2.26-9.61,1.66-3.12-1.21,7.72-5.03-3.7-3.81-2.02.21-.27,1.94-.6,3.34-.32,1.42-4.55,5.19-4.26,6.9.28,1.71.23,2.24-2.36,2.81Z"/>
          <path class="cls-2" d="m1384.75,887.69c-8.21-3.34-10.26-2.47-12.25-7.1-1.96-4.64.61-5.96-3.23-5.99s-7.19.99-9.41-2.15c-8.42-11.95-9.12-8.22-22.32-12.08-7.79-2.29-3.72-2.86-3.58-6.73s.74-7.98-5.42-9.82c-6.13-1.83-2.55.97-2.29-5.38.58-14.14-6.95,4.94-22.46-24.38-1.93-3.71-10.48,6.54-10.81,12.02-.41,6.96,8.65,11.18-8.02,24.46-5.79,4.58-12.83-4.27-19.09-6.3-6.24-2.03-17.82-3.9-22.92-7.02-5.09-3.12-1.4-3.19.54-6.35,6.03-9.86,17.59-8.42,6.87-12.46-5.27-1.99-33.65-4.04-33.38.55.2,3.08,5.05,4.3-1.98,3.36-28.62-3.87-20.62,13.83-26.18,13.78-10.47-.08-18.38-9.19-29.38-3.18-41.01,21.95-30.62,8.84-42.88,27.54-2.14,3.43-19.74,4.35-26.61,5.6-12.64,2.28-35.25,9.84-37.42,13.25-1.51,2.37-.56,5.86-5.82.84-8.31,8.34-.93,11.27-2.67,18.57-1.15,4.75-4.53,7.55-4.88,10.81-.47,4.31,12.46,12.51,12.54,23.31.07,6.98,5.5,10.89-1.28,14.56-6.77,3.66-11.17,2.88-4.41,6.8,22.74,13.07,31.44-3.29,63.67-4.24,27.15-.78,8.72-3.73,26.5-8.71,8.27-2.31,7.54-2.92,12.92-3.46,5.37-.55,8.52,1.71,16.08-1.65,7.53-3.36,2.29-3.7,18.12-3.58,13.27.11,38.56,2.66,45.1,9.44,8.34,8.49,4.95,5.28,27.32-3.64-1.52,8.06-5.74,5.61-6.22,11.71-.07.88,6.34-2.79,7.16-2.92.81-.15,1.11,6.56,1.86,7.16.77.6,3.19.32,5.45,2.28,7.77,6.65,11.28,13.91,26.11,15.4,24.78,2.53,20.2-4.4,27.27-2.45,5.05,1.38-.44,4.16,11.69,3.67,12.13-.5,15.43-2.85,20.31-4.75,4.87-1.89,5.3,2.73,11.59-2.28,6.26-5.01,7.31-3.81,8.48-9.92,3.25-17.03,12.54-12.84,18.09-24.42,8.1-17.24,11.01-18.99,6.22-33.78-2.53-7.91-.73-7-8.96-10.34Z"/>
          <path class="cls-2" d="m1153.78,808.75c9.48-5.62,9.76-2.12,20.52-8.25-7.02.92-10.93-.99-17.42,2.25-1.39.7,1.16.91-8.74,3.21-7.21,1.93-3.23,4.37-5.37,5.87,0,0,6.04-.14,11.02-3.08Z"/>
          <path class="cls-2" d="m1161.23,774.48c-.34,2.55-1.34,3.82,6.59,3.87,26.12.19-5.51-11.88-6.59-3.87Z"/>
          <path class="cls-2" d="m1126.16,692.17c-3.32.53-.93,4.29-9.37,9.34-16.26,9.62-9.66,6.64-5.7,5.46,5.11-1.52,9.29-3.57,10.2-5.69.95-2.11-.43-.82,4.05-2.16,4.46-1.35,2.38-1.81,2.89-3.97.5-2.15.11-3.34-2.06-2.98Z"/>
          <path class="cls-2" d="m1157.31,692.77c.39-1.87-5.61-6.48-10.78-7.14-13.36-1.71-9.82,8.01-2.27,8.87,4.25.48,7.13-1.12,7.13-1.12.25.63-13.68,5.58-6.43,8.79,3.02,1.33,2.65,3.35,4.65,2.35,1.99-.99,3.86-4.46,7.97-6.86,4.11-2.4,4.39-2.74,5.24-5.32,2.33-7.25.68-4.6-5.5.42Z"/>
          <path class="cls-2" d="m1157.11,750.17c-3.37-1.51-3.01,3.06-10.62.54-7.59-2.53-10.37-3.78-19.57.36-9.23,4.13-4.11,5.9-4.78,8.85-1.43,6.24-17.79,15.71-13.74,20.53,1.7,1.98,4.66,1.26,5.72,2.26,4.66,4.36-13.16,16.19,4.96,13.74,5.22-.71.77-.98,1.19-3.69.53-3.42,2.48-.3,4.96-16.39,3.48-1.13,5.5,6.46,8.37,10.31,3.54,4.68,5.12,4.33,14.75-1.01-12.76-2.76-.93-2.91-6.99-10.55-3.9-4.97-6.27-5.23-.41-5.44,8.37-.3,4.44-6.98,18.09-5.8-7.77-5.96-31.35,7.36-32.07,1.13-1.68-14.89,5.59-8.26,13.47-9.66,16.8-3.02,26.83,6.57,38.89-10.98-19.14,9.83-16.93,8.13-22.21,5.79Z"/>
          <path class="cls-2" d="m377.89,491.63c.1,3.38,19.16-21.31,8.3-12.07-1.32,1.11-2.09,4.12-7.72,6.16-5.63,2.04-.61,3.94-.57,5.91Z"/>
          <path class="cls-2" d="m359.13,504.24c-3.57,4.01,5.14.81,1.08,4.33-4.07,3.53-3.8,5.4,5.8,2.11,9.58-3.3,7.48-6.36,11.42-10.58,3.94-4.21,7.14-7.54-4.3-4.25-8.71,2.5-10.41,4.37-14.01,8.4Z"/>
          <path class="cls-2" d="m473.66,543.61c4.46-.71.71-.14-3.02-2.82-3.7-2.69-8.5-.35-16.19-.98-6.03-.49-10.64,2.45-.36,3.4,10.3.94,15.09,1.12,19.57.4Z"/>
          <path class="cls-2" d="m512.71,547.97c9.6-1.13,5.28.47,12.06-4.37,6.73-4.84-3.3.57-11.61-.96-7.91-1.45-10.06,6.46-.45,5.33Z"/>
          <path class="cls-2" d="m326.84,506.62c4.21-1.65-1.24-1.97-4.49-1.7-7.39.64-9.2,2.42-4.57,3.52,4.64,1.1,4.84-.17,9.06-1.83Z"/>
          <path class="cls-2" d="m1365.64,783.17c-1.84.18-15.07-2.26-10.34,1.21,8.75,6.48,17.92,1.44,28.05-.54,11.97-2.36-1.74-12.41-2.48-8.67-.66,3.12,3.2,6.13-15.23,7.99Z"/>
          <path class="cls-2" d="m1615.79,333.32c-.85,5.76,8.05,2.54,12.24,5.03,6.43,3.8,10.36,1.02,10.8.43-1.79-.75-22.54-9.09-23.04-5.46Z"/>
          <path class="cls-2" d="m1248.28,771.26c-13.08,1.89-5.24-17.55-28.81-12.11-10.87,2.51-9.19,1.92-2.32,3.76,6.9,1.84,7.81,2.44,8.76,2.44s11.18,1.07,8.82,2.04c-2.36.98-12.12,1.9-6.26,4.72,5.88,2.82,3.48.82,19.19,6.29,15.79,5.47,18.69,1.53,23.39,8.5,4.71,6.98,4.8,5.79.42,7.55-9.65,3.85-15.05,3.95,9.8,5.03,11.13.47.36,4.56,12.84,4.65s15.91-2.46,21.02-6.2c5.09-3.74,5.98-1.74,16.38-.08,10.43,1.66,13.85,7.64,26.95,10.12,13.12,2.48,18.68,5.7,10.52.67-58.58-36.87-27.9-31.83-97.2-45.18-14.89-2.88-18.27,7.02-23.5,7.77Z"/>
          <path class="cls-2" d="m1183.16,777.56c.75,2.31,2.19.79,6.43.31,6.12-.7,3.3-5.97,24.86-.34,7.46-5.32-35.87-13.78-31.29.03Z"/>
          <path class="cls-2" d="m1413.58,786.5c-2.37-2.11-2.54-3.25-6.04-5.36-3.49-2.11-9.32-3.29-5.68.16,5.63,5.29,2.66,5.46,14.09,8.05,3.18.71,0-.75-2.37-2.84Z"/>
          <path class="cls-2" d="m1183.44,745.51c-1.89,1.08-.33,2.67.73,4.28,3.23,4.72-4.62,8.11,5.46,10.55,0,0,.28-3.66,2.23-5.34,2.22-1.9-1.09-11.26,2.23-14.76,1.15-1.23-8.78,4.2-10.65,5.28Z"/>
          <path class="cls-2" d="m1629.56,315.9c-17.4-11.11-16.31-5.4-72.27-35.01-13.3-7.2-14.09-9.74-29.55-12.02-35.84-5.33-31.76-6.51-26.75,2.16,3.22,5.53,3.73,5.38-3.08,5.96-6.82.57-8.23-4.8-12.6-7.5-4.36-2.69.45-1.04-13.54-1.23-13.99-.19-8.53-3.15-14.75-1.67-6.23,1.47-9.25.12-16.62-1.39-11.88-2.43,5.23-12.15-13.03-16.58-11.73-2.86-11.59-4.95-22.21-4.08-10.65.86-11.02,3.99-16.32.84-7.29-4.34,1.46-13.43-46.67-25.57-12.93-3.3-15.5-5.24-19.78-1.38-4.3,3.85-4.11,3.56-2.16,7.29,1.95,3.73,3.84,6.11-2.71,7.43-14.1,2.84-16.75-4.6-30.65-1.56-5.38,1.17-5.63-6.85-10.46-4.19-4.86,2.67-5.68,10.55-10.31,9.19-4.63-1.35-8.43-2.4-9.12-9.69-1.38-15.43,11.28-11.13,1.13-22.59-5.03-5.77,6.09-6.01-24.45-4.81-7.17.29-2.62,4.61-8.75,5.49-5.44.78-38.13,2.63-27.18-4.66,5.95-4,8.11-4-6.43-4.02-22.24-.04-18.1-2.7-27.23-3.61-13.63-1.38-45.39,11.99-33.08,4.24,6.51-4.14,4.76-7.41,16.26-13.62,22.85-12.53,42.08-14.34,27.51-30.7-3.65-4.15-6.56-5.5-14.37-6.84-7.8-1.35-10.55-2.54-9.67.73.89,3.27,6.59,4.16-3.27,4.15s-13.41-3.28-7.94-5.05c5.47-1.78,7.96-1.62-1.23-3.71-9.14-2.1-2.28-5.2-.07-5.94,2.86-.96-14.91-5.52-22.31,4.43-4,5.33,8.22,4.6-11.59,9.03-32.26,7.14-72.54,4.19-74.82,15.02-3.5,16.89,17.15,20.33-36.14,20.24-5.23,0-7.75-2.24-7.9.58-.99,22.96-1.41,11.1,4.57,15.71,2.51,1.94,3.38,3.86,3.6,6.68.94,10.41-20.7-7.08-33.33-1.55-8.12,3.54-6.75,5.31-.58,7.26,6.19,1.94-6.51,1.76-9.36,1.76-7.05-.01,3.27-12.91,3.3-19.54,0,0-1.58,3.84-7.19,8.73-5.64,4.87-5.4,10.5-6.81,16.12-1.41,5.62-6.92,12.72-8.85,17.91s10.59-.42,14.79,5.52c4.26,5.93,1.79,15.85,1.63,16.29s-1.62-10.08-5.96-12.91c-4.32-2.82-6.93.58-11.19,2.78-4.28,2.21-.96,6.82-1.7,9.77-.74,2.96-12.47,9.15-17.86,12.25-5.4,3.1-3.14,4.14-8.15,3.38-4.99-.76-8.97-2.7-11.81-4.91-5.64-4.53,15.42,4.85,30.63-14.29,3.96-5.02-.35-8.29-2.26-10.96-1.91-2.67-1.16-4.15,4.26-15.68,5.4-11.54-.59-12.59,7.22-22.04,7.76-9.46,10.17-15.83,10.17-15.83-18.82-2.69-19.47-3.64-28.51,11.19-4.28,6.95-10.8,9.02-15.03,14.48-4.25,5.46,2.5,3.41-.6,11.1s4.15,5.78,3.49,13.92c-.63,8.15-5.66,13.01-5.66,13.01-6.79-13.33-28.79-35.05-42.66-19.94,8.51,7.68,5.99,5.7-5.47,11.39-3.3,1.61-3.25.73-6.24-.32-2.98-1.03,6.72-4.7-1.35-3.55-14.3,2.06-20.23,7.39-30.18,2.44-10.87-5.52-42.69,16.83-55.48,17.89-6.93.57-6.62-9.92.36-9.31,6.97.62,2.97-2.8,2.3-5.9-.66-3.11-8.29,2.34-11.76,4.4-6.86,4.07,8.81,6.95-4.61,18.17-3.38,2.79-9.18-.92-17.68,1.57-8.53,2.5-11.21,7.22-15.71,10.01-4.5,2.79.78,4.58-5.6,4.85-6.38.27-7.69-2.24-11.24-.92-3.57,1.32-4.92,4.12-2.72,5.31,2.21,1.19,1.91,3.4,2.34,4.58.44,1.19-4.43,1.91-7.44,2.49-3,.58-2.31,1.62-8.88-2.1-11.19-6.36,12.25-17.94,5.37-28.78-7.48-12.18-3.88-6.65,11.4-1.6,9.04,2.98,6.7,6.67,21.01,3.91,14.26-2.77,13.01-8.68,18.63-14.72,5.59-6.05-4.11-3.71-9.87-6.53-5.71-2.82-6.39-9.17-15.15-10.38-23.73-3.28-19.96-9.85-11.76-9.18,5.53.45,5.17-1.03,2.1-3.1-3.06-2.07-9.73,3.38-15.76,2.63-6.02-.75-5.38-5.62-5.38-5.62,0,0,6.24.6,11.51-1.75,5.22-2.35,4.21-2.65-.99-5.6-10.98-6.33-16.31-2.16-29.48,5.39-6.95,3.97-1.39-1.33,6.99-6.33,8.35-5,9.8-6.03,3.83-5.01-5.96,1.02-5.8-1.49-11.56,2.78-17.14,12.65-38.37,11.75-65.49,31.71-11.71,8.52-21.27,13.37-29.95,21.3-31.29,28.33-34.67,22.52-48.91,32.74-4.53,3.23-4.5,2.94-17.44,7.91-21.59,8.23-15.26,3.49-34.36,30.99-3.38,4.86-6.77,8.68-3.26,10.31,3.54,1.64,13.32,1.23,24.13-5.36,10.48-6.44,9.95-6.97,16.25-12.34,0,0-2.42,4.71-.86,7.07,1.57,2.37-3.97,6.78-3.67,11.35.32,4.57.51,7.68.9,11.36.4,3.69-7.93,10.89-2.09,11.81,5.86.9,9.5-4.69,12.91-7.63,3.42-2.94,9.52-4.24,13.1-7.18,3.58-2.94,3.98-6.19,12.3-12.79,11.38-9.08,31.67-8.62,19.63-16.91-4.71-3.26-2.69-3.55,5.12-12.97,7.8-9.41,9.4-8.53,17.65-12.19,8.22-3.66,17.93-6.58,19.5-10.56,1.56-3.98-3.3-4.73,6.41-12.38,9.66-7.65,12.41-4.39,15.22-3.79,2.03.43,13.28,10.64,1.17,11.52-3.89.28-4.8,4.42-14.08,9.41-9.34,4.99-20.96,8.94-20.64,13.66.35,4.73-2.83,6.62-5.83,11.49-11.69,18.93,44.25.46,48.43,10.06.72,1.63-8.57-1.06-12.92.69-8.01,3.25,4.29,4.05-16.72,3.34-9.58-.33-17.38,1.27-19.4,1.26s-.73.88-.02,4.87c.73,3.99,1.21,4.44,4.54,4.15,3.34-.29-3.57,5.31-7.27,9.57-3.71,4.27-2.25,3.39-8.08,2.18-5.82-1.2,1.17-6.49-4.96-5.33-5.63,1.06-4.51.34-12.91,10.87-3.41,4.27-.41,3.4-3.69,8.99-3.28,5.61-5.39,4.12-10.02,4.54-4.65.43-7.07,3.07-11.04,4.54-1.92.71-.49.7-.09.68-27.75,1.8-20.1.04-25.21,1.28-6.6,1.6-7.65,6.17-12.34,4.53-4.67-1.64-1.59-3.4-10.18-3.44s-10.07,2.77-10.33-2.84c-.5-14.79,13.14-17.84,19.94-26.63,5.58-7.21,8.12-7.94-2.76-5.62-10.9,2.32-11.27,2.32-18.41,15.27-13.66,24.93,3.02,18.46-23.01,23.37-1.54.29,2.24,1.78-6.01,2.33-16.35,1.11-15.61,3.65-20.08,8.92-3.34,3.96-6.48,7.06-6.22,7.8,1.28,3.63-16.46.59-22.11,5.66-2.15,1.91,1.25,4.28-3.91,6.32-5.19,2.05-10.57,1.88-11.77,4.38-1.21,2.5-1.25,3.39-8.72,3.35-10.42-.05-6.62-7.03-8.43,1.59-.48,2.24-15.3,6.72-13.28,2.74-8.55-.04-14.98.02-10.85,4.52,1.75,1.92.34,2.21-3.28,3.08-3.64.87,3.28-.14,7.86,1.21,4.57,1.35-.11,5.02.66,7.53.77,2.51,3.47,2.37,4.47,4.3,1.02,1.93-3.48,6.18-9.37,15.45-10.09,15.84-8.04,9.51-32.63,7.36-3.65-.31-11.54,1.27-17.39.36-14.53-2.27-13.52-.97-12.12,2,.62,1.34-4.95,3.82-5.62,6.31-.7,2.5-6.49,8.23-8.7,12.5-4.26,8.24-22.58,19.65-14.76,19.69,1.45,0-1.01,1.32-5.19,5.43-11.13,10.89-10.79,6.18,5.5,5.78,9.88-.24,11.38-.83,6.92,3.43-4.46,4.26-.72,2.95,4.99,2.1,5.71-.85,5.15-3.22,12.6-2.44,7.45.78,13.92-1.69,19.53-4.76,5.59-3.07-.02,1.18,8.42-2.62,8.4-3.79,8.41-6.15,11.79-9.09,3.37-2.94-6.05,1.15,6.23-7.49,33.46-23.81,29.07-9.39,35.32-18.27,6.98-9.91,18.08-15.3,24.23-10.65,3.77,2.82,3.96,1.05,11.38-2.61,37.39-18.62,14.5,8.86,27.15,15.28,1.62.82-.9,3.54,2.52,4.29,8.73,1.93,21.16,17.03,2.17,25.05-9.32,3.89-27.86,2.46-23.86,5.18,2.18,1.5,4.81.85,7.34,2.78,2.52,1.93-.29,4.8,3.72,4.97,6.66.28,2.45-5.06,7.52-8.83,9.47-7.09,2.65-.15,6.88-1.88,2.86-1.17,5.21-3.37,8.16-5.2,2.95-1.83,5-.94,6.67-3.22,1.65-2.28.15-4.65,3.68-7.74,3.52-3.08,4.94-5.15,7.67-.63,2.76,4.52,2.78-1.6,2.68-3.23-.11-1.63-3.19-3.79-6.2-5.87-8.6-6,1.13-3.84-.16-5.54-.82-1.13-7.13,1.22-10.3-5-2.3-4.57,2.02-10.5-1.89-13.16-5.7-3.86-.26-.61,2.47-10.03.32-1.1.81-1.69,6.56-3.06,10.85-2.61,7.8,10.92,7.85,13.84.13,5.57,29.82,7.59,12.82,26.06-4.75,5.14.84,3.82-.2,12.78-.38,3.47-1.46,3.69,1.24,5.41,2.72,1.71.86,1.99-2.19,5.24-3.06,3.24-1.77,5.6-2.33,7.01-.54,1.41,2.65-.87,3.37,1.57.72,2.45,2.49,1.79,3.56,1.94,1.07.15.25-.22,2.99-3.17,10.05-10.77,10.6-4.79,10.74-10.21.11-3.62-6.46-.92-1.8-6.81,5.45-6.92-1.62-10.87,9.13-14.43,8.79-2.92,8.75-1.49,13.99-.08,3.74,1.01,9.85,1.39,9.8,2.42-.07,1.04-1.86,3.24.01,2.52,1.87-.73,3.12-1.86,7.05-3.86,8.87-4.52,9.99-.03,13.41-2.69,2.5-1.94-11.78-7.75,4.63-17.27,2.64-1.55,3.72-1.12,9.02-8.23,1.24-1.67.17-2.27,2.81-3.1,10.41-3.23,7.8-7.19,11.9-10.28,10.62-8.01,13.09-7.64,19.03-7.3,4.22.24,8.02-.84,4.13.81-1.13.49-.89.99-3.33,1.17-2.45.18-3.48-.21-3.48-.21.24,4.33,14.63,1.42,11.64,4.24-7.6,7.13-18.15,5.12-10.79,7.84,2.07.75,4.82-1.37,2.7,1.78-6.19,9.27,18.66-2.39,22.71-3.19,1.44-.29-1.18-.66-2.19-.9-1.02-.26.77-.3-2.45-2.04-3.19-1.75-2.71-3.07-2.48-4.45.23-1.38-.11-.29,5.35-2.78,5.45-2.49,2.41-2.56,9.9-3.95,5.72-1.07,23.77-5.02,20.03-1.09-4.69,5-12.81,2.51-12.19,4.44.4,1.13,6.61,3.23,2.68,4.19-9.55,2.34-4.22,4.62-11.32,5.82-16.54,2.76,2.45,7.48,5.63,10.82,1.65,1.73,4.2,5.98,5.73,7.33,1.53,1.34,5.44,3.23,5.09,6.14-.37,2.9-.13,6.66-4.18,8.36-14.15,5.96-27.25,4.79-37.51.9-1.7-.65.62-1.87-1.83-2.28-2.46-.41-4.12.13-5.56-1.01-1.43-1.15.19-2.32-6.19-2.15-10.1.26-10.34-1.45-19.06,5.33-2.43,1.86-30.67.72-16.02,4.16,1.68.39-10.18,3.45-13.2,3.58-9.66.42-12.51.09-17.87,4.59-7.18,6.01,6.05-.15,2.17,3.36-2.85,2.54-7.34,12.88-4.21,17.02,4.78,6.3,12.65,7.42,16.19,6.65,5.65-1.24,2.28-5.12,7.86-3.66,13.63,3.54,1.95,4.65,13.08,5.15,10.33.45,7.94-6.23,14.27-4.71,1.42.36,1.28,1.49,3.27,1.06,2.01-.44,7.11-1.78,4.82.47-7.6,7.45-3.02,7.27-8.46,13.71-2.11,2.5-17.43,18.87-26.57,24.06-5.57,3.16-20.43,3.85-22.05-.42-1.55-4.09-7.44,3.66-20.77,3.18-11.2-.4-10.69-4.27-22.7-3.73-1.93.09.83-1.38-2.22-2.42-19.64-6.89-3.06-7.3-19.99-6.82-6.09.17-9.53-.37-17.95,7.34-3.17,2.92,5.16,1.22-5.39,8.05-5.94,3.85-10.54-1.36-12.26-2.48-1.89-1.24-6.79-1.27-10.64-2.48-3.84-1.2-2.59-3.36-3.8-5.63-3.26-6.35-10.72-2.06-27.12-11.53-4.14-2.44-4.49-2.79-.76-4.84,23.52-12.98,1.05-8.73,19.72-19.19,2.04-1.15-7.59-3.78-8.23-3.78-1.81,0-6.66,4.14-15.72,2.77-8.11-1.23-7.67-3.03-16.24,2.22-2.2,1.35-6.54-2.67-10.46-2.36-6.74.51-29.38,5.09-47.21,11.16-15.45,5.23-4.02.68-14.94.75-6.48.03-6.58,2.81-11.49-1.15-2.07-1.68-.06-3.44-3.5-2.23-3.46,1.22-6.99,4.98-10.94,7.97-6.86,5.18-4.77,5.08-28.56,12.18-5.42,1.61-20.14,19.54-24.21,22.78-2.47,1.95-12.74,3.09-30.75,10.89-2.31.99-62.9,38.47-63.31,39.65-.18.49-7.86,21.63-11.3,24.48-1.08.9-21.14,14.22-22.25,15.5-.92,1.07.74,1.28,1.32,3.56,4.26,15.92-2.94,38.18,17.24,47.36,10.8,4.82,8.33,9.91,21.12,6.99,33.45-7.67,27.37.71,45.41-2.74,9.66-1.87,14.93-5.93,37.01-6.85,20.1-.84,15.59-1.43,20.84,7.34,1.5,2.53.39,3.65,7.85,3.8,52.03,1.04-22.91,25,3.84,48.03,2.3,1.94,3.9.77,3.57,3.72-.43,4.18-8.42,25.28-8.9,30.75-.96,11.06-9.38,15.95-22.15,23.7-4.76,2.88-2.13,2.85-6.02,7.06-.44.48-15.04,15.95-15.77,17.28-1.07,1.92,8.07,21.47,1.96,35.62-7.7,17.9-9.78,19.48-7.27,22.14,1.72,1.83,6.56,1.43,7.03,12.58.63,12.79,3.26,8.52.09,14.95-3.47,7.08-6.38,5.04.49,12.69,5.12,5.64-2.35,3.35,36.97,1.14,14.6-.81,3.03.47,19.48-2.21,16.4-2.68,18.4-.14,23.68-3.9,7.49-5.36,20.56-5.83,36.25-15.5,33.07-20.58,28.28-13.94,30.99-18.02,11.53-17.21,6.18-14.27,17-16.45,21.71-4.41,17.29-.88,26.66-13.22,2.57-3.39,4.46-3.08,3.71-7.03-2.48-13.12-5.9-7.82,24.67-23.86,15.92-8.39,35.24,2.35,51.34-33.48,6.32-13.93-.22-9.42-.72-16.7-.53-7.78,10.87-6.55,2.93-15.08-3.41-3.76,55.83-36.5,57.9-37.7,18.49-10.81,26.37-11.04,36.61-16.88,3.34-1.92,38.09-26.18,45.77-32.63,25.22-21.41,18.03-17.69-5.04-14.36-41.92,6.02-37.24,6.33-40.64,4.32-4.52-2.69-7.32-4.04-8.49-5.68-1.47-2.06,4.67-4.81,3.33-8.66-1.11-3.22-4.78-4.77-6.02-6.81-1.24-2.04.22-2.61-2.7-3.47-7.43-2.18-9.93-2.67-9.48-7.67.26-3.1.41-10.88-2.18-13.09-7.74-6.65.35-7.5,1.85-17.46.99-6.32-5.3-4.43-4.19-14.43,2.04-17.04-8.89-32.78.78-39.15,4.59-3.07-2.07,11.75,5.08,8.7,2.96-1.27,9.46-7.84,9.15-5.33-.96,7.88-3.85-7.64,3.76,28.15,2.4,10.11,6.07,2.35,4.83,16.99-.28,3.45-3.33,7.48-2.46,8.67,21.64,28.27,8.6,28.82,8.77,42.69.11,6.22,9.54,1.95,17.76-.37,8.73-2.47,22.1-1.25,27.51-4.86,1.82-1.22,1.26-2.11,6.24-2.42,4.99-.32,16.07-3.46,22-4.8,5.2-1.18,6.4-4.24,16.36-6.36,5.4-1.15,7.15-.15,9.25-1.22,6.22-3.17-3-3.06,23.03-9.39,11.4-2.79,2.59-2.76,13.64-12.41.77,6.22,13.11-4.3,14.99-6.43,6.13-6.94.13-1.48-1.48-6.48-1.38-4.26,4.82-2.41-10.23-7.72-3.72-1.31-4.63-.27-5.09-3.19-.44-2.91,3.39-7.34,1.68-7.79-1.7-.46-3.58,3.68-7.01,4.85-8.42,2.87-5.2,7.07-30.04,6.92-9.63-.06-.97-4.06-2.88-13.79-1.79,6.62-5.81,10.03-5.83,8.26,0-1.53-1.45-2.83-2.23-7.91-.77-5.09.61-4.73-2.15-8.4-2.75-3.67-.39-3.41-2.05-5.84-1.65-2.43-3.98-4.92-1.15-6.68,8.77-5.45,6.93-5.04,12.18-5.01,8.94.05,8.89-1.17,9.14,7.85.28,8.26,5.52,7.06,7.53,9.32,2.83,3.16,3.14,6.45,18.98,5.69,19.91-.96,5.47,5.61,15.57,6.76,19.59,2.25,15.93,4.87,27.2,5.21,20.94.62,19.14-3.22,30.39-3.33,8.66-.09,9.93-3.55,11.09,2.88,1.55,8.21-.77,6.77,7.35,9.44,6.4,2.1.69,3.03,15.3,1.97,1.29,2.7-12.06,4.19-13.87,3.97-.85-.1.68,1.93,4.34,5.56,3.67,3.64,4.82,3.59,10.35,3.28,5.51-.31,6.3-2.58,8.36-4.45,2.06-1.86,8.23-5.53,7.62-4.55-23.71,38.76-.77,63.63,3.52,79.68,1.03,3.71.87,4.16,6.92,1.68,14.81-6.1,10.24-8.35,19.44-17.58,9.05-9.03,7.85-9.58,11.03-19.54,2.31-7.35,1.21,1.09,34.12-17.95,18.86-11.09,27.3-13.92,29.57-16.14,2.26-2.21-2.32-4.47,4.18-4.8,6.5-.33,19.94-.62,26.66-3.62,6.69-3,7.97-4.69,9.29,1.17,3.2,13.97,11.99,5.64,15.39,23.85,1.12,6.15-14.3,11.57,1.92,11.67,3.43.02,6.72-2.03,11.16-5.42,4.44-3.39,3.66-3.91,4.89.03,11.55,35.07-10.09,44.03-3.88,49.43,3.45,3,14.89,7.98,15.76,12.14,2.41,11.35-2.94,17.14,18.22,25.08,7.28,2.73,7.27,1.69,3.61-3.09-6.99-9.13,2.99-14.14-10.13-22.51-8.16-5.25-7.5-2.13-9.88-7.79-2.35-5.66-.16-10.7-5.17-10.29-5.02.41-2.25-4.92.23-10.1,2.48-5.19,7.6-3.51,8.22-8.71.61-5.2,5.23-4.27,7.32-4.41,2.12-.13-2.83,3.1.06,3.56,2.9.47,18.29,3.84,22.68,7.88,16.43,14.94-7.11,19.82,13.98,11.24,28.71-11.83,32.73-21.37,27.03-34.01-2.32-5.21-14.56-14.95-16.96-17.34-2.41-2.39-3.3-.47.66-6.08,3.96-5.63,11.9-5.87,19.38-10.29,7.32-4.35,19.45-4.1,16.09,2.48-1.12,2.22,2.42,3.59,3.19,2.1,1.3-2.67-3.45-5.47,23.24-8.78,17.42-2.14,41.09-10.84,51.57-23.01,22.01-26.17,21.56-21.68,17.52-25.32-9.32-8.47,2.23-14.35-.89-21.12-7.06-15.74-17.13-9.4-3.98-18.17,12.57-8.47,25.18-12.65,10.2-12.73-13.86-.07-12.72,7.25-24.06-8.15-3.41-4.76,11.13-4.49,21.77-10.74,8.2-4.86,10.86-6.04,13.49-4.24,2.64,1.8.5,2.23,1.31,6.54.84,4.32,3.01-.57,9.39-.09,16.61,1.26,7.25,5.82,9.3,11.35,1.39,3.72,4.88,1.07,8.89,4.2,4.02,3.15-2.36,5.35-4.02,6.68-1.65,1.33,2.57,1.35,2.45,5.67-.13,4.31-1.27,11.74-1.68,13.23-.4,1.49,10.88.06,13.6-3.04,13.66-15.89,4.08-21.47-1.18-30.5-5-8.73,12.02-9.92,16.14-18.81,2.72-5.93,5.44-8.15,11.16-11.84,5.71-3.69,7.41-4.27,9.32-.99,6.86,11.58,39.25-19.47,41.6-22.71,24.73-34.91,9.92-14.41,21.4-42.76,5.58-14.19,8.38-17.5-6.16-27.57-4.95-3.43-2.57,1.03-4,4.9-1.43,3.86.4,2.53-5.77,2.5s-8.76-1.52-9.38-5.99c-.59-4.47-1.4-4.02-7.08-4.93-5.67-.92-4.54-.62,3.02-6.24,7.51-5.62,15.4-6.94,22.09-13.01,6.64-6.07,21.53-16.74,23.71-18.97,2.17-2.23,1.67-3.42,9.27-2.65,7.6.78,18.38,1.42,20.79,1.87,2.41.46,2.13,3.59,7.04,1.96,4.88-1.61,1.78-4.31,9.94-2.79,8.18,1.52,17.5,2.44,13.76,3.48-3.76,1.03-7.13,2.06-.76,2.54,6.35.46,19.63.96,17.39-.83-2.24-1.79-6.17-.91.72-8.34,13.02-14.25,27.66-10.8,35.62-14.92,3.97-2.08,3.92,1.95,2.93,5.81-.99,3.88,3.24,3,8.41-2.05,5.14-5.05,5.27-6.39,12.09-5.77,12.84,1.16,4.52-.41-.22,3.28-2.67,2.07,4.38,6.57-7.91,13.98-38.77,22.87-1.02,8.66-42.71,25.17-9.78,3.82,3.75,82.89,24.5,33.92,5.11-12.64,9.84-4.25,15.73-20.2,0,0,4.02-14.44,4.02-14.45,1.21-3.75-28.42-2.88,13.67-21.26,4.01-1.77,7.36-1.76,7.36-1.76,0,0-.61,5.81,1.75,4.78,2.38-1.04,3.99-5.21,13.41-3.23,19.74,4.11.44,2.88,37.2-10.31,10.16-3.68,9.26-6.97,19.19-5.3,9.95,1.68,10.47-.26,10.47-.26-7.05-7.95-4.03-10.17-16.38-17.51,30.56-3.24,11.72-11.75,24.65-12.3-1.43,11.29,13.51.92,18.64,10.05,2.89,5.09,6.2,4.05,10.2,5.26,18.96,5.73,6.72,4.53,10.79-.86,1.65-2.23,1.31-6.87,1.31-6.87,7.5,2.43,18.02.52,17.32-.24Z"/>
          <path class="cls-2" d="m499.17,826.59c-6.89-4.4-6.99,4.69-17.7,13.49-10.8,8.82-22.13,4.38-36.22,10.79-14.16,6.41-11.46,4.46-7.94,13.57,3.6,9.11-10.94,8.02-20.21,18.61-9.28,10.6.03,8.7-.11,17.78-.07,9.08,3.41,6.35,12.36,5.23,8.93-1.11,16.02-3.43,16.02-3.43,10.19-15.11,31.09-32.16,40.37-47.11,4.76-7.67,8.44-13.17,10.01-10.8,3.87,5.94,8.59-14.87,3.42-18.15Z"/>
          <path class="cls-2" d="m807.03,700.88c-.73-1.04-.55-1.17-.55-1.17,0,0-1.27-.33-1.59.61l.16-.19c-.02,1.91,3.42,2.79,1.99.76Z"/>
          <path class="cls-2" d="m1036.78,792.45c-3.36-.42,2.46,2.4-7.82,1.42-10.3-.96-6.84.55-11.76-1.76-4.91-2.32-4.83-2.71-8.33-3.13-3.5-.42-4.53.56-4.53.56-3.91-.03-5.53-1.53-8.83,1.52-3.3,3.05-2.97,3.05,1.12,3.08s2.96,1.41,2.7,1.8c-.37.61,14.26,5.14,22.45,2.54,2.46-.77,2.71,2.01,13.97,3.27,11.25,1.28,17.7-.56,24.87.68,13.3,2.29-1.79-7.19-23.82-9.99Z"/>
          <path class="cls-2" d="m1174.34,693.31c6.63-10.15-11.57-8.85-7.86-6.08,2.52,1.87,5.01,2.3,4.47,3.67-1.42,3.69-8.54-2.19-3.62,4.1,1.44,1.85.34,5.81,2.24,4.48.61-12.58,3.4-4.09,4.77-6.18Z"/>
          <path class="cls-2" d="m1141.32,676.12c.68,5.78,7.96,2.84,10.55,6.42,1.02,1.39,1.14-3.67,3.25-3.36,4.46.67,5.16,5.51,9.17,5.71,0,0-2.96-4.08-1.35-4.57,1.6-.48,2.11-.87-1.64-2.59-6.9-3.15-13.02.49-14.97-4.36-1.67-4.17.56-6.74.7-7.63s1.46,1.4,3.72-1.46c2.24-2.86,3.03-5.13,3.13-7.91.11-2.77,3.29-3.85,1.03-3.96-2.25-.11-8.9-.06-10.28-.86-3.46-1.99-8.37,10.2-7.21,12.25,2.8,4.88-2.79.83-3.27.39-7.5,12.33,6.66,7.34,7.15,11.93Z"/>
          <path class="cls-2" d="m1152.84,626.12c3.27-4.35,4.41-10.04,5.7-11.76,1.3-1.73-1.91-3.04-5.37-1.58-10.13,4.28-14.34,3.93-11.44,9.45,5.86,11.05,5.55,11.31,11.11,3.89Z"/>
          <path class="cls-2" d="m1106.71,809.33c5.84,1.49,11.3,3.43,11.17,1.45-.22-3.27-11.96-6.75-13.09-4.07-.5,1.22-3.9,1.12,1.92,2.62Z"/>
          <path class="cls-2" d="m1158.45,708.19c.18-.45-1.07-2.76-2.75-1.21-1.68,1.55-3.24,2.55-6.68,3.63-6.18,1.97-8.56,6.75-4.73,6.67,5.88-2.82,2.34-4.82,10.77-5.47,11.02-.82-1,8.78,7.7,10.91,3.96.96,2.12.09,5.86-.11,9.29-.49-3.9-4.37,5.13-7.66.8-.29,1.04,1.5,1.92,3.36,2.45,5.25,7.17-11.64,1.66-14.6-5.52-2.98-4.4-4.59-3.86,1.32.21,2.01-2.72-.58-4.1.56-1.38,1.15-1.99.91-4.05,1.46-5.38,1.43-8.9,6.29-6.89,1.15Z"/>
          <path class="cls-2" d="m991.33,767.85c-.86-1.19-1.86-5.26-4.29-6.57-2.45-1.3-3.41.07-2.67-3.09,1.22-5.21,5.55-.25-4.54-8.65-.58-.49-17.51-5.1-25.39-11.47-13.72-11.16-9.38-11.17-27.8-12.95-3.26-.33-4.96-.93-1.83,2.65,11.91,13.48,12.63,3.45,14.98,9.81,1.78,4.77.64,4.86,3.2,6.66,2.57,1.8,4.99,2.32,5.33,4.1,2.04,10.39,5.3,3.23,7.84,12.13,4.8,16.09,11.7,14.11,17.55,20.33,3.79,3.99,10.46,9.78,12.12,8.21,3.56-3.37,6.54,5.59,14.07-8.91,5.63-10.92-7.06-10.09-8.58-12.25Z"/>
          <path class="cls-2" d="m806.64,703.8c-4.51,5.89-12.41,22.71,2.26,18.66,10.5-2.91,7.9-7.12,3.38-15.75-1.17-2.28-3.93-5.17-5.64-2.91Z"/>
          <path class="cls-2" d="m1105.74,802.07c1.34-1.18-1.41-.4-4.92-1.13-3.49-.71-3.36.47-8.36.84-4.97.36-7.09-.75-7.09-.75-22.57,4.23,17.1,3.95,20.37,1.04Z"/>
          <path class="cls-2" d="m1032.17,753.88c3.25,2.2-3.02,2.25-2.53,3.74.48,1.49-.07,4.27,2.1,4.58,2.19.31,3.02-1.37,5.3.93,2.27,2.3-1.29,8.71,2.19,9.03,3.5.32,6.28-.65,9.17.26,8.29,2.61,12.65-1.13,19.6,1.73,1.95.81,9.25,2.54,13.02,2.37,3.77-.17,4.3.43,5.56-3.03,4.74-13.09,10.37-8.43,12.18-14.49,4.02-13.31,8.46-6.15,10.17-8.06,1.76-1.97,3.2-1.95,2.55-2.95-.64-1-4.78-1.03-6.05-2.92-1.28-1.89.96-2.87-.31-6.74-1.26-3.87-2.6-2.4.45-4.56,3.05-2.15,5.33-2.54,5.92-4.22.6-1.69,1.71-1.78,5.29-3.33,3.55-1.56-.39-.85-3.28-2.45-9.66-5.42-6.92-13.94-24.64.67-2.78,2.26,1.9,1.7-1.92,3.66-3.82,1.95-6.33,1.04-10.35,3.99-8.87,6.48-35.99,11.41-25.42,15.68-2.57.72-11.72-1.44-11.71-3.65-3.39-.11-12.09,6.46-7.3,9.76Z"/>
          <path class="cls-2" d="m1134.17,664.19s0-.01.01-.02c-.06-.03-.06-.02-.01.02Z"/>
          <path class="cls-2" d="m1060.45,651.61c4.02-.97,1.98-2.22,7.73-6.2.69-.49-1.52-2.19-1.49-2.34.03-.14-2.33,1.08-2.33,1.08-13.2.18-5.9-.35-13.73,2.69-1.89.72-2.1,1.76-1.29,3.7.79,1.94,2.81,2.05,6.07,2.72,3.26.67,2.4-1.02,5.03-1.65Z"/>
        </g>
      </g>
    </g>
  </g>
</svg>