<svg id="Layer_2" data-name="Layer 2" xmlns="http://www.w3.org/2000/svg" viewBox="0 0 624 1152"><defs><style>.cls-1{fill:#fafbfb;}.cls-2{fill:none;stroke:#cccccb;stroke-miterlimit:10;stroke-width:3px;}.cls-3{fill:#6290c0;}.cls-4{fill:#6492c1;}.cls-5{fill:#676767;}.cls-6{fill:#6391c1;}.cls-7{fill:#231f20;}.cls-8{fill:#121212;}</style></defs><rect class="cls-1" x="-263" y="264" width="1150" height="624" rx="27" transform="translate(888 264) rotate(90)"/><line class="cls-2" x1="235.33" y1="88.1" x2="235.33" y2="966.16"/><circle class="cls-3" cx="235.55" cy="88.1" r="8.03"/><circle class="cls-3" cx="235.55" cy="457.81" r="8.03"/><circle class="cls-3" cx="235.55" cy="712.24" r="8.03"/><circle class="cls-3" cx="235.55" cy="965.76" r="8.03"/><path class="cls-4" d="M61.14,493.86a8,8,0,0,1,5.7,2.33,7.36,7.36,0,0,1,2,5.46v6.73a2.17,2.17,0,0,1-.52,1.51,2.3,2.3,0,0,1-1.54.57,2.17,2.17,0,0,1-1.52-.57,2.21,2.21,0,0,1-.56-1.51v-6.74a3.62,3.62,0,1,0-7.23,0v2.6a2.17,2.17,0,0,1-.47,1.51,1.86,1.86,0,0,1-1.35.56,1.8,1.8,0,0,1-1.33-.56,2.18,2.18,0,0,1-.48-1.51c0-.49,0-2.29,0-2.6a3.61,3.61,0,0,0-7.22-.05v6.79a2.09,2.09,0,0,1-.55,1.45,2.36,2.36,0,0,1-1.53.63,2.29,2.29,0,0,1-1.52-.63,2,2,0,0,1-.55-1.44v-6.76a7.37,7.37,0,0,1,2.08-5.44,8,8,0,0,1,5.68-2.32,6.77,6.77,0,0,1,5.42,2.66A6.8,6.8,0,0,1,61.14,493.86Z"/><path class="cls-4" d="M32.25,497.37c-2.47,0-3.72.75-3.72,1.55s1.15,1.56,3.62,1.56a12,12,0,0,1,5.42.8q2.9,1.47,2.9,3.89c0,1.63-1,2.94-2.9,3.91a12,12,0,0,1-5.42,1.37,12.89,12.89,0,0,1-4.07-.65,9.82,9.82,0,0,1-3.52-2,1.77,1.77,0,0,1-.62-1.33,1.87,1.87,0,0,1,.53-1.37,2.08,2.08,0,0,1,1.43-.61,2,2,0,0,1,1.47.52,5.79,5.79,0,0,0,2.22,1.24,8.69,8.69,0,0,0,2.56.39c2.46,0,3.78-.62,3.78-1.43S34.7,504,32.24,504a11.71,11.71,0,0,1-5.34-1.15Q24,501.37,24,498.92T26.9,495a11.71,11.71,0,0,1,5.34-1.15,11.07,11.07,0,0,1,7.59,2.68,1.84,1.84,0,0,1,.07,2.71,1.93,1.93,0,0,1-1.42.61,2.09,2.09,0,0,1-1.46-.53,7,7,0,0,0-2.22-1.63A8.59,8.59,0,0,0,32.25,497.37Z"/><path class="cls-4" d="M78.71,493.86a8.31,8.31,0,0,1,8.27,8.3v6.21a2.08,2.08,0,0,1-2.08,2.09,2,2,0,0,1-1.46-.61,2,2,0,0,1-.6-1.48v-6.21a4,4,0,0,0-1.22-2.93,4.1,4.1,0,0,0-5.84,0,4,4,0,0,0-1.21,2.93,4.13,4.13,0,0,0,4.14,4.14,2.1,2.1,0,0,1,2.06,2.07,2,2,0,0,1-.61,1.48,2,2,0,0,1-1.45.61A7.94,7.94,0,0,1,72.86,508a8.32,8.32,0,0,1,0-11.73A7.91,7.91,0,0,1,78.71,493.86Z"/><path class="cls-4" d="M96.8,493.86a8.3,8.3,0,0,1,8.27,8.29,2.07,2.07,0,0,1-2.08,2.07,2,2,0,0,1-1.46-.6,2,2,0,0,1-.6-1.47,4,4,0,0,0-1.22-2.92,4.08,4.08,0,0,0-5.84,0,4,4,0,0,0-1.21,2.92v6.21a2.08,2.08,0,0,1-2.07,2.09,2,2,0,0,1-1.46-.61,2,2,0,0,1-.6-1.48v-6.21A8,8,0,0,1,91,496.29,7.94,7.94,0,0,1,96.8,493.86Z"/><path class="cls-5" d="M117,495.94a2.07,2.07,0,0,1-2.07,2.07,3.94,3.94,0,0,0-2.92,1.22,4,4,0,0,0-1.22,2.93,4.14,4.14,0,0,0,8.27,0,2,2,0,0,1,.6-1.47,2,2,0,0,1,1.46-.6,2.07,2.07,0,0,1,2.08,2.07,8.27,8.27,0,1,1-16.53,0V489.73a2.06,2.06,0,0,1,.59-1.47,2.06,2.06,0,0,1,2.93,0,2,2,0,0,1,.6,1.47V495a6.94,6.94,0,0,1,3-1.09h1.16a2,2,0,0,1,1.46.61A2,2,0,0,1,117,495.94Z"/><path class="cls-5" d="M124.71,502.15a8,8,0,0,1,2.41-5.87,8.28,8.28,0,0,1,14.12,5.87,2,2,0,0,1-.61,1.47,2,2,0,0,1-1.46.61H133a2.08,2.08,0,0,1-1.46-3.54,2,2,0,0,1,1.46-.61h3.58A3.88,3.88,0,0,0,133,498a4,4,0,0,0-2.92,1.23A4.15,4.15,0,0,0,133,506.3h6.2a2.08,2.08,0,0,1,0,4.16H133a7.94,7.94,0,0,1-5.85-2.43A8,8,0,0,1,124.71,502.15Z"/><path class="cls-5" d="M142.79,502.16a8.27,8.27,0,1,1,16.54,0,2,2,0,0,1-.61,1.46,2,2,0,0,1-1.47.61h-6.19a2,2,0,0,1-1.46-.61,2,2,0,0,1-.6-1.46,2,2,0,0,1,.6-1.47,2,2,0,0,1,1.46-.6h3.58a3.89,3.89,0,0,0-3.58-2.08,4.15,4.15,0,0,0,0,8.29h6.19a2,2,0,0,1,1.47.61,2.06,2.06,0,0,1,0,2.93,2,2,0,0,1-1.47.61h-6.19a8.28,8.28,0,0,1-8.27-8.29Z"/><path class="cls-5" d="M135,489.72a2.06,2.06,0,1,1-2.06-2.08A2.07,2.07,0,0,1,135,489.72Z"/><path class="cls-5" d="M153.12,489.72a2.06,2.06,0,1,1-2.06-2.08A2.07,2.07,0,0,1,153.12,489.72Z"/><path class="cls-5" d="M164.83,508.37l1.81-1.71a2.4,2.4,0,0,0,1.81,1c.87,0,1.4-.59,1.7-2l1.55-7.14h3l-1.66,7.63a4.68,4.68,0,0,1-8.22,2.18Z"/><path class="cls-5" d="M174.58,506.87c0-3.3,2.42-5.91,5-5.91a2.24,2.24,0,0,1,2,1.07h0l.42-.86h2.41l-1.89,8.69h-2.45v-1.08h0a4.36,4.36,0,0,1-2.83,1.29C175.56,510.07,174.58,508.92,174.58,506.87Zm5.66-.21.61-2.78a1.2,1.2,0,0,0-1-.66c-1.1,0-2.12,1.35-2.12,3.3,0,.91.34,1.29.87,1.29A1.85,1.85,0,0,0,180.24,506.66Z"/><path class="cls-5" d="M187.05,510.77l-.45,2.15h-3l2.57-11.75h2.45l.07.93h0a4.56,4.56,0,0,1,2.76-1.14c1.66,0,2.64,1.14,2.64,3.2,0,3.3-2.42,5.91-5,5.91a2.08,2.08,0,0,1-1.77-.94h0Zm1.47-6.58-.64,3a1.07,1.07,0,0,0,1,.66c1.1,0,2.12-1.36,2.12-3.31,0-.9-.34-1.28-.87-1.28A1.83,1.83,0,0,0,188.52,504.19Z"/><path class="cls-5" d="M194.73,506.87c0-3.3,2.41-5.91,5-5.91a2.24,2.24,0,0,1,2,1.07h0l.41-.86h2.42l-1.89,8.69h-2.45v-1.08h0a4.36,4.36,0,0,1-2.83,1.29C195.71,510.07,194.73,508.92,194.73,506.87Zm5.66-.21.6-2.78a1.19,1.19,0,0,0-1-.66c-1.09,0-2.11,1.35-2.11,3.3,0,.91.34,1.29.87,1.29A1.85,1.85,0,0,0,200.39,506.66Z"/><path class="cls-5" d="M206.26,501.17h2.45v1.11h.07a5.12,5.12,0,0,1,3.14-1.32c1.54,0,2.22.76,2.22,2.26a5.6,5.6,0,0,1-.15,1.25l-1.17,5.39h-3l1.1-5a4.25,4.25,0,0,0,.15-.77.69.69,0,0,0-.79-.73c-.53,0-1,.31-1.66,1l-1.17,5.56h-3Z"/><path class="cls-5" d="M107.08,474.24a2.74,2.74,0,0,1-1-1.22,4.66,4.66,0,0,1-.35-1.87,8.41,8.41,0,0,1,.08-1l.79-5.42h2l-.77,5.38a5.52,5.52,0,0,0-.06.77c0,1,.39,1.54,1.16,1.54a1.16,1.16,0,0,0,1-.54,4.51,4.51,0,0,0,.54-1.77l.78-5.38h2l-.79,5.55q-.65,4.42-3.72,4.43A2.78,2.78,0,0,1,107.08,474.24Z"/><path class="cls-5" d="M114.07,474.38a3.83,3.83,0,0,1-1.27-.76l.78-2.07a3.85,3.85,0,0,0,1.13.72,3.12,3.12,0,0,0,1.21.25,1.49,1.49,0,0,0,.88-.23.74.74,0,0,0,.32-.64.6.6,0,0,0-.29-.54,3.45,3.45,0,0,0-.88-.42,7.74,7.74,0,0,1-1.13-.51,2.27,2.27,0,0,1-.78-.79,2.66,2.66,0,0,1-.33-1.4,4,4,0,0,1,.41-1.84,3,3,0,0,1,1.18-1.23,3.61,3.61,0,0,1,1.78-.43,4.24,4.24,0,0,1,1.4.22,3.26,3.26,0,0,1,1.13.62l-.73,2.06a2.83,2.83,0,0,0-.9-.56,3,3,0,0,0-1-.19,1.47,1.47,0,0,0-.93.27.85.85,0,0,0-.33.69.61.61,0,0,0,.29.55,3.47,3.47,0,0,0,.9.42,8.43,8.43,0,0,1,1.13.49,2.24,2.24,0,0,1,.76.77,2.51,2.51,0,0,1,.33,1.36,3.79,3.79,0,0,1-.42,1.82,3,3,0,0,1-1.18,1.23,3.55,3.55,0,0,1-1.78.43A4.83,4.83,0,0,1,114.07,474.38Z"/><path class="cls-5" d="M124.65,472.57h-3l-.81,1.91h-2.1l4.5-9.79h2l1.69,9.79h-2Zm-.3-2-.47-3.17-1.35,3.17Z"/><path class="cls-5" d="M131.63,462.7h1.76l-5.14,13.17h-1.76Z"/><path class="cls-5" d="M138.41,465.51a3.33,3.33,0,0,1,.74,2.32,5.2,5.2,0,0,1-.42,2.16,3.25,3.25,0,0,1-3,1.93h-1.4l-.36,2.56h-2l1.4-9.79h3A2.68,2.68,0,0,1,138.41,465.51Zm-1.62,3.79a1.88,1.88,0,0,0,.36-1.23,1.26,1.26,0,0,0-.29-.9,1.06,1.06,0,0,0-.81-.3H135l-.41,2.86h1.18A1.23,1.23,0,0,0,136.79,469.3Z"/><path class="cls-5" d="M143.92,472.57h-3l-.82,1.91H138l4.5-9.79h1.95l1.7,9.79h-2Zm-.3-2-.47-3.17-1.34,3.17Z"/><path class="cls-5" d="M153.47,470.12a3.14,3.14,0,0,1-1.44,1.42l1.2,2.94h-2.08l-1-2.61h-1l-.37,2.61h-2l1.4-9.79h3a2.67,2.67,0,0,1,2.09.82,3.34,3.34,0,0,1,.74,2.29A4.93,4.93,0,0,1,153.47,470.12Zm-1.79-2.95a1.06,1.06,0,0,0-.81-.3h-1l-.42,2.86h1.18a1.25,1.25,0,0,0,1-.43,1.88,1.88,0,0,0,.36-1.23A1.22,1.22,0,0,0,151.68,467.17Z"/><path class="cls-5" d="M156.64,466.88h-2.15l.32-2.19h6.28l-.32,2.19h-2.14l-1.09,7.6h-2Z"/><path class="cls-5" d="M168.5,464.69l-1.4,9.79h-1.64l-2.31-5.37-.77,5.37h-1.95l1.41-9.79h1.63L165.8,470l.76-5.35Z"/><path class="cls-5" d="M171.56,466.83l-.23,1.65h3.12l-.29,2.07H171l-.25,1.79h3.68l-.32,2.14h-5.63l1.41-9.79h5.49l-.31,2.14Z"/><path class="cls-5" d="M182,470.12a3.12,3.12,0,0,1-1.43,1.42l1.19,2.94h-2.07l-1-2.61h-1l-.37,2.61h-2l1.4-9.79h3a2.65,2.65,0,0,1,2.08.82,3.29,3.29,0,0,1,.75,2.29A4.93,4.93,0,0,1,182,470.12Zm-1.78-2.95a1.06,1.06,0,0,0-.81-.3h-1l-.43,2.86h1.19a1.25,1.25,0,0,0,1-.43,1.88,1.88,0,0,0,.36-1.23A1.26,1.26,0,0,0,180.18,467.17Z"/><path class="cls-4" d="M61.27,442.32a8,8,0,0,1,5.67,2.31,7.34,7.34,0,0,1,2,5.42v6.69a2.16,2.16,0,0,1-.52,1.5,2.31,2.31,0,0,1-1.53.56,1.92,1.92,0,0,1-2.06-2.06V450a3.59,3.59,0,1,0-7.18,0v2.58a2.14,2.14,0,0,1-.47,1.5,1.84,1.84,0,0,1-1.34.56,1.81,1.81,0,0,1-1.33-.56,2.19,2.19,0,0,1-.47-1.5c0-.49,0-2.28,0-2.58a3.59,3.59,0,0,0-7.17-.05v6.75a2,2,0,0,1-.55,1.43,2.28,2.28,0,0,1-1.51.63,2.25,2.25,0,0,1-1.52-.63,2,2,0,0,1-.54-1.43V450a7.32,7.32,0,0,1,2.07-5.39,7.91,7.91,0,0,1,5.63-2.31A6.71,6.71,0,0,1,55.88,445,6.72,6.72,0,0,1,61.27,442.32Z"/><path class="cls-4" d="M32.57,445.79c-2.45,0-3.69.75-3.69,1.55s1.14,1.54,3.59,1.54a12,12,0,0,1,5.39.8q2.88,1.47,2.88,3.87t-2.88,3.88a12,12,0,0,1-5.38,1.36,12.77,12.77,0,0,1-4-.65,9.8,9.8,0,0,1-3.49-2,1.73,1.73,0,0,1-.62-1.32,1.87,1.87,0,0,1,.53-1.37,2.13,2.13,0,0,1,2.87-.09,5.82,5.82,0,0,0,2.21,1.24,8.57,8.57,0,0,0,2.55.38c2.44,0,3.75-.61,3.75-1.41s-1.22-1.2-3.67-1.2a11.57,11.57,0,0,1-5.3-1.14c-1.92-1-2.87-2.25-2.87-3.87s.95-2.92,2.87-3.88a11.57,11.57,0,0,1,5.3-1.15A11,11,0,0,1,40.1,445a1.76,1.76,0,0,1,.63,1.33,1.78,1.78,0,0,1-.55,1.37,2,2,0,0,1-1.42.6,2,2,0,0,1-1.44-.53,7.17,7.17,0,0,0-2.21-1.62A8.82,8.82,0,0,0,32.57,445.79Z"/><path class="cls-4" d="M78.73,442.31a8.25,8.25,0,0,1,8.21,8.25v6.17a2,2,0,0,1-.6,1.47,2,2,0,0,1-1.46.6,2,2,0,0,1-1.45-.6,2,2,0,0,1-.6-1.47v-6.17a4,4,0,0,0-1.21-2.91,4.06,4.06,0,0,0-5.8,0,4.11,4.11,0,0,0,2.91,7,1.94,1.94,0,0,1,1.44.61,2.06,2.06,0,0,1-1.44,3.52,8.25,8.25,0,0,1,0-16.49Z"/><path class="cls-4" d="M96.7,442.31a8.25,8.25,0,0,1,8.21,8.24,1.94,1.94,0,0,1-.61,1.45,2,2,0,0,1-1.45.61,2.07,2.07,0,0,1-2.06-2.06,4,4,0,0,0-1.2-2.91,4.08,4.08,0,0,0-5.8,0,4,4,0,0,0-1.21,2.91v6.17a2,2,0,0,1-.6,1.46,1.94,1.94,0,0,1-1.45.61,2,2,0,0,1-1.46-.61,2,2,0,0,1-.59-1.46v-6.17a8.23,8.23,0,0,1,8.22-8.24Z"/><path class="cls-5" d="M116.71,444.37a1.93,1.93,0,0,1-.61,1.46,2,2,0,0,1-1.44.6,3.9,3.9,0,0,0-2.9,1.22,4.1,4.1,0,1,0,7,2.9,2.05,2.05,0,0,1,3.5-1.45,1.94,1.94,0,0,1,.61,1.45,8.21,8.21,0,1,1-16.42,0V438.21a2,2,0,0,1,.59-1.46,2,2,0,0,1,2.91,0,2,2,0,0,1,.6,1.46v5.2a6.75,6.75,0,0,1,3-1.08h1.15a2.08,2.08,0,0,1,2,2.05Z"/><path class="cls-5" d="M124.42,450.55a8,8,0,0,1,2.4-5.83,8.17,8.17,0,0,1,11.61,0,7.94,7.94,0,0,1,2.42,5.83,2.07,2.07,0,0,1-2.07,2.06h-6.15a2,2,0,0,1-1.46-.6,2.1,2.1,0,0,1,0-2.92,2,2,0,0,1,1.46-.6h3.55a3.86,3.86,0,0,0-3.55-2.07,3.94,3.94,0,0,0-2.91,1.22,4.12,4.12,0,0,0,2.91,7h6.15a2.08,2.08,0,0,1,2.07,2.06,2.07,2.07,0,0,1-2.07,2.07h-6.15a7.88,7.88,0,0,1-5.81-2.42A8,8,0,0,1,124.42,450.55Z"/><path class="cls-5" d="M142.39,450.55a8,8,0,0,1,2.39-5.82,8.22,8.22,0,0,1,14,5.82,2,2,0,0,1-2.06,2.06H150.6a2,2,0,0,1-1.46-.6,2,2,0,0,1-.59-1.46,2,2,0,0,1,.59-1.45,2,2,0,0,1,1.46-.6h3.55a3.86,3.86,0,0,0-3.55-2.07,3.94,3.94,0,0,0-2.91,1.22,4.11,4.11,0,0,0,2.91,7h6.15a2.07,2.07,0,1,1,0,4.13H150.6a8.19,8.19,0,0,1-8.21-8.24Z"/><path class="cls-5" d="M134.68,438.19a2,2,0,1,1-2.05-2.05A2.05,2.05,0,0,1,134.68,438.19Z"/><path class="cls-5" d="M152.65,438.19a2,2,0,1,1-2.05-2.05A2.05,2.05,0,0,1,152.65,438.19Z"/><path class="cls-6" d="M123.4,91.05h0a12.56,12.56,0,1,0,0-25.12h0a12.56,12.56,0,0,0,0,25.12Z"/><path class="cls-6" d="M139.63,100.42a18.46,18.46,0,0,0-12-4.31h-8.52a18.68,18.68,0,0,0-9.58,2.59c-3.7,2.2-8.11,6.62-8.11,15.19a2.2,2.2,0,0,0,2.19,2.2h39.5a2.2,2.2,0,0,0,2.2-2.2C145.34,108.32,143.37,103.66,139.63,100.42Z"/><path class="cls-6" d="M156.41,86h0a12.56,12.56,0,0,0,0-25.12h0a12.56,12.56,0,0,0,0,25.12Z"/><path class="cls-6" d="M178.36,108.8a2.21,2.21,0,0,1-2.2,2.2H151.27a22.54,22.54,0,0,0-7.66-15.16,24.27,24.27,0,0,0-2.05-1.58c.34-.23.68-.45,1-.65A18.61,18.61,0,0,1,152.15,91h8.52a18.48,18.48,0,0,1,12,4.31C176.38,98.56,178.36,103.22,178.36,108.8Z"/><path class="cls-6" d="M90.41,86h0a12.56,12.56,0,1,0,0-25.12h0a12.56,12.56,0,1,0,0,25.12Z"/><path class="cls-6" d="M105.25,94.25A22.31,22.31,0,0,0,95.52,111H70.65a2.21,2.21,0,0,1-2.2-2.2c0-8.57,4.42-13,8.12-15.19A18.68,18.68,0,0,1,86.15,91h8.52A18.75,18.75,0,0,1,105.25,94.25Z"/><path class="cls-7" d="M291.18,98.47a8.88,8.88,0,0,1-3.44-3.76,13.5,13.5,0,0,1,0-11.13,9,9,0,0,1,3.45-3.77,9.89,9.89,0,0,1,5.21-1.35,10.38,10.38,0,0,1,4.45.92A7.52,7.52,0,0,1,304,82a7.85,7.85,0,0,1,1.31,3.89h-4.62a4.79,4.79,0,0,0-.75-1.81,3.7,3.7,0,0,0-1.41-1.25,4.33,4.33,0,0,0-2-.44,4.5,4.5,0,0,0-2.64.8,5.24,5.24,0,0,0-1.77,2.33,9.25,9.25,0,0,0-.64,3.57,9.5,9.5,0,0,0,.63,3.63A5.2,5.2,0,0,0,293.84,95a4.38,4.38,0,0,0,2.66.82,4.49,4.49,0,0,0,1.94-.41,3.69,3.69,0,0,0,1.44-1.19,4.5,4.5,0,0,0,.8-1.89h4.62A8.1,8.1,0,0,1,304,96.25,7.63,7.63,0,0,1,301,98.88a10.26,10.26,0,0,1-4.49.94A10,10,0,0,1,291.18,98.47Z"/><path class="cls-7" d="M322.17,78.73H327V99.42h-4.69V95.75h-.22a6,6,0,0,1-1.35,2.06,6.54,6.54,0,0,1-2.11,1.38,7.34,7.34,0,0,1-2.76.49,6.89,6.89,0,0,1-3.6-.92,6.17,6.17,0,0,1-2.42-2.67A9.32,9.32,0,0,1,309,91.9V78.73h4.85V91.16a4.89,4.89,0,0,0,.49,2.26,3.65,3.65,0,0,0,1.38,1.5,3.87,3.87,0,0,0,2,.52,4.57,4.57,0,0,0,2.15-.54,4.25,4.25,0,0,0,1.65-1.61,5,5,0,0,0,.62-2.57Z"/><path class="cls-7" d="M342.22,82.75a4.19,4.19,0,0,0-2.47-.68,5,5,0,0,0-1.84.32,3.13,3.13,0,0,0-1.29.87,1.91,1.91,0,0,0-.47,1.25,1.8,1.8,0,0,0,.71,1.42,5.7,5.7,0,0,0,2.24.95l3.51.75a8.78,8.78,0,0,1,4.37,2,4.73,4.73,0,0,1,1.44,3.58,5.61,5.61,0,0,1-1.09,3.43A7,7,0,0,1,344.26,99a11.91,11.91,0,0,1-4.65.84,12.33,12.33,0,0,1-4.52-.75,7,7,0,0,1-3-2.15,6.73,6.73,0,0,1-1.34-3.39h4.91a2.81,2.81,0,0,0,1.23,2,4.91,4.91,0,0,0,2.72.66,6.08,6.08,0,0,0,2-.31A3,3,0,0,0,343,95a2,2,0,0,0,.48-1.32,1.81,1.81,0,0,0-.74-1.48,5.65,5.65,0,0,0-2.27-.93l-3.34-.7a8.37,8.37,0,0,1-4.33-2.06,5,5,0,0,1-1.47-3.7,5.48,5.48,0,0,1,1-3.33,6.6,6.6,0,0,1,2.93-2.22,11.48,11.48,0,0,1,4.4-.78,11.09,11.09,0,0,1,4.25.75,6.64,6.64,0,0,1,2.86,2.15A6.33,6.33,0,0,1,348,84.63h-4.6A2.92,2.92,0,0,0,342.22,82.75Z"/><path class="cls-7" d="M362.44,82.47H350.59V78.73h11.85Zm-4.07-8.7V93.19a3,3,0,0,0,.3,1.47,1.64,1.64,0,0,0,.76.74,3.24,3.24,0,0,0,1.16.22c.38,0,1.09,0,2.13-.1v4a17.37,17.37,0,0,1-2.75.2,8.09,8.09,0,0,1-3.32-.64,5.12,5.12,0,0,1-2.3-1.9,5.53,5.53,0,0,1-.83-3.16V73.77Z"/><path class="cls-7" d="M369.77,98.49a8.9,8.9,0,0,1-3.46-3.75,13.44,13.44,0,0,1,0-11.19,8.93,8.93,0,0,1,3.46-3.76,10.95,10.95,0,0,1,10.46,0,8.93,8.93,0,0,1,3.46,3.76,13.54,13.54,0,0,1,0,11.19,8.9,8.9,0,0,1-3.46,3.75,10.95,10.95,0,0,1-10.46,0Zm8-3.45a5.33,5.33,0,0,0,1.67-2.43,11.09,11.09,0,0,0,0-7,5.44,5.44,0,0,0-1.67-2.45,4.64,4.64,0,0,0-5.49,0,5.57,5.57,0,0,0-1.7,2.45,10.06,10.06,0,0,0-.57,3.49,9.9,9.9,0,0,0,.57,3.47,5.45,5.45,0,0,0,1.7,2.43,4.64,4.64,0,0,0,5.49,0Z"/><path class="cls-7" d="M388.7,78.73h4.63v3.51h.25a5.51,5.51,0,0,1,2.15-2.78,6.16,6.16,0,0,1,3.54-1,6.72,6.72,0,0,1,2.51.45,5.32,5.32,0,0,1,1.91,1.3,5.6,5.6,0,0,1,1.17,2h.21a5.52,5.52,0,0,1,1.36-2,6.14,6.14,0,0,1,2.14-1.31,7.73,7.73,0,0,1,2.72-.47,6.77,6.77,0,0,1,3.38.82,5.53,5.53,0,0,1,2.27,2.41,8.25,8.25,0,0,1,.82,3.84V99.42H412.9V86.27a3.68,3.68,0,0,0-1-2.79,3.56,3.56,0,0,0-2.56-.94,4.05,4.05,0,0,0-2,.49,3.3,3.3,0,0,0-1.29,1.4,4.66,4.66,0,0,0-.44,2.06V99.42h-4.76V86.07a3.8,3.8,0,0,0-.43-1.85A3,3,0,0,0,399.19,83a3.75,3.75,0,0,0-1.83-.44,3.57,3.57,0,0,0-1.92.54,3.84,3.84,0,0,0-1.38,1.52,4.66,4.66,0,0,0-.52,2.22v12.6H388.7Z"/><path class="cls-7" d="M426.19,98.52a8.7,8.7,0,0,1-3.48-3.7,13.63,13.63,0,0,1,0-11.23,9.07,9.07,0,0,1,3.44-3.78,9.68,9.68,0,0,1,5.13-1.35,10.13,10.13,0,0,1,4.78,1.13,8.24,8.24,0,0,1,3.41,3.48,12.22,12.22,0,0,1,1.26,5.84v1.5h-17V87.12h12.29a5.51,5.51,0,0,0-.6-2.52,4.41,4.41,0,0,0-1.66-1.74,4.82,4.82,0,0,0-2.45-.62,4.92,4.92,0,0,0-2.62.71A4.79,4.79,0,0,0,427,84.84a5.34,5.34,0,0,0-.64,2.59v2.83a6.84,6.84,0,0,0,.65,3.09,4.72,4.72,0,0,0,1.85,2,5.5,5.5,0,0,0,2.79.7,5.83,5.83,0,0,0,1.87-.28,4.12,4.12,0,0,0,1.42-.77,3.71,3.71,0,0,0,.9-1.12h4.74A7.05,7.05,0,0,1,438.89,97a7.83,7.83,0,0,1-3.09,2.07,11.66,11.66,0,0,1-4.25.74A10.59,10.59,0,0,1,426.19,98.52Z"/><path class="cls-7" d="M444.53,78.73h4.7v3.45h.22a5.49,5.49,0,0,1,1.11-2,5,5,0,0,1,1.78-1.29,5.76,5.76,0,0,1,2.21-.43,10.92,10.92,0,0,1,1.76.14V83a6.47,6.47,0,0,0-1-.2,8.91,8.91,0,0,0-1.23-.09,4.9,4.9,0,0,0-2.4.58A4.26,4.26,0,0,0,450,84.91a4.51,4.51,0,0,0-.6,2.32V99.42h-4.85Z"/><path class="cls-8" d="M298.83,162.17H286.4V144.85h12.43Zm-9.23-2.57h6.11V147.37H289.6Zm17.16,9h-3.24V142.41h3.24Z"/><path class="cls-8" d="M334.48,155.28H310.61V152.7h23.87Zm-2.86,13.22H328.4v-6.58H313v-2.55h18.59Zm-1.27-22.33H313.56V143.6h16.79Zm-6.24,14.08h-3.22v-5.76h3.22Zm7.45-14.56c0,1,0,1.85,0,2.61s-.1,1.62-.23,2.58a28.05,28.05,0,0,1-.58,3.06l-3.15-.33a28.67,28.67,0,0,0,.53-3c.12-.92.2-1.74.22-2.46s.05-1.55.05-2.51V143.6h3.2v2.09Z"/><path class="cls-8" d="M338.88,172h-2.75l1.48-8.11h3.68Z"/><path class="cls-8" d="M361.74,144a6,6,0,0,1,2.47,2.1,5.64,5.64,0,0,1,0,6.08,6,6,0,0,1-2.47,2.09,8.69,8.69,0,0,1-7.11,0,6.07,6.07,0,0,1-2.48-2.09,5.61,5.61,0,0,1,0-6.08,6,6,0,0,1,2.48-2.1,8.67,8.67,0,0,1,7.1,0Zm-5.52,2.29a3,3,0,0,0-1.84,2.85,3.08,3.08,0,0,0,.49,1.74,3.16,3.16,0,0,0,1.35,1.14,5.05,5.05,0,0,0,3.94,0,3.06,3.06,0,0,0,1.83-2.88,3,3,0,0,0-.49-1.71,3,3,0,0,0-1.34-1.14,5.05,5.05,0,0,0-3.94,0Zm16.31,17.27H358.4V167h-3.13v-5.81h14.06v-1.95H355.19v-2.51h17.34Zm.78,4.64h-18v-2.55h18Zm-.78-12.61h-3.22V142.41h3.22Z"/><path class="cls-8" d="M400.16,159H376.37v-2.59h23.79Zm-17.63,7.39H379.3v-5.7h3.23ZM397.47,168H379.3v-2.6h18.17Zm-14.85-21.78H393.9v-2.85h3.2V154H379.44v-10.6h3.18Zm11.28,5.18v-2.7H382.62v2.7Zm-4,6.09h-3.21v-5h3.21Z"/><path class="cls-8" d="M404.64,172h-2.75l1.48-8.11h3.68Z"/><path class="cls-8" d="M440.39,159.65H416.52V157h23.87Zm-7.1-15.59a7.64,7.64,0,0,1,3.32,2,4.45,4.45,0,0,1,1.19,3.07,4.31,4.31,0,0,1-1.19,3,7.68,7.68,0,0,1-3.32,2,17.71,17.71,0,0,1-9.79,0,7.7,7.7,0,0,1-3.31-2,4.25,4.25,0,0,1-1.17-3,4.43,4.43,0,0,1,1.17-3.08,7.56,7.56,0,0,1,3.31-2,17,17,0,0,1,9.79,0Zm-7.77,24.44h-3.29v-9.75h3.29Zm-.35-22.2a4.91,4.91,0,0,0-2.11,1.12,2.34,2.34,0,0,0-.73,1.75,2.21,2.21,0,0,0,.73,1.69,4.89,4.89,0,0,0,2.11,1.09,11.8,11.8,0,0,0,3.22.38,12,12,0,0,0,3.23-.38,4.82,4.82,0,0,0,2.12-1.09,2.23,2.23,0,0,0,.75-1.69,2.36,2.36,0,0,0-.75-1.75,4.84,4.84,0,0,0-2.12-1.12,12.37,12.37,0,0,0-3.23-.37A12.24,12.24,0,0,0,425.17,146.3Zm9.4,22.2h-3.25v-9.75h3.25Z"/><path class="cls-8" d="M454.9,151h-8.54V156h-3.18v-7.46h8.58V146h-8.62v-2.58H454.9Zm-3.26,2.58c1.71-.1,3.46-.29,5.24-.57l.23,2.61c-1.79.28-3.57.46-5.33.56s-3.93.13-6.53.13h-2.07v-2.59h2.07Q449.06,153.69,451.64,153.55Zm-1.84,7h11V158H464V168.2H446.61V158h3.19Zm11,5v-2.52h-11v2.52Zm.73-15.39h-5.21v-2.64h5.21Zm2.46,6.62h-3.21v-14.4H464Z"/><path class="cls-8" d="M491.5,155.75H467.71v-2.56H491.5Zm-6.83-12.42a7.28,7.28,0,0,1,3.21,1.51,3.25,3.25,0,0,1,0,4.89,7.51,7.51,0,0,1-3.21,1.52,24.16,24.16,0,0,1-10.16,0,7.55,7.55,0,0,1-3.22-1.52,3.13,3.13,0,0,1-1.11-2.46,3.1,3.1,0,0,1,1.11-2.43,7.32,7.32,0,0,1,3.22-1.51,25.07,25.07,0,0,1,10.16,0Zm3.87,20.56H473.68v2.64h-3.14v-4.91h14.83v-1.73H470.51V157.5h18Zm.71,4.4H470.54v-2.45h18.71Zm-13-22.87a5.77,5.77,0,0,0-2,.71,1.32,1.32,0,0,0-.68,1.14,1.35,1.35,0,0,0,.67,1.19,5,5,0,0,0,2,.7,19.51,19.51,0,0,0,3.38.24,19.85,19.85,0,0,0,3.4-.24,5.19,5.19,0,0,0,2-.7,1.39,1.39,0,0,0,.68-1.19,1.35,1.35,0,0,0-.69-1.14,5.76,5.76,0,0,0-2.05-.71,19.83,19.83,0,0,0-3.36-.24A19.45,19.45,0,0,0,476.26,145.42Z"/><path class="cls-8" d="M504.9,151.06h6.33v-6.52h3.17v17.85H501.69V144.54h3.21Zm6.33,8.7v-6.18H504.9v6.18Zm10.81,8.8h-3.23V142.41H522Z"/><path class="cls-8" d="M549.74,158.8H525.87v-2.58h23.87Zm-12,5.4a9.25,9.25,0,0,1-3.56,2.75,17.77,17.77,0,0,1-5.4,1.43L527.61,166a16.52,16.52,0,0,0,4.61-1.09,7.84,7.84,0,0,0,3-2,3.75,3.75,0,0,0,1-2.51v-.46H539v.46A6.24,6.24,0,0,1,537.7,164.2Zm9.09-14.42H532.08v3.05h-3.19v-5.39h14.69v-1.87H528.83v-2.45h18Zm.51,4.38H528.89V151.7H547.3Zm-7.91,3.56h-3.18v-4.83h3.18Zm1.07,5.18a7.93,7.93,0,0,0,3,2A16.51,16.51,0,0,0,548,166l-1.11,2.42a17.77,17.77,0,0,1-5.4-1.43A9.25,9.25,0,0,1,538,164.2a6.19,6.19,0,0,1-1.26-3.81v-.46h2.76v.46A3.71,3.71,0,0,0,540.46,162.9Z"/><path class="cls-8" d="M567,147.88H551.5v-2.56H567Zm-4.42,1.71a5.26,5.26,0,0,1,2.25,1.76,4.39,4.39,0,0,1,.8,2.61,4.26,4.26,0,0,1-.8,2.59,5.28,5.28,0,0,1-2.25,1.73,9.39,9.39,0,0,1-6.66,0,5.13,5.13,0,0,1-2.27-1.73,4.19,4.19,0,0,1-.79-2.59,4.31,4.31,0,0,1,.79-2.61,5.26,5.26,0,0,1,2.27-1.76,8.55,8.55,0,0,1,3.35-.62A8.42,8.42,0,0,1,562.57,149.59Zm-4,16.92h-3.2v-6.1h3.2ZM573.1,168H555.35v-2.6H573.1Zm-15.58-16.27a2.64,2.64,0,0,0-1.16.87A2.2,2.2,0,0,0,556,154a2.1,2.1,0,0,0,.4,1.33,2.68,2.68,0,0,0,1.16.85,5.34,5.34,0,0,0,3.47,0,2.66,2.66,0,0,0,1.17-.85,2.26,2.26,0,0,0,.42-1.33,2.4,2.4,0,0,0-.42-1.35,2.62,2.62,0,0,0-1.17-.87,5.17,5.17,0,0,0-3.47,0Zm3.33-5.14h-3.19v-4.19h3.19Zm11.23,15.34h-3.23V142.43h3.23Zm3.65-8.66h-4.6v-2.65h4.6Z"/><path class="cls-8" d="M289.16,223.58a5.48,5.48,0,0,1-2.43-1.67,4.65,4.65,0,0,1-1-2.56h3.68a2.24,2.24,0,0,0,.59,1.14,2.7,2.7,0,0,0,1.16.67,5.63,5.63,0,0,0,1.67.22,4.07,4.07,0,0,0,2.7-.8,3,3,0,0,0,1-2.47v-3h-.18l0,.07a5.33,5.33,0,0,1-.92,1.24,4.52,4.52,0,0,1-1.42.91,5.54,5.54,0,0,1-2.14.37,6,6,0,0,1-5.63-3.53,9.61,9.61,0,0,1-.84-4.21,10.1,10.1,0,0,1,.84-4.31,6,6,0,0,1,5.64-3.62,5.11,5.11,0,0,1,2.08.39,4,4,0,0,1,1.39.93,7.13,7.13,0,0,1,.93,1.25l.12.22h.18v-2.58h3.63V218.2a5.36,5.36,0,0,1-3.53,5.3,10.31,10.31,0,0,1-3.83.66A10.09,10.09,0,0,1,289.16,223.58Zm5.63-9.33a3.53,3.53,0,0,0,1.27-1.64,6.7,6.7,0,0,0,.44-2.58,7.21,7.21,0,0,0-.43-2.61,3.84,3.84,0,0,0-1.27-1.74,3.38,3.38,0,0,0-2-.6,3.29,3.29,0,0,0-2,.63,3.75,3.75,0,0,0-1.28,1.75,7.29,7.29,0,0,0-.42,2.57,6.74,6.74,0,0,0,.43,2.53,3.78,3.78,0,0,0,1.27,1.68,3.43,3.43,0,0,0,2,.59A3.38,3.38,0,0,0,294.79,214.25Z"/><path class="cls-8" d="M307.34,218h-3.68V197h3.68Z"/><path class="cls-8" d="M313.76,217.24a6.73,6.73,0,0,1-2.62-2.84,9.23,9.23,0,0,1-.93-4.24,9.33,9.33,0,0,1,.93-4.25,6.82,6.82,0,0,1,2.62-2.85,8.31,8.31,0,0,1,7.94,0,6.82,6.82,0,0,1,2.62,2.85,9.46,9.46,0,0,1,.92,4.25,9.35,9.35,0,0,1-.92,4.24,6.73,6.73,0,0,1-2.62,2.84,8.31,8.31,0,0,1-7.94,0Zm6.05-2.61a4.11,4.11,0,0,0,1.28-1.85,8.48,8.48,0,0,0,0-5.27,4.09,4.09,0,0,0-1.28-1.86,3.15,3.15,0,0,0-2.07-.69,3.23,3.23,0,0,0-2.09.69,4.1,4.1,0,0,0-1.29,1.86,8.32,8.32,0,0,0,0,5.28,4.09,4.09,0,0,0,1.29,1.84,3.22,3.22,0,0,0,2.09.68A3.15,3.15,0,0,0,319.81,214.63Z"/><path class="cls-8" d="M328.29,197H332v7.81h.14l.07-.12.07-.13a6.39,6.39,0,0,1,.92-1.26,4.08,4.08,0,0,1,1.38-.9,5.14,5.14,0,0,1,2.05-.38,6.08,6.08,0,0,1,3.31.94,6.35,6.35,0,0,1,2.33,2.77,11.65,11.65,0,0,1,0,8.71,6.34,6.34,0,0,1-2.3,2.79,6,6,0,0,1-3.34,1,5.22,5.22,0,0,1-2.08-.38,4.69,4.69,0,0,1-1.41-.94,5.36,5.36,0,0,1-.92-1.27.1.1,0,0,1,0-.08l-.05-.07h-.21V218h-3.61Zm4,15.76a4,4,0,0,0,1.28,1.79,3.23,3.23,0,0,0,2,.63,3.29,3.29,0,0,0,2-.65,4,4,0,0,0,1.27-1.81,7.71,7.71,0,0,0,.43-2.65,7.58,7.58,0,0,0-.42-2.62,3.72,3.72,0,0,0-1.27-1.77,3.33,3.33,0,0,0-2-.63,3.38,3.38,0,0,0-2,.6,3.82,3.82,0,0,0-1.27,1.75,7.48,7.48,0,0,0-.43,2.67A7.62,7.62,0,0,0,332.32,212.79Z"/><path class="cls-8" d="M353.66,211.11l-2,.15a4,4,0,0,0-2.11.66,1.86,1.86,0,0,0-.75,1.57,1.89,1.89,0,0,0,.33,1.13,2.18,2.18,0,0,0,.94.7,3.64,3.64,0,0,0,1.37.24,4,4,0,0,0,1.93-.45,3.21,3.21,0,0,0,1.29-1.18,3,3,0,0,0,.45-1.61l0-5a2.51,2.51,0,0,0-.33-1.32,2.12,2.12,0,0,0-1-.83,3.76,3.76,0,0,0-1.55-.29,4,4,0,0,0-1.41.23,2.67,2.67,0,0,0-1,.65,2.15,2.15,0,0,0-.52,1h-3.57a4.6,4.6,0,0,1,1-2.41,5.44,5.44,0,0,1,2.27-1.66,8.5,8.5,0,0,1,3.36-.61,9.16,9.16,0,0,1,3.1.51,4.87,4.87,0,0,1,3.31,4.9V218h-3.53v-2.16h-.12a4.05,4.05,0,0,1-1,1.25,4.75,4.75,0,0,1-1.53.89,6.21,6.21,0,0,1-2.1.33,6.49,6.49,0,0,1-2.71-.54,4.2,4.2,0,0,1-1.87-1.61,4.69,4.69,0,0,1-.68-2.57,3.86,3.86,0,0,1,1.63-3.5,8.73,8.73,0,0,1,4.21-1.27l1.64-.09,1.79-.09.77,0,0,2.45Z"/><path class="cls-8" d="M366,218h-3.68V197H366Z"/><path class="cls-8" d="M399.4,217.15H375.61v-2.63H399.4Zm-4.52-17.77H378.09v-2.59h16.79Zm-7.3,16.48H384.4V205.43h3.18Zm9.34-16.31c0,1.42,0,2.68-.06,3.76s-.13,2.33-.28,3.74-.37,2.95-.68,4.6l-3.25-.35c.31-1.55.55-3,.7-4.39s.24-2.61.28-3.66.06-2.3.06-3.76v-2.7h3.23v2.76Z"/><path class="cls-8" d="M411.49,202.07a12.55,12.55,0,0,1-3.32,4.56,19.23,19.23,0,0,1-5.59,3.34l-1.54-2.4a17.28,17.28,0,0,0,4.69-2.57,9.86,9.86,0,0,0,2.77-3.39,9.59,9.59,0,0,0,.9-4.18v-1.18h3.18A14.42,14.42,0,0,1,411.49,202.07Zm-1-3.21h-8.22v-2.61h8.22Zm13.06,21.64h-3.19v-7.08H405.51v-2.6h18Zm-5.79-10.88h-3V194.91h3Zm3.65-6.36h-4.53v-2.65h4.53Zm2.14,6.49h-3V194.43h3Z"/><path class="cls-8" d="M435.2,212.27q4-.15,7.46-.59l.18,2.39a67.16,67.16,0,0,1-7.66.8c-2.68.13-5.45.19-8.33.17l-.31-2.6Q431.24,212.43,435.2,212.27Zm4.26-12.58H427.93v-2.58h11.53Zm-4.7,13.74H431.6v-8.84h3.16Zm6.61-14.25c0,1.11,0,2.11-.05,3s-.09,1.93-.2,3.12-.27,2.45-.49,3.78l-3.16-.25c.21-1.34.37-2.59.47-3.76s.16-2.19.19-3,0-1.85,0-2.94v-2h3.2v2.07Zm5.88,21.32H444V194.41h3.23ZM451,207.75h-4.72V205H451Z"/><path class="cls-8" d="M474.9,199.48H459.4v-2.57h15.5ZM470.47,201a5.21,5.21,0,0,1,2.25,1.65,3.94,3.94,0,0,1,.81,2.45,3.9,3.9,0,0,1-.81,2.44,5.15,5.15,0,0,1-2.25,1.65,8.52,8.52,0,0,1-3.3.6,8.76,8.76,0,0,1-3.36-.6,5.13,5.13,0,0,1-2.26-1.65,3.83,3.83,0,0,1-.8-2.44,3.88,3.88,0,0,1,.8-2.45,5.13,5.13,0,0,1,2.26-1.65,9,9,0,0,1,3.36-.58A8.75,8.75,0,0,1,470.47,201ZM480,220.2H463.12v-8.8H480Zm-14.57-17.06a2.47,2.47,0,0,0-1.15.77,1.77,1.77,0,0,0-.4,1.21,1.89,1.89,0,0,0,.39,1.23,2.52,2.52,0,0,0,1.15.79,5.16,5.16,0,0,0,1.76.28,5.06,5.06,0,0,0,1.73-.28,2.55,2.55,0,0,0,1.16-.79,2,2,0,0,0,.43-1.23,1.9,1.9,0,0,0-.43-1.21,2.45,2.45,0,0,0-1.16-.77,5.74,5.74,0,0,0-3.48,0Zm3.34-4.87h-3.2v-4h3.2Zm-2.47,19.33h10.52v-3.67H466.29Zm13.7-7.46h-3.23V194.41H480Zm3.64-6.42h-4.54V201h4.54Z"/><path class="cls-8" d="M491,203.8a28.34,28.34,0,0,1-1.25,5.69,21.12,21.12,0,0,1-2.57,5.22l-2.51-1.36a19.79,19.79,0,0,0,2.45-4.68,23.07,23.07,0,0,0,1.18-5,54.09,54.09,0,0,0,.32-5.93v-.26h2.74A56,56,0,0,1,491,203.8Zm-.71-3.74h-4.88v-2.6h4.88Zm6.61,4.26a32.52,32.52,0,0,1-1.19,6.13,20.41,20.41,0,0,1-2.69,5.7l-2.46-1.39a19.06,19.06,0,0,0,2.54-5.16,26.53,26.53,0,0,0,1.1-5.47c.16-1.82.25-4,.25-6.41v-.26h2.74C497.22,200,497.13,202.28,496.94,204.32Zm-.67-4.26h-4.09v-2.6h4.09Zm3.85,6.89H496v-2.6h4.17Zm2.48,12.34h-3V195h3Zm5.06,1.21h-3.08V194.41h3.08Z"/><path class="cls-8" d="M526.06,199.4h-15.5v-2.56h15.5Zm-4.43,1.46a5.16,5.16,0,0,1,2.25,1.61,4,4,0,0,1,0,4.83,5.16,5.16,0,0,1-2.25,1.62,8.75,8.75,0,0,1-3.3.56,9,9,0,0,1-3.36-.56,5.08,5.08,0,0,1-2.26-1.62,4,4,0,0,1,0-4.83,5.14,5.14,0,0,1,2.26-1.61,9.17,9.17,0,0,1,3.36-.57A8.92,8.92,0,0,1,521.63,200.86ZM517.45,213h10.47V210.7h3.23v9.5H514.26v-9.5h3.19Zm-.87-10a2.68,2.68,0,0,0-1.15.77,2,2,0,0,0,0,2.38,2.52,2.52,0,0,0,1.15.77,5.74,5.74,0,0,0,3.48,0,2.45,2.45,0,0,0,1.16-.77,1.86,1.86,0,0,0,0-2.38,2.6,2.6,0,0,0-1.16-.77,6.18,6.18,0,0,0-3.48,0Zm3.34-4.67h-3.2v-4h3.2Zm8,19.39v-2.2H517.45v2.2Zm3.23-8h-3.23V194.41h3.23Zm3.64-6.14h-4.95v-2.67h4.95Z"/><path class="cls-8" d="M540.8,213.11h-3.18V196.93h3.18Zm5.32-2.16a58.46,58.46,0,0,0,6.25-.91l.41,2.68a57.12,57.12,0,0,1-6.45,1c-2.13.2-4.28.29-6.47.29h-2.24v-2.75h2.24Q543,211.22,546.12,211Zm11.8,9.55h-3.2V194.41h3.2Z"/><path class="cls-8" d="M575,199.48h-9v13.3h-3.2V196.87H575Zm-3.68,11.83a50.75,50.75,0,0,0,5.54-.68l.37,2.71a48.4,48.4,0,0,1-5.63.66c-1.85.11-4.07.17-6.67.16h-2.15v-2.67h2.15Q568.57,211.49,571.31,211.31Zm10.84,9.25h-3.22V194.41h3.22Zm4-13.61h-4.73v-2.64h4.73Z"/><path class="cls-8" d="M589.32,217.87a2.38,2.38,0,0,1-.82-.82,2,2,0,0,1-.29-1.11,2.06,2.06,0,0,1,.29-1.12,2.13,2.13,0,0,1,.82-.81,2.35,2.35,0,0,1,1.13-.29,2.3,2.3,0,0,1,1.11.29,2.06,2.06,0,0,1,.82.81,2.22,2.22,0,0,1,.31,1.12,2.16,2.16,0,0,1-.31,1.11,2.3,2.3,0,0,1-.82.82,2.2,2.2,0,0,1-1.11.3A2.25,2.25,0,0,1,589.32,217.87Z"/><path class="cls-7" d="M300.63,454.72a20.06,20.06,0,0,1-3.63,6.95,24.49,24.49,0,0,1-6.75,5.68l-2.56-3.07a23,23,0,0,0,5.72-4.62,16,16,0,0,0,3.13-5.55,23,23,0,0,0,1-6.88v-.9h4.21A30.06,30.06,0,0,1,300.63,454.72ZM299,449.85H289.5v-3.52H299Zm7.62,12.33h-6.47v-3.54h6.47Zm.12-7.77h-6.42v-3.55h6.42Zm2,18.06h-4.14V443.32h4.14Zm6.51,1.39H311.1V442.61h4.12Z"/><path class="cls-7" d="M329.9,445.31A7.56,7.56,0,0,1,333,448a7.12,7.12,0,0,1,1.13,3.91,7.29,7.29,0,0,1-1.12,3.95,7.56,7.56,0,0,1-3.06,2.72,10.1,10.1,0,0,1-8.72,0,7.61,7.61,0,0,1-3.08-2.72,7.1,7.1,0,0,1-1.1-3.95,7,7,0,0,1,1.1-3.91,7.61,7.61,0,0,1,3.08-2.72,9.68,9.68,0,0,1,4.37-1A9.55,9.55,0,0,1,329.9,445.31Zm11.67,28.55h-4.39v-8H320.54V462.3h21Zm-18.21-25.32a3.51,3.51,0,0,0-1.52,1.33,3.73,3.73,0,0,0-.55,2.07,3.8,3.8,0,0,0,.55,2.11,3.71,3.71,0,0,0,1.52,1.36,4.87,4.87,0,0,0,2.2.46,4.81,4.81,0,0,0,2.18-.46,3.71,3.71,0,0,0,1.52-1.36,3.8,3.8,0,0,0,.56-2.11,3.73,3.73,0,0,0-.56-2.07,3.51,3.51,0,0,0-1.52-1.33,5.09,5.09,0,0,0-2.18-.47A5.15,5.15,0,0,0,323.36,448.54ZM341.57,461h-4.39V442.61h4.39Zm4-10.75h-5.4v-3.54h5.4Zm0,6.82h-5.4v-3.63h5.4Z"/><path class="cls-8" d="M299.78,534.43H287.35V517.11h12.43Zm-9.24-2.57h6.11V519.62h-6.11Zm17.17,9h-3.24V514.67h3.24Z"/><path class="cls-8" d="M335.43,527.54H311.56V525h23.87Zm-2.86,13.22h-3.23v-6.58H314v-2.55h18.59Zm-1.28-22.33H314.51v-2.58h16.78Zm-6.24,14.08h-3.21v-5.77h3.21ZM332.51,518c0,1,0,1.85,0,2.61s-.1,1.62-.23,2.58a30.67,30.67,0,0,1-.58,3.06l-3.15-.33c.23-1,.41-2,.53-3s.19-1.74.22-2.46,0-1.55,0-2.51v-2.09h3.21V518Z"/><path class="cls-8" d="M348.52,532.72H345.3V517.65h3.22Zm3-1.41a42.4,42.4,0,0,0,4.51-.63l.33,2.79c-1.67.29-3.26.5-4.77.62s-3,.18-4.5.17H345.3v-2.81H347C348.54,531.47,350,531.42,351.47,531.31Zm9.13,8.15h-3v-24.3h3Zm3.75-11.9h-4.64v-2.62h4.64Zm2.24,13.2h-3.1V514.67h3.1Z"/><path class="cls-8" d="M400.57,537.41H376.78v-2.64h23.79ZM396,519.63H379.26v-2.58H396Zm-7.29,16.49h-3.19V525.69h3.19Zm9.33-16.31c0,1.42,0,2.67-.06,3.76s-.13,2.33-.28,3.74-.37,2.94-.68,4.59l-3.25-.34c.32-1.55.55-3,.7-4.4s.24-2.6.28-3.65.06-2.31.07-3.76v-2.7h3.22v2.76Z"/><path class="cls-8" d="M412.66,522.33a12.75,12.75,0,0,1-3.32,4.56,19.29,19.29,0,0,1-5.6,3.34l-1.54-2.4a17.36,17.36,0,0,0,4.7-2.58,9.82,9.82,0,0,0,2.76-3.38,9.59,9.59,0,0,0,.9-4.18v-1.18h3.19A14.76,14.76,0,0,1,412.66,522.33Zm-1-3.22h-8.21v-2.6h8.21Zm13.07,21.65h-3.2v-7.08H406.68v-2.6h18Zm-5.8-10.88h-3V515.17h3Zm3.65-6.36H418v-2.65h4.52Zm2.15,6.48h-3.06V514.69h3.06Z"/><path class="cls-8" d="M445.69,516.94a6.15,6.15,0,0,1,2.46,2.25,6.17,6.17,0,0,1-2.46,8.76,7.32,7.32,0,0,1-3.48.81,7.42,7.42,0,0,1-3.52-.81,6.27,6.27,0,0,1-2.48-2.25,6.4,6.4,0,0,1,0-6.51,6.11,6.11,0,0,1,2.47-2.25,7.61,7.61,0,0,1,3.53-.81A7.44,7.44,0,0,1,445.69,516.94Zm-5.47,2.37a3.26,3.26,0,0,0-1.35,1.25,3.87,3.87,0,0,0,0,3.77,3.38,3.38,0,0,0,1.36,1.26,4.07,4.07,0,0,0,2,.44,4,4,0,0,0,1.94-.44,3.37,3.37,0,0,0,1.35-1.27,3.59,3.59,0,0,0,.49-1.87,3.64,3.64,0,0,0-.48-1.89,3.2,3.2,0,0,0-1.35-1.25,4.11,4.11,0,0,0-2-.42A4.25,4.25,0,0,0,440.22,519.31Zm12.52,11.86a6.58,6.58,0,0,1,3.09,1.74,4,4,0,0,1,0,5.49,6.78,6.78,0,0,1-3.09,1.75,19.34,19.34,0,0,1-9.48,0,6.8,6.8,0,0,1-3.08-1.75,4.06,4.06,0,0,1,0-5.49,6.7,6.7,0,0,1,3.08-1.74,19.34,19.34,0,0,1,9.48,0Zm-7.85,2.17a4.47,4.47,0,0,0-2,.88,1.82,1.82,0,0,0-.66,1.44,1.71,1.71,0,0,0,.66,1.39,4.7,4.7,0,0,0,2,.87,16.37,16.37,0,0,0,6.24,0,4.69,4.69,0,0,0,2-.87,1.75,1.75,0,0,0,.67-1.39,1.86,1.86,0,0,0-.67-1.44,4.46,4.46,0,0,0-2-.88,16.93,16.93,0,0,0-6.24,0Zm9.72-12.55h-7.85v-2.57h7.85Zm0,5.9h-7.85v-2.58h7.85Zm2.23,3.32h-3.21V514.67h3.21Z"/><path class="cls-8" d="M471.28,516.59a6.06,6.06,0,0,1,2.45,2.19,6,6,0,0,1,0,6.34,6.17,6.17,0,0,1-2.45,2.21,7.62,7.62,0,0,1-3.49.79,7.73,7.73,0,0,1-3.55-.79,6.14,6.14,0,0,1-2.46-2.21,6.15,6.15,0,0,1,0-6.34,6,6,0,0,1,2.46-2.19,7.88,7.88,0,0,1,3.55-.78A7.74,7.74,0,0,1,471.28,516.59Zm-5.48,2.32a3.27,3.27,0,0,0-1.36,1.21,3.69,3.69,0,0,0,0,3.64A3.22,3.22,0,0,0,465.8,525a4.38,4.38,0,0,0,2,.44,4.24,4.24,0,0,0,1.95-.44,3.23,3.23,0,0,0,1.34-1.22,3.62,3.62,0,0,0,0-3.64,3.28,3.28,0,0,0-1.34-1.21,4.23,4.23,0,0,0-1.95-.41A4.38,4.38,0,0,0,465.8,518.91Zm2.58,13.75h10.83v-2.77h3.21v10.56H465.2V529.89h3.18Zm10.83,5.19v-2.69H468.38v2.69Zm1.37-14.65h-6.77v-2.58h6.77Zm1.84,5.48h-3.21v-14h3.21Z"/><path class="cls-8" d="M507.07,527.14H494.49V516.28h12.58Zm-1,9.5a9.62,9.62,0,0,1-3.58,2.66,17.27,17.27,0,0,1-5.35,1.4L496,538.25a15.52,15.52,0,0,0,4.49-1,8.73,8.73,0,0,0,3-1.87,3.18,3.18,0,0,0,1-2.18v-.42h2.78v.42A5.46,5.46,0,0,1,506.08,536.64Zm9.31-3.15H497.11v-2.4h18.28Zm-17.74-8.86h6.24v-5.81h-6.24Zm10.19,7.59h-3.22v-3.43h3.22Zm1.11,3.1a8.71,8.71,0,0,0,3,1.86,15.87,15.87,0,0,0,4.45,1.07l-1.08,2.45a16.6,16.6,0,0,1-5.34-1.42,9.82,9.82,0,0,1-3.57-2.69,5.32,5.32,0,0,1-1.24-3.41v-.42h2.76v.42A3.11,3.11,0,0,0,509,535.32Zm5.9-5.79h-3.18V514.67h3.18Z"/><path class="cls-8" d="M536.11,524.71a17.13,17.13,0,0,1-3.1,5.81,20.51,20.51,0,0,1-5.63,4.74l-1.9-2.27a19.42,19.42,0,0,0,4.88-4,14.11,14.11,0,0,0,2.73-4.77,18.17,18.17,0,0,0,.87-5.78v-.63h3.11A24,24,0,0,1,536.11,524.71Zm-1-4.26h-8.21v-2.6h8.21Zm6.29,10.35h-5.62v-2.61h5.62Zm.08-6.51h-5.52v-2.61h5.52Zm1.43,15.25h-3V515.3h3Zm5.39,1.22h-3V514.67h3Z"/><path class="cls-8" d="M562.27,516.94a6.23,6.23,0,0,1,2.52,2.24,6.24,6.24,0,0,1,0,6.52,6.07,6.07,0,0,1-2.51,2.24,8.45,8.45,0,0,1-7.22,0,6.16,6.16,0,0,1-2.52-2.24,6.29,6.29,0,0,1,0-6.52,6.2,6.2,0,0,1,2.53-2.24,7.94,7.94,0,0,1,3.61-.79A7.85,7.85,0,0,1,562.27,516.94ZM572,540.76h-3.23v-7H554.54V531.2H572Zm-15.28-21.43a3.32,3.32,0,0,0-1.39,1.23,3.42,3.42,0,0,0-.5,1.87,3.48,3.48,0,0,0,.5,1.9,3.37,3.37,0,0,0,1.39,1.25,4.25,4.25,0,0,0,2,.44,4.19,4.19,0,0,0,2-.44,3.39,3.39,0,0,0,1.4-1.25,3.48,3.48,0,0,0,.51-1.9,3.43,3.43,0,0,0-.51-1.87,3.35,3.35,0,0,0-1.4-1.23,4.44,4.44,0,0,0-2-.44A4.5,4.5,0,0,0,556.67,519.33ZM572,530.09h-3.23V514.67H572Zm3.53-9.18H571v-2.6h4.52Zm0,5.68H571v-2.68h4.52Z"/><path class="cls-8" d="M296.92,568.26a6,6,0,0,1,2.48,2.1,5.64,5.64,0,0,1,0,6.08,6,6,0,0,1-2.48,2.09,8.14,8.14,0,0,1-3.54.76,8.26,8.26,0,0,1-3.56-.76,6.07,6.07,0,0,1-2.48-2.09,5.61,5.61,0,0,1,0-6.08,6,6,0,0,1,2.48-2.1,8.65,8.65,0,0,1,7.09,0Zm-5.51,2.29a3.16,3.16,0,0,0-1.36,1.13,3.34,3.34,0,0,0,0,3.45,3.2,3.2,0,0,0,1.36,1.15,5.05,5.05,0,0,0,3.94,0,3.14,3.14,0,0,0,1.34-1.15,3.12,3.12,0,0,0-1.34-4.58,5.05,5.05,0,0,0-3.94,0Zm16.31,17.27H293.59v3.44h-3.13v-5.81h14.06v-2H290.38V581h17.34Zm.78,4.63h-18v-2.54h18Zm-.78-12.6H304.5V566.67h3.22Z"/><path class="cls-8" d="M335.35,583.23H311.56v-2.6h23.79Zm-17.63,7.38h-3.23v-5.7h3.23Zm14.94,1.66H314.49v-2.6h18.17Zm-14.85-21.78h11.28v-2.85h3.2v10.59H314.63V567.64h3.18Zm11.28,5.18V573H317.81v2.7Zm-4,6.09h-3.21v-5H325Z"/><path class="cls-8" d="M348.52,584.72H345.3V569.65h3.22Zm3-1.41a42.4,42.4,0,0,0,4.51-.63l.33,2.79c-1.67.29-3.26.5-4.77.62s-3,.18-4.5.17H345.3v-2.81H347C348.54,583.47,350,583.42,351.47,583.31Zm9.13,8.15h-3v-24.3h3Zm3.75-11.9h-4.64v-2.62h4.64Zm2.24,13.2h-3.1V566.67h3.1Z"/><path class="cls-8" d="M400.57,589.41H376.78v-2.64h23.79ZM396,571.63H379.26v-2.58H396Zm-7.29,16.49h-3.19V577.69h3.19Zm9.33-16.31c0,1.42,0,2.67-.06,3.76s-.13,2.33-.28,3.74-.37,2.94-.68,4.59l-3.25-.34c.32-1.55.55-3,.7-4.4s.24-2.6.28-3.65.06-2.31.07-3.76v-2.7h3.22v2.76Z"/><path class="cls-8" d="M412.66,574.33a12.75,12.75,0,0,1-3.32,4.56,19.29,19.29,0,0,1-5.6,3.34l-1.54-2.4a17.36,17.36,0,0,0,4.7-2.58,9.82,9.82,0,0,0,2.76-3.38,9.59,9.59,0,0,0,.9-4.18v-1.18h3.19A14.76,14.76,0,0,1,412.66,574.33Zm-1-3.22h-8.21v-2.6h8.21Zm13.07,21.65h-3.2v-7.08H406.68v-2.6h18Zm-5.8-10.88h-3V567.17h3Zm3.65-6.36H418v-2.65h4.52Zm2.15,6.48h-3.06V566.69h3.06Z"/><path class="cls-8" d="M445.69,568.94a6.15,6.15,0,0,1,2.46,2.25,6.17,6.17,0,0,1-2.46,8.76,7.32,7.32,0,0,1-3.48.81,7.42,7.42,0,0,1-3.52-.81,6.27,6.27,0,0,1-2.48-2.25,6.4,6.4,0,0,1,0-6.51,6.11,6.11,0,0,1,2.47-2.25,7.61,7.61,0,0,1,3.53-.81A7.44,7.44,0,0,1,445.69,568.94Zm-5.47,2.37a3.26,3.26,0,0,0-1.35,1.25,3.87,3.87,0,0,0,0,3.77,3.38,3.38,0,0,0,1.36,1.26,4.07,4.07,0,0,0,2,.44,4,4,0,0,0,1.94-.44,3.37,3.37,0,0,0,1.35-1.27,3.59,3.59,0,0,0,.49-1.87,3.64,3.64,0,0,0-.48-1.89,3.2,3.2,0,0,0-1.35-1.25,4.11,4.11,0,0,0-2-.42A4.25,4.25,0,0,0,440.22,571.31Zm12.52,11.86a6.58,6.58,0,0,1,3.09,1.74,4,4,0,0,1,0,5.49,6.78,6.78,0,0,1-3.09,1.75,19.34,19.34,0,0,1-9.48,0,6.8,6.8,0,0,1-3.08-1.75,4.06,4.06,0,0,1,0-5.49,6.7,6.7,0,0,1,3.08-1.74,19.34,19.34,0,0,1,9.48,0Zm-7.85,2.17a4.47,4.47,0,0,0-2,.88,1.82,1.82,0,0,0-.66,1.44,1.71,1.71,0,0,0,.66,1.39,4.7,4.7,0,0,0,2,.87,16.37,16.37,0,0,0,6.24,0,4.69,4.69,0,0,0,2-.87,1.75,1.75,0,0,0,.67-1.39,1.86,1.86,0,0,0-.67-1.44,4.46,4.46,0,0,0-2-.88,16.93,16.93,0,0,0-6.24,0Zm9.72-12.55h-7.85v-2.57h7.85Zm0,5.9h-7.85v-2.58h7.85Zm2.23,3.32h-3.21V566.67h3.21Z"/><path class="cls-8" d="M471.28,568.59a6.06,6.06,0,0,1,2.45,2.19,6,6,0,0,1,0,6.34,6.17,6.17,0,0,1-2.45,2.21,7.62,7.62,0,0,1-3.49.79,7.73,7.73,0,0,1-3.55-.79,6.14,6.14,0,0,1-2.46-2.21,6.15,6.15,0,0,1,0-6.34,6,6,0,0,1,2.46-2.19,7.88,7.88,0,0,1,3.55-.78A7.74,7.74,0,0,1,471.28,568.59Zm-5.48,2.32a3.27,3.27,0,0,0-1.36,1.21,3.69,3.69,0,0,0,0,3.64A3.22,3.22,0,0,0,465.8,577a4.38,4.38,0,0,0,2,.44,4.24,4.24,0,0,0,1.95-.44,3.23,3.23,0,0,0,1.34-1.22,3.62,3.62,0,0,0,0-3.64,3.28,3.28,0,0,0-1.34-1.21,4.23,4.23,0,0,0-1.95-.41A4.38,4.38,0,0,0,465.8,570.91Zm2.58,13.75h10.83v-2.77h3.21v10.56H465.2V581.89h3.18Zm10.83,5.19v-2.69H468.38v2.69Zm1.37-14.65h-6.77v-2.58h6.77Zm1.84,5.48h-3.21v-14h3.21Z"/><path class="cls-8" d="M507.07,579.14H494.49V568.28h12.58Zm-1,9.5a9.62,9.62,0,0,1-3.58,2.66,17.27,17.27,0,0,1-5.35,1.4L496,590.25a15.52,15.52,0,0,0,4.49-1,8.73,8.73,0,0,0,3-1.87,3.18,3.18,0,0,0,1-2.18v-.42h2.78v.42A5.46,5.46,0,0,1,506.08,588.64Zm9.31-3.15H497.11v-2.4h18.28Zm-17.74-8.86h6.24v-5.81h-6.24Zm10.19,7.59h-3.22v-3.43h3.22Zm1.11,3.1a8.71,8.71,0,0,0,3,1.86,15.87,15.87,0,0,0,4.45,1.07l-1.08,2.45a16.6,16.6,0,0,1-5.34-1.42,9.82,9.82,0,0,1-3.57-2.69,5.32,5.32,0,0,1-1.24-3.41v-.42h2.76v.42A3.11,3.11,0,0,0,509,587.32Zm5.9-5.79h-3.18V566.67h3.18Z"/><path class="cls-8" d="M536.11,576.71a17.13,17.13,0,0,1-3.1,5.81,20.51,20.51,0,0,1-5.63,4.74l-1.9-2.27a19.42,19.42,0,0,0,4.88-4,14.11,14.11,0,0,0,2.73-4.77,18.17,18.17,0,0,0,.87-5.78v-.63h3.11A24,24,0,0,1,536.11,576.71Zm-1-4.26h-8.21v-2.6h8.21Zm6.29,10.35h-5.62v-2.61h5.62Zm.08-6.51h-5.52v-2.61h5.52Zm1.43,15.25h-3V567.3h3Zm5.39,1.22h-3V566.67h3Z"/><path class="cls-8" d="M562.27,568.94a6.23,6.23,0,0,1,2.52,2.24,6.24,6.24,0,0,1,0,6.52,6.07,6.07,0,0,1-2.51,2.24,8.45,8.45,0,0,1-7.22,0,6.16,6.16,0,0,1-2.52-2.24,6.29,6.29,0,0,1,0-6.52,6.2,6.2,0,0,1,2.53-2.24,7.94,7.94,0,0,1,3.61-.79A7.85,7.85,0,0,1,562.27,568.94ZM572,592.76h-3.23v-7H554.54V583.2H572Zm-15.28-21.43a3.32,3.32,0,0,0-1.39,1.23,3.42,3.42,0,0,0-.5,1.87,3.48,3.48,0,0,0,.5,1.9,3.37,3.37,0,0,0,1.39,1.25,4.25,4.25,0,0,0,2,.44,4.19,4.19,0,0,0,2-.44,3.39,3.39,0,0,0,1.4-1.25,3.48,3.48,0,0,0,.51-1.9,3.43,3.43,0,0,0-.51-1.87,3.35,3.35,0,0,0-1.4-1.23,4.44,4.44,0,0,0-2-.44A4.5,4.5,0,0,0,556.67,571.33ZM572,582.09h-3.23V566.67H572Zm3.53-9.18H571v-2.6h4.52Zm0,5.68H571v-2.68h4.52Z"/><path class="cls-4" d="M85.85,702.5a8.13,8.13,0,0,1,5.73,2.34,7.43,7.43,0,0,1,2.06,5.48v6.77a2.15,2.15,0,0,1-.53,1.51,2.3,2.3,0,0,1-1.55.57,1.95,1.95,0,0,1-2.08-2.08v-6.77a3.63,3.63,0,1,0-7.26,0v2.6a2.18,2.18,0,0,1-.47,1.52,1.86,1.86,0,0,1-1.36.56,1.78,1.78,0,0,1-1.34-.56,2.19,2.19,0,0,1-.48-1.52c0-.49,0-2.3,0-2.6a3.63,3.63,0,0,0-7.26-.06v6.83a2.07,2.07,0,0,1-.55,1.45,2.31,2.31,0,0,1-1.53.63,2.27,2.27,0,0,1-1.53-.63,2,2,0,0,1-.55-1.45V710.3a7.4,7.4,0,0,1,2.09-5.46A8.06,8.06,0,0,1,75,702.5a6.79,6.79,0,0,1,5.44,2.68A6.86,6.86,0,0,1,85.85,702.5Z"/><path class="cls-4" d="M56.83,706c-2.48,0-3.73.76-3.73,1.56s1.15,1.57,3.63,1.57a12.18,12.18,0,0,1,5.45.8c1.94,1,2.91,2.3,2.91,3.91s-1,2.95-2.91,3.93a12.12,12.12,0,0,1-5.45,1.37,13,13,0,0,1-4.09-.65,9.89,9.89,0,0,1-3.53-2,1.76,1.76,0,0,1-.63-1.33,1.88,1.88,0,0,1,.54-1.38,2,2,0,0,1,1.43-.61,2.06,2.06,0,0,1,1.48.52,5.91,5.91,0,0,0,2.23,1.25,8.75,8.75,0,0,0,2.57.38c2.47,0,3.79-.62,3.79-1.43s-1.23-1.21-3.7-1.21a11.67,11.67,0,0,1-5.36-1.15q-2.91-1.46-2.91-3.92t2.91-3.92a11.67,11.67,0,0,1,5.36-1.16,11.1,11.1,0,0,1,7.62,2.69,1.81,1.81,0,0,1,.64,1.35,1.79,1.79,0,0,1-.56,1.38,2.13,2.13,0,0,1-2.89.07,6.91,6.91,0,0,0-2.24-1.63A8.63,8.63,0,0,0,56.83,706Z"/><path class="cls-4" d="M103.5,702.5a8.33,8.33,0,0,1,8.31,8.34v6.24a2.08,2.08,0,0,1-2.09,2.09,2,2,0,0,1-1.46-.61,2,2,0,0,1-.61-1.48v-6.24a4.08,4.08,0,0,0-1.22-3,4.12,4.12,0,0,0-5.87,0,4.08,4.08,0,0,0-1.22,3A4.17,4.17,0,0,0,103.5,715a2,2,0,0,1,1.46.61,2.06,2.06,0,0,1,0,2.95,2,2,0,0,1-1.46.61,8,8,0,0,1-5.88-2.44,8.34,8.34,0,0,1,5.88-14.23Z"/><path class="cls-4" d="M121.68,702.5a8.33,8.33,0,0,1,8.3,8.33,2,2,0,0,1-.61,1.47,2,2,0,0,1-1.48.61,2.08,2.08,0,0,1-2.07-2.08,4,4,0,0,0-1.22-2.94,4,4,0,0,0-2.92-1.23,4.18,4.18,0,0,0-4.17,4.17v6.24a2,2,0,0,1-.6,1.48,2,2,0,0,1-1.47.61,2,2,0,0,1-1.47-.61,2,2,0,0,1-.6-1.48v-6.24a8.3,8.3,0,0,1,8.31-8.33Z"/><path class="cls-5" d="M141.91,704.58a2,2,0,0,1-.61,1.48,2,2,0,0,1-1.46.6,4.17,4.17,0,0,0,0,8.33,4.17,4.17,0,0,0,4.14-4.16,2,2,0,0,1,.61-1.47,2,2,0,0,1,1.47-.6,2,2,0,0,1,1.47.6,2,2,0,0,1,.61,1.47,8.3,8.3,0,1,1-16.6,0V698.35a2.05,2.05,0,0,1,.6-1.48,2,2,0,0,1,1.47-.61,2,2,0,0,1,1.47.61,2.05,2.05,0,0,1,.6,1.48v5.26a7,7,0,0,1,3-1.09h1.17a2.08,2.08,0,0,1,2.07,2.07Z"/><path class="cls-5" d="M149.71,710.83a8.1,8.1,0,0,1,2.42-5.9,8.32,8.32,0,0,1,14.19,5.9,2,2,0,0,1-.61,1.47,2,2,0,0,1-1.48.61H158a2,2,0,0,1-1.47-.61,2.1,2.1,0,0,1,0-2.94,2,2,0,0,1,1.47-.61h3.6a3.91,3.91,0,0,0-3.6-2.1,4,4,0,0,0-2.94,1.23,4.18,4.18,0,0,0,0,5.9A4,4,0,0,0,158,715h6.22a2.1,2.1,0,0,1,2.09,2.09,2.08,2.08,0,0,1-2.09,2.09H158a8,8,0,0,1-5.88-2.44A8.1,8.1,0,0,1,149.71,710.83Z"/><path class="cls-5" d="M167.88,710.83a8.31,8.31,0,0,1,16.61,0,2,2,0,0,1-.61,1.47,2,2,0,0,1-1.48.61h-6.21a2,2,0,0,1-1.48-.61,2,2,0,0,1-.6-1.47,2,2,0,0,1,.6-1.47,2,2,0,0,1,1.48-.6h3.59a3.91,3.91,0,0,0-3.59-2.1,4.17,4.17,0,1,0,0,8.33h6.21a2,2,0,0,1,1.48.62,2.08,2.08,0,0,1,0,2.94,2,2,0,0,1-1.48.61h-6.21a8.3,8.3,0,0,1-8.31-8.33Z"/><path class="cls-5" d="M160.08,698.34a2.07,2.07,0,1,1-2.07-2.09A2.07,2.07,0,0,1,160.08,698.34Z"/><path class="cls-5" d="M178.25,698.34a2.07,2.07,0,1,1-2.06-2.09A2.07,2.07,0,0,1,178.25,698.34Z"/><path class="cls-8" d="M310.62,790.87H286.75v-2.69h23.87Zm-2.08-18H288.7v-2.6h19.84Zm-.1,10.86H288.78v-2.56h19.66Zm-12.76-2.31h-3.2v-8.81h3.2Zm9,0h-3.17v-8.81h3.17Z"/><path class="cls-8" d="M336.2,791H312.33v-2.66H336.2Zm-2.83-12.91h-15v4.72h-3.21v-7.27h15v-3.24H315.12v-2.6h18.25Zm.61,6H315.16v-2.62H334Zm-8.18,5.39h-3.18v-6.28h3.18Z"/><path class="cls-8" d="M344.72,777.65a9.92,9.92,0,0,1-2,3.5,8.82,8.82,0,0,1-3.33,2.34l-1.7-2.53a7.9,7.9,0,0,0,2.86-1.85,7.64,7.64,0,0,0,1.74-2.63,8.25,8.25,0,0,0,.56-3v-1.88h2.54v1.88A13.22,13.22,0,0,1,344.72,777.65Zm5.39-5.17H338.46v-2.59h11.65ZM360.24,794H357v-6.58H342.35v-2.57h17.89Zm-13.73-17.71a7.24,7.24,0,0,0,1.64,2.44,7.83,7.83,0,0,0,2.71,1.73l-1.63,2.47a8.26,8.26,0,0,1-3.22-2.2,9.4,9.4,0,0,1-1.91-3.3,12,12,0,0,1-.6-3.91v-1.9H346v1.9A7.31,7.31,0,0,0,346.51,776.29Zm6.66.79h-4.4v-2.63h4.4Zm1.92,6.59h-3V768.45h3Zm5.15.16h-3.05V767.91h3.05Z"/><path class="cls-8" d="M387.36,790.85H363.49v-2.63h23.87Zm-2.88-18.29H369.66v9.76H366.4V770h18.08Zm.24,11.59H366.4V781.6h18.32Zm-.83-5.92H368.68v-2.54h15.21Z"/><path class="cls-8" d="M404.57,781a72.19,72.19,0,0,0,7.55-.66l.17,2.32a62.41,62.41,0,0,1-7.63.86c-2.66.15-5.51.22-8.55.23l-.29-2.58Q400.58,781.15,404.57,781Zm4.22-8.49H397.38v-2.65h11.41Zm-5.85,19.25h-3.23v-6h3.23Zm14.82,1.77H399.71v-2.6h18.05ZM404.1,782.35h-3.19V775.8h3.19Zm6.58-10.76c0,1.32-.06,2.54-.14,3.68a31.78,31.78,0,0,1-.5,3.81l-3.16-.29a32.75,32.75,0,0,0,.52-3.69c.08-1.06.13-2.22.14-3.48v-1.78h3.14v1.75Zm6.24,15.89h-3.27V767.91h3.27Zm3.38-8.74h-4.72V776h4.72Z"/><path class="cls-8" d="M435.4,780h-9v6.24h-3.31v-8.8h9v-4.63h-9v-2.61h12.3ZM432,785q3-.19,6.12-.72l.28,2.63a58.29,58.29,0,0,1-6.16.73q-3,.2-6.87.2h-2.29v-2.65h2.29C427.85,785.24,430.06,785.17,432,785Zm11.4,9h-3.2V767.91h3.2Z"/><path class="cls-8" d="M457,794.6h-3.21l6.74-25.05h3.22Z"/><path class="cls-8" d="M495.72,782.83H471.93v-2.56h23.79Zm-2.18-11.56H474.06v-2.59h19.48Zm-.15,7.06H474.21v-2.59h19.18Zm-.55,15.37h-18.1v-8.35h18.1Zm-12-16.2h-3.2v-7.81h3.2Zm-2.95,13.6h11.8v-3.25h-11.8Zm7.49-4.84h-3.19v-4.21h3.19Zm4.54-8.76h-3.22v-7.81h3.22Z"/><path class="cls-8" d="M505.89,775.84a9.81,9.81,0,0,1-2.6,3.51,10.86,10.86,0,0,1-4.11,2.21L497.71,779a10,10,0,0,0,3.5-1.77,7.94,7.94,0,0,0,2.2-2.65,6.89,6.89,0,0,0,.76-3.1v-1.19h2.61v1.19A10.73,10.73,0,0,1,505.89,775.84Zm7-4.05H498.55v-2.58h14.37Zm6.33,17.4H505.12v3.11H502v-5.44h14.06v-1.94H501.91v-2.45h17.34Zm.78,4.6H502V791.3h18Zm-11.87-19.37a7.48,7.48,0,0,0,2.18,2.48,10.37,10.37,0,0,0,3.48,1.63L512.28,781a10.67,10.67,0,0,1-4-2.08,9.4,9.4,0,0,1-2.55-3.32,9.83,9.83,0,0,1-.86-4.11v-1.19h2.58v1.19A6.2,6.2,0,0,0,508.16,774.42Zm11.05,6.94H516V767.91h3.18Z"/><path class="cls-8" d="M532.79,794.6h-3.21l6.74-25.05h3.22Z"/><path class="cls-8" d="M559.85,775.5a13,13,0,0,1-4.11,4.59,21,21,0,0,1-6.51,3l-1.29-2.51a19.8,19.8,0,0,0,5.41-2.29,10.61,10.61,0,0,0,3.4-3.28,7.45,7.45,0,0,0,1.16-4V769.5h3.37A12.78,12.78,0,0,1,559.85,775.5Zm.26-3.42H549.34V769.5h10.77Zm9.52,21.59H552.45v-10h17.18Zm-14-2.54h10.85v-4.91H555.59ZM566.88,777H561.4v-2.64h5.48Zm2.75,5.67h-3.21V767.93h3.21Z"/><path class="cls-8" d="M597.13,782.67H573.34v-2.6h23.79Zm-12.51-7.87a9.47,9.47,0,0,1-3.6,2.71,17.55,17.55,0,0,1-5.44,1.39l-1.1-2.52a16.58,16.58,0,0,0,4.54-1,8.3,8.3,0,0,0,3-1.87,3.3,3.3,0,0,0,1-2.31v-.73h2.86v.73A5.8,5.8,0,0,1,584.62,774.8Zm10.38-3H575.52v-2.6H595Zm-5,13.2a7,7,0,0,1,3.12,1.65,3.66,3.66,0,0,1,0,5.19,6.88,6.88,0,0,1-3.12,1.64,22.14,22.14,0,0,1-9.72,0,6.87,6.87,0,0,1-3.13-1.64,3.63,3.63,0,0,1,0-5.19,7,7,0,0,1,3.13-1.65,21.37,21.37,0,0,1,9.72,0ZM582,787.17a4.74,4.74,0,0,0-2,.77,1.5,1.5,0,0,0-.65,1.26,1.47,1.47,0,0,0,.65,1.25,4.87,4.87,0,0,0,2,.76,20.54,20.54,0,0,0,6.39,0,5,5,0,0,0,2-.76,1.5,1.5,0,0,0,.68-1.25,1.56,1.56,0,0,0-.68-1.26,4.84,4.84,0,0,0-2-.77,19.1,19.1,0,0,0-6.4,0Zm6.43-13.69a8.44,8.44,0,0,0,3,1.86,16.5,16.5,0,0,0,4.59,1l-1.14,2.52a17.55,17.55,0,0,1-5.44-1.39,9.55,9.55,0,0,1-3.63-2.7,5.77,5.77,0,0,1-1.28-3.64v-.73h2.87v.73A3.27,3.27,0,0,0,588.42,773.48Z"/><path class="cls-8" d="M294.23,1029.36a10,10,0,0,1-2.48,3.67,10.42,10.42,0,0,1-4,2.32l-1.68-2.55a10,10,0,0,0,3.48-1.84,8,8,0,0,0,2.91-6.18v-2.08h2.6v2.08A12.64,12.64,0,0,1,294.23,1029.36Zm13.86,13.73h-14v3.55h-3.16v-5.92h14v-1.86h-14v-2.5h17.2Zm.82,4.54h-18v-2.54h18Zm-12.52-19.73a7.66,7.66,0,0,0,2.09,2.63,9.6,9.6,0,0,0,3.36,1.76l-1.7,2.49a10.39,10.39,0,0,1-3.84-2.23,9.72,9.72,0,0,1-2.42-3.46,10.78,10.78,0,0,1-.82-4.31v-2.08h2.64v2.08A7,7,0,0,0,296.39,1027.9Zm9.88.71h-6.58V1026h6.58Zm1.82,6.59h-3.2v-13.35h3.2Z"/><path class="cls-8" d="M322.15,1031.89a17,17,0,0,1-3.1,5.81,20.61,20.61,0,0,1-5.62,4.74l-1.9-2.27a19.54,19.54,0,0,0,4.87-4,13.94,13.94,0,0,0,2.73-4.77,18.17,18.17,0,0,0,.87-5.78V1025h3.11A24,24,0,0,1,322.15,1031.89Zm-1-4.26h-8.2V1025h8.2Zm6.29,10.35H321.8v-2.61h5.62Zm.08-6.51H322v-2.61h5.52Zm1.43,15.25h-3.05v-24.24h3.05Zm5.39,1.22h-3v-26.09h3Z"/><path class="cls-8" d="M358.32,1034.32H345.75v-10.86h12.57Zm-1,9.5a9.7,9.7,0,0,1-3.58,2.66,17.26,17.26,0,0,1-5.36,1.4l-1.1-2.45a15.52,15.52,0,0,0,4.49-1,8.58,8.58,0,0,0,3-1.87,3.17,3.17,0,0,0,1.05-2.18v-.42h2.78v.42A5.52,5.52,0,0,1,357.34,1043.82Zm9.31-3.15H348.36v-2.4h18.29Zm-17.74-8.86h6.24V1026h-6.24Zm10.19,7.59h-3.22V1036h3.22Zm1.1,3.1a8.87,8.87,0,0,0,3,1.86,15.79,15.79,0,0,0,4.45,1.07l-1.08,2.45a16.46,16.46,0,0,1-5.34-1.42,9.82,9.82,0,0,1-3.57-2.69,5.39,5.39,0,0,1-1.25-3.41v-.42h2.77v.42A3.13,3.13,0,0,0,360.2,1042.5Zm5.91-5.79h-3.18v-14.86h3.18Z"/><path class="cls-8" d="M387.42,1032a16.42,16.42,0,0,1-3,5.8,19.85,19.85,0,0,1-5.71,4.71l-1.86-2.24a18.63,18.63,0,0,0,4.93-4,13.69,13.69,0,0,0,2.7-4.79,19.05,19.05,0,0,0,.83-5.79v-.61h3.06A25.1,25.1,0,0,1,387.42,1032Zm-1.2-4.27H378v-2.6h8.2Zm7.32,19h-3v-24.19h3Zm3.79-12.18h-4.67v-2.61h4.67Zm2.11,13.39h-3.09v-26.09h3.09Z"/><path class="cls-8" d="M406.66,1026.31h6.09V1023H416v11.38H403.49V1023h3.17Zm16.54,16.78H409.32v3.4h-3.17v-5.73H420v-2H406.11v-2.51H423.2Zm.82,4.64H406.15v-2.56H424Zm-11.27-15.9v-3.08h-6.09v3.08Zm10.45,3.37H420v-13.35h3.22Zm3.65-5.46h-5v-2.62h5Z"/><path class="cls-8" d="M430.87,1051.41h-2.75l1.48-8.1h3.68Z"/><path class="cls-8" d="M453.39,1027.39H446.7v13h-3.05v-15.52h9.74Zm-3,11.89a37,37,0,0,0,4.09-.49l.28,2.59a29.17,29.17,0,0,1-4,.51c-1.32.08-3.11.12-5.38.12h-1.71v-2.59h1.71C447.4,1039.41,449.08,1039.37,450.41,1039.28Zm1.9-5H445.8v-2.47h6.51Zm6.05-.23H453.6v-2.6h4.76Zm1.47,12.59h-3v-24.33h3Zm5.46,1.25H462.2v-26.09h3.09Z"/><path class="cls-8" d="M492.23,1044.63H468.36V1042h23.87Zm-12.36-14a12.74,12.74,0,0,1-3.85,4.14,15,15,0,0,1-5.53,2.36l-1.41-2.68a12.84,12.84,0,0,0,4.79-1.85,10.94,10.94,0,0,0,3.35-3.28,7.25,7.25,0,0,0,1.22-3.92v-1.92h2.82v1.92A10.42,10.42,0,0,1,479.87,1030.64Zm3.19-1.3a10.8,10.8,0,0,0,3.37,3.28,13,13,0,0,0,4.83,1.84l-1.44,2.68a15,15,0,0,1-5.52-2.34,12.45,12.45,0,0,1-3.83-4.13,10.36,10.36,0,0,1-1.38-5.26v-1.92h2.76v1.92A7.16,7.16,0,0,0,483.06,1029.34Z"/><path class="cls-8" d="M517.81,1044.78H493.94v-2.62h23.87Zm-2.88-18.28H500.11v9.75h-3.26v-12.36h18.08Zm.24,11.58H496.85v-2.54h18.32Zm-.83-5.91H499.13v-2.55h15.21Z"/><path class="cls-8" d="M310.1,1096.78H286.22v-2.63H310.1Zm-2.76-8.32H288.85v-12.6h18.49ZM292,1085.93h12.17v-7.49H292Zm7.7,8.88h-3.19V1088h3.19Z"/><path class="cls-8" d="M315.91,1082.5h6.16V1076h3.19v17.86H312.71V1076h3.2Zm6.16,8.7V1085h-6.16v6.19Zm10.18,8.74H329v-26.09h3.21Zm4-13.45h-4.73v-2.71h4.73Z"/><path class="cls-8" d="M348.33,1075.44a6,6,0,0,1,2.47,2.1,5.64,5.64,0,0,1,0,6.08,6,6,0,0,1-2.47,2.09,8.13,8.13,0,0,1-3.54.75,8.22,8.22,0,0,1-3.56-.75,5.94,5.94,0,0,1-2.48-2.09,5.58,5.58,0,0,1,0-6.08,6,6,0,0,1,2.48-2.1,8.22,8.22,0,0,1,3.56-.76A8.14,8.14,0,0,1,348.33,1075.44Zm-5.51,2.29a3.16,3.16,0,0,0-1.36,1.13,3.34,3.34,0,0,0,0,3.45,3.2,3.2,0,0,0,1.36,1.15,5,5,0,0,0,3.93,0,3.22,3.22,0,0,0,1.35-4.6,3.07,3.07,0,0,0-1.35-1.13,5,5,0,0,0-3.93,0Zm16.3,17.27H345v3.44h-3.12v-5.82h14.05v-1.95H341.79v-2.5h17.33Zm.79,4.63h-18v-2.54h18Zm-.79-12.6H355.9v-13.18h3.22Z"/><path class="cls-8" d="M365.65,1103.41H362.9l1.48-8.1h3.68Z"/><path class="cls-8" d="M384.56,1083.53a58.11,58.11,0,0,0,6.34-.58l.22,2.15a40.68,40.68,0,0,1-6.33.82q-3.44.18-7.09.18l-.3-2.42Q381,1083.68,384.56,1083.53Zm2.75-8.3a4.45,4.45,0,0,1,2,1.35,3.31,3.31,0,0,1,0,4.11,4.64,4.64,0,0,1-2,1.37,9.58,9.58,0,0,1-6,0,4.67,4.67,0,0,1-2-1.37,3.29,3.29,0,0,1,0-4.11,4.47,4.47,0,0,1,2-1.35,9.81,9.81,0,0,1,6,0Zm-4.51,2a2.06,2.06,0,0,0-1,.56,1.31,1.31,0,0,0-.34.9,1.24,1.24,0,0,0,.34.89,2,2,0,0,0,1,.55,5.09,5.09,0,0,0,1.51.19,5.26,5.26,0,0,0,1.52-.19,2.06,2.06,0,0,0,1-.55,1.21,1.21,0,0,0,.35-.89,1.23,1.23,0,0,0-.35-.9,2.12,2.12,0,0,0-1-.56,5.71,5.71,0,0,0-1.52-.18A5.53,5.53,0,0,0,382.8,1077.18Zm2.16,15.61h11.93v-2h3.2v8.82H381.78v-8.82H385Zm1-3h-3.1v-5H386Zm10.9,7.31v-1.87H385v1.87Zm-3.5-8.32H388v-2.19h5.44Zm1.75,1.09h-3v-15.6h3Zm4.95,0H397v-16.1h3.09Z"/><path class="cls-8" d="M434,1088.57H410.17v-2.63H434Zm-7.12,2.36a7,7,0,0,1,3.12,1.62,3.66,3.66,0,0,1,0,5.19,6.87,6.87,0,0,1-3.12,1.63,21.75,21.75,0,0,1-9.72,0,6.86,6.86,0,0,1-3.13-1.63,3.63,3.63,0,0,1,0-5.19,7,7,0,0,1,3.13-1.62,21.75,21.75,0,0,1,9.72,0Zm4.23-13.66H416.29v5.33H413.1v-7.93h18Zm.14,6.63H413.1v-2.58h18.15Zm-12.41,9.22a4.73,4.73,0,0,0-2,.77,1.48,1.48,0,0,0-.66,1.25,1.53,1.53,0,0,0,.65,1.28,4.88,4.88,0,0,0,2,.77,17,17,0,0,0,3.21.26,16.7,16.7,0,0,0,3.18-.26,5,5,0,0,0,2-.78,1.54,1.54,0,0,0,.69-1.27,1.52,1.52,0,0,0-.69-1.25,4.84,4.84,0,0,0-2-.77,18.2,18.2,0,0,0-6.36,0Z"/><g id=""><path class="cls-4" d="M209.84,949.48a7.1,7.1,0,0,1,7.08,7.11v5.31a1.76,1.76,0,0,1-.52,1.27,1.71,1.71,0,0,1-1.26.52,1.68,1.68,0,0,1-1.25-.52,1.76,1.76,0,0,1-.52-1.27v-5.31a3.41,3.41,0,0,0-1-2.51,3.37,3.37,0,0,0-2.49-1.05,3.55,3.55,0,0,0,0,7.1,1.81,1.81,0,0,1,1.77,1.77,1.73,1.73,0,0,1-.53,1.27,1.69,1.69,0,0,1-1.24.52,7.11,7.11,0,0,1,0-14.21Z"/><path class="cls-4" d="M194.49,953a3,3,0,0,0-3.09,3.06v5.81a1.77,1.77,0,0,1-.47,1.24,2,2,0,0,1-1.31.54,2,2,0,0,1-1.3-.54,1.77,1.77,0,0,1-.47-1.23v-5.79a6.33,6.33,0,0,1,1.78-4.65,6.86,6.86,0,0,1,4.86-2C196.43,949.48,196.27,953,194.49,953Z"/><path class="cls-4" d="M194.39,949.48a6.85,6.85,0,0,1,4.86,2,6.29,6.29,0,0,1,1.78,4.65v5.79a1.76,1.76,0,0,1-.46,1.23,2,2,0,0,1-1.31.54,2,2,0,0,1-1.3-.54,1.74,1.74,0,0,1-.48-1.24V956.1a3,3,0,0,0-3.09-3.06C192.61,953,192.46,949.48,194.39,949.48Z"/><path class="cls-4" d="M185.83,949.76l-2,.48c-.55.13-1.1.28-1.63.42v11a2.15,2.15,0,0,0,.53,1.48,1.73,1.73,0,0,0,2.62,0,2.16,2.16,0,0,0,.54-1.48v-6.19Z"/><path class="cls-5" d="M186,944.85a2,2,0,1,1-2-2A2,2,0,0,1,186,944.85Z"/><path class="cls-4" d="M179.08,949.6a2.09,2.09,0,0,0-2.58,1l-2.84,6.53-2.83-6.53a2.09,2.09,0,0,0-2.58-1,1.73,1.73,0,0,0-1.14,2.31l4.61,10.64a2.22,2.22,0,0,0,3.88,0l4.62-10.64A1.74,1.74,0,0,0,179.08,949.6Z"/><path class="cls-4" d="M61.77,947.28a8.16,8.16,0,0,1,5.75,2.35,7.46,7.46,0,0,1,2.07,5.51v6.8a2.22,2.22,0,0,1-.52,1.53,2.37,2.37,0,0,1-1.56.57,1.94,1.94,0,0,1-2.09-2.1v-6.8a3.66,3.66,0,1,0-7.31,0v2.62a2.2,2.2,0,0,1-.47,1.52,1.87,1.87,0,0,1-1.37.57,1.83,1.83,0,0,1-1.35-.57,2.2,2.2,0,0,1-.47-1.52v-2.62a3.65,3.65,0,0,0-7.29-.06v6.86a2.08,2.08,0,0,1-.56,1.46,2.32,2.32,0,0,1-1.53.64,2.29,2.29,0,0,1-1.54-.64A2,2,0,0,1,43,962v-6.83a7.43,7.43,0,0,1,2.1-5.49,8.06,8.06,0,0,1,5.73-2.35,6.85,6.85,0,0,1,5.47,2.7A6.87,6.87,0,0,1,61.77,947.28Z"/><path class="cls-4" d="M32.59,950.82c-2.49,0-3.75.76-3.75,1.57S30,954,32.49,954a12.31,12.31,0,0,1,5.48.81c2,1,2.92,2.31,2.92,3.93s-1,3-2.92,3.95A12.26,12.26,0,0,1,32.49,964a12.87,12.87,0,0,1-4.11-.66,9.76,9.76,0,0,1-3.55-2.06A1.76,1.76,0,0,1,24.2,960a1.92,1.92,0,0,1,.53-1.38,2.06,2.06,0,0,1,1.44-.61,2.1,2.1,0,0,1,1.49.51,6,6,0,0,0,2.25,1.26,8.78,8.78,0,0,0,2.58.39c2.49,0,3.81-.62,3.81-1.44s-1.24-1.22-3.72-1.22a11.67,11.67,0,0,1-5.39-1.16q-2.93-1.46-2.92-3.93c0-1.65,1-3,2.92-3.95a11.8,11.8,0,0,1,5.39-1.16,11.15,11.15,0,0,1,7.66,2.7,1.88,1.88,0,0,1,.08,2.75,2.13,2.13,0,0,1-2.91.07,6.9,6.9,0,0,0-2.24-1.64A8.8,8.8,0,0,0,32.59,950.82Z"/><path class="cls-4" d="M79.51,947.28a8.38,8.38,0,0,1,8.35,8.38v6.27a2,2,0,0,1-.62,1.5,2,2,0,0,1-1.48.61,2,2,0,0,1-1.47-.61,2,2,0,0,1-.61-1.5v-6.27a4.18,4.18,0,1,0-4.17,4.18,2,2,0,0,1,1.47.62,2,2,0,0,1,.61,1.47A2.08,2.08,0,0,1,79.51,964a8.38,8.38,0,0,1,0-16.76Z"/><path class="cls-4" d="M97.78,947.28a8.4,8.4,0,0,1,8.35,8.37,2.1,2.1,0,0,1-3.58,1.48,2,2,0,0,1-.61-1.48,4.06,4.06,0,0,0-1.22-2.95,4.13,4.13,0,0,0-5.9,0,4,4,0,0,0-1.23,2.95v6.27A2.08,2.08,0,0,1,90,963.41a2,2,0,0,1-.6-1.49v-6.27a8.35,8.35,0,0,1,8.35-8.37Z"/><path class="cls-5" d="M118.12,949.37a2.08,2.08,0,0,1-2.08,2.09,4.19,4.19,0,1,0,4.16,4.2,2,2,0,0,1,.61-1.48,2,2,0,0,1,1.48-.61,2,2,0,0,1,1.48.61,2,2,0,0,1,.61,1.48,8.35,8.35,0,1,1-16.69,0V943.11a2.06,2.06,0,0,1,.6-1.49,2.08,2.08,0,0,1,3,0,2.07,2.07,0,0,1,.61,1.49v5.29a6.87,6.87,0,0,1,3-1.1H116a2,2,0,0,1,1.46.61A2,2,0,0,1,118.12,949.37Z"/><path class="cls-5" d="M126,955.65a8.11,8.11,0,0,1,2.44-5.93,8.33,8.33,0,0,1,11.8,0,8.09,8.09,0,0,1,2.46,5.93,2.1,2.1,0,0,1-2.1,2.09h-6.25a2,2,0,0,1-1.49-.61,2.13,2.13,0,0,1,0-3,2,2,0,0,1,1.49-.61h3.61a3.93,3.93,0,0,0-3.61-2.11,4,4,0,0,0-3,1.24,4.07,4.07,0,0,0-1.23,3,4.2,4.2,0,0,0,4.19,4.19h6.25a2,2,0,0,1,1.48.62,2,2,0,0,1,.62,1.47,2,2,0,0,1-.62,1.5,2,2,0,0,1-1.48.61h-6.25a8,8,0,0,1-5.91-2.46A8.09,8.09,0,0,1,126,955.65Z"/><path class="cls-5" d="M144.22,955.66a8.35,8.35,0,1,1,16.7,0,2,2,0,0,1-.62,1.47,2,2,0,0,1-1.48.62h-6.25a2.08,2.08,0,0,1-2.08-2.09,2,2,0,0,1,.6-1.48,2,2,0,0,1,1.48-.61h3.61a3.91,3.91,0,0,0-3.61-2.11,4.19,4.19,0,0,0,0,8.38h6.25a2.09,2.09,0,0,1,1.48,3.58,2,2,0,0,1-1.48.61h-6.25a8.35,8.35,0,0,1-8.35-8.37Z"/><path class="cls-5" d="M136.39,943.09a2.08,2.08,0,1,1-2.08-2.09A2.09,2.09,0,0,1,136.39,943.09Z"/><path class="cls-5" d="M154.65,943.09a2.08,2.08,0,1,1-2.08-2.09A2.09,2.09,0,0,1,154.65,943.09Z"/></g><path class="cls-7" d="M298.75,714.19a84,84,0,0,0,8.93-.79l.21,3.14a72.68,72.68,0,0,1-9.05,1c-3.16.18-6.52.27-10.1.28l-.38-3.47Q294,714.38,298.75,714.19Zm4.89-9.59H290.19V701h13.45ZM297.31,727h-4.38v-7h4.38Zm17.48,2.4H292.93v-3.52h21.86Zm-16.32-13.3h-4.34v-7.82h4.34Zm7.74-12.86c0,1.59-.06,3.07-.15,4.42a39.37,39.37,0,0,1-.56,4.5l-4.29-.4a38.5,38.5,0,0,0,.59-4.32c.09-1.25.14-2.63.16-4.14V701h4.25v2.16Zm7.61,18.87h-4.46v-23.3h4.46Zm3.78-10.16h-5.55v-3.64h5.55Z"/><path class="cls-7" d="M335.46,713.38H325.2v7.07h-4.49V710H331v-5H320.68V701.4h14.78Zm-4,5.5q3.49-.23,7.12-.83l.38,3.54a65.29,65.29,0,0,1-7.16.86q-3.57.24-8.25.24h-2.79v-3.58h2.79C326.44,719.11,329.07,719,331.41,718.88ZM345.09,730h-4.34V698.77h4.34Z"/><path class="cls-7" d="M353.07,730.47H348.7l8-29.63h4.38Z"/><path class="cls-7" d="M390.68,716.8H362.3v-3.44h28.38Zm-2.55-13.65H364.79v-3.51h23.34Zm-.21,8.22H365v-3.5h22.92Zm-.65,18.18H365.59V719.48h21.68Zm-14.09-19.32h-4.35V701h4.35Zm-3.3,15.83H383v-3.21H369.88Zm8.74-5.41h-4.34v-4.81h4.34Zm5.46-10.42h-4.39V701h4.39Z"/><path class="cls-7" d="M402.77,708.23a11.46,11.46,0,0,1-3.07,4.23,12.81,12.81,0,0,1-5,2.63l-2-3.43a11.81,11.81,0,0,0,4.19-2,8.81,8.81,0,0,0,2.53-3.05,8,8,0,0,0,.84-3.56v-1.29h3.54V703A13.4,13.4,0,0,1,402.77,708.23Zm8.17-4.53H393.83v-3.48h17.11Zm7.66,20.6H402.05v3.32H397.8v-6.44h16.45v-1.89H397.73V716H418.6Zm.84,5.39H397.8v-3.36h21.64Zm-13.95-23.36a8.41,8.41,0,0,0,2.49,2.85,12,12,0,0,0,4.15,1.91l-2.06,3.36a12.56,12.56,0,0,1-4.9-2.5,10.91,10.91,0,0,1-3-4,12,12,0,0,1-1-5v-1.29h3.46V703A7.28,7.28,0,0,0,405.49,706.33Zm13.06,8.42h-4.33v-16h4.33Z"/><path class="cls-7" d="M302.24,963.08a19.67,19.67,0,0,1-3.56,6.92,23.88,23.88,0,0,1-6.77,5.63l-2.52-3a21.89,21.89,0,0,0,5.71-4.6,15.62,15.62,0,0,0,3.1-5.54,22.76,22.76,0,0,0,1-6.87v-.85h4.13A30.82,30.82,0,0,1,302.24,963.08Zm-1.82-4.83H291v-3.5h9.46Zm9.13,22.39H305.5V951.72h4.05Zm4.11-14.44h-5.29v-3.5h5.29ZM316.6,982h-4.2V950.9h4.2Z"/><path class="cls-7" d="M325.29,956h6.38v-3.69H336v13.58H321V952.31h4.33Zm19.43,20.36H328.43v3.73h-4.3v-6.86h16.24v-2H324.08V967.9h20.64Zm.9,5.45H324.13v-3.43h21.49Zm-13.95-19.34v-3.19h-6.38v3.19Zm13.05,4.29h-4.37V950.9h4.37Zm4.18-6.26h-6V957h6Z"/><path class="cls-7" d="M354.08,982.6H349.7l8-29.63h4.37Z"/><path class="cls-7" d="M375.89,957.8H368.4v15.14h-4.15V954.36h11.64Zm-3.65,13.71c1.57-.1,3.18-.28,4.82-.55l.38,3.49a36.89,36.89,0,0,1-4.78.59q-2.34.12-6.33.13h-2.08v-3.5h2.08C368.7,971.66,370.67,971.6,372.24,971.51Zm2.43-5.46H367.2v-3.32h7.47Zm7-.29h-5.58v-3.49h5.58Zm2,14.85h-4.06V951.46h4.06Zm6.59,1.42h-4.19V950.9h4.19Z"/><path class="cls-7" d="M422,978.21H393.57v-3.59H422Zm-14.49-16.87a14.57,14.57,0,0,1-4.53,5,17.68,17.68,0,0,1-6.84,2.89l-1.88-3.63a15.25,15.25,0,0,0,5.84-2.24,12.21,12.21,0,0,0,3.83-3.85,8.86,8.86,0,0,0,1.33-4.54v-2.24h3.83V955A13.12,13.12,0,0,1,407.53,961.34Zm3.72-1.76a12,12,0,0,0,3.84,3.85,15.42,15.42,0,0,0,5.92,2.21l-1.93,3.63a17.44,17.44,0,0,1-6.84-2.85,14.31,14.31,0,0,1-4.49-5,13.25,13.25,0,0,1-1.56-6.39v-2.24h3.75V955A8.63,8.63,0,0,0,411.25,959.58Z"/><path class="cls-7" d="M452.28,978.41H423.83v-3.56h28.45ZM449,956.74H431.62v11.19h-4.43V953.21H449Zm.24,13.68h-22V967h22Zm-1-7h-17.9V960h17.9Z"/></svg>