<?xml version="1.0" encoding="UTF-8"?>
<svg id="_레이어_1" data-name="레이어 1" xmlns="http://www.w3.org/2000/svg" viewBox="0 0 128 128">
  <defs>
    <style>
      .cls-1 {
        fill: #6290c0;
      }
    </style>
  </defs>
  <g id="_421_App_Code_Coding_Develop_Development" data-name="421, App, Code, Coding, Develop, Development">
    <g>
      <path class="cls-1" d="m121.4,4.59H6.6c-1.4,0-2.6,1.18-2.6,2.57v93.75c0,1.38,1.2,2.57,2.6,2.57h44.92v14.8h-4.99c-1.4,0-2.6,1.18-2.6,2.57s1.2,2.57,2.6,2.57h34.94c1.4,0,2.59-1.18,2.59-2.57s-1.2-2.57-2.59-2.57h-4.99v-14.8h44.92c1.4,0,2.6-1.18,2.6-2.57V7.15c-.2-1.38-1.2-2.57-2.6-2.57Zm-2.6,4.93v78.95H8.99V9.52h109.82Zm-47.32,108.56h-14.98v-14.8h14.98v14.8Zm-62.49-19.74v-4.93h109.82v4.93H8.99Z"/>
      <path class="cls-1" d="m16.98,78.61h44.73c1.4,0,2.59-1.18,2.59-2.57V26.7c0-1.38-1.2-2.57-2.59-2.57H16.98c-1.4,0-2.6,1.18-2.6,2.57v49.34c0,1.58,1.2,2.57,2.6,2.57Zm2.4-4.93v-29.61h39.93v29.61H19.37Zm0-44.41h39.93v9.87H19.37v-9.87Z"/>
      <path class="cls-1" d="m33.75,57.09l-3.19-3.16,3.19-3.16c1-.99,1-2.57,0-3.55-1-.99-2.59-.99-3.59,0l-4.99,4.93c-1,.99-1,2.57,0,3.55l4.99,4.93c1,.99,2.59.99,3.59,0,.8-.99.8-2.57,0-3.55Z"/>
      <path class="cls-1" d="m48.72,52.16c-1-.99-2.59-.99-3.59,0-1,.99-1,2.57,0,3.55l3.19,3.16-3.19,3.16c-1,.99-1,2.57,0,3.55,1,.99,2.6.99,3.59,0l4.99-4.93c1-.99,1-2.57,0-3.55l-4.99-4.93Z"/>
      <path class="cls-1" d="m42.74,49.2c-1.4-.4-2.8.2-3.2,1.58l-4.99,14.8c-.4,1.38.2,2.76,1.6,3.16,1.4.39,2.8-.2,3.2-1.58l4.99-14.8c.4-1.38-.4-2.76-1.6-3.16Z"/>
      <rect class="cls-1" x="23.97" y="31.83" width="4.99" height="4.93"/>
      <rect class="cls-1" x="34.35" y="31.83" width="4.99" height="4.93"/>
      <path class="cls-1" d="m74.88,73.67c2,0,3.99-.99,4.79-2.76l-2.2-1.38c-.4,1.18-1.4,1.58-2.4,1.58-3.2,0-3.99-5.33-1.4-6.91.8-.39,2-.39,2.59,0,.6.4,1,.79,1,1.38l2.2-1.38c-1.2-2.57-4.59-3.16-6.99-1.97-3,1.38-3.99,4.74-3,7.5,1,2.37,3,3.95,5.39,3.95Z"/>
      <path class="cls-1" d="m83.87,62.22c-4.59,2.17-4.59,8.69,0,11.05,1.4.59,3.19.59,4.59,0,2.79-1.38,4.19-4.74,3-7.7-1.2-3.16-4.79-4.74-7.59-3.36Zm3.39,8.69c-.8.39-1.8.39-2.6,0-.8-.4-1.2-1.18-1.4-1.97-.2-.79-.2-2.17,0-2.57.2-.79.6-1.58,1.4-1.97.6-.39,1.8-.39,2.6,0,2.2,1.18,2.2,5.33,0,6.51Z"/>
      <path class="cls-1" d="m97.84,61.83h-4.39v11.84h4.39c3.59,0,5.99-2.17,5.99-5.92,0-3.55-2.2-5.92-5.99-5.92Zm3,7.3c-.4,1.38-1.4,2.17-3,2.17h-1.8v-7.11c1.2,0,2.8-.39,3.99.99,1,.99,1.2,2.76.8,3.95Z"/>
      <polygon class="cls-1" points="113.62 64.2 113.62 61.83 105.43 61.83 105.43 73.67 113.82 73.67 113.82 71.3 108.23 71.3 108.23 68.74 113.02 68.74 113.02 66.57 108.23 66.57 108.23 64.2 113.62 64.2"/>
      <path class="cls-1" d="m73.88,41.7h32.55c1.4,0,2.6-1.18,2.6-2.57s-1.2-2.57-2.6-2.57h-32.55c-1.4,0-2.59,1.18-2.59,2.57.2,1.38,1.2,2.57,2.59,2.57Z"/>
      <path class="cls-1" d="m83.87,29.26h22.56c1.4,0,2.6-1.18,2.6-2.57s-1.2-2.57-2.6-2.57h-22.56c-1.4,0-2.6,1.18-2.6,2.57.2,1.58,1.2,2.57,2.6,2.57Z"/>
    </g>
  </g>
</svg>