<?xml version="1.0" encoding="UTF-8"?>
<svg id="_레이어_1" data-name="레이어 1" xmlns="http://www.w3.org/2000/svg" viewBox="0 0 300 50">
  <defs>
    <style>
      .cls-1 {
        fill: #6390c0;
      }

      .cls-2 {
        fill: #666;
      }
    </style>
  </defs>
  <path class="cls-1" d="m79.9,13.86c4.48,0,9.07,1.76,12.24,5,3.17,3.24,4.41,7.13,4.41,11.71v14.47c0,1.17-.33,2.43-1.12,3.24-.8.81-2.22,1.21-3.32,1.21s-2.47-.4-3.26-1.21c-.79-.81-1.18-2.07-1.18-3.24v-14.48c0-4.45-3.31-7.8-7.76-7.8s-7.77,3.34-7.77,7.8c0,.2,0,5.46,0,5.57,0,1.15-.21,2.43-1.01,3.24-.8.81-1.78,1.21-2.9,1.21s-2.07-.4-2.86-1.21c-.79-.81-1.02-2.09-1.02-3.24,0-1.05.01-4.91.01-5.57,0-4.45-3.29-7.8-7.75-7.8s-7.75,3.34-7.75,7.68v14.59c0,1.17-.4,2.3-1.18,3.1-.79.81-2.15,1.35-3.27,1.35s-2.5-.54-3.28-1.35c-.78-.81-1.17-1.93-1.17-3.09v-14.53c0-4.58,1.31-8.42,4.47-11.67,3.16-3.24,7.69-5,12.18-5,4.86,0,8.4,1.99,11.64,5.73,3.26-3.74,6.82-5.73,11.67-5.73Z"/>
  <path class="cls-1" d="m17.85,21.38c-5.3,0-7.98,1.62-7.98,3.34s2.46,3.34,7.76,3.34c4.39,0,8.4.08,11.65,1.72,4.15,2.12,6.22,4.91,6.22,8.37s-2.07,6.3-6.22,8.4c-3.25,1.64-7.25,2.93-11.64,2.93-3.03,0-5.95-.47-8.76-1.39-2.8-.93-5.32-2.39-7.55-4.38C.47,42.93.02,41.98,0,40.85c-.02-1.12.36-2.11,1.15-2.95.83-.82,1.85-1.25,3.06-1.3,1.21-.04,2.26.32,3.16,1.1,1.38,1.23,2.97,2.13,4.78,2.68,1.81.55,3.64.83,5.5.83,5.28,0,8.1-1.33,8.1-3.06s-2.64-2.59-7.92-2.59c-4.41,0-8.23-.82-11.46-2.47C2.22,31.01.15,28.22.15,24.72s2.07-6.3,6.22-8.4c3.23-1.64,7.05-2.47,11.46-2.47,6.52,0,11.96,1.91,16.3,5.74.87.78,1.33,1.74,1.36,2.89.03,1.15-.37,2.13-1.19,2.95-.83.84-1.85,1.28-3.06,1.3-1.21.02-2.25-.36-3.13-1.14-1.38-1.21-2.95-2.95-4.77-3.5-1.82-.55-3.65-.72-5.48-.72Z"/>
  <path class="cls-1" d="m117.64,13.86c4.88,0,9.06,1.74,12.54,5.22,3.48,3.48,5.22,7.68,5.22,12.6v13.34c0,1.25-.44,2.31-1.31,3.18-.88.87-1.93,1.3-3.15,1.3s-2.27-.43-3.13-1.3c-.86-.87-1.3-1.93-1.3-3.18v-13.34c0-2.44-.87-4.53-2.61-6.29-1.74-1.76-3.82-2.63-6.25-2.63s-4.55.88-6.29,2.63c-1.74,1.76-2.61,3.85-2.61,6.29s.87,4.56,2.61,6.29c1.74,1.74,3.84,2.6,6.29,2.6,1.2,0,2.24.44,3.12,1.32.88.88,1.31,1.92,1.31,3.13s-.44,2.31-1.31,3.18c-.87.87-1.91,1.3-3.12,1.3-4.92,0-9.12-1.74-12.57-5.22-3.46-3.48-5.19-7.68-5.19-12.6s1.73-9.12,5.19-12.6c3.46-3.48,7.65-5.22,12.57-5.22Z"/>
  <path class="cls-1" d="m156.49,13.86c4.88,0,9.06,1.74,12.54,5.22,3.48,3.48,5.22,7.67,5.22,12.59,0,1.23-.44,2.28-1.31,3.14-.88.87-1.93,1.3-3.15,1.3s-2.27-.43-3.14-1.3c-.86-.87-1.3-1.91-1.3-3.14,0-2.43-.87-4.53-2.61-6.28-1.74-1.76-3.82-2.63-6.25-2.63s-4.55.88-6.29,2.63c-1.73,1.76-2.61,3.85-2.61,6.28v13.33c0,1.25-.43,2.31-1.3,3.18-.86.87-1.91,1.3-3.14,1.3s-2.3-.43-3.15-1.3c-.85-.87-1.28-1.93-1.28-3.18v-13.33c0-4.91,1.73-9.11,5.19-12.59,3.46-3.48,7.65-5.22,12.57-5.22Z"/>
  <path class="cls-2" d="m199.75,18.31c0,1.25-.44,2.3-1.31,3.16-.88.86-1.91,1.28-3.12,1.28-2.45,0-4.54.88-6.28,2.63-1.74,1.76-2.61,3.85-2.61,6.29s.87,4.55,2.61,6.29c1.74,1.73,3.83,2.6,6.28,2.6s4.51-.87,6.25-2.6c1.74-1.73,2.61-3.83,2.61-6.29,0-1.23.43-2.28,1.29-3.14.87-.87,1.91-1.3,3.14-1.3s2.27.43,3.15,1.3c.87.87,1.31,1.91,1.31,3.14,0,4.92-1.74,9.11-5.22,12.59-3.48,3.48-7.65,5.22-12.53,5.22s-9.11-1.74-12.57-5.22c-3.46-3.48-5.18-7.67-5.18-12.59V4.98c0-1.23.43-2.28,1.28-3.16.85-.88,1.9-1.32,3.15-1.32s2.27.44,3.13,1.32c.87.88,1.3,1.93,1.3,3.16v11.26c2.69-1.54,4.82-2.31,6.4-2.34,1.58-.02,2.38-.03,2.41-.03h.08c1.2,0,2.24.44,3.12,1.32.87.88,1.31,1.92,1.31,3.13Z"/>
  <path class="cls-2" d="m216.42,31.66c0-4.92,1.73-9.13,5.19-12.61,3.46-3.49,7.65-5.23,12.57-5.23s9.06,1.74,12.54,5.23c3.48,3.48,5.22,7.69,5.22,12.61,0,1.23-.44,2.28-1.31,3.15-.88.87-1.93,1.3-3.15,1.3h-13.29c-1.25,0-2.3-.43-3.15-1.3-.85-.87-1.28-1.92-1.28-3.15s.43-2.28,1.28-3.15c.85-.87,1.9-1.3,3.15-1.3h7.68c-1.73-2.99-4.29-4.48-7.68-4.48-2.45,0-4.55.88-6.29,2.64-1.74,1.76-2.61,3.86-2.61,6.3s.87,4.56,2.61,6.3c1.74,1.74,3.84,2.61,6.29,2.61h13.29c1.22,0,2.27.44,3.15,1.32.87.88,1.31,1.92,1.31,3.13s-.44,2.31-1.31,3.18c-.88.87-1.93,1.3-3.15,1.3h-13.29c-4.92,0-9.12-1.74-12.57-5.23-3.46-3.48-5.19-7.69-5.19-12.61Z"/>
  <path class="cls-2" d="m255.27,31.67c0-4.91,1.73-9.11,5.18-12.59,3.46-3.48,7.65-5.22,12.57-5.22s9.06,1.74,12.54,5.22c3.48,3.48,5.22,7.67,5.22,12.59,0,1.23-.44,2.28-1.31,3.14-.88.87-1.93,1.3-3.15,1.3h-13.29c-1.25,0-2.3-.43-3.15-1.3-.85-.87-1.28-1.91-1.28-3.14s.43-2.28,1.28-3.14c.85-.87,1.9-1.3,3.15-1.3h7.68c-1.73-2.98-4.29-4.48-7.68-4.48-2.45,0-4.55.88-6.29,2.63-1.74,1.76-2.61,3.85-2.61,6.29s.87,4.55,2.61,6.29c1.74,1.73,3.84,2.6,6.29,2.6h13.29c1.23,0,2.28.44,3.15,1.32.88.88,1.31,1.92,1.31,3.13s-.44,2.31-1.31,3.18c-.88.87-1.93,1.3-3.15,1.3h-13.29c-4.92,0-9.12-1.74-12.57-5.22-3.46-3.48-5.18-7.67-5.18-12.59Z"/>
  <path class="cls-2" d="m238.6,4.95c0,2.46-1.98,4.45-4.43,4.45s-4.42-1.99-4.42-4.45,1.98-4.45,4.42-4.45,4.43,1.99,4.43,4.45Z"/>
  <path class="cls-2" d="m277.45,4.95c0,2.46-1.98,4.45-4.42,4.45s-4.42-1.99-4.42-4.45,1.98-4.45,4.42-4.45,4.42,1.99,4.42,4.45Z"/>
</svg>