<?xml version="1.0" encoding="UTF-8"?>
<svg id="_레이어_1" data-name="레이어 1" xmlns="http://www.w3.org/2000/svg" viewBox="0 0 271.45 32.69">
  <defs>
    <style>
      .cls-1 {
        fill: #6391c1;
      }

      .cls-2 {
        fill: #666;
      }
    </style>
  </defs>
  <g>
    <path class="cls-1" d="m52.89,9.1c2.96,0,6.01,1.16,8.1,3.31,2.1,2.15,2.92,4.72,2.92,7.75v9.58c0,.77-.22,1.61-.74,2.14-.53.53-1.47.8-2.19.8s-1.64-.27-2.16-.8c-.52-.54-.78-1.37-.78-2.14v-9.58c0-2.95-2.19-5.16-5.14-5.16s-5.15,2.21-5.15,5.16c0,.13,0,3.61,0,3.69,0,.76-.14,1.61-.67,2.15-.53.53-1.18.8-1.92.8s-1.37-.27-1.9-.8c-.52-.53-.67-1.39-.67-2.15,0-.69,0-3.25,0-3.68,0-2.95-2.18-5.16-5.13-5.16s-5.13,2.21-5.13,5.08v9.66c0,.77-.26,1.52-.78,2.05-.52.53-1.42.89-2.16.89s-1.65-.36-2.17-.89c-.52-.54-.77-1.28-.77-2.05v-9.61c0-3.03.87-5.58,2.96-7.72,2.09-2.15,5.09-3.31,8.07-3.31,3.22,0,5.56,1.31,7.7,3.79,2.16-2.48,4.51-3.79,7.73-3.79Z"/>
    <path class="cls-1" d="m11.82,14.07c-3.51,0-5.28,1.07-5.28,2.21s1.63,2.21,5.14,2.21c2.9,0,5.56.05,7.71,1.14,2.74,1.4,4.12,3.25,4.12,5.54s-1.37,4.17-4.12,5.56c-2.15,1.09-4.8,1.94-7.7,1.94-2.01,0-3.94-.31-5.8-.92-1.86-.61-3.52-1.58-4.99-2.9C.31,28.33.01,27.71,0,26.96c-.01-.74.24-1.4.76-1.95.55-.54,1.22-.83,2.03-.86.8-.03,1.5.21,2.09.73.91.82,1.96,1.41,3.16,1.77,1.2.37,2.41.55,3.64.55,3.5,0,5.36-.88,5.36-2.02s-1.75-1.72-5.24-1.72c-2.92,0-5.45-.54-7.59-1.63C1.47,20.45.1,18.6.1,16.29s1.37-4.17,4.12-5.56c2.14-1.09,4.67-1.63,7.59-1.63,4.32,0,7.92,1.27,10.79,3.8.58.52.88,1.15.9,1.91.02.76-.24,1.41-.79,1.95-.55.56-1.22.84-2.03.86-.8.01-1.49-.24-2.07-.75-.91-.8-1.95-1.95-3.16-2.32-1.21-.37-2.42-.48-3.63-.48Z"/>
    <path class="cls-1" d="m77.87,9.1c3.23,0,6,1.15,8.3,3.46,2.3,2.3,3.45,5.08,3.45,8.34v8.83c0,.83-.29,1.53-.87,2.1-.58.58-1.28.86-2.09.86s-1.5-.29-2.08-.86c-.57-.57-.86-1.27-.86-2.1v-8.83c0-1.61-.58-3-1.73-4.16-1.15-1.16-2.53-1.74-4.14-1.74s-3.01.58-4.16,1.74c-1.15,1.16-1.73,2.55-1.73,4.16s.58,3.02,1.73,4.16c1.15,1.15,2.54,1.72,4.16,1.72.8,0,1.48.29,2.06.87.58.58.87,1.27.87,2.07s-.29,1.53-.87,2.1c-.58.58-1.27.86-2.06.86-3.26,0-6.03-1.15-8.32-3.46-2.29-2.3-3.43-5.08-3.43-8.34s1.14-6.04,3.43-8.34c2.29-2.3,5.06-3.46,8.32-3.46Z"/>
    <path class="cls-1" d="m103.58,9.1c3.23,0,6,1.15,8.3,3.45,2.3,2.3,3.45,5.08,3.45,8.33,0,.81-.29,1.51-.87,2.08-.58.57-1.27.86-2.09.86s-1.5-.29-2.08-.86c-.57-.57-.86-1.27-.86-2.08,0-1.61-.58-3-1.73-4.16-1.15-1.16-2.53-1.74-4.14-1.74s-3.01.58-4.16,1.74c-1.15,1.16-1.73,2.55-1.73,4.16v8.82c0,.83-.29,1.53-.86,2.1-.57.57-1.26.86-2.08.86s-1.52-.29-2.09-.86c-.57-.57-.85-1.27-.85-2.1v-8.82c0-3.25,1.14-6.03,3.43-8.33,2.29-2.3,5.06-3.45,8.32-3.45Z"/>
    <path class="cls-2" d="m132.22,12.04c0,.83-.29,1.53-.87,2.09-.58.57-1.27.85-2.06.85-1.62,0-3.01.58-4.16,1.74-1.15,1.16-1.73,2.55-1.73,4.16s.58,3.01,1.73,4.16c1.15,1.15,2.54,1.72,4.16,1.72s2.99-.57,4.14-1.72c1.15-1.15,1.73-2.53,1.73-4.16,0-.81.29-1.51.86-2.08.57-.57,1.26-.86,2.08-.86s1.51.29,2.08.86c.58.57.87,1.27.87,2.08,0,3.25-1.15,6.03-3.45,8.33-2.3,2.3-5.07,3.45-8.3,3.45s-6.03-1.15-8.32-3.45c-2.29-2.3-3.43-5.08-3.43-8.33V3.22c0-.81.28-1.51.85-2.09.57-.58,1.26-.87,2.08-.87s1.5.29,2.07.87c.57.58.86,1.28.86,2.09v7.45c1.78-1.02,3.19-1.53,4.23-1.55,1.04-.01,1.58-.02,1.6-.02h.06c.8,0,1.48.29,2.06.87.58.58.87,1.27.87,2.07Z"/>
    <path class="cls-2" d="m143.26,20.88c0-3.26,1.14-6.04,3.43-8.35,2.29-2.31,5.06-3.46,8.32-3.46s6,1.15,8.3,3.46c2.3,2.31,3.46,5.09,3.46,8.35,0,.82-.29,1.51-.87,2.08-.58.57-1.28.86-2.09.86h-8.8c-.83,0-1.52-.29-2.09-.86-.57-.57-.85-1.27-.85-2.08s.28-1.51.85-2.08c.56-.57,1.26-.86,2.09-.86h5.08c-1.14-1.98-2.84-2.97-5.08-2.97-1.62,0-3.01.58-4.16,1.75-1.15,1.16-1.73,2.55-1.73,4.17s.58,3.02,1.73,4.17c1.15,1.15,2.54,1.72,4.16,1.72h8.8c.81,0,1.5.29,2.09.87.58.58.87,1.27.87,2.07s-.29,1.53-.87,2.11c-.58.58-1.28.86-2.09.86h-8.8c-3.26,0-6.03-1.15-8.32-3.46-2.29-2.31-3.43-5.09-3.43-8.35Z"/>
    <path class="cls-2" d="m168.97,20.89c0-3.25,1.14-6.03,3.43-8.33,2.29-2.3,5.06-3.45,8.32-3.45s6,1.15,8.3,3.45c2.3,2.3,3.45,5.08,3.45,8.33,0,.81-.29,1.51-.87,2.08-.58.57-1.27.86-2.09.86h-8.8c-.83,0-1.52-.29-2.09-.86-.56-.57-.85-1.27-.85-2.08s.28-1.51.85-2.08c.57-.57,1.26-.86,2.09-.86h5.08c-1.14-1.98-2.84-2.96-5.08-2.96-1.62,0-3.01.58-4.16,1.74-1.15,1.16-1.73,2.55-1.73,4.16s.57,3.01,1.73,4.16c1.15,1.15,2.54,1.72,4.16,1.72h8.8c.81,0,1.51.29,2.09.87.58.58.87,1.27.87,2.07s-.29,1.53-.87,2.1c-.58.57-1.27.86-2.09.86h-8.8c-3.26,0-6.03-1.15-8.32-3.45-2.29-2.3-3.43-5.08-3.43-8.33Z"/>
    <path class="cls-2" d="m157.94,3.2c0,1.63-1.31,2.95-2.93,2.95s-2.93-1.32-2.93-2.95,1.31-2.95,2.93-2.95,2.93,1.32,2.93,2.95Z"/>
    <path class="cls-2" d="m183.65,3.2c0,1.63-1.31,2.95-2.93,2.95s-2.93-1.32-2.93-2.95,1.31-2.95,2.93-2.95,2.93,1.32,2.93,2.95Z"/>
  </g>
  <g>
    <path class="cls-2" d="m201.35,25.86l2.58-2.42c.54.69,1.45,1.43,2.58,1.43,1.23,0,1.98-.84,2.41-2.79l2.2-10.16h4.29l-2.36,10.85c-.64,2.94-2.58,5.51-6.54,5.51-1.98,0-4.02-.84-5.15-2.42Z"/>
    <path class="cls-2" d="m215.21,23.73c0-4.7,3.43-8.41,7.13-8.41,1.13,0,2.31.59,2.79,1.53h.05l.59-1.24h3.43l-2.68,12.36h-3.49v-1.53h-.05c-1.18,1.14-2.74,1.83-4.02,1.83-2.36,0-3.76-1.63-3.76-4.55Zm8.05-.3l.86-3.96c-.32-.64-.97-.94-1.45-.94-1.56,0-3,1.93-3,4.7,0,1.29.48,1.83,1.23,1.83.7,0,1.66-.3,2.36-1.63Z"/>
    <path class="cls-2" d="m232.94,29.27l-.64,3.07h-4.29l3.65-16.71h3.49l.11,1.34h.05c1.18-.99,2.63-1.63,3.92-1.63,2.36,0,3.76,1.63,3.76,4.55,0,4.7-3.43,8.41-7.13,8.41-1.02,0-1.98-.49-2.52-1.34h-.05l-.32,2.32Zm2.09-9.35l-.91,4.2c.27.64.86.94,1.39.94,1.56,0,3-1.93,3-4.7,0-1.29-.48-1.83-1.23-1.83-.7,0-1.61.3-2.25,1.38Z"/>
    <path class="cls-2" d="m243.85,23.73c0-4.7,3.43-8.41,7.13-8.41,1.13,0,2.31.59,2.79,1.53h.05l.59-1.24h3.43l-2.68,12.36h-3.49v-1.53h-.05c-1.18,1.14-2.74,1.83-4.02,1.83-2.36,0-3.76-1.63-3.76-4.55Zm8.05-.3l.86-3.96c-.32-.64-.97-.94-1.45-.94-1.56,0-3,1.93-3,4.7,0,1.29.48,1.83,1.23,1.83.7,0,1.66-.3,2.36-1.63Z"/>
    <path class="cls-2" d="m260.24,15.62h3.49v1.58h.11c1.23-.99,2.74-1.88,4.45-1.88,2.2,0,3.17,1.09,3.17,3.21,0,.54-.08,1.19-.21,1.78l-1.66,7.66h-4.29l1.56-7.17c.11-.45.21-.79.21-1.09,0-.69-.43-1.04-1.13-1.04-.75,0-1.39.45-2.36,1.38l-1.66,7.91h-4.29l2.63-12.36Z"/>
  </g>
</svg>