<?xml version="1.0" encoding="UTF-8"?>
<svg id="_레이어_1" data-name="레이어 1" xmlns="http://www.w3.org/2000/svg" viewBox="0 0 272 35">
  <defs>
    <style>
      .cls-1 {
        fill: #6391c1;
      }

      .cls-2 {
        fill: #666;
      }
    </style>
  </defs>
  <g id="_베트남로고" data-name="베트남로고">
    <g>
      <path class="cls-1" d="m261.47,13.42c2.74,0,5.09.98,7.05,2.94,1.96,1.96,2.93,4.32,2.93,7.08v7.5c0,.7-.25,1.3-.74,1.79-.49.49-1.08.73-1.77.73s-1.28-.24-1.76-.73c-.49-.49-.73-1.08-.73-1.79v-7.5c0-1.37-.49-2.55-1.47-3.54-.98-.99-2.15-1.48-3.52-1.48s-2.56.49-3.53,1.48c-.98.99-1.47,2.17-1.47,3.54s.49,2.56,1.47,3.54c.98.98,2.16,1.46,3.53,1.46.68,0,1.26.25,1.75.74.49.49.74,1.08.74,1.76s-.25,1.3-.74,1.79c-.49.49-1.08.73-1.75.73-2.77,0-5.13-.98-7.07-2.94-1.94-1.96-2.92-4.32-2.92-7.08s.97-5.13,2.92-7.08c1.94-1.96,4.3-2.94,7.07-2.94Z"/>
      <g>
        <path class="cls-1" d="m239.82,18.43c-2.51,0-4.36,1.88-4.36,4.32v8.21c0,.66-.22,1.29-.67,1.75-.44.45-1.21.76-1.84.76s-1.4-.3-1.84-.76c-.44-.46-.66-1.08-.66-1.74v-8.17c0-2.58.74-4.74,2.51-6.56,1.78-1.82,4.32-2.81,6.85-2.81,2.73,0,2.51,5.01,0,5.01Z"/>
        <path class="cls-1" d="m239.68,13.42c2.53,0,5.08.99,6.85,2.81,1.78,1.82,2.51,3.98,2.51,6.56v8.17c0,.65-.22,1.28-.66,1.74-.44.45-1.2.76-1.84.76s-1.39-.3-1.84-.76c-.44-.46-.67-1.09-.67-1.75v-8.21c0-2.44-1.85-4.32-4.36-4.32s-2.73-5.01,0-5.01Z"/>
      </g>
      <g>
        <path class="cls-1" d="m227.6,13.8c-.94.21-1.89.43-2.86.68-.78.19-1.55.39-2.3.6v15.45c0,.82.25,1.51.75,2.08.5.57,1.12.85,1.85.85s1.34-.28,1.85-.85c.51-.57.76-1.26.76-2.08v-8.73l-.05-7.99Z"/>
        <path class="cls-2" d="m227.82,6.89c0,1.54-1.24,2.79-2.78,2.79s-2.77-1.25-2.77-2.79,1.24-2.79,2.77-2.79,2.78,1.25,2.78,2.79Z"/>
      </g>
      <path class="cls-1" d="m218.08,13.59c-1.44-.5-3.08.14-3.64,1.44l-4,9.22-4-9.22c-.56-1.29-2.2-1.94-3.64-1.44-1.44.5-2.17,1.97-1.61,3.26l6.51,15c.44,1.03,1.57,1.64,2.74,1.6,1.17.04,2.29-.58,2.74-1.6l6.51-15c.56-1.29-.16-2.76-1.61-3.26Z"/>
    </g>
    <g>
      <path class="cls-1" d="m52.99,10.11c2.97,0,6.02,1.17,8.12,3.32,2.1,2.15,2.92,4.73,2.92,7.77v9.59c0,.77-.22,1.61-.75,2.15-.53.54-1.47.8-2.2.8s-1.64-.27-2.16-.8c-.52-.54-.79-1.37-.79-2.15v-9.6c0-2.95-2.2-5.17-5.15-5.17s-5.16,2.22-5.16,5.17c0,.13,0,3.62,0,3.69,0,.76-.14,1.61-.67,2.15-.53.54-1.18.8-1.93.8s-1.38-.27-1.9-.8c-.52-.54-.68-1.39-.68-2.15,0-.69,0-3.26,0-3.69,0-2.95-2.18-5.17-5.14-5.17s-5.14,2.22-5.14,5.09v9.68c0,.77-.26,1.52-.79,2.06-.52.53-1.43.89-2.17.89s-1.66-.36-2.17-.89c-.52-.54-.78-1.28-.78-2.05v-9.63c0-3.04.87-5.59,2.96-7.74,2.09-2.15,5.1-3.32,8.08-3.32,3.22,0,5.57,1.32,7.72,3.8,2.16-2.48,4.52-3.8,7.74-3.8Z"/>
      <path class="cls-1" d="m11.84,15.1c-3.52,0-5.29,1.07-5.29,2.22s1.63,2.21,5.15,2.21c2.91,0,5.57.05,7.73,1.14,2.75,1.4,4.13,3.25,4.13,5.55s-1.38,4.18-4.13,5.57c-2.16,1.09-4.81,1.94-7.72,1.94-2.01,0-3.95-.31-5.81-.93-1.86-.62-3.53-1.58-5-2.9C.31,29.39.01,28.76,0,28.01c-.01-.75.24-1.4.76-1.96.55-.54,1.23-.83,2.03-.86.8-.03,1.5.21,2.1.73.91.82,1.97,1.41,3.17,1.77,1.2.37,2.42.55,3.65.55,3.5,0,5.37-.88,5.37-2.03s-1.75-1.72-5.25-1.72c-2.92,0-5.46-.55-7.6-1.63C1.47,21.49.1,19.64.1,17.32s1.37-4.18,4.12-5.57c2.14-1.09,4.68-1.63,7.6-1.63,4.33,0,7.93,1.27,10.81,3.81.58.52.88,1.15.9,1.91.02.76-.24,1.41-.79,1.96-.55.56-1.23.85-2.03.86-.8.01-1.5-.24-2.07-.75-.91-.8-1.96-1.96-3.17-2.32-1.21-.37-2.42-.48-3.64-.48Z"/>
      <path class="cls-1" d="m78.02,10.11c3.24,0,6.01,1.15,8.32,3.46,2.31,2.31,3.46,5.09,3.46,8.35v8.85c0,.83-.29,1.53-.87,2.11-.58.58-1.28.86-2.09.86s-1.51-.29-2.08-.86c-.57-.57-.86-1.28-.86-2.11v-8.85c0-1.62-.58-3.01-1.73-4.17-1.15-1.16-2.54-1.75-4.15-1.75s-3.02.58-4.17,1.75c-1.15,1.17-1.73,2.56-1.73,4.17s.58,3.02,1.73,4.17c1.15,1.15,2.54,1.73,4.17,1.73.8,0,1.49.29,2.07.87.58.58.87,1.27.87,2.07s-.29,1.53-.87,2.11c-.58.58-1.27.86-2.07.86-3.27,0-6.05-1.15-8.34-3.46-2.29-2.31-3.44-5.09-3.44-8.35s1.15-6.05,3.44-8.35c2.29-2.31,5.07-3.46,8.34-3.46Z"/>
      <path class="cls-1" d="m103.78,10.11c3.24,0,6.01,1.15,8.32,3.46,2.31,2.31,3.46,5.09,3.46,8.35,0,.82-.29,1.51-.87,2.09-.58.57-1.28.86-2.09.86s-1.51-.29-2.08-.86c-.57-.58-.86-1.27-.86-2.09,0-1.61-.58-3-1.73-4.17-1.15-1.16-2.54-1.75-4.15-1.75s-3.02.58-4.17,1.75c-1.15,1.16-1.73,2.55-1.73,4.17v8.84c0,.83-.29,1.53-.86,2.11-.57.58-1.27.86-2.08.86s-1.52-.29-2.09-.86c-.57-.57-.85-1.28-.85-2.11v-8.84c0-3.26,1.15-6.04,3.44-8.35,2.29-2.31,5.07-3.46,8.34-3.46Z"/>
      <path class="cls-2" d="m132.47,13.06c0,.83-.29,1.53-.87,2.1-.58.57-1.27.85-2.07.85-1.63,0-3.01.58-4.17,1.75-1.15,1.16-1.73,2.55-1.73,4.17s.58,3.02,1.73,4.17c1.15,1.15,2.54,1.72,4.17,1.72s2.99-.57,4.15-1.72c1.15-1.15,1.73-2.54,1.73-4.17,0-.81.29-1.51.86-2.08.57-.57,1.27-.86,2.08-.86s1.51.29,2.09.86c.58.58.87,1.27.87,2.08,0,3.26-1.15,6.04-3.46,8.35-2.31,2.31-5.08,3.46-8.31,3.46s-6.04-1.15-8.33-3.46c-2.29-2.31-3.44-5.09-3.44-8.35V4.22c0-.81.28-1.51.85-2.1.57-.58,1.26-.87,2.09-.87s1.5.29,2.08.87c.57.58.86,1.28.86,2.1v7.46c1.78-1.02,3.2-1.53,4.24-1.55,1.04-.01,1.58-.02,1.6-.02h.06c.8,0,1.49.29,2.07.87.58.58.87,1.27.87,2.07Z"/>
      <path class="cls-2" d="m143.53,21.92c0-3.27,1.14-6.05,3.44-8.36,2.29-2.31,5.07-3.47,8.34-3.47s6.01,1.15,8.32,3.47c2.31,2.31,3.46,5.1,3.46,8.36,0,.82-.29,1.51-.87,2.09-.58.58-1.28.86-2.09.86h-8.82c-.83,0-1.52-.29-2.09-.86-.57-.58-.85-1.27-.85-2.09s.28-1.51.85-2.09c.57-.58,1.26-.86,2.09-.86h5.09c-1.15-1.98-2.84-2.97-5.09-2.97-1.63,0-3.01.58-4.17,1.75-1.15,1.17-1.73,2.56-1.73,4.18s.58,3.03,1.73,4.18c1.15,1.15,2.54,1.73,4.17,1.73h8.82c.81,0,1.51.29,2.09.87.58.58.87,1.28.87,2.08s-.29,1.53-.87,2.11c-.58.58-1.28.86-2.09.86h-8.82c-3.27,0-6.05-1.16-8.34-3.47-2.29-2.31-3.44-5.1-3.44-8.36Z"/>
      <path class="cls-2" d="m169.29,21.92c0-3.26,1.15-6.04,3.44-8.35,2.29-2.31,5.07-3.46,8.34-3.46s6.01,1.15,8.32,3.46c2.31,2.31,3.46,5.09,3.46,8.35,0,.81-.29,1.51-.87,2.08-.58.57-1.28.86-2.09.86h-8.82c-.83,0-1.52-.29-2.09-.86-.57-.57-.85-1.27-.85-2.08s.28-1.51.85-2.08c.57-.57,1.26-.86,2.09-.86h5.09c-1.15-1.98-2.84-2.97-5.09-2.97-1.63,0-3.01.58-4.17,1.75-1.16,1.16-1.73,2.55-1.73,4.17s.57,3.02,1.73,4.17c1.15,1.15,2.54,1.72,4.17,1.72h8.82c.81,0,1.51.29,2.09.87.58.58.87,1.27.87,2.07s-.29,1.53-.87,2.11c-.58.57-1.28.86-2.09.86h-8.82c-3.27,0-6.05-1.15-8.34-3.46-2.29-2.31-3.44-5.09-3.44-8.35Z"/>
      <path class="cls-2" d="m158.24,4.2c0,1.63-1.31,2.95-2.94,2.95s-2.93-1.32-2.93-2.95,1.31-2.95,2.93-2.95,2.94,1.32,2.94,2.95Z"/>
      <path class="cls-2" d="m184,4.2c0,1.63-1.31,2.95-2.93,2.95s-2.93-1.32-2.93-2.95,1.31-2.95,2.93-2.95,2.93,1.32,2.93,2.95Z"/>
    </g>
  </g>
</svg>