<?xml version="1.0" encoding="UTF-8"?>
<svg id="_레이어_1" data-name="레이어 1" xmlns="http://www.w3.org/2000/svg" viewBox="0 0 128 128">
  <defs>
    <style>
      .cls-1 {
        fill: #0f64ce;
        stroke: #0f64ce;
        stroke-miterlimit: 10;
      }
    </style>
  </defs>
  <path class="cls-1" d="m118.44,7.42H9.55c-3.06,0-5.55,2.49-5.55,5.56v80.09c0,3.07,2.49,5.58,5.55,5.58h40.99l-1.89,11.91h-8.13c-.26,0-.48.1-.69.23h-.07c-.17,0-.3.14-.3.3v.07c-.13.2-.23.43-.23.69v7.45c0,.26.1.48.23.69v.07c0,.17.14.3.3.3h.07c.2.13.43.23.69.23h46.96c.26,0,.48-.1.69-.23h.07c.17,0,.3-.14.3-.3v-.07c.13-.2.23-.43.23-.69v-7.45c0-.26-.1-.48-.23-.69v-.07c0-.17-.14-.3-.3-.3h-.07c-.2-.13-.43-.23-.69-.23h-8.13l-1.89-11.91h40.99c3.06,0,5.56-2.5,5.56-5.58V12.98c0-3.07-2.49-5.56-5.56-5.56ZM49.74,113.13h36.46v4.89h-44.4v-4.89h7.94Zm71.69-35.3H6.56V12.98c0-1.65,1.34-2.99,2.99-2.99h108.89c1.65,0,2.99,1.34,2.99,2.99v64.85Zm-70.19,32.73l1.9-11.91h21.71l1.9,11.91h-25.51Zm.8-14.48H9.55c-1.65,0-2.99-1.35-2.99-3.01v-12.68h114.87v12.68c0,1.66-1.34,3.01-2.99,3.01H52.05Z"/>
  <path class="cls-1" d="m64,82.7c-3.06,0-5.54,2.48-5.54,5.53s2.49,5.55,5.54,5.55,5.53-2.49,5.53-5.55-2.48-5.53-5.53-5.53Zm2.97,5.53c0,1.64-1.33,2.98-2.97,2.98s-2.98-1.34-2.98-2.98,1.34-2.96,2.98-2.96,2.97,1.33,2.97,2.96Z"/>
  <path class="cls-1" d="m75.19,18.92c-.24-.24-.57-.38-.91-.38h-29.56c-.26,0-.48.1-.68.23h-.07c-.17,0-.3.14-.3.3v.07c-.13.2-.23.43-.23.68v48.17c0,.26.09.48.23.68v.07c0,.17.14.3.3.3h.07c.2.13.43.23.68.23h38.54c.26,0,.48-.1.68-.23h.07c.17,0,.3-.14.3-.3v-.07c.13-.2.23-.43.23-.68V28.8c0-.34-.13-.66-.38-.91l-8.98-8.98Zm-1.44,2.19l8.23,8.23v37.38h-35.97V21.11h27.74Z"/>
  <path class="cls-1" d="m56.82,51.03c.24.24.57.38.91.38s.66-.13.91-.38c.24-.24.38-.56.38-.91s-.13-.66-.38-.91l-4.6-4.61,4.6-4.59c.5-.5.5-1.31,0-1.81-.24-.24-.57-.38-.91-.38s-.66.13-.91.37l-5.51,5.5c-.24.24-.38.57-.38.91s.13.66.38.91l5.51,5.51Z"/>
  <path class="cls-1" d="m69.36,40.02l4.6,4.59-4.6,4.61c-.5.5-.5,1.31,0,1.81.24.24.56.38.91.38s.66-.13.91-.38l5.51-5.51c.24-.24.38-.56.38-.91s-.13-.66-.38-.91l-5.51-5.5c-.24-.24-.56-.37-.9-.37s-.67.13-.91.38c-.5.5-.5,1.31,0,1.81Z"/>
  <path class="cls-1" d="m60.08,54.4c.15.06.31.09.47.09.53,0,1-.32,1.19-.81l7.32-18.6c.13-.32.12-.67-.02-.98-.14-.31-.39-.56-.7-.68-.15-.06-.31-.09-.47-.09-.52,0-1,.33-1.19.81l-7.32,18.6c-.13.32-.12.67.02.98s.39.56.71.68Z"/>
</svg>