<?xml version="1.0" encoding="UTF-8"?>
<svg id="_레이어_1" data-name="레이어 1" xmlns="http://www.w3.org/2000/svg" viewBox="0 0 128 128">
  <defs>
    <style>
      .cls-1 {
        fill: #fff;
        stroke: #fff;
        stroke-miterlimit: 10;
      }
    </style>
  </defs>
  <path class="cls-1" d="m123.77,104.93v-.07c0-.17-.14-.3-.3-.3h-.07c-.2-.13-.43-.23-.69-.23h-6.16v-16.04c0-.71-.58-1.28-1.28-1.28-.01,0-.02,0-.03,0-.01,0-.02,0-.03,0h-43.84c-.54-3.11-3-5.57-6.13-6.11v-43.88h48.64c.26,0,.48-.1.69-.23h.07c.17,0,.3-.14.3-.3v-.07c.13-.2.23-.43.23-.69V9.9c0-.26-.1-.48-.23-.69v-.07c0-.17-.14-.3-.3-.3h-.07c-.2-.13-.43-.23-.69-.23H14.03c-.26,0-.48.1-.69.23h-.07c-.17,0-.3.14-.3.3v.07c-.13.2-.23.43-.23.69v25.84c0,.26.1.48.23.69v.07c0,.17.14.3.3.3h.07c.2.13.43.23.69.23h48.65v43.88c-3.12.54-5.58,3-6.12,6.11H12.72c-.71,0-1.28.58-1.28,1.28v16.04h-6.15c-.26,0-.48.1-.69.23h-.07c-.17,0-.3.14-.3.3v.07c-.13.2-.23.43-.23.69v12.48c0,.26.1.48.23.69v.07c0,.17.14.3.3.3h.07c.2.13.43.23.69.23h14.89c.26,0,.48-.1.69-.23h.07c.17,0,.3-.14.3-.3v-.07c.13-.2.23-.43.23-.69v-12.48c0-.26-.1-.48-.23-.69v-.07c0-.17-.14-.3-.3-.3h-.07c-.2-.13-.43-.23-.69-.23h-6.17v-14.76h42.56c.54,3.12,3,5.59,6.12,6.13v8.63h-6.16c-.26,0-.48.1-.69.23h-.07c-.17,0-.3.14-.3.3v.07c-.13.2-.23.43-.23.69v12.48c0,.26.1.48.23.69v.07c0,.17.14.3.3.3h.07c.2.13.43.23.69.23h14.89c.26,0,.48-.1.69-.23h.07c.17,0,.3-.14.3-.3v-.07c.13-.2.23-.43.23-.69v-12.48c0-.26-.1-.48-.23-.69v-.07c0-.17-.14-.3-.3-.3h-.07c-.2-.13-.43-.23-.69-.23h-6.16v-8.63c3.12-.54,5.59-3.01,6.13-6.13h42.61v14.76h-6.16c-.26,0-.48.1-.69.23h-.07c-.17,0-.3.14-.3.3v.07c-.13.2-.23.43-.23.69v12.48c0,.26.1.48.23.69v.07c0,.17.14.3.3.3h.07c.2.13.43.23.69.23h14.89c.26,0,.48-.1.69-.23h.07c.17,0,.3-.14.3-.3v-.07c.13-.2.23-.43.23-.69v-12.48c0-.26-.1-.48-.23-.69Zm-8.5,1.97h6.16v9.91h-12.33v-9.91h6.16Zm-51.31,0h6.16v9.91h-12.33v-9.91h6.16Zm0-72.44H15.31V11.19h97.29v23.27h-48.64Zm4.96,53.84c0,2.74-2.23,4.96-4.96,4.96s-4.95-2.23-4.95-4.96,2.22-4.95,4.95-4.95,4.96,2.22,4.96,4.95Zm-56.2,18.6h6.17v9.91H6.57v-9.91h6.15Z"/>
  <path class="cls-1" d="m43.5,18.02c0-.17-.14-.3-.3-.3h-.07c-.2-.13-.43-.23-.69-.23h-10.61c-.26,0-.48.1-.69.23h-.07c-.17,0-.3.14-.3.3v.07c-.13.2-.23.43-.23.69v8.11c0,.26.1.48.23.69v.07c0,.17.14.3.3.3h.07c.2.13.43.23.69.23h10.61c.26,0,.48-.1.69-.23h.07c.17,0,.3-.14.3-.3v-.07c.13-.2.23-.43.23-.69v-8.11c0-.26-.1-.48-.23-.69v-.07Zm-10.39,7.58v-5.54h8.05v5.54h-8.05Z"/>
  <path class="cls-1" d="m70.33,18.02c0-.17-.14-.3-.3-.3h-.07c-.2-.13-.43-.23-.69-.23h-10.61c-.26,0-.48.1-.69.23h-.07c-.17,0-.3.14-.3.3v.07c-.13.2-.23.43-.23.69v8.11c0,.26.1.48.23.69v.07c0,.17.14.3.3.3h.07c.2.13.43.23.69.23h10.61c.26,0,.48-.1.69-.23h.07c.17,0,.3-.14.3-.3v-.07c.13-.2.23-.43.23-.69v-8.11c0-.26-.1-.48-.23-.69v-.07Zm-10.39,7.58v-5.54h8.05v5.54h-8.05Z"/>
  <path class="cls-1" d="m97.16,18.02c0-.17-.14-.3-.3-.3h-.07c-.2-.13-.43-.23-.69-.23h-10.62c-.26,0-.48.1-.69.23h-.07c-.17,0-.3.14-.3.3v.07c-.13.2-.23.43-.23.69v8.11c0,.26.1.48.23.69v.07c0,.17.14.3.3.3h.07c.2.13.43.23.69.23h10.62c.26,0,.48-.1.69-.23h.07c.17,0,.3-.14.3-.3v-.07c.13-.2.23-.43.23-.69v-8.11c0-.26-.1-.48-.23-.69v-.07Zm-10.4,7.58v-5.54h8.06v5.54h-8.06Z"/>
</svg>