<?xml version="1.0" encoding="UTF-8"?>
<svg id="_레이어_1" data-name="레이어 1" xmlns="http://www.w3.org/2000/svg" viewBox="0 0 128 128">
  <defs>
    <style>
      .cls-1 {
        fill: #0f64ce;
        stroke: #0f64ce;
        stroke-miterlimit: 10;
      }
    </style>
  </defs>
  <path class="cls-1" d="m112.74,49.57v-.07c0-.17-.14-.3-.3-.3h-.07c-.2-.13-.43-.23-.69-.23h-28.13l-2.37-3.46c-.24-.35-.63-.56-1.06-.56h-7.11c-.26,0-.48.1-.69.23h-.07c-.17,0-.3.14-.3.3v.07c-.13.2-.23.43-.23.69v17.55h-25.15c-.59-5.05-4.6-9.07-9.65-9.66v-12.04h18.04c.26,0,.48-.1.69-.23h.07c.17,0,.3-.14.3-.3v-.07c.13-.2.23-.43.23-.69V9.3c0-.26-.1-.48-.23-.69v-.07c0-.17-.14-.3-.3-.3h-.07c-.2-.13-.43-.23-.69-.23h-28.13l-2.36-3.45c-.24-.35-.64-.56-1.06-.56h-7.11c-.26,0-.48.1-.69.23h-.07c-.17,0-.3.14-.3.3v.07c-.13.2-.23.43-.23.69v35.52c0,.26.1.48.23.69v.07c0,.17.14.3.3.3h.07c.2.13.43.23.69.23h18.05v12.04c-5.48.64-9.74,5.3-9.74,10.94s4.27,10.31,9.74,10.95v13.92h-7.52l-2.36-3.46c-.24-.35-.63-.56-1.06-.56h-7.11c-.26,0-.48.1-.69.23h-.07c-.17,0-.3.14-.3.3v.07c-.13.2-.23.43-.23.69v35.52c0,.26.1.48.23.69v.07c0,.17.14.3.3.3h.07c.2.13.43.23.69.23h38.66c.26,0,.48-.1.69-.23h.07c.17,0,.3-.14.3-.3v-.07c.13-.2.23-.43.23-.69v-31.5c0-.26-.1-.48-.23-.69v-.07c0-.17-.14-.3-.3-.3h-.07c-.2-.13-.43-.23-.69-.23h-18.04v-13.92c5.05-.59,9.06-4.61,9.65-9.66h25.15v15.41c0,.26.1.48.23.69v.07c0,.17.14.3.3.3h.07c.2.13.43.23.69.23h38.67c.26,0,.48-.1.69-.23h.07c.17,0,.3-.14.3-.3v-.07c.13-.2.23-.43.23-.69v-31.5c0-.26-.1-.49-.23-.69Zm-38.44,15.5v-17.55h5.15l2.37,3.46c.24.35.63.56,1.06.56h27.52v28.94h-36.1v-15.41Zm-38.65,27.43h18.04v28.94H17.6v-32.96h5.15l2.36,3.46c.24.35.63.56,1.06.56h9.48Zm0-52.98h-18.05V6.57h5.15l2.36,3.45c.24.35.64.56,1.06.56h27.53v28.94h-18.04Zm0,34.01c-4.67,0-8.46-3.8-8.46-8.46s3.8-8.46,8.46-8.46,8.45,3.79,8.45,8.46-3.79,8.46-8.45,8.46Z"/>
  <path class="cls-1" d="m39.75,16.6h-16.18c-.71,0-1.28.58-1.28,1.28s.58,1.28,2.55,1.28h16.18c-.56,0,.02-.58.02-1.28s-.58-1.28-1.28-1.28Z"/>
  <path class="cls-1" d="m25.77,31.7h-3.01c-.71,0-1.28.58-1.28,1.28s.58,1.28,1.28,1.28h3.01c.71,0,1.28-.58,1.28-1.28s-.58-1.28-1.28-1.28Z"/>
  <path class="cls-1" d="m37.15,31.7h-3c-.71,0-1.28.58-1.28,1.28s.58,1.28,1.28,1.28h3c.71,0,1.28-.58,1.28-1.28s-.58-1.28-1.28-1.28Z"/>
  <path class="cls-1" d="m48.54,31.7h-3.01c-.71,0-1.28.58-1.28,1.28s.58,1.28,1.28,1.28h3.01c.71,0,1.28-.58,1.28-1.28s-.58-1.28-1.28-1.28Z"/>
  <path class="cls-1" d="m21.02,101.78c0,.71.58,1.28,1.28,1.28h16.18c.71,0,1.28-.58,1.28-1.28s-.58-1.28-1.28-1.28h-16.18c-.71,0-1.28.58-1.28,1.28Z"/>
  <path class="cls-1" d="m25.77,115.6h-3.01c-.71,0-1.28.58-1.28,1.28s.58,1.28,1.28,1.28h3.01c.71,0,1.28-.58,1.28-1.28s-.58-1.28-1.28-1.28Z"/>
  <path class="cls-1" d="m37.15,115.6h-3c-.71,0-1.28.58-1.28,1.28s.58,1.28,1.28,1.28h3c.71,0,1.28-.58,1.28-1.28s-.58-1.28-1.28-1.28Z"/>
  <path class="cls-1" d="m45.53,118.17h3.01c.71,0,1.28-.58,1.28-1.28s-.58-1.28-1.28-1.28h-3.01c-.71,0-1.28.58-1.28,1.28s.58,1.28,1.28,1.28Z"/>
  <path class="cls-1" d="m97.2,58.12h-16.18c-.71,0-1.28.58-1.28,1.28s.58,1.28,1.28,1.28h16.18c.71,0,1.28-.58,1.28-1.28s-.58-1.28-1.28-1.28Z"/>
  <path class="cls-1" d="m82.96,73.22h-3.01c-.71,0-1.28.58-1.28,1.28s.58,1.28,1.28,1.28h3.01c.71,0,1.28-.58,1.28-1.28s-.58-1.28-1.28-1.28Z"/>
  <path class="cls-1" d="m94.36,73.22h-3.01c-.71,0-1.28.58-1.28,1.28s.58,1.28,1.28,1.28h3.01c.71,0,1.28-.58,1.28-1.28s-.58-1.28-1.28-1.28Z"/>
  <path class="cls-1" d="m105.73,73.22h-3.01c-.71,0-1.28.58-1.28,1.28s.58,1.28,1.28,1.28h3.01c.71,0,1.28-.58,1.28-1.28s-.58-1.28-1.28-1.28Z"/>
</svg>