<?xml version="1.0" encoding="UTF-8"?>
<svg id="_레이어_1" data-name="레이어 1" xmlns="http://www.w3.org/2000/svg" viewBox="0 0 128 128">
  <defs>
    <style>
      .cls-1 {
        fill: #fff;
        stroke: #fff;
        stroke-miterlimit: 10;
      }
    </style>
  </defs>
  <path class="cls-1" d="m123.77,14.16v-.07c0-.17-.14-.3-.3-.3h-.07c-.2-.13-.43-.23-.69-.23H5.28c-.26,0-.48.1-.69.23h-.07c-.17,0-.3.14-.3.3v.07c-.13.2-.23.43-.23.69v98.31c0,.26.1.48.23.69v.07c0,.17.14.3.3.3h.07c.2.13.43.23.69.23h117.43c.26,0,.48-.1.69-.23h.07c.17,0,.3-.14.3-.3v-.07c.13-.2.23-.43.23-.69V14.84c0-.26-.1-.48-.23-.69Zm-2.34,22.34H6.57v-20.37h114.87v20.37Zm0,75.38H6.57V39.06h114.87v72.81Z"/>
  <path class="cls-1" d="m21.36,31.31c2.75,0,4.99-2.24,4.99-5s-2.24-4.99-4.99-4.99-5,2.24-5,4.99,2.24,5,5,5Zm-2.43-5c0-1.34,1.09-2.43,2.43-2.43s2.42,1.09,2.42,2.43-1.09,2.43-2.42,2.43-2.43-1.09-2.43-2.43Z"/>
  <path class="cls-1" d="m46.35,31.31c2.75,0,5-2.24,5-5s-2.24-4.99-5-4.99-4.99,2.24-4.99,4.99,2.24,5,4.99,5Zm0-7.42c1.34,0,2.43,1.09,2.43,2.43s-1.09,2.43-2.43,2.43-2.43-1.09-2.43-2.43,1.09-2.43,2.43-2.43Z"/>
  <path class="cls-1" d="m71.34,31.31c2.75,0,4.99-2.24,4.99-5s-2.24-4.99-4.99-4.99-5,2.24-5,4.99,2.24,5,5,5Zm-2.43-5c0-1.34,1.09-2.43,2.43-2.43s2.43,1.09,2.43,2.43-1.09,2.43-2.43,2.43-2.43-1.09-2.43-2.43Z"/>
  <path class="cls-1" d="m33.58,80.41c0,.17.14.3.3.3h.07c.2.13.43.23.69.23h5.63c.72,3.13,2.08,6.13,3.95,8.73l-3.77,3.77c-.18.18-.27.41-.32.65l-.05.05c-.12.12-.12.31,0,.43l.05.05c.05.24.14.46.32.65l4.84,4.84c.17.17.39.26.63.31l.06.06c.06.06.13.09.21.09s.16-.03.21-.09l.06-.06c.24-.05.46-.14.63-.31l3.98-3.98c2.73,1.7,5.82,2.86,8.96,3.38v5.33c0,.26.1.48.23.69v.07c0,.17.14.3.3.3h.07c.2.13.43.23.69.23h6.86c.26,0,.48-.1.69-.23h.07c.17,0,.3-.14.3-.3v-.07c.13-.2.23-.43.23-.69v-5.63c3.11-.72,6.12-2.09,8.73-3.96l3.78,3.77c.17.17.4.27.64.32l.05.05c.06.06.13.09.21.09.08,0,.16-.03.21-.09l.05-.05c.24-.05.47-.15.64-.32l4.83-4.85c.18-.18.27-.41.32-.64l.05-.05c.12-.12.12-.31,0-.43l-.05-.05c-.05-.24-.14-.46-.32-.64l-3.98-3.98c1.7-2.72,2.86-5.81,3.38-8.96h5.32c.26,0,.48-.1.69-.23h.07c.17,0,.3-.14.3-.3v-.07c.13-.2.23-.43.23-.69v-6.84c0-.26-.1-.48-.23-.69v-.07c0-.17-.14-.3-.3-.3h-.07c-.2-.13-.43-.23-.69-.23h-5.63c-.72-3.12-2.09-6.13-3.96-8.74l3.77-3.76c.18-.18.27-.4.32-.64l.05-.05c.06-.06.09-.13.09-.21s-.03-.16-.09-.21l-.05-.05c-.05-.24-.15-.47-.32-.64l-4.84-4.84c-.18-.18-.4-.27-.65-.32l-.05-.05c-.06-.06-.14-.09-.21-.09s-.15.03-.21.09l-.05.05c-.24.05-.47.15-.64.32l-3.99,3.98c-2.71-1.7-5.8-2.86-8.96-3.38v-5.33c0-.26-.1-.48-.23-.69v-.07c0-.17-.14-.3-.3-.3h-.07c-.2-.13-.43-.23-.69-.23h-6.84c-.26,0-.48.1-.69.23h-.07c-.17,0-.3.14-.3.3v.07c-.13.2-.23.43-.23.69v5.63c-3.11.71-6.12,2.07-8.74,3.95l-3.77-3.77c-.18-.18-.4-.27-.64-.32l-.05-.05c-.06-.06-.14-.09-.21-.09s-.15.03-.21.09l-.05.05c-.24.05-.47.15-.64.32l-4.84,4.84c-.18.18-.27.4-.32.64l-.05.05c-.12.12-.12.31,0,.43l.05.05c.05.24.15.47.32.64l3.98,3.98c-1.7,2.72-2.86,5.81-3.38,8.96h-5.33c-.26,0-.48.1-.69.23h-.07c-.17,0-.3.14-.3.3v.07c-.13.2-.23.43-.23.69v6.86c0,.26.1.48.23.69v.07Zm16.03-21.72s.06-.02.1-.03c.27,0,.54-.1.76-.27,2.8-2.21,6.11-3.72,9.57-4.34.3-.06.56-.21.75-.44,0,0,0,0,0-.01.18-.22.29-.51.29-.82v-5.39h4.28v5.16c0,.27.1.52.25.73.02.1.09.18.19.22.19.17.42.3.69.33,3.53.41,6.93,1.68,9.83,3.69.22.15.47.23.73.23.02,0,.04-.01.06-.01,0,0,.02,0,.03,0,.02,0,.04-.02.07-.03.28-.03.55-.14.75-.35l3.82-3.81,3.03,3.03-3.65,3.64c-.19.19-.29.43-.34.69-.06.09-.07.2-.02.3.02.25.09.51.26.72,2.21,2.78,3.71,6.1,4.36,9.58.06.3.22.56.44.75,0,0,0,0,0,0,.22.19.51.3.82.3h5.38v4.28h-5.15c-.27,0-.52.1-.73.25-.11.02-.19.09-.22.2-.17.19-.3.42-.33.69-.41,3.51-1.68,6.91-3.69,9.84-.35.51-.29,1.19.15,1.63l3.81,3.82-3.03,3.04-3.66-3.65c-.18-.18-.42-.28-.67-.33-.05-.04-.12-.08-.18-.08-.04,0-.07.02-.1.04-.27,0-.54.1-.75.27-2.79,2.21-6.1,3.71-9.57,4.36-.3.06-.56.22-.75.44,0,0,0,0,0,0-.19.22-.3.51-.3.82v5.39h-4.29v-5.16c0-.27-.1-.52-.25-.73-.02-.11-.09-.19-.2-.22-.19-.17-.42-.3-.69-.33-3.5-.41-6.91-1.69-9.84-3.7-.21-.15-.46-.22-.72-.22-.02,0-.04.01-.06.01-.01,0-.02,0-.03,0-.03,0-.04.02-.07.03-.28.04-.54.14-.75.34l-3.81,3.81-3.03-3.03,3.66-3.66c.19-.19.29-.43.34-.68.06-.09.07-.2.02-.3-.02-.25-.09-.51-.26-.72-2.2-2.76-3.7-6.07-4.35-9.56-.06-.3-.22-.56-.44-.75,0,0,0,0,0,0-.22-.19-.51-.3-.82-.3h-5.39v-4.29h5.16c.27,0,.52-.1.73-.25.11-.02.19-.09.22-.2.17-.19.3-.42.33-.69.41-3.51,1.68-6.92,3.69-9.84.17-.25.25-.55.22-.84,0,0,0,0,0,0-.03-.29-.15-.57-.37-.79l-3.81-3.81,3.03-3.03,3.65,3.65c.18.18.42.28.67.33.05.04.11.07.18.07Z"/>
  <path class="cls-1" d="m63.99,92.69c9.5,0,17.23-7.73,17.23-17.23s-7.73-17.21-17.23-17.21-17.21,7.72-17.21,17.21,7.72,17.23,17.21,17.23Zm0-31.88c8.08,0,14.66,6.57,14.66,14.65s-6.58,14.66-14.66,14.66-14.65-6.58-14.65-14.66,6.57-14.65,14.65-14.65Z"/>
  <path class="cls-1" d="m53.59,76.95l4.44,4.45c.24.24.56.38.91.38s.67-.13.91-.38c.24-.24.38-.56.38-.91,0-.34-.13-.66-.37-.91l-3.54-3.54,3.54-3.54c.5-.5.5-1.31,0-1.81-.24-.24-.56-.38-.91-.38s-.67.13-.91.38l-4.44,4.44c-.24.24-.38.57-.38.91,0,.34.13.66.38.91Z"/>
  <path class="cls-1" d="m67.77,71.6c0,.34.13.67.38.91l3.55,3.54-3.55,3.54c-.5.5-.5,1.31,0,1.81.24.24.57.38.91.38s.66-.13.91-.38l4.46-4.45c.24-.24.38-.57.38-.91s-.13-.66-.38-.91l-4.45-4.44c-.24-.24-.56-.37-.91-.37s-.67.13-.91.38c-.24.24-.37.56-.37.91Z"/>
  <path class="cls-1" d="m60.04,83.49c.14.31.39.55.7.68.15.06.31.09.47.09.53,0,1-.32,1.19-.81l5.91-15.03c.13-.32.12-.67-.02-.98-.14-.31-.39-.55-.7-.68-.15-.06-.31-.09-.47-.09-.52,0-1,.33-1.19.81l-5.91,15.03c-.13.32-.12.67.02.98Z"/>
</svg>