<?xml version="1.0" encoding="UTF-8"?>
<svg id="_레이어_1" data-name="레이어 1" xmlns="http://www.w3.org/2000/svg" viewBox="0 0 128 128">
  <defs>
    <style>
      .cls-1 {
        fill: #fff;
        stroke: #fff;
        stroke-miterlimit: 10;
      }
    </style>
  </defs>
  <path class="cls-1" d="m124,30.93c0-12.05-9.81-21.86-21.87-21.86s-21.23,9.21-21.81,20.74c-4.81-2.09-10.12-3.26-15.7-3.26-10.77,0-20.54,4.34-27.68,11.35-.03.03-.07.07-.1.1-7.24,7.17-11.73,17.1-11.73,28.07,0,3.13.38,6.18,1.07,9.1-.11,0-.23-.01-.34-.01-9.86,0-18.54,6.67-21.09,16.21-3.13,11.64,3.81,23.67,15.46,26.8,1.85.5,3.76.75,5.66.75,9.87,0,18.56-6.67,21.12-16.23.1-.38.17-.77.25-1.15,5.25,2.58,11.15,4.04,17.38,4.04,10.63,0,20.28-4.22,27.39-11.07.1-.1.21-.2.31-.3,7.29-7.17,11.82-17.13,11.82-28.14,0-4.66-.82-9.13-2.3-13.28.1,0,.19.01.29.01,12.06,0,21.87-9.82,21.87-21.89ZM44.39,99.66s0,.05,0,.08c-.01.08-.01.16-.03.24-.1.64-.24,1.27-.41,1.91-2.19,8.18-9.63,13.89-18.08,13.89-1.63,0-3.26-.22-4.84-.64-9.97-2.68-15.91-12.97-13.23-22.94,2.19-8.17,9.61-13.88,18.05-13.88.41,0,.82.01,1.23.04.08,0,.16.02.24.02.03,0,.05,0,.08,0,.08,0,.16.02.24.02.27.03.53.05.8.09.28.04.56.09.83.14.08.02.17.03.25.04.03,0,.06.01.09.02.08.02.17.04.25.06.28.06.57.12.85.2,4.83,1.29,8.87,4.39,11.38,8.72.45.78.82,1.58,1.15,2.4.04.09.07.18.11.27.23.6.43,1.2.6,1.82.03.09.06.19.08.28.39,1.54.57,3.11.56,4.7,0,.09,0,.17,0,.26,0,.03,0,.06,0,.09,0,.09,0,.17,0,.26-.01.29-.03.57-.05.86-.02.27-.06.53-.09.8-.01.08-.02.16-.03.24ZM83.45,31.59c0-.09-.01-.17-.01-.26,0-.13-.02-.27-.02-.4,0-10.31,8.4-18.7,18.72-18.7s18.72,8.39,18.72,18.7c0,5.99-2.83,11.32-7.21,14.75v-6.15c0-1.63-.47-3.16-1.28-4.45-.69-1.12-1.63-2.06-2.75-2.75-1.3-.8-2.82-1.28-4.45-1.28h-6.06c-1.63,0-3.16.47-4.45,1.28-1.12.69-2.06,1.63-2.75,2.75-.33.53-.6,1.09-.8,1.69-.03.07-.06.15-.08.22,0,.03-.02.05-.02.08-.02.08-.04.16-.06.24-.04.13-.07.26-.1.39-.03.11-.04.23-.07.35,0,.03,0,.06-.01.08-.05.31-.09.62-.1.94,0,.1-.01.19-.01.29,0,.03,0,.06,0,.1,0,.02,0,.04,0,.07v6.14c-1.38-1.08-2.61-2.36-3.64-3.79-.06-.08-.13-.16-.18-.25-.37-.54-.73-1.09-1.04-1.66-.05-.09-.1-.17-.14-.26-.88-1.64-1.51-3.43-1.86-5.32-.02-.09-.03-.19-.04-.28,0-.03,0-.06-.01-.09-.02-.09-.03-.19-.04-.28-.05-.31-.11-.63-.14-.94-.03-.28-.03-.57-.04-.86,0-.09,0-.17-.01-.26,0-.03,0-.06,0-.09Zm15.66,1.88h6.06c3.34,0,6.06,2.72,6.06,6.06v6.06h-18.17v-6.06s.01-.07.01-.11c0-.1.02-.19.03-.29,0-.03,0-.06,0-.1,0-.1.02-.19.03-.29.39-2.97,2.9-5.27,5.98-5.27Zm-51.46,65.47c.22-2.5.01-4.99-.62-7.4,1.19-.33,2.38-.64,3.59-.9,1.8,5.1,4.15,9.16,6.89,11.75-3.49-.68-6.79-1.86-9.86-3.45Zm32.23-34.11h-30.5c.11-7.49,1.19-14.49,2.93-20.28,4.03.74,8.14,1.13,12.32,1.13s8.29-.39,12.32-1.13c1.75,5.79,2.82,12.79,2.93,20.28Zm-30.5,2.51h30.5c-.11,7.54-1.2,14.6-2.97,20.41-4.02-.74-8.12-1.13-12.28-1.13s-8.26.39-12.28,1.13c-1.77-5.82-2.86-12.87-2.97-20.41Zm26.78-25.19c-3.77.67-7.62,1.03-11.53,1.03s-7.76-.36-11.53-1.03c2.82-7.95,6.98-13.08,11.53-13.08s8.71,5.13,11.53,13.08Zm-23.01,48c3.76-.67,7.59-1.02,11.48-1.02s7.72.36,11.48,1.02c-2.82,7.87-6.96,12.93-11.48,12.93s-8.66-5.07-11.48-12.93Zm25.54-48.49c-1.8-5.17-4.18-9.28-6.93-11.89,3.01.59,5.89,1.55,8.6,2.82.22,2.89,1,5.61,2.23,8.08-1.29.37-2.58.7-3.89.99Zm-28.12,0c-3.57-.78-7.06-1.87-10.47-3.26,4.84-4.29,10.81-7.34,17.4-8.63-2.76,2.62-5.13,6.72-6.93,11.89Zm-.77,2.39c-1.76,5.94-2.82,13.05-2.92,20.78h-19.22c.32-9.53,4.25-18.15,10.47-24.54,3.79,1.61,7.68,2.87,11.67,3.76Zm-2.92,23.29c.1,7.79,1.17,14.95,2.96,20.92-1.2.27-2.4.57-3.59.91-.41-1.04-.87-2.06-1.44-3.05-2.92-5.06-7.64-8.68-13.29-10.19-.9-.24-1.81-.42-2.72-.55-.67-2.58-1.06-5.27-1.15-8.04h19.22Zm31.76,23.31c3.54.78,7.01,1.86,10.39,3.23-4.82,4.24-10.74,7.24-17.28,8.52,2.73-2.59,5.09-6.65,6.89-11.75Zm.78-2.39c1.79-5.96,2.86-13.12,2.96-20.92h19.23c-.32,9.58-4.3,18.25-10.58,24.65-3.77-1.6-7.65-2.85-11.61-3.73Zm2.96-23.42c-.1-7.73-1.16-14.84-2.92-20.78,1.48-.33,2.94-.71,4.39-1.14,3.38,5.15,8.87,8.78,15.23,9.67,1.5,3.82,2.39,7.94,2.53,12.25h-19.23Zm17.9-15.26s-.06,0-.09,0c-.09,0-.17-.03-.26-.04-.29-.03-.58-.08-.86-.13-.31-.05-.62-.1-.92-.17-.1-.02-.19-.05-.29-.07-.03,0-.06-.02-.1-.02-.1-.02-.19-.05-.29-.07-1.03-.27-2.03-.61-2.99-1.04h15.3c-2.34,1.05-4.92,1.65-7.65,1.65-.54,0-1.08-.04-1.61-.08-.08,0-.17,0-.25-.01Z"/>
  <path class="cls-1" d="m102.13,28.47c3.29,0,5.97-2.68,5.97-5.96s-2.68-5.99-5.97-5.99-5.98,2.69-5.98,5.99,2.68,5.96,5.98,5.96Zm0-8.8c1.58,0,2.83,1.25,2.83,2.84s-1.27,2.81-2.83,2.81-2.83-1.26-2.83-2.81,1.24-2.84,2.83-2.84Z"/>
  <path class="cls-1" d="m34.31,87.26c-.1-.03-.2-.04-.31-.06-.03,0-.06,0-.1,0-.06,0-.11-.02-.17-.02h-15.71c-1.23,0-2.19.93-2.19,2.11v9.96c0,1.16.98,2.11,2.19,2.11h6.27v3.89h-2.57c-.87,0-1.57.7-1.57,1.58s.7,1.58,1.57,1.58h8.3c.87,0,1.57-.7,1.57-1.58s-.7-1.58-1.57-1.58h-2.58v-3.89h6.29c1.21,0,2.19-.95,2.19-2.11v-9.96c0-.99-.67-1.79-1.61-2.03Zm-1.54,3.07v7.88h-13.79v-7.88h13.79Z"/>
</svg>