<?xml version="1.0" encoding="UTF-8"?>
<svg id="_레이어_1" data-name="레이어 1" xmlns="http://www.w3.org/2000/svg" viewBox="0 0 128 128">
  <defs>
    <style>
      .cls-1 {
        fill: #fff;
        stroke: #fff;
        stroke-miterlimit: 10;
      }
    </style>
  </defs>
  <path class="cls-1" d="m47.98,121.01c2.86,0,5.19-2.33,5.19-5.19s-2.33-5.18-5.19-5.18-5.18,2.33-5.18,5.18,2.32,5.19,5.18,5.19Zm0-7.76c1.42,0,2.57,1.15,2.57,2.57s-1.15,2.57-2.57,2.57-2.56-1.15-2.56-2.57,1.15-2.57,2.56-2.57Z"/>
  <path class="cls-1" d="m43.2,36.56h9.55c.72,0,1.31-.59,1.31-1.31s-.59-1.31-1.31-1.31h-9.55c-.72,0-1.31.59-1.31,1.31s.59,1.31,1.31,1.31Z"/>
  <path class="cls-1" d="m49.29,60.68c0-.72-.59-1.31-1.31-1.31-8.91,0-16.17,7.25-16.17,16.17,0,.72.59,1.31,1.31,1.31s1.31-.59,1.31-1.31c0-7.47,6.08-13.55,13.55-13.55.72,0,1.31-.59,1.31-1.31Z"/>
  <path class="cls-1" d="m62.83,74.24c-.72,0-1.31.59-1.31,1.31,0,7.47-6.08,13.54-13.55,13.54-.72,0-1.31.59-1.31,1.31s.59,1.31,1.31,1.31c8.91,0,16.16-7.25,16.16-16.16,0-.72-.59-1.31-1.31-1.31Z"/>
  <path class="cls-1" d="m109.44,13.54l-9.16-9.16c-.24-.24-.58-.38-.92-.38h-30.15c-.26,0-.49.1-.7.23h-.07c-.17,0-.31.14-.31.31v.07c-.13.21-.23.44-.23.7v21.78H19.48c-.26,0-.49.1-.7.23h-.07c-.17,0-.31.14-.31.31v.07c-.13.21-.23.44-.23.7v94.29c0,.26.1.49.23.7v.07c0,.17.14.31.31.31h.07c.21.13.44.23.7.23h57c.26,0,.49-.1.7-.23h.07c.17,0,.31-.14.31-.31v-.07c.13-.21.23-.44.23-.7V55.76h30.73c.26,0,.49-.1.7-.23h.07c.17,0,.31-.14.31-.31v-.07c.13-.21.23-.44.23-.7V14.47c0-.35-.14-.68-.38-.93Zm-34.27,94.11H20.79V43.42h47.11v11.03c0,.26.1.49.23.7v.07c0,.17.14.31.31.31h.07c.21.13.44.23.7.23h5.97v51.9Zm-4.66-80.02V6.62h28.3l8.4,8.39v38.13h-36.69v-25.51Zm-2.62,13.17H20.79v-11.09h47.11v11.09Zm7.27,80.58H20.79v-11.11h54.38v11.11Z"/>
  <path class="cls-1" d="m75.92,31.52l.56.56.77.77.23.23.08.08.23.23,3.75,3.76c.25.25.58.38.93.38s.68-.14.93-.38c.51-.51.51-1.34,0-1.85l-4.69-4.7,4.69-4.68c.51-.51.51-1.34,0-1.85-.25-.25-.58-.38-.93-.38s-.68.14-.92.38l-3.85,3.85-.13.13-.12.12-.18.18-.77.77-.56.56c-.09.09-.15.21-.21.32-.1.19-.17.39-.17.61s.07.42.17.61c.06.11.12.22.21.32Z"/>
  <path class="cls-1" d="m94.33,25.91l4.69,4.68-4.69,4.7c-.51.51-.51,1.34,0,1.85.25.25.58.38.93.38s.68-.14.93-.39l5.62-5.62c.25-.25.38-.58.38-.92s-.14-.68-.38-.93l-5.62-5.61c-.25-.25-.57-.38-.92-.38s-.68.14-.93.38c-.51.51-.51,1.34,0,1.85Z"/>
  <path class="cls-1" d="m84.86,40.58c.15.06.32.09.48.09.54,0,1.02-.33,1.22-.83l7.47-18.98c.26-.67-.07-1.43-.74-1.69-.15-.06-.32-.09-.48-.09-.53,0-1.02.33-1.22.83l-7.47,18.98c-.26.67.07,1.43.74,1.69Z"/>
</svg>