<?xml version="1.0" encoding="UTF-8"?>
<svg id="_레이어_1" data-name="레이어 1" xmlns="http://www.w3.org/2000/svg" viewBox="0 0 105 60">
  <defs>
    <style>
      .cls-1 {
        fill: #b65097;
      }

      .cls-2 {
        fill: #007bc3;
      }

      .cls-3 {
        fill: #f39500;
      }

      .cls-4 {
        fill: #93c01e;
      }

      .cls-5 {
        fill: #00a099;
      }

      .cls-6 {
        fill: #e9528d;
      }

      .cls-7 {
        fill: #fab900;
      }

      .cls-8 {
        fill: #ee7d00;
      }

      .cls-9 {
        fill: #1c1c1b;
      }
    </style>
  </defs>
  <g>
    <path class="cls-9" d="m48.21,50.91c.53,0,.95.18,1.25.53.28.33.42.74.42,1.25s-.14.93-.42,1.25c-.3.36-.72.53-1.25.53h-.69c-.15,0-.27-.05-.35-.15-.07-.09-.11-.19-.11-.32v-2.64c0-.13.04-.24.11-.33.08-.1.2-.15.35-.15h.69Zm0,3.3c.43,0,.77-.15,1.02-.45.23-.27.34-.63.34-1.06s-.11-.79-.34-1.07c-.25-.3-.59-.45-1.02-.45h-.64c-.07,0-.13.02-.16.07-.03.04-.05.09-.05.15v2.6c0,.06.02.11.05.15.04.05.09.07.16.07h.64Z"/>
    <path class="cls-9" d="m52.57,52.24c.19.25.29.57.29.96s-.1.7-.29.95c-.22.29-.52.43-.9.43s-.69-.14-.9-.43c-.19-.25-.29-.57-.29-.95s.1-.7.29-.96c.22-.28.52-.43.9-.43s.68.14.9.43Zm-1.57.18c-.14.2-.21.46-.21.77s.07.56.21.77c.16.23.39.34.67.34s.51-.11.67-.34c.15-.21.22-.46.22-.77s-.07-.57-.22-.77c-.16-.23-.38-.34-.67-.34s-.51.11-.67.34Z"/>
    <path class="cls-9" d="m53.65,51.88s.06-.04.11-.04c.04,0,.07.01.1.04.03.03.05.07.05.12v.3c.09-.16.21-.28.36-.36.15-.09.33-.13.53-.13.26,0,.47.08.63.24.14.14.21.32.21.53v1.84s-.02.09-.05.12c-.03.03-.06.04-.1.04-.04,0-.08-.01-.11-.04-.03-.03-.04-.07-.04-.12v-1.84c0-.14-.05-.25-.14-.34-.1-.1-.23-.16-.4-.16-.18,0-.35.05-.5.15-.15.1-.28.25-.4.46v1.73c0,.05-.02.09-.05.13-.03.03-.06.04-.1.04-.04,0-.08-.01-.11-.04s-.04-.07-.04-.12v-2.41s.01-.09.04-.12Z"/>
    <path class="cls-9" d="m58.39,51.88s.06-.03.11-.03.08.01.11.03c.03.03.05.06.05.11v2.36c0,.23-.09.42-.28.57-.21.17-.5.26-.87.26-.26,0-.48-.04-.65-.12-.18-.08-.32-.2-.4-.36-.03-.04-.03-.08-.01-.12,0-.04.03-.06.07-.08.04-.02.07-.03.11-.02.04,0,.07.03.09.07.06.12.15.21.27.27.13.07.31.1.53.1.28,0,.49-.06.64-.17.14-.1.2-.23.2-.38v-.29c-.07.11-.17.21-.31.29-.16.09-.34.13-.53.13-.37,0-.66-.14-.87-.41-.18-.24-.28-.55-.28-.93s.09-.67.28-.92c.21-.28.5-.42.87-.42.18,0,.35.04.49.11.14.07.25.19.35.34v-.26s.01-.08.04-.11Zm-1.53.53c-.13.2-.2.45-.2.73,0,.3.07.55.2.75.15.22.36.33.64.33s.49-.11.64-.33c.14-.19.2-.44.2-.75,0-.29-.07-.53-.2-.73-.16-.23-.37-.34-.64-.34s-.49.11-.64.34Z"/>
    <path class="cls-9" d="m59.59,50.87s.06-.04.11-.04c.04,0,.07.01.1.04.03.03.05.07.05.12v1.44h2.1v-1.44c0-.05.01-.09.04-.12.03-.03.06-.04.11-.04.04,0,.07.01.1.04.03.03.05.07.05.12v3.42s-.02.09-.05.12c-.03.03-.06.04-.1.04-.04,0-.08-.01-.11-.04-.03-.03-.04-.07-.04-.12v-1.71h-2.1v1.71s-.02.09-.05.12c-.03.03-.06.04-.1.04-.04,0-.08-.01-.11-.04-.03-.03-.04-.07-.04-.12v-3.42c0-.05.01-.09.04-.12Z"/>
    <path class="cls-9" d="m64.8,51.96c.19.12.28.31.28.57v1.54c0,.05.01.1.04.13.03.03.08.05.14.05.04,0,.07.01.1.04.02.03.04.06.04.1,0,.04-.01.07-.03.09-.03.03-.06.04-.11.04-.18,0-.31-.02-.38-.07-.06-.04-.09-.11-.09-.21-.1.09-.21.17-.33.22-.17.07-.36.11-.57.11-.29,0-.51-.07-.66-.2-.15-.13-.22-.31-.22-.55,0-.21.05-.38.15-.5.15-.17.42-.28.81-.33.35-.05.57-.1.67-.15.1-.05.15-.15.15-.29,0-.16-.05-.28-.16-.36-.11-.08-.28-.13-.51-.13s-.39.05-.5.15c-.1.08-.15.21-.17.37,0,.04-.03.07-.06.1-.03.02-.06.03-.11.03-.04,0-.07-.02-.1-.05-.03-.03-.04-.07-.03-.12.04-.25.14-.44.31-.56.16-.12.38-.18.65-.18.29,0,.52.05.68.16Zm-.02,1.07s-.12.08-.24.11c-.14.04-.33.08-.57.11-.24.03-.41.09-.51.18-.1.08-.15.21-.15.37s.04.28.14.35c.09.08.24.13.44.13.22,0,.41-.04.57-.13.14-.07.25-.18.33-.31v-.83Z"/>
    <path class="cls-9" d="m65.98,51.88s.06-.04.11-.04c.04,0,.07.01.1.04.03.03.05.07.05.12v.3c.09-.16.21-.28.36-.36.15-.09.33-.13.53-.13.26,0,.47.08.63.24.14.14.21.32.21.53v1.84s-.02.09-.05.12c-.03.03-.06.04-.1.04-.04,0-.08-.01-.11-.04-.03-.03-.04-.07-.04-.12v-1.84c0-.14-.05-.25-.14-.34-.1-.1-.23-.16-.4-.16-.18,0-.35.05-.5.15-.15.1-.28.25-.4.46v1.73c0,.05-.02.09-.05.13-.03.03-.06.04-.1.04-.04,0-.08-.01-.11-.04s-.04-.07-.04-.12v-2.41s.01-.09.04-.12Z"/>
    <path class="cls-9" d="m70.71,51.88s.06-.03.11-.03.08.01.11.03c.03.03.05.06.05.11v2.36c0,.23-.09.42-.28.57-.21.17-.5.26-.87.26-.26,0-.48-.04-.65-.12-.18-.08-.32-.2-.4-.36-.03-.04-.03-.08-.01-.12,0-.04.03-.06.07-.08.04-.02.07-.03.11-.02.04,0,.07.03.09.07.06.12.15.21.27.27.13.07.31.1.53.1.28,0,.49-.06.64-.17.14-.1.2-.23.2-.38v-.29c-.07.11-.17.21-.31.29-.16.09-.34.13-.53.13-.37,0-.66-.14-.87-.41-.18-.24-.28-.55-.28-.93s.09-.67.28-.92c.21-.28.5-.42.87-.42.18,0,.35.04.49.11.14.07.25.19.35.34v-.26s.01-.08.04-.11Zm-1.53.53c-.13.2-.2.45-.2.73,0,.3.07.55.2.75.15.22.36.33.64.33s.49-.11.64-.33c.14-.19.2-.44.2-.75,0-.29-.07-.53-.2-.73-.16-.23-.37-.34-.64-.34s-.49.11-.64.34Z"/>
    <path class="cls-9" d="m73.57,50.87s.06-.04.11-.04c.04,0,.07.01.1.04.03.03.05.07.05.12v3.01c0,.06.02.11.05.15.04.05.09.07.17.07h1.5s.09.01.12.04c.03.03.04.06.04.1,0,.04-.01.07-.04.09-.03.03-.07.04-.12.04h-1.55c-.15,0-.27-.05-.35-.15-.07-.09-.11-.19-.11-.32v-3.03c0-.05.01-.09.04-.12Z"/>
    <path class="cls-9" d="m78.16,52.24c.19.25.29.57.29.96s-.1.7-.29.95c-.22.29-.52.43-.9.43s-.69-.14-.9-.43c-.19-.25-.29-.57-.29-.95s.1-.7.29-.96c.22-.28.52-.43.9-.43s.68.14.9.43Zm-1.57.18c-.14.2-.21.46-.21.77s.07.56.21.77c.16.23.39.34.67.34s.51-.11.67-.34c.15-.21.22-.46.22-.77s-.07-.57-.22-.77c-.16-.23-.38-.34-.67-.34s-.51.11-.67.34Z"/>
    <path class="cls-9" d="m79.37,51.1s.06-.03.11-.03.08.01.11.03c.03.03.05.06.05.11v.67h.4c.08,0,.13.04.13.13s-.04.14-.13.14h-.4v1.93c0,.06.02.11.05.15.04.05.09.07.17.07h.17s.08.01.11.04c.03.03.04.06.04.1,0,.04-.01.07-.04.09-.03.03-.07.04-.11.04h-.23c-.15,0-.27-.05-.35-.15-.08-.09-.12-.19-.12-.32v-1.95h-.26c-.07,0-.11-.04-.11-.14s.04-.13.11-.13h.26v-.67s.01-.09.04-.11Z"/>
    <path class="cls-9" d="m80.93,51.1s.06-.03.11-.03.08.01.11.03c.03.03.05.06.05.11v.67h.4c.08,0,.13.04.13.13s-.04.14-.13.14h-.4v1.93c0,.06.02.11.05.15.04.05.09.07.17.07h.17s.08.01.11.04c.03.03.04.06.04.1,0,.04-.01.07-.04.09-.03.03-.07.04-.11.04h-.23c-.15,0-.27-.05-.35-.15-.08-.09-.12-.19-.12-.32v-1.95h-.26c-.07,0-.11-.04-.11-.14s.04-.13.11-.13h.26v-.67s.01-.09.04-.11Z"/>
    <path class="cls-9" d="m84.13,53.65s.08-.01.12,0c.04.01.07.04.08.07.02.04.02.09,0,.14-.09.23-.23.4-.41.52-.18.13-.4.19-.64.19-.35,0-.62-.14-.83-.43-.18-.26-.28-.58-.28-.95s.09-.7.28-.96c.2-.28.48-.43.83-.43s.62.14.83.43c.19.26.28.58.28.96v.08h-1.91c.01.28.08.51.21.69.15.22.34.33.59.33.19,0,.36-.06.49-.17.1-.08.19-.21.27-.38.02-.05.05-.08.09-.1Zm-.05-.65c-.02-.23-.09-.43-.21-.61-.15-.21-.34-.32-.58-.32s-.43.1-.58.32c-.12.17-.19.38-.21.61h1.58Z"/>
    <path class="cls-9" d="m85.18,51.87s.06-.03.11-.03c.04,0,.07,0,.1.03.03.03.05.06.05.11v.2c.08-.11.17-.2.26-.26.12-.08.26-.12.42-.12.07,0,.11.05.11.15,0,.1-.04.15-.12.15-.16,0-.3.04-.42.12-.11.07-.19.17-.25.3v1.89s-.02.09-.05.12c-.03.03-.06.04-.1.04-.04,0-.08-.01-.11-.04-.03-.03-.04-.07-.04-.12v-2.43s.01-.08.04-.1Z"/>
    <path class="cls-9" d="m86.49,51.89s.05-.06.09-.07c.04-.02.08-.02.12-.01s.07.04.08.08l.79,2.03.78-2.01s.04-.07.09-.08c.04-.01.07-.01.12,0,.04,0,.07.03.1.06.02.03.03.07,0,.11l-1.1,2.72c-.07.16-.16.29-.27.37-.1.08-.22.12-.35.12h-.22s-.09-.01-.11-.04c-.02-.03-.03-.06-.03-.09s.01-.07.03-.09c.03-.03.06-.04.11-.04h.22c.07,0,.13-.02.17-.06.04-.04.08-.1.12-.2l.17-.36-.91-2.29s-.02-.08,0-.12Z"/>
  </g>
  <g>
    <path class="cls-3" d="m31.16,39.2h-3.37c-2.02,0-3.66,1.64-3.66,3.66h0c0,2.03,1.64,3.67,3.66,3.67h3.37c2.02,0,3.66-1.64,3.66-3.66h0c0-2.03-1.64-3.67-3.66-3.67Zm.32,3.67c0,.58-.47,1.04-1.04,1.04h-1.93c-.58,0-1.04-.47-1.04-1.04h0c0-.58.47-1.05,1.04-1.05h1.93c.58,0,1.04.47,1.04,1.04h0Z"/>
    <path class="cls-3" d="m39,47.75h-7.82c-2.78,0-5.04,2.26-5.04,5.04h0c0,2.78,2.26,5.04,5.04,5.04h7.82c2.78,0,5.04-2.26,5.04-5.04h0c0-2.78-2.26-5.04-5.04-5.04Zm-.17,6.55h-7.49c-.84,0-1.51-.68-1.51-1.51s.68-1.51,1.51-1.51h7.49c.84,0,1.51.68,1.51,1.51s-.68,1.51-1.51,1.51Z"/>
    <path class="cls-3" d="m15.65,39.2h-7.82c-2.78,0-5.04,2.26-5.04,5.04s2.26,5.04,5.04,5.04h7.82c2.78,0,5.04-2.26,5.04-5.04s-2.26-5.04-5.04-5.04Zm-.17,6.55h-7.49c-.84,0-1.51-.68-1.51-1.51s.68-1.51,1.51-1.51h7.49c.84,0,1.51.68,1.51,1.51s-.68,1.51-1.51,1.51Z"/>
    <path class="cls-3" d="m21.15,37.99H2.57c-.8,0-1.2-.41-1.2-1.23v-.37c0-.8.39-1.2,1.18-1.2h7.46v-1.38h-3.78c-.52,0-.96-.03-1.3-.09-.34-.06-.69-.18-1.03-.35-.34-.17-.6-.46-.77-.85-.17-.39-.25-.9-.25-1.51v-4.79c0-.63.11-1.06.33-1.31.22-.25.63-.37,1.25-.37h15.05c.79,0,1.18.39,1.18,1.16v.46c0,.79-.4,1.18-1.2,1.18H7.21c-.23,0-.39.04-.48.12-.09.08-.13.28-.13.6v2.1c0,.36.04.6.13.7s.3.15.63.15h12.43c.79,0,1.18.39,1.18,1.16v.46c0,.79-.4,1.18-1.2,1.18h-6.04v1.38h7.44c.79,0,1.18.4,1.18,1.2v.37c0,.82-.4,1.23-1.2,1.23Z"/>
    <path class="cls-3" d="m33.91,37.99h-9.08c-.8,0-1.2-.36-1.2-1.07v-.63c0-.41.1-.68.3-.83.2-.15.49-.22.89-.22h9.12c.39,0,.69.07.89.22.2.15.3.42.3.83v.63c0,.72-.4,1.07-1.2,1.07Z"/>
    <path class="cls-3" d="m31.87,33.72h-4.94c-.8,0-1.2-.35-1.2-1.05v-.5c0-.39.1-.66.3-.81s.49-.22.89-.22h4.99c.39,0,.69.07.89.22s.3.41.3.81v.5c0,.7-.4,1.05-1.2,1.05Z"/>
    <path class="cls-3" d="m39.2,32.38v6.69h1.16v-6.69c0-.35.12-.65.37-.89.25-.24.58-.36.98-.36h.85c.41,0,.74.12.98.36.25.24.37.54.37.89v12.88c0,.35-.12.65-.37.89-.25.24-.58.36-.98.36h-.85c-.41,0-.74-.12-.98-.36-.25-.24-.37-.54-.37-.89v-3.17h-1.16v3.18c0,.35-.12.65-.37.89-.25.24-.58.36-.98.36h-.85c-.41,0-.74-.12-.99-.36-.25-.24-.37-.54-.37-.89v-12.89c0-.35.12-.65.37-.89.25-.24.58-.36.99-.36h.85c.41,0,.74.12.98.36.25.24.37.54.37.89Z"/>
  </g>
  <g>
    <path class="cls-2" d="m65.01,41.57h-18.57c-.8,0-1.2-.41-1.2-1.22v-.48c0-.8.39-1.2,1.18-1.2h7.46v-1.2h-3.78c-2.3,0-3.46-1.04-3.46-3.13v-8.51c0-.35.12-.65.37-.89.25-.24.58-.36.98-.36h1.01c.41,0,.74.12.99.36.25.24.37.54.37.89v7.81c0,.36.06.61.17.74.12.13.34.2.68.2h9.08c.34,0,.56-.07.67-.2.11-.13.16-.38.16-.74v-7.81c0-.35.12-.65.37-.89.25-.24.58-.36.98-.36h1.01c.41,0,.74.12.98.36.25.24.37.54.37.89v8.51c0,2.09-1.15,3.13-3.46,3.13h-3.78v1.2h7.44c.79,0,1.18.4,1.18,1.2v.48c0,.82-.4,1.22-1.2,1.22Z"/>
    <path class="cls-2" d="m64.73,48.03c0,.35-.12.65-.37.89-.25.24-.58.36-.98.36h-1.01c-.41,0-.74-.12-.98-.36-.25-.24-.37-.54-.37-.89v-1.77c0-.32-.04-.52-.13-.6s-.25-.12-.48-.12h-12.49c-.8,0-1.2-.4-1.2-1.2v-.53c0-.79.39-1.18,1.18-1.18h15.27c.61,0,1.03.12,1.25.37.22.25.33.69.33,1.31v3.72Z"/>
    <path class="cls-2" d="m55.99,31.78l-8.14-1.49c-.79-.14-1.12-.57-.99-1.29l.11-.58c.07-.4.22-.66.44-.78.22-.12.53-.14.91-.07l8.18,1.5c.39.07.66.2.83.39.17.19.21.48.14.88l-.11.58c-.13.72-.59,1-1.38.86Z"/>
    <path class="cls-2" d="m71.48,39.69h-2.95c-.8,0-1.2-.39-1.2-1.18v-.66c0-.77.39-1.16,1.18-1.16h3.15c1.74,0,3.46-.07,5.16-.2.36-1.09.55-2.16.55-3.19v-.94c0-.32-.04-.52-.13-.6-.09-.08-.25-.12-.48-.12h-7.26c-.36,0-.66-.11-.88-.32-.22-.21-.33-.52-.33-.93v-.55c0-.82.39-1.22,1.18-1.22h10.09c.61,0,1.03.12,1.25.37.22.25.33.69.33,1.31v2.23c0,1.14-.21,2.33-.63,3.57.28-.03.62-.09,1.03-.18.41-.07.69-.04.85.1.16.14.24.41.24.82v.98c0,.41-.09.69-.27.83-.18.15-.48.25-.89.33-1.47.26-3.04.45-4.7.55v2.25c0,.35-.11.64-.32.88-.21.23-.52.35-.93.35h-1.22c-.41,0-.72-.12-.93-.35-.21-.23-.32-.52-.32-.88v-2.1h-1.55Zm14.66,9.3h-13.32c-1.05,0-1.9-.27-2.54-.81-.64-.54-.96-1.34-.96-2.41v-2.47c0-.35.12-.65.37-.89.25-.24.58-.36.98-.36h1.01c.41,0,.74.12.99.36.25.24.37.54.37.89v1.95c0,.29.05.48.14.58.09.09.26.14.49.14h12.49c.79,0,1.18.41,1.18,1.23v.55c0,.41-.11.72-.33.93-.22.21-.51.32-.87.32Zm.92-19.49v13.94c0,.35-.12.64-.37.89-.25.24-.58.36-.99.36h-1.01c-.41,0-.74-.12-.98-.36-.25-.24-.37-.54-.37-.89v-.83h-2.8c-.8,0-1.2-.4-1.2-1.2v-.46c0-.79.39-1.18,1.18-1.18h2.82v-10.26c0-.35.12-.65.37-.89.25-.24.58-.36.98-.36h1.01c.41,0,.74.12.99.36.25.24.37.54.37.89Z"/>
  </g>
  <g>
    <circle class="cls-7" cx="99.81" cy="19.68" r="3.82"/>
    <path class="cls-8" d="m94.37,15.8s-2.1,5.89,2.78,10.94c.37.37.73.73,1.1,1.1.79.79,1.54,1.42,1.83,2.55.18.7.17,1.51-.12,2.18-.55,1.26-2,1.5-3.21,1.22-1.26-.28-2.11-1.03-2.92-1.99-1.68-1.98-2.88-4.25-3.54-6.76,0,0-1.49-5.67,4.08-9.24Z"/>
    <circle class="cls-4" cx="72.04" cy="20.11" r="3.82"/>
    <path class="cls-5" d="m77.48,23.99s2.1-5.89-2.78-10.94l-1.1-1.1c-.79-.79-1.54-1.42-1.83-2.55-.18-.7-.17-1.51.12-2.18.55-1.26,2-1.5,3.21-1.22,1.26.28,2.11,1.03,2.92,1.99,1.68,1.98,2.88,4.25,3.54,6.76,0,0,1.49,5.67-4.08,9.24Z"/>
    <circle class="cls-6" cx="85.78" cy="5.99" r="3.82" transform="translate(20.89 62.41) rotate(-45)"/>
    <path class="cls-1" d="m81.9,11.43s5.89,2.1,10.94-2.78l1.1-1.1c.79-.79,1.42-1.54,2.55-1.83.7-.18,1.51-.17,2.18.12,1.26.55,1.5,2,1.22,3.21-.28,1.26-1.03,2.11-1.99,2.92-1.98,1.68-4.25,2.88-6.76,3.54,0,0-5.67,1.49-9.24-4.08Z"/>
  </g>
</svg>