<?xml version="1.0" encoding="UTF-8"?>
<svg id="_레이어_1" data-name="레이어 1" xmlns="http://www.w3.org/2000/svg" viewBox="0 0 128 128">
  <defs>
    <style>
      .cls-1 {
        fill: #949494;
      }
    </style>
  </defs>
  <path class="cls-1" d="m99.18,23.8H28.8c-5.46,0-9.9-4.44-9.9-9.9s4.44-9.9,9.9-9.9h70.38c5.46,0,9.9,4.44,9.9,9.9s-4.44,9.9-9.9,9.9ZM28.8,9.22c-2.58,0-4.68,2.1-4.68,4.68s2.1,4.68,4.68,4.68h70.38c2.58,0,4.68-2.1,4.68-4.68s-2.1-4.68-4.68-4.68H28.8Z"/>
  <g>
    <path class="cls-1" d="m63.99,16.51c-1.44,0-2.61-1.17-2.61-2.61s1.17-2.61,2.61-2.61,2.61,1.17,2.61,2.61-1.17,2.61-2.61,2.61Z"/>
    <g>
      <path class="cls-1" d="m42.65,16.51c-1.44,0-2.61-1.17-2.61-2.61s1.17-2.61,2.61-2.61,2.61,1.17,2.61,2.61-1.17,2.61-2.61,2.61Z"/>
      <path class="cls-1" d="m85.32,16.51c-1.44,0-2.61-1.17-2.61-2.61s1.17-2.61,2.61-2.61,2.61,1.17,2.61,2.61-1.17,2.61-2.61,2.61Z"/>
    </g>
  </g>
  <path class="cls-1" d="m94.81,37.32h-61.63c-1.44,0-2.61-1.17-2.61-2.61s1.17-2.61,2.61-2.61h61.63c1.44,0,2.61,1.17,2.61,2.61s-1.17,2.61-2.61,2.61Z"/>
  <path class="cls-1" d="m88.96,49.99h-49.94c-1.44,0-2.61-1.17-2.61-2.61s1.17-2.61,2.61-2.61h49.94c1.44,0,2.61,1.17,2.61,2.61s-1.17,2.61-2.61,2.61Z"/>
  <path class="cls-1" d="m88.96,62.65h-49.94c-1.44,0-2.61-1.17-2.61-2.61s1.17-2.61,2.61-2.61h49.94c1.44,0,2.61,1.17,2.61,2.61s-1.17,2.61-2.61,2.61Z"/>
  <path class="cls-1" d="m88.96,75.31h-49.94c-1.44,0-2.61-1.17-2.61-2.61s1.17-2.61,2.61-2.61h49.94c1.44,0,2.61,1.17,2.61,2.61s-1.17,2.61-2.61,2.61Z"/>
  <path class="cls-1" d="m88.96,87.97h-49.94c-1.44,0-2.61-1.17-2.61-2.61s1.17-2.61,2.61-2.61h49.94c1.44,0,2.61,1.17,2.61,2.61s-1.17,2.61-2.61,2.61Z"/>
  <path class="cls-1" d="m64.65,100.63h-25.63c-1.44,0-2.61-1.17-2.61-2.61s1.17-2.61,2.61-2.61h25.63c1.44,0,2.61,1.17,2.61,2.61s-1.17,2.61-2.61,2.61Z"/>
  <path class="cls-1" d="m64.65,113.29h-25.63c-1.44,0-2.61-1.17-2.61-2.61s1.17-2.61,2.61-2.61h25.63c1.44,0,2.61,1.17,2.61,2.61s-1.17,2.61-2.61,2.61Z"/>
  <path class="cls-1" d="m96.1,124H31.9c-7.23,0-13.11-5.89-13.11-13.13V14.15c0-1.44,1.17-2.61,2.61-2.61s2.61,1.17,2.61,2.61v96.71c0,4.36,3.54,7.92,7.89,7.92h64.2c4.35,0,7.89-3.55,7.89-7.92V29.21c0-1.44,1.17-2.61,2.61-2.61s2.61,1.17,2.61,2.61v81.66c0,7.24-5.88,13.13-13.11,13.13Z"/>
  <path class="cls-1" d="m75.68,112.85c-.37,0-.74-.08-1.1-.24-1.07-.49-1.67-1.64-1.47-2.8l2.42-14.33c.24-1.42,1.58-2.39,3.01-2.14,1.42.24,2.38,1.59,2.14,3.01l-.83,4.92,3.19-3.78c.72-.85,1.9-1.16,2.94-.75,1.04.4,1.71,1.42,1.66,2.53l-.11,2.74,7.17-6.68c1.05-.98,2.7-.92,3.69.13.98,1.05.92,2.7-.13,3.69l-11.8,10.99c-.77.72-1.91.9-2.86.46-.96-.44-1.56-1.42-1.52-2.47l.06-1.48-4.45,5.28c-.51.6-1.24.93-1.99.93Z"/>
</svg>