<?xml version="1.0" encoding="UTF-8"?>
<svg id="_레이어_2" data-name="레이어 2" xmlns="http://www.w3.org/2000/svg" viewBox="0 0 128 128">
  <defs>
    <style>
      .cls-1 {
        fill: #949494;
      }
    </style>
  </defs>
  <path class="cls-1" d="m115.64,103.38H12.36c-3.57,0-8.36-3.65-8.36-7.37v-.77c0-3.17,2.08-5.22,6.17-6.1l2.74-.59c-.02-.19-.03-.38-.03-.58V31.04c0-3.95,3.7-6.39,7.13-6.39h88.36c3.7-.31,6.74,2.68,6.74,6.39v56.92c0,.21,0,.41-.03.61.87.18,1.84.38,2.71.55,5.4,1.06,6.21,4.28,6.21,6.11v.77c0,3.73-4.79,7.37-8.36,7.37ZM20.02,29.09c-1.24,0-2.68.85-2.68,1.95v56.92c0,.42.1.51.16.57.61.56.85,1.42.63,2.22-.22.8-.87,1.41-1.68,1.58l-5.34,1.15c-2.66.57-2.66,1.28-2.66,1.75v.77c0,.96,2.42,2.93,3.91,2.93h103.29c1.5,0,3.91-1.97,3.91-2.93v-.77c0-.37,0-1.23-2.62-1.74-2.34-.46-5.42-1.12-5.42-1.12-.82-.17-1.47-.79-1.68-1.6-.21-.81.04-1.67.67-2.23.06-.06.17-.15.17-.58V31.04c0-1.1-.78-1.97-1.78-1.97-.07,0-.33.02-.41.02H20.02Z"/>
  <path class="cls-1" d="m111.98,92.39H15.98c-1.23,0-2.22-.99-2.22-2.22s.99-2.22,2.22-2.22h96c1.23,0,2.22,1,2.22,2.22s-.99,2.22-2.22,2.22Z"/>
  <path class="cls-1" d="m70.8,94.56h-13.58c-1.23,0-2.22-.99-2.22-2.22s1-2.22,2.22-2.22h13.58c1.23,0,2.22,1,2.22,2.22s-.99,2.22-2.22,2.22Z"/>
  <path class="cls-1" d="m105.55,36.17H16.75c-1.23,0-2.22-1-2.22-2.22s1-2.22,2.22-2.22h88.8c1.23,0,2.22,1,2.22,2.22s-1,2.22-2.22,2.22Z"/>
  <g>
    <path class="cls-1" d="m101.23,48.9h-17.09c-1.23,0-2.22-.99-2.22-2.22s.99-2.22,2.22-2.22h17.09c1.23,0,2.22,1,2.22,2.22s-1,2.22-2.22,2.22Z"/>
    <path class="cls-1" d="m96.92,57.69h-4.13c-1.23,0-2.22-.99-2.22-2.22s1-2.22,2.22-2.22h4.13c1.23,0,2.22,1,2.22,2.22s-1,2.22-2.22,2.22Z"/>
    <path class="cls-1" d="m101.23,66.49h-17.09c-1.23,0-2.22-1-2.22-2.22s.99-2.22,2.22-2.22h17.09c1.23,0,2.22.99,2.22,2.22s-1,2.22-2.22,2.22Z"/>
    <path class="cls-1" d="m96.92,75.29h-4.13c-1.23,0-2.22-1-2.22-2.22s1-2.22,2.22-2.22h4.13c1.23,0,2.22.99,2.22,2.22s-1,2.22-2.22,2.22Z"/>
    <path class="cls-1" d="m101.23,84.09h-17.09c-1.23,0-2.22-.99-2.22-2.22s.99-2.22,2.22-2.22h17.09c1.23,0,2.22,1,2.22,2.22s-1,2.22-2.22,2.22Z"/>
  </g>
  <g>
    <path class="cls-1" d="m50.05,71.59c-5.2,0-9.43-4.23-9.43-9.43s4.23-9.43,9.43-9.43,9.43,4.23,9.43,9.43-4.23,9.43-9.43,9.43Zm0-14.42c-2.75,0-4.98,2.24-4.98,4.99s2.24,4.98,4.98,4.98,4.99-2.24,4.99-4.98-2.24-4.99-4.99-4.99Z"/>
    <path class="cls-1" d="m52.63,82.89h-5.16c-.87,0-1.67-.51-2.03-1.31l-1.1-2.43c-.32-.1-.63-.22-.93-.34l-2.39,1.15c-.78.38-1.72.26-2.39-.3l-3.96-3.31c-.67-.56-.95-1.47-.71-2.31l.75-2.63c-.15-.25-.3-.51-.44-.77l-2.67-.67c-.85-.21-1.49-.91-1.64-1.77l-.89-5.08c-.15-.86.22-1.73.94-2.22l2.35-1.6c.04-.24.08-.49.13-.73l-1.67-2.32c-.51-.71-.56-1.65-.12-2.41l2.57-4.47c.44-.76,1.28-1.19,2.15-1.1l2.94.3c.15-.13.3-.25.46-.38l.21-2.95c.06-.88.63-1.63,1.46-1.93l4.86-1.76c.82-.3,1.75-.09,2.36.55l2.07,2.14c.18,0,.37,0,.55,0l2.08-2.15c.61-.63,1.54-.84,2.35-.54l4.85,1.76c.82.3,1.39,1.05,1.46,1.92l.22,2.95c.15.12.3.25.45.38l2.94-.3c.86-.09,1.71.34,2.15,1.1l2.59,4.46c.44.76.39,1.7-.12,2.41l-1.67,2.33c.05.24.09.48.13.72l2.35,1.59c.72.49,1.09,1.36.94,2.22l-.89,5.09c-.15.86-.8,1.56-1.64,1.77l-2.66.67c-.14.27-.29.53-.44.79l.74,2.62c.24.84-.04,1.75-.71,2.31l-3.95,3.31c-.67.56-1.61.68-2.4.3l-2.4-1.16c-.3.12-.61.24-.92.34l-1.1,2.44c-.36.8-1.15,1.31-2.03,1.31Zm-3.72-4.44h2.29l.93-2.05c.28-.61.82-1.07,1.47-1.24.72-.19,1.45-.46,2.15-.8.62-.3,1.33-.3,1.95,0l2.04.99,1.75-1.46-.63-2.21c-.18-.65-.07-1.34.32-1.89.42-.6.79-1.25,1.1-1.95.28-.62.82-1.08,1.49-1.25l2.26-.57.39-2.26-1.99-1.35c-.61-.41-.98-1.1-.98-1.84-.06-.53-.19-1.23-.37-1.89-.18-.65-.05-1.34.34-1.88l1.42-1.98-1.15-1.98-2.5.25c-.65.07-1.3-.16-1.77-.62-.5-.48-1.02-.92-1.55-1.29-.55-.38-.89-.99-.94-1.66l-.19-2.52-2.15-.78-1.78,1.84c-.46.48-1.11.72-1.78.67-.64-.06-1.32-.06-1.96,0-.68.06-1.32-.19-1.79-.67l-1.77-1.83-2.15.78-.18,2.51c-.05.66-.39,1.26-.92,1.65-.6.43-1.12.87-1.55,1.3-.47.47-1.14.7-1.79.64l-2.51-.25-1.14,1.98,1.42,1.97c.39.54.51,1.22.35,1.86-.18.68-.31,1.4-.38,2.15-.07.66-.42,1.25-.96,1.62l-1.99,1.35.39,2.24,2.26.57c.66.17,1.2.62,1.48,1.24.3.67.68,1.33,1.11,1.94.39.55.51,1.24.32,1.89l-.63,2.22,1.75,1.47,2.02-.97c.61-.3,1.32-.3,1.93,0,.68.33,1.42.59,2.18.79.65.17,1.19.62,1.47,1.24l.93,2.05Z"/>
  </g>
</svg>