<?xml version="1.0" encoding="UTF-8"?>
<svg id="_레이어_3" data-name="레이어 3" xmlns="http://www.w3.org/2000/svg" viewBox="0 0 90 60">
  <defs>
    <style>
      .cls-1 {
        fill: #fff;
      }

      .cls-2 {
        fill: #c00c3f;
      }

      .cls-3 {
        fill: #6c6e70;
      }
    </style>
  </defs>
  <g>
    <path class="cls-3" d="m57.17,22.35v2.24h3.08v.58c0,2.3-.93,3.52-3.44,4.32l.95,2.13c1.73-.41,3.42-1.42,4.12-2.81.74,1.39,2.37,2.35,3.88,2.71l1.2-2.44c-2.19-.47-3.76-1.66-3.76-3.93v-.56h3.03v-2.24h-9.06Zm14.04-.3h-2.83v3.22h-2.66v2.32h2.66v5.88h2.49c.2-.8.34-2.13.34-3.1v-8.32Zm.29,13.52h-8.33c-.22,0-.29-.05-.29-.29v-3.3h-2.83v4.45c0,.97.49,1.42,1.46,1.42h9.99v-2.29Zm1.61-13.23v2.22h3.22v1.07c0,2.83-.58,4.61-3.51,5.89l1.1,1.96c1.67-.63,3.25-1.81,3.98-3.32.73,1.42,2.25,2.59,3.73,3.17l1.32-2.3c-2.85-1.07-3.83-2.73-3.83-5.42v-1.05h3.13v-2.22h-9.14Zm16.39,3.92h-2.81v-4.2h-2.71v15.8h2.37c.22-.93.34-2.53.34-3.78v-5.54h2.81v-2.27Z"/>
    <polygon class="cls-3" points="33.73 37.63 40.19 37.63 40.19 34.66 32.89 34.66 32.89 22.37 29.37 22.37 29.37 37.63 33.73 37.63"/>
    <path class="cls-3" d="m47.95,31.81h2.87v2.67c-.53.2-1.56.4-2.54.4-3.17,0-4.23-1.61-4.23-4.88s1.01-4.96,4.18-4.96c1.77,0,2.77.55,3.6,1.61l2.19-2.01c-1.34-1.91-3.67-2.49-5.87-2.49-4.93,0-7.53,2.69-7.53,7.83s2.34,7.88,7.5,7.88c2.36,0,4.68-.6,5.94-1.49v-7.4h-6.12v2.84Z"/>
  </g>
  <g>
    <path class="cls-2" d="m12.45,41.95c6.6,0,11.95-5.34,11.95-11.95s-5.34-11.95-11.95-11.95S.5,23.4.5,30c.02,6.6,5.36,11.95,11.95,11.95"/>
    <polygon class="cls-1" points="11.98 24.76 11.98 35.23 15.32 35.23 15.32 34.3 12.94 34.3 12.94 24.76 11.98 24.76"/>
    <path class="cls-1" d="m8.65,27.61c.79,0,1.43-.64,1.43-1.43s-.64-1.43-1.43-1.43-1.43.64-1.43,1.43.64,1.43,1.43,1.43"/>
    <path class="cls-1" d="m12.94,20.02c-.12,0-.35-.02-.49-.02-5.51,0-10,4.49-10,10,0,2.67,1.04,5.18,2.92,7.08,1.88,1.88,4.4,2.92,7.08,2.92s5.18-1.04,7.08-2.92c1.88-1.88,2.92-4.4,2.92-7.08v-.45h-7.13v.92h6.18v.13c-.32,4.71-4.25,8.45-9.04,8.45-2.42,0-4.69-.94-6.4-2.66-1.73-1.7-2.67-3.98-2.67-6.4s.94-4.69,2.66-6.4,3.98-2.66,6.4-2.66c.1,0,.37,0,.49.02v-.94Z"/>
  </g>
</svg>