<?xml version="1.0" encoding="UTF-8"?>
<svg id="_레이어_4" data-name="레이어 4" xmlns="http://www.w3.org/2000/svg" viewBox="0 0 102 60">
  <defs>
    <style>
      .cls-1 {
        fill: #fff;
      }

      .cls-2 {
        fill: #c00c3f;
      }

      .cls-3 {
        fill: #636466;
      }
    </style>
  </defs>
  <path class="cls-3" d="m101.24,23.26c-1.46-.86-3.66-1.26-5.23-1.26-4.13,0-6.05,1.85-6.05,4.49,0,2.27,1.71,3.65,3.58,4.37.92.34,1.95.69,2.72.91,1.24.35,1.73.94,1.73,1.8,0,1.08-.76,1.71-2.72,1.71-1.34,0-3.11-.54-4.37-1.26l-1.18,2.62c1.61.92,3.78,1.41,5.58,1.41,3.87,0,6.12-1.93,6.12-4.6s-1.34-3.43-2.86-4.08c-.59-.24-1.68-.59-2.25-.76-1.93-.54-2.97-1.03-2.97-2.3,0-.94.62-1.68,2.74-1.68,1.53,0,3.03.52,4.05,1.11l1.11-2.47Zm-15.88-1.04v12.65h-.39l-4.47-12.65h-6.05v15.55h3.28v-12.86h.42l4.42,12.86h6.05v-15.55h-3.26Zm-12,1.83c-1.34-1.5-3.55-2.07-5.53-2.07-4.59,0-7.38,2.74-7.38,8.02s2.15,8.02,7.34,8.02c1.93,0,3.97-.45,5.34-1.26l-.77-2.59c-1.11.55-2.77.92-4.34.92-3.26,0-4.12-2.08-4.12-5.13,0-3.55,1.58-5.24,4.05-5.24,1.46,0,2.69.64,3.51,1.5l1.88-2.17Z"/>
  <path class="cls-3" d="m48.82,31.85h2.92v2.72c-.54.2-1.6.4-2.59.4-3.23,0-4.3-1.65-4.3-4.97s1.03-5.06,4.25-5.06c1.8,0,2.82.57,3.66,1.65l2.24-2.05c-1.36-1.95-3.75-2.54-5.98-2.54-5.02,0-7.68,2.74-7.68,7.98s2.39,8.03,7.65,8.03c2.42,0,4.77-.62,6.05-1.51v-7.55h-6.23v2.89h.02Zm-15.34-9.63h-3.6v15.55h11.04v-3.03h-7.44v-12.52h0Z"/>
  <g>
    <path class="cls-2" d="m12.52,41.95c6.6,0,11.95-5.34,11.95-11.95s-5.34-11.95-11.95-11.95S.57,23.4.57,30c.02,6.6,5.36,11.95,11.95,11.95"/>
    <polygon class="cls-1" points="12.05 24.76 12.05 35.23 15.4 35.23 15.4 34.3 13.01 34.3 13.01 24.76 12.05 24.76"/>
    <path class="cls-1" d="m8.73,27.61c.79,0,1.43-.64,1.43-1.43s-.64-1.43-1.43-1.43-1.43.64-1.43,1.43.64,1.43,1.43,1.43"/>
    <path class="cls-1" d="m13.01,20.02c-.12,0-.35-.02-.49-.02-5.51,0-10,4.49-10,10,0,2.67,1.04,5.18,2.92,7.08,1.88,1.88,4.4,2.92,7.08,2.92s5.18-1.04,7.08-2.92c1.88-1.88,2.92-4.4,2.92-7.08v-.45h-7.13v.92h6.18v.13c-.32,4.71-4.25,8.45-9.04,8.45-2.42,0-4.69-.94-6.4-2.66-1.73-1.7-2.67-3.98-2.67-6.4s.94-4.69,2.66-6.4,3.98-2.66,6.4-2.66c.1,0,.37,0,.49.02v-.94Z"/>
  </g>
</svg>