<?xml version="1.0" encoding="UTF-8"?>
<svg id="_레이어_2" data-name="레이어 2" xmlns="http://www.w3.org/2000/svg" viewBox="0 0 150 60">
  <defs>
    <style>
      .cls-1 {
        fill: #b2b1a7;
      }

      .cls-2 {
        fill: #e4032e;
      }
    </style>
  </defs>
  <path d="m66.08,21.65v2.32h3.22l-3.4,6.02h3.44l2.97-5.26,3.18,5.27h3.44l-3.64-6.03h3.34v-2.31h-12.55Z"/>
  <path d="m80.58,21.31v3.58h-2.3v2.28h2.3v3.48h3.24v-9.33h-3.24Zm7.07.1v10.59h3.23s3.27,0,3.27,0v3.71h-7.94s0,2.46,0,2.46l19.32.02v-2.47h-7.9v-3.72h3.19s3.24,0,3.24,0v-10.59h-3.24v3.25h-9.95v-3.25h-3.23Zm3.23,5.34h9.95v2.93h-9.95v-2.93Z"/>
  <path d="m83.78,34.59c0-2.92-3.86-3.81-8.34-3.81s-8.12,1.26-8.12,4.06,3.86,3.81,8.35,3.81c3.89,0,8.12-1.14,8.12-4.06m-8.23,2.05c-2.52,0-4.8-.44-4.8-1.93s2.28-1.93,4.8-1.93,4.8.38,4.8,1.93-2.28,1.93-4.8,1.93m50.56-.74c0-2.77-4.01-3.63-8.68-3.63s-8.44,1.2-8.44,3.86c0,2.67,4.01,3.63,8.67,3.63,4.04,0,8.45-1.08,8.45-3.86m-8.56,1.95c-2.62,0-4.99-.41-4.99-1.83s2.37-1.83,4.99-1.83,4.99.36,4.99,1.83-2.37,1.83-4.99,1.83"/>
  <path d="m133.71,21.64l-4.05,8.37h3.67l3.19-6.58,3.42,6.55h3.68l-4.35-8.33h-5.56Z"/>
  <path d="m148.5,21.34h-3.22v9.27h3.22v-9.27Z"/>
  <path d="m109.02,21.33v1.8h0v.93h0v1.8h0v2.71h6.61v.83h-8.09v2.17h20.11v-2.17h-8.09v-.83h6.63v-1.84h-13.82v-.87h13.84v-1.8h-13.84v-.93h13.84v-1.8h-17.2Zm23.17,10.31v6.58h16.29v-2.28h-13.02v-4.3h-3.27Zm-78.01-11.29c-4.48,0-8.1.75-8.11,3.29,0,1.36,1.02,2.2,2.65,2.69v1.49h-3.82v2.21h18.55v-2.21h-3.83v-1.55c1.63-.52,2.66-1.37,2.66-2.63,0-2.36-3.63-3.29-8.11-3.29h0Zm0,1.99c2.66,0,4.82.31,4.82,1.3s-2.16,1.3-4.82,1.3-4.82-.27-4.82-1.3,2.16-1.3,4.82-1.3Zm2.36,4.5v.98h-4.7v-.97c.74.06,1.53.08,2.34.08s1.61-.03,2.36-.1Zm-19.17-5.5v6.81l-2.63-6.65h-2.94l-1.2,3.12-1.31-3.11h-2.92l-3.24,8.28h2.92l1.84-4.7,1.32,3.13h.01l-.51,1.34h2.92l1.66-4.35,1.81,4.57h2.27v.36h3.26v-3.62h2.39v-2.32h-2.39v-2.87h-3.26Z"/>
  <path d="m41.15,34.37c0-2.95-3.76-3.86-8.12-3.86s-7.9,1.27-7.9,4.11,3.76,3.86,8.12,3.86c3.78,0,7.91-1.16,7.91-4.11m-8.01,2.08c-2.46,0-4.45-.66-4.45-1.95s1.99-1.95,4.45-1.95,4.44.54,4.44,1.95-1.99,1.95-4.44,1.95m29.55-1.88c0-2.71-3.79-3.95-8.47-3.95s-8.47,1.12-8.47,3.95,3.79,3.95,8.47,3.95,8.47-1.24,8.47-3.95m-8.47,1.92c-2.77,0-5.01-.49-5.01-1.92s2.24-1.92,5.01-1.92,5.01.49,5.01,1.92-2.25,1.92-5.01,1.92"/>
  <path class="cls-1" d="m9.35,20.94s-5.38-1.52-7.55,2.59c0,0-1.34,3.05,1.65,6,0,0,1.66,1.57,3.64,2.67,0,0,1.05.65.98,1.3-.05.57-.41.73-1.5.69,0,0-2.73-.26-5.07-2.12v5.9s3.82,1.79,8.42.73c0,0,3.81-.65,4.03-4.09,0,0,.35-2.75-3.4-4.8,0,0-1.34-.85-1.73-1.24,0,0-3.18-2.35-1.25-6.02,0,0,.61-1.04,1.78-1.59"/>
  <path class="cls-2" d="m12.02,38.33s5.38,1.52,7.55-2.59c0,0,1.34-3.05-1.65-6,0,0-1.65-1.58-3.64-2.68,0,0-1.05-.65-.98-1.3.06-.57.42-.73,1.5-.69,0,0,2.73.26,5.07,2.12v-5.9s-3.82-1.79-8.42-.73c0,0-3.81.65-4.03,4.09,0,0-.35,2.75,3.4,4.8,0,0,1.34.85,1.73,1.24,0,0,3.19,2.35,1.25,6.03,0,0-.61,1.04-1.78,1.59"/>
</svg>