<?xml version="1.0" encoding="UTF-8"?>
<svg id="_레이어_5" data-name="레이어 5" xmlns="http://www.w3.org/2000/svg" viewBox="0 0 116 60">
  <defs>
    <style>
      .cls-1, .cls-2 {
        fill: #f4711f;
      }

      .cls-1, .cls-3 {
        fill-rule: evenodd;
      }

      .cls-2 {
        stroke: #f4711f;
        stroke-miterlimit: 10;
        stroke-width: .25px;
      }

      .cls-3 {
        fill: #e22739;
      }
    </style>
  </defs>
  <g>
    <path class="cls-3" d="m10.43,33.64c-1.58-.74-2.87-1.33-2.87-2.54,0-.92.74-1.59,2.19-1.59.53,0,.97.06,1.43.15.24.04.49.08.7.08,1.27,0,1.99-.76,2.47-2.2l.2-.59c-.2-.08-2.28-1-4.99-1-4.31,0-6.59,2.77-6.59,5.63,0,1.45.45,2.5,1.16,3.32.91,1.06,2.22,1.76,3.44,2.35,1.78.87,3.38,1.52,3.38,2.81,0,1.15-1.18,1.8-2.77,1.8-2.17,0-4.07-1.24-4.31-1.39l-1.78,3.34c.32.18,2.61,1.64,6.39,1.64,4.03,0,7.07-2.31,7.07-5.86s-2.82-4.84-5.11-5.95m15.74,1.65l7.3-8.95h-5.2l-5.82,7.72h-.09v-7.72h-4.29v18.96h.26c1.85,0,4.06-.86,4.06-3.95v-4.35h.09l5.93,8.07h5.46l-7.7-9.77m7.54-29.26c-1.51.28-3.75,1.65-3.74,4.08,0,2.2,1.81,3.53,1.81,6.41,0,2.17-1.19,3.63-2.48,4.44.57-.05,1.15-.08,1.72-.08,1.32,0,2.12.12,2.17.13l6.77-8.31c-1.71-2.55-3.82-4.81-6.25-6.68m5.69,22.44c.85-1.33.96-3.44,1.03-5.59.08-2.01.5-3.52,3.19-3.53.59,0,1.16.08,2.19.08,3.94-.02,6.51-1.37,8.11-2.26-3.27-2.08-8.03-4.21-13.95-4.45-.39,1.09-3.38,9.42-3.61,10.1.03.04.56.63,1.22,1.78.75,1.23,1.36,2.53,1.83,3.89"/>
    <path class="cls-1" d="m25.1,21.66c-.34,0-.51-.23-.56-.62-.04-.39-1.74-15.88-1.99-18.23-.04-.34-.12-.97-.12-1.2,0-.36.23-.55.51-.55.8,0,5.17,1.02,9.82,4.27-1.34.38-3.76,1.77-3.75,4.65,0,2.55,1.83,3.95,1.84,6.51.01,4.16-4.76,5.16-5.75,5.16m14.69,7.92c.07.19.14.35.21.47.11.18.25.26.42.26.11,0,.24-.04.39-.1.36-.16,14.5-6.75,16.63-7.73.31-.15.89-.41,1.09-.52.2-.11.29-.28.29-.45,0-.1-.03-.19-.08-.28-.27-.43-1.63-1.88-3.92-3.47-1.82,1-4.65,2.55-8.87,2.56-1.03,0-1.27-.07-1.97-.07-2.06,0-2.57.89-2.65,2.69-.01.34-.02.8-.04,1.3-.06,1.61-.25,3.84-1.49,5.33"/>
    <path class="cls-3" d="m10.43,33.64c-1.58-.74-2.87-1.33-2.87-2.54,0-.92.74-1.59,2.19-1.59.54,0,.97.06,1.43.15.24.04.49.08.7.08,1.27,0,1.99-.76,2.47-2.2l.2-.59c-.2-.08-2.28-1-4.99-1-4.31,0-6.59,2.77-6.59,5.63,0,1.45.45,2.5,1.16,3.32.91,1.06,2.22,1.76,3.44,2.35,1.78.87,3.38,1.52,3.38,2.81,0,1.15-1.18,1.8-2.77,1.8-2.17,0-4.07-1.24-4.31-1.39l-1.78,3.34c.32.18,2.61,1.64,6.39,1.64,4.02,0,7.07-2.31,7.07-5.86s-2.82-4.84-5.11-5.95m15.74,1.65l7.3-8.95h-5.2l-5.82,7.72h-.09v-7.72h-4.29v18.96h.26c1.85,0,4.06-.86,4.06-3.95v-4.35h.09l5.93,8.07h5.46l-7.7-9.77m7.54-29.26c-1.51.28-3.75,1.65-3.74,4.08,0,2.2,1.81,3.53,1.81,6.41,0,2.17-1.19,3.63-2.48,4.44.57-.05,1.15-.08,1.72-.08,1.32,0,2.12.12,2.17.13l6.77-8.31c-1.71-2.55-3.82-4.81-6.25-6.68m5.69,22.44c.85-1.33.96-3.44,1.03-5.59.08-2.01.5-3.52,3.19-3.53.6,0,1.16.08,2.19.08,3.94-.02,6.51-1.37,8.11-2.26-3.27-2.08-8.04-4.21-13.95-4.45-.39,1.09-3.38,9.42-3.61,10.1.03.04.56.63,1.22,1.78.75,1.23,1.36,2.53,1.83,3.89"/>
    <path class="cls-1" d="m25.1,21.66c-.34,0-.51-.23-.56-.62-.04-.39-1.74-15.88-1.99-18.23-.04-.34-.12-.97-.12-1.2,0-.36.23-.55.51-.55.8,0,5.17,1.02,9.82,4.27-1.34.38-3.76,1.77-3.75,4.65,0,2.55,1.83,3.95,1.84,6.51.02,4.16-4.76,5.16-5.75,5.16m14.69,7.91c.07.19.14.36.21.47.11.18.25.26.42.26.11,0,.24-.04.39-.1.36-.16,14.5-6.75,16.63-7.73.31-.15.89-.41,1.09-.52.2-.11.29-.28.29-.45,0-.1-.03-.19-.08-.28-.27-.43-1.64-1.88-3.92-3.47-1.81,1-4.65,2.55-8.87,2.56-1.03,0-1.27-.07-1.97-.07-2.06,0-2.57.89-2.65,2.69-.01.34-.02.8-.04,1.3-.07,1.61-.26,3.84-1.49,5.33m46.71.19v1.09h-3.67v1.6h2.09c-.98.64-1.6,1.61-1.6,2.71,0,1.6,1.3,2.94,3.18,3.35v.88h-4.2v1.6h10.93v-1.6h-4.28v-.9c1.84-.43,3.1-1.75,3.1-3.33,0-1.1-.62-2.07-1.6-2.71h2.09v-1.6h-3.59v-1.09h-2.45Zm-36.78.33v1.6h4.18l-4.74,6.16h2.8l4.09-5.4,3.6,4.74c.35.45.73.66,1.29.66h2.07s-4.8-6.17-4.8-6.17h4.23v-1.6h-12.73Zm20.05,0c-.36,0-.71.24-.93.66l-3.8,7.15h2.36l3.05-5.75,2.71,5.09c.23.42.58.65.94.66h1.7s-4.16-7.81-4.16-7.81h-1.88Zm7.1,0v8.55h2.29v-8.55h-2.29Zm17.07,0v14.98h.61c.93,0,1.68-.75,1.68-1.68v-13.3h-2.29Zm9.17,0c-.36,0-.71.24-.93.66l-3.8,9.99h2.36l3.05-8.1,2.71,7.44c.17.42.58.65.94.66h1.71s-4.16-10.65-4.16-10.65h-1.88Zm6.71,0v14.98h.61c.93,0,1.68-.75,1.68-1.68v-7.75h1.8v-1.6h-1.8v-3.94h-2.29Zm-22.14,3.01c1.22,0,2.04.9,2.04,2.02s-.82,2.02-2.04,2.02-2.04-.91-2.04-2.02.82-2.02,2.04-2.02Zm-39.24,6.2v1.6h6.47v4.92h.61c.93,0,1.68-.76,1.68-1.68v-3.24h6.51v-1.6h-15.27Zm19.08.09v1.6h9.35v4.57h.61c.93,0,1.68-.76,1.68-1.68v-4.49h-11.64Z"/>
  </g>
  <g>
    <path class="cls-2" d="m53.82,58.55c-.36.19-1.08.37-2,.37-2.13,0-3.74-1.39-3.74-3.95s1.61-4.11,3.95-4.11c.94,0,1.54.21,1.8.35l-.24.82c-.37-.19-.9-.32-1.53-.32-1.77,0-2.95,1.17-2.95,3.22,0,1.91,1.07,3.14,2.91,3.14.6,0,1.2-.13,1.59-.32l.2.8Z"/>
    <path class="cls-2" d="m59.79,58.81c-.21-.22-.42-.44-.71-.77-.65.63-1.38.89-2.21.89-1.47,0-2.32-1.02-2.32-2.19,0-1.07.62-1.8,1.48-2.28v-.03c-.39-.51-.63-1.08-.63-1.64,0-.95.66-1.93,1.92-1.93.94,0,1.67.65,1.67,1.66,0,.82-.46,1.47-1.66,2.09v.03c.64.77,1.36,1.62,1.84,2.18.35-.54.58-1.3.73-2.28h.9c-.2,1.23-.53,2.2-1.09,2.89.4.44.8.88,1.25,1.38h-1.17Zm-1.19-1.35c-.45-.51-1.29-1.46-2.13-2.46-.4.27-.98.76-.98,1.59,0,.89.64,1.58,1.55,1.58.65,0,1.2-.3,1.56-.71Zm-2.3-4.77c0,.56.25.99.57,1.4.76-.45,1.26-.87,1.26-1.53,0-.48-.26-1.01-.88-1.01s-.95.53-.95,1.14Z"/>
    <path class="cls-2" d="m67.13,58.55c-.36.19-1.08.37-2,.37-2.13,0-3.74-1.39-3.74-3.95s1.61-4.11,3.95-4.11c.94,0,1.54.21,1.8.35l-.24.82c-.37-.19-.9-.32-1.53-.32-1.77,0-2.95,1.17-2.95,3.22,0,1.91,1.07,3.14,2.91,3.14.6,0,1.2-.13,1.59-.32l.2.8Z"/>
  </g>
</svg>