<?xml version="1.0" encoding="UTF-8"?>
<svg id="_레이어_3" data-name="레이어 3" xmlns="http://www.w3.org/2000/svg" viewBox="0 0 128 128">
  <defs>
    <style>
      .cls-1 {
        fill: #949494;
      }
    </style>
  </defs>
  <path class="cls-1" d="m75.28,74.23c5.52-3.67,9.17-9.94,9.17-17.05,0-11.28-9.18-20.45-20.45-20.45s-20.45,9.18-20.45,20.45c0,7.11,3.65,13.38,9.17,17.05-12.5,4.61-21.45,16.6-21.45,30.68h5.45c0-15.04,12.23-27.27,27.27-27.27s27.27,12.23,27.27,27.27h5.45c0-14.08-8.95-26.07-21.45-30.68Zm-26.28-17.05c0-8.27,6.73-15,15-15s15,6.73,15,15-6.73,15-15,15-15-6.73-15-15Z"/>
  <path class="cls-1" d="m102.55,60.59c5.52-3.67,9.17-9.93,9.17-17.05,0-11.28-9.18-20.45-20.45-20.45-5.46,0-10.42,2.17-14.1,5.67-1.36,1.3-2.54,2.78-3.5,4.41,1.7.69,3.32,1.54,4.82,2.56.96-1.57,2.21-2.94,3.66-4.06,2.53-1.94,5.68-3.11,9.11-3.11,8.27,0,15,6.73,15,15,0,6.87-4.64,12.66-10.95,14.43-1.29.36-2.65.57-4.05.57-.48,0-.96-.03-1.43-.07-.1,1.96-.41,3.87-.92,5.69.78-.07,1.55-.17,2.35-.17,1.11,0,2.19.09,3.27.21,13.5,1.62,24.01,13.13,24.01,27.06h5.45c0-14.08-8.95-26.07-21.45-30.68Z"/>
  <path class="cls-1" d="m36.73,64c.8,0,1.57.1,2.35.17-.51-1.83-.82-3.73-.92-5.69-.47.04-.95.07-1.43.07-1.41,0-2.76-.21-4.05-.57-6.31-1.77-10.95-7.56-10.95-14.43,0-8.27,6.73-15,15-15,3.43,0,6.58,1.17,9.11,3.11,1.46,1.12,2.7,2.49,3.66,4.06,1.5-1.02,3.12-1.87,4.82-2.56-.96-1.63-2.14-3.11-3.5-4.41-3.67-3.5-8.63-5.67-14.1-5.67-11.28,0-20.45,9.18-20.45,20.45,0,7.11,3.65,13.38,9.17,17.05-12.5,4.61-21.45,16.6-21.45,30.68h5.45c0-13.93,10.5-25.44,24.01-27.06,1.07-.13,2.16-.21,3.27-.21Z"/>
</svg>