<?xml version="1.0" encoding="UTF-8"?>
<svg id="_레이어_6" data-name="레이어 6" xmlns="http://www.w3.org/2000/svg" viewBox="0 0 100 60">
  <defs>
    <style>
      .cls-1 {
        fill: #005891;
      }
    </style>
  </defs>
  <g>
    <path class="cls-1" d="m54.93,9.93c1.53,0,2.82.76,3.61,1.95,0,0,.63.93,1.06,1.18.43.25,1.07.38,1.5.29.42-.09.68-.18.48-.89-.83-2.89-3.46-4.91-6.65-4.91-3.87,0-6.92,2.99-6.92,6.89s3.04,6.89,6.92,6.89c3.1,0,5.52-1.76,6.54-4.61.31-.83.06-.93.06-.93,0,0-.25-.35-1.29-.12-1.04.25-1.49,1.06-1.49,1.06-.77,1.32-2.18,2.23-3.81,2.23-2.46,0-4.42-2.07-4.42-4.5s1.96-4.51,4.42-4.51Z"/>
    <path class="cls-1" d="m32.72,14.44c0-3.9-3.03-6.89-6.88-6.89s-6.89,2.99-6.89,6.89,3.03,6.89,6.89,6.89,6.88-2.99,6.88-6.89Zm-11.29,0c0-2.47,1.95-4.51,4.41-4.51s4.4,2.04,4.4,4.51-1.95,4.5-4.4,4.5-4.41-2.07-4.41-4.5Z"/>
    <path class="cls-1" d="m69.91,21.33c3.86,0,6.89-2.99,6.89-6.89s-3.03-6.89-6.89-6.89-6.89,2.99-6.89,6.89,3.04,6.89,6.89,6.89Zm0-11.4c2.45,0,4.41,2.04,4.41,4.51s-1.96,4.5-4.41,4.5-4.41-2.07-4.41-4.5,1.95-4.51,4.41-4.51Z"/>
    <path class="cls-1" d="m37.54,15.62l5.91.08c.79.03,1,.42.72,1.11-.51,1.26-2.26,2.26-3.79,2.24-1.88-.02-2.83-.97-3.54-1.73-.73-.76-2.05-.77-2.48-.61-.43.16-.23.81-.05,1.16,1.14,2.2,3.61,3.42,5.94,3.45,2.49.03,4.72-1.17,6.02-3.28,1.3-2.11.74-4.67-2.24-4.7l-6.73-.08c-.98,0-1.08-.63-.79-1.22.63-1.3,2.17-2.23,3.94-2.21,1.78.02,2.74,1.06,3.33,1.64.62.62,1.94.81,2.51.52.29-.14.28-.54,0-1.05-1.13-2.16-3.52-3.35-5.96-3.38-2.08-.03-4.44.93-5.86,3.14-1.18,1.83-1.11,4.87,3.05,4.91Z"/>
    <path class="cls-1" d="m5.82,26.65c.44-.05.46-.59.46-.59v-6.26c1.18.96,2.71,1.53,4.39,1.53,3.86,0,6.89-2.99,6.89-6.89s-3.03-6.89-6.89-6.89-6.89,2.99-6.89,6.89v9.12s-.12,1.21.46,2.06c.4.59.96,1.01,1.57,1.03Zm4.86-16.72c2.44,0,4.42,2.02,4.42,4.5s-1.98,4.5-4.42,4.5-4.42-2.01-4.42-4.5,1.98-4.5,4.42-4.5Z"/>
    <path class="cls-1" d="m13.06,46.18h6.24v-2.3h-2.71v-7.26h2.51v-2.32H3.79v2.32h2.53v7.26h-2.73v2.3h6.5v3.94H2.5v2.32h17.94v-2.32h-7.38v-3.94Zm-3.8-2.3v-7.26h4.43v7.26h-4.43Z"/>
    <path class="cls-1" d="m58.37,47.04v-12.73h-14.38v2.32h11.47v3.58h-11.47v2.27h11.47v4.56h2.9Z"/>
    <path class="cls-1" d="m51.26,44.84h-2.93v5.26h-5.87v2.34h17.94v-2.34h-9.14v-5.26Z"/>
    <rect class="cls-1" x="22.48" y="50.12" width="17.94" height="2.32"/>
    <path class="cls-1" d="m33.66,38.92c-.29-.61-.57-1.52-.57-2.35v-2.46h-3.13v2.46c0,.83-.28,1.74-.57,2.35-.53,1.12-1.47,2.49-3.81,3.69-1.44.73-3.02,1.26-3.02,1.26l1.76,1.94s2.63-.95,4.19-1.99c1.32-.89,2.63-2.25,3.02-2.87.39.62,1.8,2.07,3.02,2.87,1.57,1.03,4.18,1.99,4.18,1.99l1.76-1.94s-1.58-.53-3.02-1.26c-2.34-1.2-3.27-2.57-3.81-3.69Z"/>
  </g>
  <g>
    <path class="cls-1" d="m64.2,34.12h7.6c5.65,0,8.09,4.11,8.09,9.17s-2.44,9.17-8.09,9.17h-7.6v-18.33Zm3.21,15.71h3.16c5.03,0,6.11-2.88,6.11-6.55s-1.08-6.55-6.11-6.55h-3.16v13.09Z"/>
    <path class="cls-1" d="m81.15,34.12h3.83l4.16,6.47,4.34-6.47h3.59l-6.06,8.83,6.5,9.5h-3.9l-4.57-7.01-4.65,7.01h-3.67l6.5-9.5-6.06-8.83Z"/>
  </g>
</svg>