<?xml version="1.0" encoding="UTF-8"?>
<svg id="_레이어_2" data-name="레이어 2" xmlns="http://www.w3.org/2000/svg" xmlns:xlink="http://www.w3.org/1999/xlink" viewBox="0 0 128 128">
  <defs>
    <style>
      .cls-1 {
        fill: url(#_새_그라디언트_견본_1);
      }
    </style>
    <linearGradient id="_새_그라디언트_견본_1" data-name="새 그라디언트 견본 1" x1="30.86" y1="130" x2="106.43" y2="-.88" gradientUnits="userSpaceOnUse">
      <stop offset="0" stop-color="#00d4ff"/>
      <stop offset="1" stop-color="#0f64ce"/>
    </linearGradient>
  </defs>
  <path class="cls-1" d="m123.78,48.9c.43-.7.11-2,.04-2.25-.19-.7-.45-1.14-.77-1.32h0c-1.71-.92-3.35-1.95-4.94-3.05V5.86h-27.79v8.94c-.91.16-1.81.3-2.69.38-4.36.38-8.62.12-12.66-.77-1.95-.43-4.03-1.01-6.36-1.79-3.25-1.08-6.53-2.67-10.05-4.86-.42-.26-1.12-.16-1.63-.02-.34.09-1.49.43-1.85,1.09-1.21,2.21-2.65,4.42-4.4,6.75-3.36,4.48-7.53,8.29-12.39,11.33-4.51,2.82-9.06,4.51-13.9,5.17-.57.08-1.05.78-1.28,1.2-.25.45-.51,1.09-.32,1.52.42.94.74,1.98,1,2.82.67,2.14,1.09,4.54,1.3,7.33.28,3.82.02,7.67-.76,11.44-.49,2.39-1.22,4.72-1.87,6.69-1,3.04-2.47,6.1-4.44,9.34H4v42.08h32.04v3.83h-12.43v3.83h28.69v-3.83h-12.43v-3.83h32.04v-5.7c3.59,1.19,7.13,2.85,10.7,5.04.3.18.69.25,1.11.25s.86-.07,1.23-.17c.43-.12,1.2-.39,1.48-.9,1.48-2.72,3.21-5.32,5.15-7.73,2.5-3.11,5.14-5.69,8.05-7.88,5.75-4.32,11.43-6.82,17.37-7.65.76-.11,1.46-1.3,1.54-1.43.38-.67.33-.98.25-1.16-1.01-2.46-1.66-4.7-1.99-6.82-.77-4.96-.61-10.12.46-15.33,1.14-5.54,3.27-10.81,6.52-16.11Zm-5.68-4.04c.89.55,1.74,1,2.59,1.39l-.65.17c-.65.17-1.3.34-1.95.51v-2.07Zm0,4.99c.62-.16,1.22-.32,1.85-.49l1.55-.41c-1.29,1.85-2.4,3.91-3.4,6.24v-5.35Zm-18.13-41.58h8.46c.66,0,1.21.54,1.21,1.21s-.54,1.21-1.21,1.21h-8.46c-.66,0-1.21-.54-1.21-1.21s.54-1.21,1.21-1.21Zm-6.65,42.08V13.71h21.75v37.46h-7.92c-.02-.07-.04-.14-.06-.21-.05-.17-.11-.32-.18-.48-.26-.55-.68-1.02-1.21-1.32-.03-.01-.05-.02-.08-.04-.43-.23-.91-.37-1.43-.37-.12,0-.24.02-.36.03-1.29.16-2.34,1.12-2.6,2.38h-7.92v-.82Zm9.52,27.79c-.51-.3-1.02-.6-1.52-.9-1.11-.66-2.22-1.31-3.35-1.94-.6-.33-1.03-.77-1.36-1.37-1.15-2.13-1.83-4.49-2.01-7.02-.24-3.43.66-6.73,2.78-10.31h7.31c-1.21,2.41-2.08,5.17-2.62,8.32-.63,3.62-1.07,8.32.76,13.22ZM38.63,43.67l5.6,3.3c.15.26.31.52.47.78.39.64.75,1.24,1,1.89,1.88,4.9,1.58,9.72-.88,14.33-.23.44-.49.86-.74,1.28-.21.35-.42.7-.62,1.05-.22.39-.55.62-1.09.74-1.8.41-3.59.85-5.38,1.3-.86.21-1.72.44-2.63.69,2.16-2.76,3.64-5.92,4.51-9.62.6-2.57.93-4.72,1.03-6.78.17-3.4-.24-6.34-1.27-8.96Zm46.73,24.19l-2.9-1.68c-.85-.49-1.7-.99-2.53-1.51-.06-.03-.1-.08-.15-.12.5-1.19.78-2.5.78-3.87,0-.34-.02-.67-.05-1,.27-.16.57-.3.96-.37,1.21-.23,2.4-.57,3.65-.92.26-.07.53-.15.8-.22-1.31,3.59-1.49,6.72-.57,9.69Zm-29.21-13.91c1.71.99,3.41,1.99,5.11,3-.47,1.16-.73,2.41-.73,3.74,0,.54.06,1.08.14,1.6-1.43.4-2.87.78-4.4,1.18l-.7.18c1.29-3.48,1.48-6.6.58-9.7Zm13.07-3.68c-.32-1.24-.65-2.49-.99-3.78l-.2-.76c2.85,1.15,5.79,1.44,8.74.86.32-.06.63-.16.96-.27l-1.04,1.76c-.69,1.16-1.37,2.31-2.03,3.48-1.25-.56-2.64-.89-4.1-.89-.39,0-.78.03-1.16.07-.06-.15-.13-.29-.17-.47Zm10.71,6.92c-.62-1.65-1.65-3.11-2.99-4.22,1.04-1.79,2.08-3.56,3.13-5.34,1.03,3.73,1.45,4.34,5.2,8.12l-2.98.83c-.17.05-.35.09-.53.13-.38.09-.78.18-1.16.34-.23.09-.45.13-.67.13Zm.93-16.23c-.3.46-.61.93-.84,1.46-.57,1.3-1.66,2.07-3.53,2.47-2.73.59-5.53.31-8.33-.84-.48-.2-.65-.37-.74-.71-.42-1.73-.86-3.46-1.3-5.18l-.59-2.31c5.49,3.48,11.17,4.07,17.29,1.78-.5.87-.99,1.74-1.49,2.6-.14.25-.3.49-.46.73Zm-15.26,5.5l.7,2.37c.07.23.12.46.18.69.12.47.24.95.42,1.41.05.13.07.26.1.38-1.75.67-3.26,1.81-4.38,3.27-1.68-.99-3.36-1.98-5.04-2.97,3.19-.8,5.4-2.22,8.03-5.16Zm16.26,1.56c-.55-1.75-.42-3.09.41-4.32.81-1.2,1.52-2.49,2.21-3.73.23-.42.47-.84.7-1.26.44,3.29,1.43,5.99,3.06,8.42.6.89,1.28,1.72,2.07,2.49v4.82c-.8.22-1.61.44-2.41.66-.49.14-.82.08-1.21-.23-2.39-1.9-4.02-4.2-4.84-6.84Zm7.89-2.05c-1.95-2.93-2.92-6.09-2.89-9.41,0-.34,0-.73.13-.95.92-1.62,1.87-3.22,2.82-4.82l.37-.62c.03.21.09.41.13.62v15.93c-.19-.25-.38-.49-.56-.76Zm-2.6-15.75c-.68,1.15-1.35,2.29-2,3.46-.33.6-.77,1.03-1.38,1.35-2.23,1.2-4.71,1.88-7.35,2.02-3.58.18-7.1-.91-11.06-3.44-.4-.26-.6-.52-.7-.91-.52-2.1-1.05-4.19-1.58-6.28l-.5-1.95c3.26,2.61,7.18,4.24,12.21,5.1,5.22.89,9.31.73,13.06-.53l-.7,1.19Zm-24.22,6.31l.57,2.1c.46,1.69.92,3.37,1.4,5.05.16.56.09.95-.29,1.4-1.93,2.35-4.21,3.95-6.8,4.73-1.73.53-3.11.38-4.32-.45-1.16-.79-2.41-1.48-3.61-2.15-.44-.25-.88-.49-1.32-.74,3.28-.44,5.97-1.42,8.39-3.05,2.38-1.6,4.3-3.8,5.98-6.89Zm-15.69,12.18l1.82,1.07c1.19.7,2.38,1.4,3.58,2.09.65.37,1.11.87,1.45,1.56,1.3,2.66,1,5.46.51,7.93q-.72,2.71-3.44,3.38c-1.09.27-2.18.55-3.27.83l-1.98.51c-.07.02-.15.04-.22.05,1.92-3.09,2.87-5.82,3.06-8.72.2-3.05-.29-5.91-1.5-8.7Zm14.78-14.31c-2.25,4.34-4.9,7.12-8.36,8.74-2.53,1.19-4.96,1.73-7.42,1.64-.26,0-.63-.04-.85-.16-1.6-.91-3.19-1.84-4.89-2.83l-.54-.31c.67-.12,1.3-.25,1.91-.42,1.06-.3,2.08-.66,3.04-1.09.9-.4,1.87-.91,2.95-1.55.94-.56,1.83-1.16,2.67-1.8.87-.66,1.69-1.39,2.44-2.07.76-.69,1.56-1.43,2.3-2.24.79-.87,1.5-1.74,2.1-2.59.59-.84,1.16-1.77,1.68-2.76.31-.6.58-1.22.84-1.83l1.51,5.71c.22.85.45,1.7.7,2.54.12.39.09.69-.08,1.03Zm-24.25,36.61c1.74-.46,3.48-.93,5.22-1.42.59-.16,1.01-.13,1.45.11,1.34.74,2.77,1.6,4.11,2.69h-11.85c-.48-.25-.96-.49-1.46-.71l2.52-.67Zm8.57-2.32l5.36-1.41c.72-.19,1.45-.38,2.16-.6.35-.11.53-.04.7.09,2.23,1.8,3.72,3.64,4.56,5.63h-7.8c-1.39-1.43-3.04-2.68-4.98-3.71Zm9.91-2.64c.5-.14,1-.28,1.5-.42,1.01-.27,2.05-.56,3.07-.9.18-.06.36-.09.53-.11.71,1.64,1.85,3.05,3.27,4.1-.71,1.23-1.42,2.45-2.14,3.67h-1.55c-.9-2.39-2.42-4.46-4.68-6.34Zm22.1.87s.07.02.11.04c1.84,1.06,3.68,2.13,5.52,3.21-3.14.75-5.76,2.44-8.1,5.24-.13-.46-.25-.93-.37-1.4-.28-1.07-.56-2.18-.92-3.25-.11-.32-.13-.62-.1-.9,1.52-.66,2.84-1.68,3.86-2.95Zm-4.32,11.49c.54,2.1,1.1,4.21,1.65,6.31l.34,1.27c-1.36-.86-2.74-1.53-4.13-2.04v-6.69c.33.11.67.23,1.02.36.23.08.45.17.68.25.2.07.35.19.44.54Zm-.08,8.53c.22.12.46.24.69.36.72.36,1.46.74,1.87,1.27.36.46.5,1.15.65,1.89.06.31.12.61.2.9.46,1.73.91,3.45,1.36,5.18l.21.8c-2.08-1.63-4.44-2.9-7.04-3.79v-7.59c.69.28,1.38.59,2.06.97Zm4.59-1.64l-.66-2.44c-.44-1.63-.88-3.25-1.35-4.87-.12-.44-.06-.73.23-1.1,1.89-2.38,4.05-3.94,6.62-4.77.86-.28,1.81-.36,2.53-.4.39-.02.86.09,1.23.3,1.75.98,3.49,1.99,5.23,3.01l.55.32c-6.51.83-11.23,4.11-14.37,9.96Zm1.03,1.83c1.47-2.6,3.22-5.26,5.97-7.13,2.9-1.98,6.12-2.98,9.58-2.98.43,0,.84.1,1.16.29,1.56.87,3.1,1.77,4.64,2.66l.64.38c-4.06.64-7.88,2.53-11.91,5.85-4,3.31-6.59,6.66-8.08,10.46-.14-.52-.27-1.03-.41-1.55l-.38-1.4c-.42-1.57-.85-3.14-1.3-4.7-.21-.73-.27-1.28.07-1.88Zm24.62-33.54c-.09,0-.16-.03-.24-.04-.3-.04-.59-.14-.82-.32-.15-.11-.29-.25-.4-.41-.1-.14-.18-.28-.24-.44-.02-.05-.02-.12-.03-.17-.04-.14-.08-.28-.08-.43,0-.03.01-.05.01-.07,0-.18.04-.36.1-.53,0-.01.01-.02.02-.03.26-.68.91-1.18,1.68-1.18.43,0,.81.16,1.12.41.15.12.27.26.38.43.08.12.15.24.2.37.01.03,0,.07.02.1.05.16.09.33.09.51,0,.06-.03.12-.03.18-.02.15-.03.29-.08.43-.02.05-.05.09-.08.14-.12.26-.29.49-.51.66-.31.25-.69.4-1.11.4Zm-11.97,3.02h3.03c-1.5,2.62-2.3,5.09-2.5,7.64-.21,2.84.19,5.64,1.29,8.73-.32-.18-.65-.36-.97-.55-.42-.24-.83-.5-1.25-.76-.83-.52-1.69-1.06-2.6-1.48-1.29-.6-2.04-1.66-2.45-3.45-.63-2.78-.34-5.66.87-8.54.15-.35.34-.51.71-.6,1.29-.32,2.58-.65,3.87-.98ZM59.36,10.54c1.04.6,2.01,1.17,3,1.73,2.67,1.5,5.57,2.48,8.06,3.24,3.85,1.18,7.86,1.85,11.91,2.01,2.81.11,5.45-.08,7.98-.51v7.86c-.47.99-1.34,1.44-2.52,1.94-3.83,1.62-7.86,1.33-11.64.78-3.02-.44-5.43-1.1-7.57-2.09-2.4-1.1-4.46-2.37-6.31-3.9-.31-.25-.54-.56-.6-.8-.83-3.03-1.63-6.08-2.45-9.2l-.36-1.35.5.29Zm-30.88,22.91c4.53-1.04,8.97-3.15,13.57-6.45,3.91-2.81,7.43-6.27,10.47-10.3,1.14-1.51,2.56-3.51,3.59-5.8l.75,2.84c.64,2.42,1.28,4.84,1.93,7.25.17.62.15,1.11-.07,1.65-1.76,4.34-4.24,7.83-7.57,10.67-2.47,2.11-4.85,3.73-7.26,4.94-1.81.91-3.89,1.39-6.57,1.53-.25.04-.63-.21-.76-.29-2.74-1.58-5.47-3.17-8.2-4.76l-.99-.58c-.19-.11-.39-.23-.59-.35.59-.11,1.15-.22,1.7-.35Zm-1.71,21.58c1.17-7.2.74-13.5-1.32-19.21l6.92,4.18.49.31c.48.3.98.62,1.53.85,1.24.53,1.84,1.54,2.39,3.01.86,2.28,1.21,4.76,1.06,7.57-.17,3.11-.68,6.06-1.52,8.76-.97,3.14-2.62,6.14-4.88,8.89-.24.29-.6.54-.93.64-1.7.51-3.42.98-5.13,1.44l-.62.17c-1.04.28-2,.53-2.94.76h-1.37c3.19-5.16,5.27-10.86,6.33-17.37Zm40.32,27.89v27.06H8.81v-33.07h58.28v6.02Zm-1.46-10.52c.44-.74.87-1.48,1.31-2.21.04-.06.07-.09.11-.14,1.09.41,2.27.64,3.5.64.47,0,.93-.04,1.38-.11.18.25.32.54.39.9.2,1.04.47,2.07.72,3.07.12.48.25.96.36,1.45,0,.02,0,.04.01.06-.51-.19-1.02-.35-1.51-.5v-3.16h-6.28Zm6.28,34.13v-10.62c2.61,1.01,5.09,2.45,7.4,4.35.29.24.54.61.62.92.84,3.1,1.65,6.2,2.46,9.31l.29,1.09c-3.29-2.17-6.85-3.84-10.76-5.06Zm30.3-13.57c-3.67,2.24-7.04,5.06-10.31,8.62-2.33,2.54-4.37,5.37-6.08,8.42-.14.25-.27.51-.39.78l-.16-.55c-.5-1.74-1-3.49-1.47-5.24-.18-.64-.33-1.29-.49-1.94-.18-.74-.36-1.49-.57-2.22-.18-.64-.16-1.16.08-1.75,1.79-4.33,4.27-7.81,7.61-10.64,2.66-2.25,5-3.82,7.37-4.95,1.91-.91,4.05-1.39,6.36-1.44h.01c.2,0,.47.09.76.26,2.3,1.32,4.59,2.66,6.88,3.99l2.93,1.7c-3.98.59-7.99,2.18-12.54,4.96Zm13.84-31.98c-1.09,3.69-1.73,7.55-1.9,11.47-.19,4.49.35,8.75,1.61,12.68.07.21.14.42.22.63-.79-.45-1.51-.86-2.23-1.27-.71-.41-1.42-.83-2.13-1.25-1.54-.91-3.13-1.85-4.74-2.72-1.01-.54-1.52-1.37-1.99-2.46-1.07-2.52-1.42-5.32-1.13-9.09.21-2.68.7-5.29,1.46-7.76.49-1.57,1.15-3.12,1.99-4.62h10.32c-.53,1.36-1.02,2.81-1.49,4.38Z"/>
</svg>