<?xml version="1.0" encoding="UTF-8"?>
<svg id="_레이어_1" data-name="레이어 1" xmlns="http://www.w3.org/2000/svg" xmlns:xlink="http://www.w3.org/1999/xlink" viewBox="0 0 128 128">
  <defs>
    <style>
      .cls-1 {
        fill: url(#_새_그라디언트_견본_1);
      }
    </style>
    <linearGradient id="_새_그라디언트_견본_1" data-name="새 그라디언트 견본 1" x1="39.89" y1="105.76" x2="97.24" y2="6.42" gradientUnits="userSpaceOnUse">
      <stop offset="0" stop-color="#00d4ff"/>
      <stop offset="1" stop-color="#0f64ce"/>
    </linearGradient>
  </defs>
  <path class="cls-1" d="m114.65,46.08v-29.61H4v68.57h52.21v6.23h-20.26v6.23h46.75v-6.23h-20.26v-6.23h25.71v26.49h35.84V46.08h-9.35Zm-26.49,31.95H11.52V23.48h95.62v22.6h-18.98v31.95Zm12.47-28.83h10.91c.86,0,1.56.7,1.56,1.56s-.7,1.56-1.56,1.56h-10.91c-.86,0-1.56-.7-1.56-1.56s.7-1.56,1.56-1.56Zm7.65,56.88c-.32.91-1.18,1.56-2.19,1.56s-1.87-.65-2.19-1.56c-.09-.24-.14-.5-.14-.78s.06-.53.14-.78c.32-.91,1.18-1.56,2.19-1.56s1.87.65,2.19,1.56c.09.24.14.5.14.78s-.06.53-.14.78Zm11.83-1.56h-10.21c-.36-1.78-1.94-3.12-3.82-3.12s-3.46,1.34-3.82,3.12h-10.21v-48.31h28.05v48.31Zm-42.08-67.17h-1.87v3.64c-.72-1.07-1.54-2.09-2.48-3.03-7.88-7.88-20.82-7.88-28.7,0-7.88,7.88-7.88,20.82,0,28.7,7.52,7.52,19.63,7.85,27.57,1.02,1.05,1.97,3.1,3.33,5.48,3.33,3.43,0,6.23-2.81,6.23-6.23,0-2.77-1.85-5.11-4.36-5.91v-11.54h4.36v-3.74h-4.36v-2.49h4.36v-3.74h-6.23Zm-5.18,24.01h-5.25c.69-2.62,1.11-5.24,1.24-7.87h7.32v5.37c-1.37.44-2.52,1.33-3.3,2.5Zm2.39-18.11c.34.59.64,1.21.92,1.85v6.02h-7.29c-.05-2.62-.39-5.24-1.04-7.87h7.41Zm-1.61-2.37h-6.47c-.65-2.03-1.48-4.06-2.51-6.09,3.58,1.09,6.7,3.24,8.98,6.09Zm-20.28,20.48c-.74-2.62-1.22-5.24-1.39-7.87h3.11c.55.58,1.22,1.05,1.97,1.37l-2.39,6.5h-1.3Zm10.66,0l-2.39-6.5c.75-.32,1.42-.79,1.97-1.37h3.11c-.18,2.62-.65,5.25-1.39,7.87h-1.29Zm.96-10.24c.16-.54.25-1.11.25-1.7,0-3.26-2.64-5.9-5.9-5.9s-5.9,2.64-5.9,5.9c0,.59.09,1.16.25,1.7h-1.8c0-2.62.31-5.24.96-7.87h12.98c.65,2.62.96,5.24.96,7.87h-1.8Zm-5.65-17.12c.98,0,1.93.08,2.87.22,1.24,2.22,2.22,4.44,2.94,6.66h-11.62c.72-2.22,1.7-4.44,2.94-6.66.93-.15,1.89-.22,2.87-.22Zm-5.32.79c-1.03,2.03-1.87,4.06-2.51,6.09h-6.47c2.28-2.85,5.4-5.01,8.98-6.09Zm-10.59,8.47h7.41c-.65,2.62-.99,5.24-1.04,7.87h-8.72c.18-2.85,1.02-5.52,2.35-7.87Zm0,18.11c-1.34-2.35-2.17-5.02-2.35-7.87h8.76c.13,2.62.54,5.24,1.24,7.87h-7.64Zm1.61,2.37h6.73c.67,2.06,1.51,4.11,2.5,6.17-3.69-1.06-6.9-3.25-9.23-6.17Zm14.3,6.88c-.81,0-1.61-.05-2.4-.16-1.12-2.24-2.07-4.48-2.84-6.72h10.47c-.77,2.24-1.72,4.48-2.84,6.72-.78.1-1.59.16-2.4.16Zm5.07-.71c.99-2.06,1.83-4.11,2.5-6.17h4.99c-.06.34-.09.69-.09,1.04,0,.29.05.57.09.85-2.09,1.97-4.64,3.46-7.48,4.28Zm16.75-5.13c0,1.72-1.4,3.12-3.12,3.12-1.56,0-2.85-1.15-3.07-2.66-.02-.15-.05-.3-.05-.46,0-1.46,1.01-2.68,2.36-3.02.24-.06.49-.1.75-.1,1.72,0,3.12,1.4,3.12,3.12Z"/>
</svg>