<?xml version="1.0" encoding="UTF-8"?>
<svg id="_레이어_4" data-name="레이어 4" xmlns="http://www.w3.org/2000/svg" xmlns:xlink="http://www.w3.org/1999/xlink" viewBox="0 0 128 128">
  <defs>
    <style>
      .cls-1 {
        fill: url(#_새_그라디언트_견본_1);
        fill-rule: evenodd;
      }
    </style>
    <linearGradient id="_새_그라디언트_견본_1" data-name="새 그라디언트 견본 1" x1="45.11" y1="118.43" x2="97.15" y2="28.31" gradientUnits="userSpaceOnUse">
      <stop offset="0" stop-color="#00d4ff"/>
      <stop offset="1" stop-color="#0f64ce"/>
    </linearGradient>
  </defs>
  <path class="cls-1" d="m47.56,61.88c-8.97,8.97-8.97,23.69,0,32.66,8.97,8.97,23.69,8.97,32.66,0,8.97-8.97,8.97-23.69,0-32.66-8.97-8.97-23.69-8.97-32.66,0Zm32.61,3.33h-7.36c-.74-2.31-1.69-4.62-2.86-6.94,4.08,1.24,7.62,3.69,10.22,6.94Zm-24.76,11.65c0-2.98.36-5.97,1.09-8.95h14.77c.74,2.98,1.09,5.97,1.09,8.95h-16.96Zm16.87,2.7c-.2,2.98-.74,5.97-1.59,8.95h-13.61c-.84-2.98-1.38-5.97-1.59-8.95h16.78Zm-8.39-22.18c1.11,0,2.2.09,3.26.25,1.41,2.53,2.52,5.05,3.35,7.58h-13.22c.82-2.53,1.93-5.05,3.35-7.58,1.06-.17,2.15-.25,3.26-.25Zm-6.06.89c-1.17,2.31-2.12,4.62-2.86,6.94h-7.36c2.6-3.25,6.14-5.7,10.22-6.94Zm-12.06,9.64h8.43c-.74,2.98-1.13,5.97-1.18,8.95h-9.93c.21-3.24,1.16-6.28,2.68-8.95Zm0,20.61c-1.52-2.67-2.47-5.71-2.68-8.95h9.97c.15,2.98.62,5.97,1.41,8.95h-8.7Zm1.84,2.7h7.66c.76,2.34,1.71,4.68,2.85,7.02-4.2-1.21-7.85-3.7-10.5-7.02Zm16.28,7.83c-.93,0-1.84-.06-2.73-.18-1.27-2.55-2.36-5.1-3.23-7.65h11.92c-.87,2.55-1.96,5.1-3.23,7.65-.89.12-1.8.18-2.73.18Zm5.77-.81c1.13-2.34,2.08-4.68,2.85-7.02h7.66c-2.66,3.32-6.31,5.81-10.5,7.02Zm12.34-9.72h-8.7c.79-2.98,1.26-5.97,1.41-8.95h9.97c-.21,3.24-1.16,6.28-2.68,8.95Zm2.68-11.65h-9.93c-.05-2.98-.44-5.97-1.18-8.95h8.43c1.52,2.67,2.47,5.71,2.68,8.95Zm-41.88,34.68c1.39.88,2.85,1.69,4.34,2.38l1.03-2.2c-1.39-.65-2.76-1.41-4.07-2.24l-1.3,2.05Zm-7.62-6.29c1.13,1.2,2.34,2.34,3.61,3.38l1.55-1.87c-1.19-.98-2.33-2.05-3.39-3.18l-1.77,1.66Zm1.67-52.31l-1.77-1.66c-1.12,1.2-2.18,2.48-3.15,3.82l1.96,1.42c.91-1.25,1.9-2.46,2.96-3.59Zm10.73-8.73c.02,2.04,1.95,3.68,4.31,3.66l24.07-.15c2.36-.01,4.27-1.68,4.25-3.72,0-.23-.03-.45-.04-.67l.41-.87c-.17-.08-.35-.15-.52-.22-1.07-6.92-7.96-12.24-16.28-12.19-8.23.05-14.98,5.35-16.04,12.19-.25.11-.5.21-.74.32l.6,1.26c0,.13-.02.26-.02.39Zm51.96,19.73c-.54,1.16-.85,2.44-.84,3.8.01,2,.71,3.84,1.84,5.31.02.12.04.25.06.37l.21-.03c1.63,1.9,4.05,3.1,6.74,3.08,4.86-.03,8.77-4,8.73-8.86-.04-4.86-4-8.77-8.86-8.73-3.02.02-5.68,1.57-7.24,3.9-.54-1.26-1.13-2.51-1.79-3.71l-2.12,1.18c.75,1.35,1.42,2.76,1.99,4.19l1.28-.51Zm-3.82-9.02c-.98-1.33-2.04-2.61-3.17-3.8l-1.76,1.67c1.06,1.12,2.06,2.32,2.98,3.57l1.96-1.44Zm-51.74-7.91l-1.31-2.05c-1.38.89-2.73,1.87-3.99,2.92l1.55,1.87c1.19-.99,2.45-1.91,3.75-2.74Zm26.88,67.56l.45,2.38c1.61-.31,3.23-.72,4.79-1.23l-.75-2.31c-1.47.48-2.98.87-4.5,1.16Zm16.63-7.85l1.55,1.87c1.27-1.05,2.48-2.19,3.6-3.39l-1.77-1.66c-1.06,1.12-2.19,2.19-3.39,3.18Zm-7.82,4.98l1.04,2.19c1.49-.7,2.94-1.51,4.33-2.39l-1.3-2.05c-1.3.83-2.67,1.58-4.07,2.24Zm5.24-66.86l-1.3,2.05c1.3.82,2.57,1.74,3.77,2.72l1.54-1.87c-1.27-1.05-2.62-2.02-4.01-2.9Zm-33.17,70.9c1.56.51,3.18.92,4.8,1.22l.45-2.38c-1.52-.29-3.03-.67-4.5-1.15l-.75,2.31Zm9.86-.59l-.15,2.42c.81.05,1.62.07,2.44.07s1.68-.03,2.51-.08l-.15-2.42c-1.54.1-3.11.1-4.65,0Zm-41.42-38.68c2.56-.02,4.85-1.13,6.44-2.89l.54.07c.04-.3.1-.6.14-.91,1.02-1.45,1.63-3.22,1.61-5.13,0-1.23-.27-2.4-.73-3.45l1.26.5c.56-1.44,1.23-2.85,1.97-4.21l-2.13-1.17c-.65,1.19-1.23,2.43-1.75,3.68-1.57-2.47-4.33-4.1-7.48-4.08-4.86.03-8.77,4-8.73,8.86.03,4.86,4,8.77,8.86,8.73Zm12.2,19.79c2.36-.01,4.27-1.68,4.25-3.72-.05-5.7-4.03-10.57-9.7-12.74-.02-.51-.05-1.01-.05-1.52h-2.43c0,.26.02.52.03.78-1.37-.31-2.8-.49-4.28-.48-9.01.06-16.26,6.4-16.2,14.16.02,2.04,1.95,3.68,4.31,3.66l22.85-.14-1.8,1c.79,1.44,1.69,2.84,2.66,4.17l1.96-1.43c-.87-1.2-1.68-2.46-2.39-3.74h.8Zm75.19-17.68c-1.48,0-2.91.2-4.27.53,0-.3.03-.6.03-.91v-.16h-2.43v.16c0,.56-.03,1.12-.05,1.68-5.63,2.25-9.52,7.16-9.48,12.86.02,2.04,1.95,3.68,4.31,3.66h.43c-.69,1.22-1.45,2.41-2.27,3.55l1.96,1.43c.97-1.33,1.86-2.74,2.66-4.18l-1.46-.8,22.75-.14c2.36-.01,4.27-1.68,4.25-3.72-.06-7.77-7.42-14.02-16.43-13.96ZM63.75,27.94c4.86-.03,8.77-4,8.73-8.86-.04-4.86-4-8.77-8.86-8.73-4.86.03-8.77,4-8.73,8.86.03,4.86,4,8.77,8.86,8.73Z"/>
</svg>