<?xml version="1.0" encoding="UTF-8"?><svg id="_레이어_2" xmlns="http://www.w3.org/2000/svg" viewBox="0 0 128 128"><defs><style>.cls-1{fill:#fff;}</style></defs><path class="cls-1" d="m84.86,65.05h.07c.52,4.14,4.06,7.36,8.34,7.36,4.64,0,8.42-3.78,8.42-8.42s-3.78-8.42-8.42-8.42c-4.28,0-7.82,3.22-8.34,7.36h-9.54v-31.56h9.54c.52,4.14,4.06,7.36,8.34,7.36,4.64,0,8.42-3.78,8.42-8.42s-3.78-8.42-8.42-8.42c-4.28,0-7.82,3.22-8.34,7.36h-11.65v33.67h-10.05c-.25-4.57-2.07-8.72-4.95-11.92l4.51-4.51c.41-.41.41-1.08,0-1.49s-1.08-.41-1.49,0l-4.51,4.51c-3.2-2.88-7.35-4.7-11.92-4.95v-6.37c0-.58-.47-1.05-1.05-1.05s-1.05.47-1.05,1.05v6.37c-4.57.25-8.72,2.07-11.92,4.95l-4.51-4.51c-.41-.41-1.08-.41-1.49,0s-.41,1.08,0,1.49l4.51,4.51c-2.88,3.2-4.7,7.35-4.95,11.92h-6.37c-.58,0-1.05.47-1.05,1.05s.47,1.05,1.05,1.05h6.37c.25,4.57,2.07,8.72,4.95,11.92l-4.51,4.51c-.41.41-.41,1.08,0,1.49.21.21.47.31.74.31s.54-.1.74-.31l4.51-4.51c3.2,2.88,7.35,4.7,11.92,4.95v6.37c0,.58.47,1.05,1.05,1.05s1.05-.47,1.05-1.05v-6.37c4.57-.25,8.72-2.07,11.92-4.95l4.51,4.51c.21.21.47.31.74.31s.54-.1.74-.31c.41-.41.41-1.08,0-1.49l-4.51-4.51c2.88-3.2,4.7-7.35,4.95-11.92h10.05v33.67h11.65c.52,4.14,4.06,7.36,8.34,7.36,4.64,0,8.42-3.78,8.42-8.42s-3.78-8.42-8.42-8.42c-4.28,0-7.82,3.22-8.34,7.36h-9.54v-31.56h9.47Zm8.42-7.36c3.48,0,6.31,2.83,6.31,6.31s-2.83,6.31-6.31,6.31-6.31-2.83-6.31-6.31,2.83-6.31,6.31-6.31Zm0-33.67c3.48,0,6.31,2.83,6.31,6.31s-2.83,6.31-6.31,6.31-6.31-2.83-6.31-6.31,2.83-6.31,6.31-6.31Zm-48.39,22.67c3.99.24,7.62,1.83,10.44,4.33l-5.21,5.21c-1.46-1.18-3.26-1.97-5.23-2.17v-7.37Zm-2.1,0v7.37c-1.97.21-3.77.99-5.23,2.17l-5.21-5.21c2.82-2.5,6.44-4.09,10.44-4.33Zm-11.92,5.82l5.21,5.21c-1.18,1.46-1.97,3.26-2.17,5.23h-7.37c.24-3.99,1.83-7.62,4.33-10.44Zm0,22.98c-2.5-2.82-4.09-6.44-4.33-10.44h7.37c.21,1.97.99,3.77,2.17,5.23l-5.21,5.21Zm11.92,5.82c-3.99-.24-7.62-1.83-10.44-4.33l5.21-5.21c1.46,1.18,3.26,1.97,5.23,2.17v7.37Zm1.05-9.42c-.36,0-.71-.03-1.05-.08-1.39-.19-2.66-.73-3.73-1.55-.56-.43-1.06-.93-1.49-1.49-.81-1.06-1.36-2.34-1.55-3.73-.05-.35-.08-.69-.08-1.05s.03-.71.08-1.05c.19-1.39.73-2.66,1.55-3.73.43-.56.93-1.06,1.49-1.49,1.06-.81,2.34-1.36,3.73-1.55.35-.05.69-.08,1.05-.08s.71.03,1.05.08c1.39.19,2.66.73,3.73,1.55.56.43,1.06.93,1.49,1.49.81,1.06,1.36,2.34,1.55,3.73.05.35.08.69.08,1.05s-.03.71-.08,1.05c-.19,1.39-.73,2.66-1.55,3.73-.43.56-.93,1.06-1.49,1.49-1.06.81-2.34,1.36-3.73,1.55-.35.05-.69.08-1.05.08Zm1.05,9.42v-7.37c1.97-.21,3.77-.99,5.23-2.17l5.21,5.21c-2.82,2.5-6.44,4.09-10.44,4.33Zm11.92-5.82l-5.21-5.21c1.18-1.46,1.97-3.26,2.17-5.23h7.37c-.24,3.99-1.83,7.62-4.33,10.44Zm-3.04-12.54c-.21-1.97-.99-3.77-2.17-5.23l5.21-5.21c2.5,2.82,4.09,6.44,4.33,10.44h-7.37Zm39.51,28.41c3.48,0,6.31,2.83,6.31,6.31s-2.83,6.31-6.31,6.31-6.31-2.83-6.31-6.31,2.83-6.31,6.31-6.31Z"/></svg>