<?xml version="1.0" encoding="UTF-8"?><svg id="_레이어_1" xmlns="http://www.w3.org/2000/svg" viewBox="0 0 128 128"><defs><style>.cls-1{fill:#fff;}</style></defs><path class="cls-1" d="m107.88,57.88c-3.03,0-5.54,2.21-6.03,5.1h-6.24c-.25-7.76-3.29-14.82-8.17-20.2l4.49-4.34c1.07.79,2.35,1.2,3.63,1.2,1.53,0,3.07-.57,4.25-1.72,2.43-2.35,2.49-6.23.15-8.66-2.35-2.43-6.23-2.49-8.66-.15-2.18,2.1-2.44,5.43-.78,7.85l-4.51,4.35c-5.47-5.31-12.85-8.66-20.99-8.92v-6.24c2.89-.49,5.1-3,5.1-6.03,0-3.38-2.75-6.12-6.12-6.12s-6.12,2.75-6.12,6.12c0,3.03,2.21,5.54,5.1,6.03v6.24c-8.01.26-15.28,3.5-20.72,8.66l-4.45-4.41c1.68-2.4,1.46-5.73-.69-7.86-2.4-2.37-6.28-2.35-8.66.05-2.37,2.4-2.35,6.28.05,8.66h0c1.19,1.18,2.75,1.77,4.31,1.77,1.25,0,2.5-.4,3.56-1.16l4.45,4.41c-5.03,5.41-8.18,12.58-8.43,20.48h-6.24c-.49-2.89-3-5.1-6.03-5.1-3.38,0-6.12,2.75-6.12,6.12s2.75,6.12,6.12,6.12c3.03,0,5.54-2.21,6.03-5.1h6.24c.25,7.76,3.29,14.82,8.17,20.2l-4.5,4.35c-2.36-1.74-5.7-1.59-7.87.51-2.43,2.35-2.49,6.23-.15,8.66,1.2,1.24,2.8,1.87,4.4,1.87s3.07-.57,4.25-1.72c2.18-2.1,2.44-5.43.78-7.85l4.51-4.35c5.47,5.31,12.85,8.66,20.99,8.92v6.24c-2.89.49-5.1,3-5.1,6.03,0,3.38,2.75,6.12,6.12,6.12s6.12-2.75,6.12-6.12c0-3.03-2.21-5.54-5.1-6.03v-6.24c8.01-.26,15.28-3.5,20.72-8.66l4.45,4.41c-1.68,2.4-1.46,5.73.69,7.86,1.19,1.18,2.75,1.77,4.31,1.77s3.16-.6,4.35-1.81c2.37-2.4,2.35-6.28-.05-8.66-2.15-2.13-5.49-2.32-7.87-.61l-4.45-4.41c5.03-5.41,8.18-12.58,8.43-20.48h6.24c.49,2.89,3,5.1,6.03,5.1,3.38,0,6.12-2.75,6.12-6.12s-2.75-6.12-6.12-6.12Zm-15.16-27.3c.79-.76,1.81-1.14,2.84-1.14s2.14.42,2.94,1.24c1.56,1.62,1.52,4.21-.1,5.77-1.62,1.56-4.21,1.52-5.77-.1-1.56-1.62-1.52-4.21.1-5.77Zm-62.78,5.46c-1.6-1.58-1.61-4.17-.03-5.77,1.58-1.6,4.17-1.61,5.77-.03,1.6,1.58,1.61,4.17.03,5.77-1.58,1.6-4.17,1.61-5.77.03Zm5.34,61.39c-1.62,1.56-4.21,1.52-5.77-.1-1.56-1.62-1.52-4.21.1-5.77.79-.76,1.81-1.14,2.84-1.14s2.14.42,2.94,1.24c1.56,1.62,1.52,4.21-.1,5.77Zm62.78-5.46c1.6,1.58,1.61,4.17.03,5.77-1.58,1.6-4.17,1.61-5.77.03-1.6-1.58-1.61-4.17-.03-5.77.8-.81,1.85-1.21,2.9-1.21s2.08.39,2.87,1.18Zm-4.47-27.96c0,.34-.01.68-.03,1.02-.25,7.33-3.18,14-7.84,19.04-.46.5-.94.98-1.44,1.45-5.07,4.79-11.82,7.8-19.27,8.05-.34.01-.68.03-1.02.03s-.68-.01-1.02-.03c-7.57-.26-14.42-3.37-19.52-8.3-.49-.47-.97-.96-1.42-1.46-4.52-5.01-7.35-11.58-7.6-18.79-.01-.34-.03-.68-.03-1.02s.01-.68.03-1.02c.25-7.33,3.18-14,7.84-19.04.46-.5.94-.98,1.44-1.45,5.07-4.79,11.82-7.8,19.27-8.05.34-.01.68-.03,1.02-.03s.68.01,1.02.03c7.57.26,14.42,3.37,19.52,8.3.49.47.97.96,1.42,1.46,4.52,5.01,7.35,11.58,7.6,18.79.01.34.03.68.03,1.02ZM59.92,20.12c0-2.25,1.83-4.08,4.08-4.08s4.08,1.83,4.08,4.08-1.83,4.08-4.08,4.08-4.08-1.83-4.08-4.08Zm-39.8,47.96c-2.25,0-4.08-1.83-4.08-4.08s1.83-4.08,4.08-4.08,4.08,1.83,4.08,4.08-1.83,4.08-4.08,4.08Zm47.96,39.8c0,2.25-1.83,4.08-4.08,4.08s-4.08-1.83-4.08-4.08,1.83-4.08,4.08-4.08,4.08,1.83,4.08,4.08Zm39.8-39.8c-2.25,0-4.08-1.83-4.08-4.08s1.83-4.08,4.08-4.08,4.08,1.83,4.08,4.08-1.83,4.08-4.08,4.08Z"/><path class="cls-1" d="m65.02,42.57c0-.56-.46-1.02-1.02-1.02-12.38,0-22.45,9.61-22.45,21.43,0,.56.46,1.02,1.02,1.02s1.02-.46,1.02-1.02c0-10.69,9.16-19.39,20.41-19.39.56,0,1.02-.46,1.02-1.02Z"/><path class="cls-1" d="m84.41,65.02c0,10.69-9.16,19.39-20.41,19.39-.56,0-1.02.46-1.02,1.02s.46,1.02,1.02,1.02c12.38,0,22.45-9.61,22.45-21.43,0-.56-.46-1.02-1.02-1.02s-1.02.46-1.02,1.02Z"/><path class="cls-1" d="m57.88,53.8c0,3.38,2.75,6.12,6.12,6.12s6.12-2.75,6.12-6.12-2.75-6.12-6.12-6.12-6.12,2.75-6.12,6.12Zm10.2,0c0,2.25-1.83,4.08-4.08,4.08s-4.08-1.83-4.08-4.08,1.83-4.08,4.08-4.08,4.08,1.83,4.08,4.08Z"/><path class="cls-1" d="m75.22,75.22v-4.08c0-5.06-4.12-9.18-9.18-9.18h-4.08c-5.06,0-9.18,4.12-9.18,9.18v4.08c0,.56.46,1.02,1.02,1.02h20.41c.56,0,1.02-.46,1.02-1.02Zm-2.04-1.02h-18.37v-3.06c0-3.94,3.2-7.14,7.14-7.14h4.08c3.94,0,7.14,3.2,7.14,7.14v3.06Z"/></svg>