<?xml version="1.0" encoding="UTF-8"?><svg id="_레이어_9" xmlns="http://www.w3.org/2000/svg" xmlns:xlink="http://www.w3.org/1999/xlink" viewBox="0 0 128 128"><defs><style>.cls-1{fill:url(#_새_그라디언트_견본_1);}</style><linearGradient id="_새_그라디언트_견본_1" x1="26.45" y1="4.59" x2="86.57" y2="108.73" gradientUnits="userSpaceOnUse"><stop offset="0" stop-color="#00d4ff"/><stop offset="1" stop-color="#0f64ce"/></linearGradient></defs><path class="cls-1" d="m36.07,36.4H13.59v2.03h22.48v-2.03Zm0,6.49H13.59v2.03h22.48v-2.03Zm0,13.03H13.59v2.03h22.48v-2.03Zm0,6.49H13.59v2.03h22.48v-2.03Zm15.47-11.49c5.82,0,10.56-4.74,10.56-10.56s-4.74-10.56-10.56-10.56-10.56,4.74-10.56,10.56,4.74,10.56,10.56,10.56Zm0-19.08c4.7,0,8.53,3.82,8.53,8.53s-3.82,8.53-8.53,8.53-8.52-3.82-8.52-8.53,3.82-8.53,8.52-8.53Zm5.45,6.04l-1.4-1.47-6.01,5.73-2.04-2.22-1.5,1.38,3.44,3.74,7.51-7.16Zm5.82-23.63H11.85c-4.33,0-7.85,3.52-7.85,7.85v91.62c0,4.01,3.27,7.28,7.28,7.28h52.1c4.02,0,7.28-3.27,7.28-7.28V22.09c0-4.33-3.52-7.85-7.85-7.85Zm5.82,99.47c0,2.89-2.35,5.25-5.25,5.25H11.28c-2.89,0-5.25-2.35-5.25-5.25v-1.97h62.6v1.97Zm0-4.01H6.03V24.9h62.6s0,84.8,0,84.8Zm0-86.84H6.03s0-.77,0-.77c0-3.21,2.61-5.82,5.82-5.82h50.96c3.21,0,5.82,2.61,5.82,5.82v.77Zm53.1-3.06c-2.63-5.45-7.23-9.54-12.94-11.53-11.79-4.11-24.73,2.15-28.84,13.94-1.58,4.55-1.69,9.37-.3,13.96l-6.25,12.58,14.07-1.19c1.94,1.5,4.1,2.68,6.43,3.49,2.44.85,4.96,1.27,7.47,1.27,3.37,0,6.72-.76,9.84-2.27,5.45-2.63,9.54-7.23,11.53-12.94,1.99-5.71,1.64-11.86-1-17.3Zm-.92,16.63c-3.74,10.73-15.51,16.43-26.25,12.69-2.24-.78-4.3-1.92-6.14-3.41l-.32-.26-11.27.95,5.01-10.08-.13-.39c-1.38-4.29-1.32-8.81.16-13.07,3.74-10.73,15.51-16.42,26.25-12.69,5.2,1.81,9.38,5.54,11.78,10.49,2.4,4.96,2.72,10.55.91,15.75Zm-9.44-13.4h-18.49c-.56,0-1.02.45-1.02,1.02s.45,1.02,1.02,1.02h18.49c.56,0,1.02-.45,1.02-1.02s-.45-1.02-1.02-1.02Zm0,6.31h-18.49c-.56,0-1.02.45-1.02,1.02s.45,1.02,1.02,1.02h18.49c.56,0,1.02-.45,1.02-1.02s-.45-1.02-1.02-1.02Zm-7.82,6.31h-10.67c-.56,0-1.02.45-1.02,1.02s.45,1.02,1.02,1.02h10.67c.56,0,1.02-.45,1.02-1.02s-.45-1.02-1.02-1.02ZM9.59,100.38l3.7-.84c.38.46.8.88,1.27,1.26l-.88,3.76,3.99,1.56,2.02-3.21c.6.05,1.19.05,1.79,0l2.04,3.28,3.92-1.72-.84-3.7c.46-.38.88-.81,1.26-1.27l3.76.88,1.56-3.99-3.21-2.02c.03-.29.04-.58.04-.88s-.01-.61-.04-.91l3.28-2.04-1.72-3.92-3.7.84c-.38-.46-.8-.88-1.27-1.26l.88-3.76-3.99-1.56-2.02,3.21c-.6-.05-1.19-.05-1.79,0l-2.04-3.28-3.92,1.72.84,3.7c-.46.38-.88.81-1.26,1.27l-3.76-.88-1.56,3.99,3.21,2.02c-.03.29-.04.58-.04.87s.01.61.04.91l-3.28,2.04,1.72,3.92Zm3.21-5.19l-.07-.5c-.06-.39-.09-.79-.09-1.19s.03-.77.08-1.15l.07-.49-2.97-1.87.62-1.58,3.44.8.3-.4c.47-.63,1.02-1.19,1.65-1.66l.4-.3-.78-3.42,1.56-.68,1.86,3,.5-.07c.78-.12,1.56-.12,2.34,0l.49.07,1.87-2.97,1.58.62-.8,3.44.4.3c.63.47,1.19,1.02,1.66,1.65l.3.4,3.42-.78.68,1.56-3,1.86.07.5c.06.39.09.79.09,1.19s-.03.77-.08,1.15l-.07.49,2.97,1.87-.62,1.58-3.44-.8-.3.4c-.47.63-1.02,1.19-1.65,1.66l-.4.3.78,3.42-1.56.68-1.86-3-.5.07c-.78.12-1.57.12-2.34,0l-.49-.07-1.87,2.97-1.58-.62.8-3.44-.4-.3c-.63-.47-1.19-1.02-1.66-1.65l-.3-.4-3.42.78-.68-1.56,3-1.86Zm7.76,3.82c3.04,0,5.5-2.47,5.5-5.51s-2.47-5.5-5.5-5.5-5.51,2.47-5.51,5.5,2.47,5.51,5.51,5.51Zm0-9.48c2.19,0,3.98,1.79,3.98,3.98s-1.79,3.98-3.98,3.98-3.98-1.79-3.98-3.98,1.79-3.98,3.98-3.98Zm17.16-11.55l-5.21.46-.33,5.77,4.98,1.25c.09.39.2.78.32,1.15.13.39.28.78.44,1.16l-3.36,4.01,3.85,4.31,4.4-2.64c.69.43,1.42.8,2.18,1.1l.46,5.21,5.77.33,1.25-4.98c.39-.09.78-.2,1.15-.32.39-.13.78-.28,1.16-.44l4.01,3.36,4.31-3.85-2.64-4.41c.43-.69.8-1.42,1.1-2.18l5.21-.46.33-5.77-4.98-1.25c-.09-.39-.2-.77-.32-1.15-.13-.4-.28-.78-.44-1.16l3.36-4.01-3.85-4.31-4.41,2.64c-.69-.43-1.42-.8-2.18-1.1l-.46-5.21-5.77-.33-1.25,4.98c-.39.09-.78.2-1.15.32-.4.13-.78.28-1.16.44l-4.01-3.36-4.31,3.85,2.64,4.4c-.43.69-.8,1.42-1.1,2.18Zm1.07-6.19l1.74-1.56,3.67,3.08.6-.3c.48-.24.98-.45,1.5-.62.5-.16,1.01-.29,1.52-.38l.65-.11,1.15-4.62,2.33.13.42,4.77.64.21c1.01.34,1.97.82,2.84,1.43l.54.38,4.08-2.45,1.56,1.74-3.08,3.67.3.6c.24.48.45.98.62,1.5.16.5.29,1.01.38,1.53l.11.65,4.62,1.15-.13,2.33-4.77.42-.21.63c-.34,1.01-.82,1.97-1.43,2.84l-.38.54,2.45,4.08-1.74,1.56-3.67-3.08-.6.3c-.48.24-.98.45-1.5.62-.5.16-1.01.29-1.52.38l-.65.11-1.15,4.62-2.33-.13-.42-4.77-.64-.21c-1.01-.34-1.97-.82-2.84-1.43l-.54-.38-4.08,2.45-1.56-1.74,3.08-3.67-.3-.6c-.24-.48-.45-.98-.62-1.5-.16-.5-.29-1.01-.38-1.52l-.11-.65-4.62-1.15.13-2.33,4.77-.42.21-.64c.33-1.01.82-1.97,1.43-2.84l.38-.54-2.45-4.08Zm7.49,17.48c1.06.54,2.2.81,3.36.81.78,0,1.57-.12,2.33-.37,3.9-1.28,6.04-5.5,4.76-9.4-.62-1.89-1.94-3.43-3.71-4.33-1.78-.9-3.79-1.05-5.69-.43s-3.43,1.94-4.33,3.71c-.9,1.77-1.05,3.79-.43,5.69.62,1.89,1.94,3.43,3.71,4.33Zm-1.47-9.09c.65-1.29,1.77-2.25,3.15-2.7,1.37-.45,2.84-.34,4.13.31,1.29.65,2.25,1.77,2.7,3.15.93,2.84-.62,5.9-3.46,6.83-1.37.45-2.84.34-4.13-.31-1.29-.65-2.25-1.77-2.7-3.15-.45-1.37-.34-2.84.31-4.13Z"/></svg>