<?xml version="1.0" encoding="UTF-8"?><svg id="_레이어_8" xmlns="http://www.w3.org/2000/svg" viewBox="0 0 128 128"><defs><style>.cls-1{fill:#fff;}</style></defs><path class="cls-1" d="m36.64,70.55c2.98-.35,5.78-1.29,8.33-2.8l6.92,3.53c.14.07.3.11.46.11.23,0,.46-.08.64-.24.31-.26.43-.68.31-1.06l-2.37-7.61c3.43-4.41,4.96-9.87,4.31-15.43-.65-5.62-3.46-10.65-7.9-14.17-4.44-3.51-9.98-5.09-15.6-4.43-5.62.65-10.65,3.46-14.17,7.9-3.51,4.44-5.09,9.98-4.43,15.6,1.35,11.61,11.89,19.96,23.5,18.6Zm-21.51-18.83c-1.22-10.51,6.33-20.06,16.85-21.28.75-.09,1.51-.13,2.25-.13,4.3,0,8.45,1.44,11.87,4.15,4.02,3.18,6.56,7.74,7.15,12.83.6,5.2-.89,10.3-4.21,14.36-.21.26-.28.61-.18.93l1.82,5.84-5.3-2.71c-.31-.16-.69-.14-.99.04-2.43,1.53-5.12,2.47-7.99,2.81-5.09.59-10.11-.83-14.13-4.02-4.02-3.18-6.56-7.74-7.15-12.83Zm14.44,34.9c0,5.19,4.22,9.4,9.4,9.4s9.4-4.22,9.4-9.4-4.22-9.4-9.4-9.4-9.4,4.22-9.4,9.4Zm16.81,0c0,4.08-3.32,7.4-7.4,7.4s-7.4-3.32-7.4-7.4,3.32-7.4,7.4-7.4,7.4,3.32,7.4,7.4Zm1.89,6.88c-.41-.26-.96-.18-1.28.19-2.02,2.3-4.95,3.62-8.01,3.62s-5.99-1.32-8.01-3.62c-.32-.37-.87-.45-1.28-.19-5.15,3.23-8.22,8.78-8.22,14.85,0,1.57.21,3.12.62,4.61.12.43.51.73.96.73h31.86c.45,0,.84-.3.96-.73.41-1.49.62-3.05.62-4.61,0-6.07-3.07-11.62-8.22-14.85Zm5.86,18.2h-30.3c-.24-1.09-.37-2.22-.37-3.35,0-5.1,2.45-9.79,6.61-12.7,2.36,2.34,5.56,3.66,8.91,3.66s6.55-1.32,8.91-3.66c4.15,2.91,6.61,7.6,6.61,12.7,0,1.13-.12,2.25-.37,3.35Zm26.74-15.68c5.19,0,9.4-4.22,9.4-9.4s-4.22-9.4-9.4-9.4-9.4,4.22-9.4,9.4,4.22,9.4,9.4,9.4Zm0-16.81c4.08,0,7.4,3.32,7.4,7.4s-3.32,7.4-7.4,7.4-7.4-3.32-7.4-7.4,3.32-7.4,7.4-7.4Zm9.29,14.29c-.41-.26-.96-.18-1.28.19-2.03,2.3-4.95,3.62-8.01,3.62s-5.99-1.32-8.01-3.62c-.32-.37-.87-.45-1.28-.19-5.15,3.23-8.22,8.78-8.22,14.85,0,1.57.21,3.12.62,4.61.12.43.51.73.96.73h31.86c.45,0,.84-.3.96-.73.41-1.49.62-3.05.62-4.61,0-6.07-3.07-11.62-8.22-14.85Zm5.86,18.2h-30.3c-.24-1.09-.37-2.22-.37-3.35,0-5.1,2.45-9.79,6.61-12.7,2.36,2.34,5.56,3.66,8.91,3.66s6.55-1.32,8.91-3.66c4.15,2.91,6.61,7.6,6.61,12.7,0,1.13-.12,2.25-.37,3.35Zm-2.99-97.22h0c-14.22-1.66-27.15,8.57-28.8,22.8-.8,6.86,1.1,13.59,5.36,19.01l-2.97,9.53c-.12.38,0,.8.31,1.06.18.16.41.24.64.24.16,0,.31-.04.46-.11l8.67-4.43c3.16,1.9,6.63,3.07,10.33,3.5,6.89.8,13.68-1.13,19.12-5.43,5.44-4.31,8.88-10.47,9.68-17.37,1.65-14.23-8.57-27.15-22.8-28.8Zm20.81,28.57c-.74,6.36-3.91,12.05-8.93,16.03-5.02,3.97-11.29,5.75-17.65,5.02-3.59-.42-6.94-1.6-9.98-3.51-.16-.1-.35-.15-.53-.15-.16,0-.31.04-.46.11l-7.06,3.61,2.42-7.77c.1-.32.03-.67-.18-.93-4.15-5.07-6.01-11.44-5.26-17.94,1.53-13.13,13.45-22.57,26.58-21.05,13.13,1.53,22.57,13.45,21.05,26.58Zm-32.39-6.18c-2.12,0-3.84,1.72-3.84,3.84s1.72,3.84,3.84,3.84,3.84-1.72,3.84-3.84-1.72-3.84-3.84-3.84Zm0,5.68c-1.01,0-1.84-.82-1.84-1.84s.82-1.84,1.84-1.84,1.84.82,1.84,1.84-.82,1.84-1.84,1.84Zm9.43-5.68c-2.12,0-3.84,1.72-3.84,3.84s1.72,3.84,3.84,3.84,3.84-1.72,3.84-3.84-1.72-3.84-3.84-3.84Zm0,5.68c-1.01,0-1.84-.82-1.84-1.84s.82-1.84,1.84-1.84,1.84.82,1.84,1.84-.82,1.84-1.84,1.84Zm9.7-5.68c-2.12,0-3.84,1.72-3.84,3.84s1.72,3.84,3.84,3.84,3.84-1.72,3.84-3.84-1.72-3.84-3.84-3.84Zm0,5.68c-1.01,0-1.84-.82-1.84-1.84s.82-1.84,1.84-1.84,1.84.82,1.84,1.84-.82,1.84-1.84,1.84Zm-64.57,15.49h-4.02v3.96h4.02v-3.96Zm.49-14.63v-5.41h-5v5.46s.44,12.52.44,12.52h4.14l.42-12.58Z"/></svg>