<?xml version="1.0" encoding="UTF-8"?><svg id="_레이어_3" xmlns="http://www.w3.org/2000/svg" viewBox="0 0 128 128"><defs><style>.cls-1{fill:#fff;}</style></defs><path class="cls-1" d="m46.63,31.68c-.17-.4-.56-.64-.97-.64h0s-6.28,0-6.28,0v2.09h5.58l1.31,3.14h-.07l3.82,9.42h.87s0,0,0,0c0,0,0,0,0,0h13.42l3.82-9.42h-19.6l-1.91-4.59Zm18.41,6.68l-2.12,5.23h-11.32l-2.18-5.23h15.62Z"/><path class="cls-1" d="m103.22,69.73c0-.09-.02-.19-.04-.28-.72-2.42-2.96-4.04-5.26-3.88-.97.07-1.77.44-2.38.89-.75-2.18-2.57-3.81-4.76-4.02-1.54-.15-2.79.45-3.68,1.1-.62-1.49-1.86-2.66-3.44-3.15-1.54-.48-3.19-.22-4.52.6,0-1.28,0-2.54,0-3.79h4.58c2.68,0,4.86-2.18,4.86-4.86v-22.71c0-2.68-2.18-4.86-4.86-4.86H29.6c-2.68,0-4.86,2.18-4.86,4.86v22.71c0,2.68,2.18,4.86,4.86,4.86h39.07c0,1.08,0,2.02,0,3.12v18.2c-.78-.8-1.61-1.55-2.48-2.26-2.63-2.12-4.52-3.65-7.05-3.36-2.17.25-4.67,1.8-5.09,3.98-.42,2.11,1.11,3.48,4.44,6.5,1.4,1.26,3.13,2.83,5.27,4.92.88.86,1.4,1.39,2.08,2.08.84.85,1.92,1.95,4.19,4.19,4.61,4.55,5.67,5.46,7.57,6.46,1.17.62,3.92,2.07,7.77,2.21.21,0,.42.01.63.01,2.8,0,4.98-.7,6.08-1.13,6.36-2.54,9.12-8.6,10.01-11.08.9-2.51.97-6.2,1.11-12.89.06-2.79.06-5.62,0-8.41Zm-73.62-14.63c-1.53,0-2.77-1.24-2.77-2.77v-22.71c0-1.53,1.24-2.77,2.77-2.77h54.11c1.53,0,2.77,1.24,2.77,2.77v22.71c0,1.53-1.24,2.77-2.77,2.77h-4.56v-.31c.05-2.7.09-4.66-1.23-6.56-1.45-2.1-2.98-2.54-4-2.54h0c-1.02,0-2.55.44-4,2.54-.81,1.18-1.11,2.35-1.21,6.87H29.6Zm71.52,23c-.14,6.96-.23,10.12-.99,12.22-.62,1.73-3.1,7.56-8.82,9.85-1.02.41-3.12,1.07-5.85.97-3.38-.13-5.83-1.42-6.88-1.97-1.66-.88-2.65-1.73-7.08-6.1-2.26-2.23-3.33-3.32-4.17-4.17-.69-.7-1.22-1.24-2.11-2.11-2.17-2.11-3.92-3.7-5.33-4.97-2.96-2.67-3.97-3.64-3.79-4.54.23-1.16,1.91-2.15,3.28-2.3.12-.01.24-.02.36-.02,1.43,0,2.74,1,5.14,2.94,1.48,1.19,2.84,2.55,4.03,4.03.28.34.74.48,1.16.33.42-.15.7-.54.7-.99v-20.96c-.01-1.1-.02-2.04-.01-3.11,0-.33,0-.67.01-1.03,0-.38.01-.73.02-1.06.09-4.13.35-4.97.84-5.68.93-1.35,1.76-1.64,2.28-1.64h0c.52,0,1.34.29,2.28,1.64.93,1.35.91,2.77.87,5.34v.33s0,.01,0,.02c-.01.68-.01,1.39-.02,2.09-.02,2.06-.02,4.16.02,6.29v7.31c0,.58.47,1.05,1.05,1.05s1.05-.47,1.05-1.05v-7c.86-1.26,2.44-1.86,3.88-1.42,1.38.43,2.35,1.72,2.4,3.21v7.3c0,.58.47,1.05,1.05,1.05s1.05-.47,1.05-1.05v-6.94c.44-.48,1.6-1.57,3.04-1.43,1.8.17,3.26,2.05,3.24,4.18v6.29c0,.58.47,1.05,1.05,1.05s1.05-.47,1.05-1.05v-5.97c.29-.41,1.03-1.28,2.17-1.36,1.34-.09,2.59.85,3.07,2.27.05,2.72.05,5.47,0,8.18Z"/><circle class="cls-1" cx="61.89" cy="49.35" r="1.57"/><circle class="cls-1" cx="52.47" cy="49.35" r="1.57"/></svg>