<?xml version="1.0" encoding="UTF-8"?><svg id="_레이어_7" xmlns="http://www.w3.org/2000/svg" viewBox="0 0 128 128"><defs><style>.cls-1{fill:#fff;}</style></defs><path class="cls-1" d="m124.99,88.34V23.09c0-5.18-4.21-9.39-9.39-9.39H12.39c-5.18,0-9.39,4.21-9.39,9.39v67.87c0,5.18,4.21,9.39,9.39,9.39h43.75l-5.36,11.94h-10.77c-.55,0-1,.45-1,1s.45,1,1,1h47.96c.55,0,1-.45,1-1s-.45-1-1-1h-10.77l-5.36-11.94h43.75c5.18,0,9.39-4.21,9.39-9.39v-2.55s0-.02,0-.03,0-.02,0-.03ZM12.39,15.7h103.21c3.56,0,6.55,2.54,7.24,5.9H5.15c.69-3.36,3.68-5.9,7.24-5.9Zm62.62,96.6h-22.04l5.36-11.94h11.33l5.36,11.94Zm47.98-21.33c0,4.08-3.32,7.39-7.39,7.39h-45.31s0,0,0,0H12.39c-4.08,0-7.39-3.32-7.39-7.39v-1.59h117.99v1.59Zm0-3.59H5V23.6h117.99v63.78Zm-58.99,10c1.88,0,3.41-1.53,3.41-3.41s-1.53-3.41-3.41-3.41-3.41,1.53-3.41,3.41,1.53,3.41,3.41,3.41Zm0-4.81c.78,0,1.41.63,1.41,1.41s-.63,1.41-1.41,1.41-1.41-.63-1.41-1.41.63-1.41,1.41-1.41Zm13.71-20.84h7.15v-33.3h-7.15v33.3Zm2-31.3h3.15v29.3h-3.15v-29.3Zm-14.08,31.3h7.15v-27.55h-7.15v27.55Zm2-25.55h3.15v23.55h-3.15v-23.55Zm-6.51,25.55v-22.01h-7.15v22.01h7.15Zm-5.15-20.01h3.15v18.01h-3.15v-18.01Zm-5.69,2.36h-7.15v17.65h7.15v-17.65Zm-2,15.65h-3.15v-13.65h3.15v13.65Zm-2.51-21.85l25.43-11.63,1.99,4.91,6.12-9.77-10.73-1.63,1.87,4.64-25.51,11.67.83,1.82Zm30.23-14.97l-2.42,3.87-1.83-4.52,4.25.65Zm13.42,48.69c0-3.53-2.88-6.41-6.41-6.41h-38.03c-3.53,0-6.41,2.88-6.41,6.41v1h50.85v-1Zm-48.74-1c.45-1.95,2.21-3.41,4.29-3.41h38.03c2.09,0,3.84,1.46,4.29,3.41h-46.62Z"/></svg>