<?xml version="1.0" encoding="UTF-8"?><svg id="_레이어_6" xmlns="http://www.w3.org/2000/svg" viewBox="0 0 128 128"><defs><style>.cls-1{fill:#fff;}</style></defs><path class="cls-1" d="m60.78,77.73c10.66,0,19.33-8.67,19.33-19.33v-1h-18.33v-18.33h-1c-10.66,0-19.33,8.67-19.33,19.33s8.67,19.33,19.33,19.33Zm-1-36.62v18.3h18.3c-.52,9.09-8.08,16.33-17.3,16.33s-17.33-7.77-17.33-17.33,7.24-16.78,16.33-17.3Zm26.76,10.77c0-10.66-8.67-19.33-19.33-19.33h-1v20.33h20.33v-1Zm-18.33-1v-16.3c8.76.5,15.8,7.54,16.3,16.3h-16.3Zm56.78,37.47V21.73c0-4.43-3.6-8.03-8.03-8.03H11.03c-4.43,0-8.03,3.6-8.03,8.03v.65s0,0,0,0,0,0,0,0v69.94c0,4.43,3.6,8.03,8.03,8.03h45.11l-5.36,11.94h-10.77c-.55,0-1,.45-1,1s.45,1,1,1h47.96c.55,0,1-.45,1-1s-.45-1-1-1h-10.77l-5.36-11.94h45.11c4.43,0,8.03-3.6,8.03-8.03v-3.92s0-.02,0-.03,0-.02,0-.03ZM11.03,15.7h105.93c3.21,0,5.83,2.52,6.01,5.68H5.02c.18-3.16,2.8-5.68,6.01-5.68Zm63.99,96.6h-22.04l5.36-11.94h11.33l5.36,11.94Zm47.98-19.97c0,3.32-2.71,6.03-6.03,6.03H11.03c-3.32,0-6.03-2.7-6.03-6.03v-2.95h117.99v2.95Zm0-4.95H5V23.38h117.99v64Zm-58.99,10c1.88,0,3.41-1.53,3.41-3.41s-1.53-3.41-3.41-3.41-3.41,1.53-3.41,3.41,1.53,3.41,3.41,3.41Zm0-4.81c.78,0,1.41.63,1.41,1.41s-.63,1.41-1.41,1.41-1.41-.63-1.41-1.41.63-1.41,1.41-1.41Z"/></svg>