<?xml version="1.0" encoding="UTF-8"?><svg id="_레이어_4" xmlns="http://www.w3.org/2000/svg" xmlns:xlink="http://www.w3.org/1999/xlink" viewBox="0 0 128 128"><defs><style>.cls-1{fill:url(#_새_그라디언트_견본_1);}</style><linearGradient id="_새_그라디언트_견본_1" x1="35.25" y1="22" x2="94.08" y2="123.89" gradientUnits="userSpaceOnUse"><stop offset="0" stop-color="#00d4ff"/><stop offset="1" stop-color="#0f64ce"/></linearGradient></defs><path class="cls-1" d="m3,108.49c0,3.44,2.8,6.24,6.24,6.24h99.04c3.44,0,6.24-2.8,6.24-6.24v-4.36H3v4.36Zm2-2.36h107.52v2.36c0,2.34-1.9,4.24-4.24,4.24H9.24c-2.34,0-4.24-1.9-4.24-4.24v-2.36ZM119.05,23.72c-4.56-5.76-11.1-9.41-18.4-10.26-13.72-1.6-26.3,7.25-29.77,20.22H16.09c-2.24,0-4.06,1.82-4.06,4.07v57.27c0,2.24,1.82,4.05,4.06,4.05h85.32c2.24,0,4.07-1.82,4.07-4.05v-27.87c3.25-.99,6.33-2.59,9.07-4.76,5.76-4.56,9.41-11.1,10.26-18.4.85-7.3-1.2-14.5-5.76-20.26Zm-15.57,71.3c0,1.13-.93,2.05-2.07,2.05H16.09c-1.13,0-2.06-.92-2.06-2.05v-57.27c0-1.14.92-2.07,2.06-2.07h54.34c-.12.64-.23,1.28-.3,1.94-.14,1.2-.19,2.39-.18,3.57H18.95v50.39h79.61v-23.27c1.67-.06,3.31-.28,4.92-.64v27.34Zm-27.65-37.22l-3.87,12.42,11.36-5.8c3.36,2.02,7.05,3.27,10.97,3.73.76.09,1.51.14,2.27.16v21.27H20.95v-46.39h49.09c.45,5.29,2.42,10.33,5.78,14.61Zm47-14.05c-.79,6.77-4.17,12.83-9.51,17.07-5.35,4.23-12.02,6.13-18.79,5.34-3.82-.44-7.39-1.7-10.63-3.73l-.48-.3-8.13,4.15,2.77-8.9-.34-.42c-4.41-5.4-6.4-12.18-5.6-19.1,1.63-13.98,14.32-24.03,28.3-22.41,6.77.79,12.83,4.17,17.06,9.51s6.13,12.02,5.34,18.79Zm-18.34-7.29c2.85,0,5.16-2.32,5.16-5.16s-2.32-5.16-5.16-5.16-5.16,2.32-5.16,5.16c0,.71.14,1.38.4,2l-5.7,3.73c-.94-.96-2.24-1.55-3.68-1.55-2.85,0-5.16,2.32-5.16,5.16s2.32,5.16,5.16,5.16c1.44,0,2.74-.6,3.68-1.55l5.7,3.73c-.26.61-.4,1.29-.4,2,0,2.85,2.32,5.16,5.16,5.16s5.16-2.32,5.16-5.16-2.32-5.16-5.16-5.16c-1.42,0-2.7.58-3.64,1.51l-5.72-3.75c.24-.6.38-1.25.38-1.93s-.14-1.34-.38-1.93l5.72-3.75c.93.93,2.22,1.51,3.64,1.51Zm0-8.32c1.74,0,3.16,1.42,3.16,3.16s-1.42,3.16-3.16,3.16c-.71,0-1.37-.25-1.9-.65-.54-.41-.94-.98-1.13-1.65-.08-.28-.13-.56-.13-.86,0-1.74,1.42-3.16,3.16-3.16Zm-11.09,13.3c-.18.67-.57,1.25-1.1,1.67-.54.43-1.21.69-1.95.69-1.74,0-3.16-1.42-3.16-3.16s1.42-3.16,3.16-3.16c.74,0,1.41.26,1.95.69.53.42.92,1,1.1,1.67.07.26.12.52.12.8s-.05.54-.12.8Zm8.06,7.68c.19-.67.59-1.24,1.13-1.65.53-.4,1.18-.65,1.9-.65,1.74,0,3.16,1.42,3.16,3.16s-1.42,3.16-3.16,3.16-3.16-1.42-3.16-3.16c0-.3.06-.59.13-.86Z"/></svg>